<svg height="32" viewBox="0 0 96 32" width="96" xmlns="http://www.w3.org/2000/svg" xmlns:xlink="http://www.w3.org/1999/xlink"><linearGradient id="a" x1="87.439168%" x2="7.260246%" y1="50%" y2="50%"><stop offset="0" stop-color="#2c9ee6"/><stop offset="1" stop-color="#42f2f7"/></linearGradient><g fill="none" fill-rule="evenodd" transform="translate(2 2)"><path d="m1.98634873 9.68866038c-.22272783-1.11363912-3.34091737-9.68866038.66818347-9.68866038 4.00910085 0 5.90228736 27.6182503 0 27.6182503-5.90228735 0-1.00227521-16.3704951 5.3454678-16.3704951" fill-rule="nonzero" stroke="#42f2f7" stroke-linecap="round" stroke-linejoin="round" stroke-width="3"/><path d="m20.864 18.16c-.7893373 0-1.5119967-.133332-2.168-.4s-1.183998-.666664-1.584-1.2-.6106666-1.1786629-.632-1.936c0-.0960005.0319997-.1786663.096-.248s.1493328-.104.256-.104h1.552c.2453346 0 .3999997.133332.464.4.0853338.5546694.3119982.965332.68 1.232s.8346638.4 1.4.4c.6613366 0 1.1706649-.2159978 1.528-.648s.536-1.0373294.536-1.816v-5.12h-5.424c-.1066672 0-.197333-.03733296-.272-.112s-.112-.17066608-.112-.288v-1.136c0-.11733392.037333-.21066632.112-.28s.1653328-.104.272-.104h7.344c.1173339 0 .2106663.03733296.28.112s.104.17066608.104.288v6.704c0 .8853378-.1813315 1.6479968-.544 2.288s-.87733 1.1279983-1.544 1.464-1.4479955.504-2.344.504zm9.836 0c-1.258673 0-2.2293299-.3199968-2.912-.96s-1.0506664-1.5253277-1.104-2.656l-.016-.704.016-.704c.0533336-1.1200056.4266632-2.0026634 1.12-2.648.6933368-.64533656 1.6586605-.968 2.896-.968 1.2266728 0 2.1866632.32266344 2.88.968.6933368.6453366 1.0666664 1.5279944 1.12 2.648.0106667.1280006.016.362665.016.704s-.0053333.5759994-.016.704c-.0533336 1.1306723-.4213299 2.0159968-1.104 2.656s-1.6479938.96-2.896.96zm0-1.616c.5653362 0 .9999985-.1759982 1.304-.528s.4666666-.8693299.488-1.552c.0106667-.1066672.016-.3146651.016-.624s-.0053333-.5173328-.016-.624c-.0213334-.6826701-.1866651-1.2026649-.496-1.56s-.7413306-.536-1.296-.536c-.5653362 0-1.0026651.1786649-1.312.536s-.4746666.8773299-.496 1.56l-.016.624.016.624c.0213334.6826701.1866651 1.1999982.496 1.552s.7466638.528 1.312.528zm5.692 1.456c-.1066672 0-.197333-.037333-.272-.112s-.112-.1653328-.112-.272v-10.592c0-.11733392.037333-.21066632.112-.28s.1653328-.104.272-.104h1.456c.1173339 0 .2106663.03466632.28.104s.104.16266608.104.28v3.648c.6400032-.76800384 1.4986613-1.152 2.576-1.152.9813382 0 1.7653304.32266344 2.352.968.5866696.6453366.88 1.5226611.88 2.632v4.496c0 .1066672-.0346663.197333-.104.272s-.1626661.112-.28.112h-1.456c-.1173339 0-.213333-.037333-.288-.112s-.112-.1653328-.112-.272v-4.4c0-.6186698-.1519985-1.1013316-.456-1.448s-.7386638-.52-1.304-.52c-.5440027 0-.9813317.1759982-1.312.528s-.496.831997-.496 1.44v4.4c0 .1066672-.0346663.197333-.104.272s-.1626661.112-.28.112zm9.564 0c-.1066672 0-.197333-.037333-.272-.112s-.112-.1653328-.112-.272v-7.552c0-.11733392.037333-.21066632.112-.28s.1653328-.104.272-.104h1.328c.1173339 0 .2106663.03466632.28.104s.104.16266608.104.28v.656c.6506699-.800004 1.5413277-1.2 2.672-1.2.9813382 0 1.7599971.3199968 2.336.96s.864 1.5199944.864 2.64v4.496c0 .1066672-.0346663.197333-.104.272s-.1626661.112-.28.112h-1.44c-.1066672 0-.197333-.037333-.272-.112s-.112-.1653328-.112-.272v-4.4c0-.6186698-.1519985-1.1013316-.456-1.448s-.7386638-.52-1.304-.52c-.5440027 0-.9813317.1759982-1.312.528s-.496.831997-.496 1.44v4.4c0 .1066672-.0346663.197333-.104.272s-.1626661.112-.28.112zm12.84 0c-.1066672 0-.197333-.037333-.272-.112s-.112-.1653328-.112-.272v-10.416c0-.11733392.0346663-.21333296.104-.288s.1626661-.112.28-.112h7.056c.1173339 0 .213333.03733296.288.112s.112.17066608.112.288v1.072c0 .11733392-.037333.21066632-.112.28s-.1706661.104-.288.104h-5.248v2.8h4.896c.1173339 0 .213333.037333.288.112s.112.1706661.112.288v1.008c0 .1173339-.037333.2106663-.112.28s-.1706661.104-.288.104h-4.896v2.896h5.376c.1173339 0 .213333.0346663.288.104s.112.1626661.112.28v1.088c0 .1173339-.037333.2106663-.112.28s-.1706661.104-.288.104zm12.588 3.52c-.9493381 0-1.7173304-.1573318-2.304-.472s-1.0026654-.6746646-1.248-1.08-.368-.7519986-.368-1.04c0-.1066672.037333-.1946663.112-.264s.1653328-.104.272-.104h1.424c.0960005 0 .1786663.0239998.248.072s.1253331.1359994.168.264c.1173339.2773347.2933322.5146657.528.712s.5973309.296 1.088.296c.6400032 0 1.1093318-.1413319 1.408-.424s.448-.7759965.448-1.48v-1.088c-.5760029.6826701-1.3919947 1.024-2.448 1.024-1.1093389 0-1.9439972-.3359966-2.504-1.008s-.8613331-1.5893275-.904-2.752l-.016-.432.016-.432c.0426669-1.141339.3466638-2.0586632.912-2.752s1.3973278-1.04 2.496-1.04c.5653362 0 1.0613312.1066656 1.488.32s.7786653.5013315 1.056.864v-.624c0-.11733392.0399996-.21333296.12-.288s.1733328-.112.28-.112h1.312c.1066672 0 .197333.03733296.272.112s.112.17066608.112.288l.016 7.712c0 1.1840059-.3306634 2.1013301-.992 2.752s-1.65866.976-2.992.976zm-.064-5.28c.5973363 0 1.0453318-.1919981 1.344-.576s.4639998-.8533306.496-1.408c.0106667-.0853338.016-.2559987.016-.512s-.0053333-.4266662-.016-.512c-.0320002-.5546694-.1973318-1.0239981-.496-1.408s-.7466637-.576-1.344-.576c-1.1520058 0-1.7599997.703993-1.824 2.112l-.016.384c0 1.6640083.6133272 2.496 1.84 2.496zm8.076 1.92c-.5440027 0-1.0426644-.1093322-1.496-.328s-.8106654-.5146648-1.072-.888-.392-.7839978-.392-1.232c0-.725337.2933304-1.3119978.88-1.76s1.3919949-.7519992 2.416-.912l2.192-.32v-.336c0-.458669-.1173322-.8053322-.352-1.04s-.6079974-.352-1.12-.352c-.3520018 0-.6346656.0639994-.848.192s-.386666.258666-.52.392l-.264.264c-.0426669.1280006-.1226661.192-.24.192h-1.248c-.0960005 0-.1786663-.0319997-.248-.096s-.104-.1493328-.104-.256c.0106667-.266668.1413321-.5679983.392-.904s.6373307-.6293321 1.16-.88c.5226693-.25066792 1.1679962-.376 1.936-.376 1.258673 0 2.1759971.28266384 2.752.848.5760029.5653362.864 1.3066621.864 2.224v5.024c0 .1066672-.0346663.197333-.104.272s-.1626661.112-.28.112h-1.328c-.1066672 0-.197333-.037333-.272-.112s-.112-.1653328-.112-.272v-.624c-.2346678.341335-.5653312.6213322-.992.84s-.9599968.328-1.6.328zm.544-1.536c.5866696 0 1.0666648-.1919981 1.44-.576s.56-.938663.56-1.664v-.32l-1.6.256c-1.2266728.192001-1.84.6026635-1.84 1.232 0 .341335.1413319.6053324.424.792s.6213314.28 1.016.28zm6.076 1.376c-.1066672 0-.197333-.037333-.272-.112s-.112-.1653328-.112-.272v-7.552c0-.11733392.037333-.21066632.112-.28s.1653328-.104.272-.104h1.328c.1173339 0 .2106663.03466632.28.104s.104.16266608.104.28v.656c.6506699-.800004 1.5413277-1.2 2.672-1.2.9813382 0 1.7599971.3199968 2.336.96s.864 1.5199944.864 2.64v4.496c0 .1066672-.0346663.197333-.104.272s-.1626661.112-.28.112h-1.44c-.1066672 0-.197333-.037333-.272-.112s-.112-.1653328-.112-.272v-4.4c0-.6186698-.1519985-1.1013316-.456-1.448s-.7386638-.52-1.304-.52c-.5440027 0-.9813317.1759982-1.312.528s-.496.831997-.496 1.44v4.4c0 .1066672-.0346663.197333-.104.272s-.1626661.112-.28.112z" fill="url(#a)"/></g></svg>