<svg height="137" viewBox="0 0 130 137" width="130" xmlns="http://www.w3.org/2000/svg"><g fill="none" fill-rule="evenodd"><g fill="#010914" fill-rule="nonzero" transform=""><path d="m69.1844899 50.9608337-5.3671534 29.3941143h-63.8173365l3.97828472 5.8409865h1.8832117l8.82755488 9.5300306c-1.2005475 1.7972266-1.9538322 3.5471578-1.9538322 3.5471578l4.1666059 6.4794751c.7297446-4.540362 3.531022-8.1348154 4.1666059-8.9151901 2.6600365-3.4052715 5.6731753-5.1079073 6.6147811-5.6045094 7.0149636-3.6653963 13.512044-2.5776013 14.9244527-2.3174764 5.5790147 1.0404996 9.816241 5.2497936 9.816241 5.2497936h7.7917885s-1.1063869-1.2533291-3.5545621-2.8140786l5.9791971-4.1856462-1.294708 6.9997248 13.9122264-.0945909 3.3191606-47.2008464zm-52.2355846 42.0929392c-.5414234.4729544-1.0357664 1.0404996-1.5065693 1.6316926l-7.8624089-8.4658833 4.9434307.0236477 5.4848541 5.9355774c-.4708029.3547158-.8239051.6621361-1.0593066.8749656zm2.0715329-1.6553403-4.8492701-5.1788504 5.5319343.0236477 2.8718979 3.0742034c-1.3653285.6621362-2.5894161 1.4188632-3.5545621 2.0809993zm4.2843066-2.69584-2.259854-2.435715 11.110949.0236477c-4.8021898.7803748-7.8624089 1.9864084-8.851095 2.4120673zm24.0815696-1.3715676s-1.5771898-.5202498-4.5903285-1.0168519l11.2051096.0236477-2.8718978 2.2465333c-1.129927-.4493067-2.3775548-.8749656-3.7428833-1.2533291zm8.0978104 3.3343283c-.9416059-.5438975-2.0479928-1.1114428-3.3191607-1.6553403l3.4133212-2.6721922 6.0733578.0236477z"/><path d="m78.5534681 76.0274155-.8945256 26.9347515h8.6627739l-1.7419709-26.9347515z"/><path d="m94.1135048 49.7548-9.015876-2.6485445 3.7193431 55.4775475h1.5065693l11.4640508-6.7868948z"/><path d="m84.8622273 66.6865666v-1.0168519l-6.4735402 2.270181z"/><path d="m84.979928 70.4465539-6.4264599 2.2938287 6.4264599-1.2769768z"/><path d="m84.650366 61.7441934v-1.0168519l-5.9085767 2.3174764z"/><path d="m78.9771907 57.2274791 5.2259125-1.0168519v-1.0168519z"/><path d="m85.4036507 34.3601352-2.2598541-1.5371017 3.6251825 13.6683814z"/><path d="m86.4864974 9.41179202-2.2833942-1.53710171 7.885949 38.90049719z"/><path d="m76.6937965 42.6604844 4.7551096-18.8472317-2.3304745 1.513454z"/><path d="m78.6005484 1.51345399-7.2032848 45.26173351 9.5102191-46.7751875z"/></g><g transform="translate(21.669909 93.100352)"><path d="m106.204782 20.4573823c.211143-1.4310783.164222-2.7213949-.117302-4.293235-.304984-1.6891417-1.149554-3.3782833-2.416411-4.7155205-1.360697-1.4310783-3.026378-2.39295068-4.8797422-2.79177579-.9149517-.18768241-1.8533638-.28152361-2.7683155-.28152361-1.477999 0-2.9090773.25806331-4.2228541.72726932h-2.3929507l1.1964753-6.56888423h-9.6187233-12.5278007l-1.173015 6.56888423h-2.0645065l-.1642221.86803113c-1.6422211-1.05571353-3.6128863-1.59530045-5.771234-1.59530045-1.0322532 0-2.0645065.1173015-3.0967597.37536481-.6803487.1407618-1.3606975.37536481-2.0175859.68034872l1.5483799-8.5864701h-12.4574198-8.6803113l-.0469206.25806331c-1.0087929-.60996782-2.2052683-.96187234-3.5190451-.96187234h-.0234603-.0234603c-2.9325376.04692061-5.4897104 1.68914166-6.5219636 4.19939385-.0703809.16422211-.1173015.32844422-.1876824.49266632-1.0791739-.89149143-2.3460301-1.57184015-3.659807-1.99412557-1.7126019-.53958692-3.4955848-.79765023-5.302028-.79765023-4.3401556 0-8.23456555 1.57184016-10.95596045 4.43399686-4.17593354 4.34015567-5.41932949 11.12018257-3.0498391 16.49259147.79765022 1.8533638 2.11142707 3.4721245 3.80056873 4.7155205 1.68914166 1.2433959 3.63634663 2.0175859 5.65393252 2.2287286.8445708.0938412 1.6656813.1407618 2.4867919.1407618 2.7448552 0 5.3254883-.5161267 7.648058-1.5249196l-.2111427 1.1495548h12.5278007 4.9266631 12.4339595l.2580633-1.477999c.1407618.0938412.2815236.2111427.4222854.3049839 1.3841578.9149517 3.0263788 1.5014593 4.7859014 1.712602.5161266.0469206 1.0322532.0938412 1.5249195.0938412 2.2521889 0 4.4105366-.6099678 6.2639004-1.6891417l-.1876824 1.0791739h12.5043403 9.6187233l.5161267-2.7917758c1.0557135 1.173015 2.3694903 2.0879667 3.8005687 2.6275536 1.3606974.5161267 2.7917758.77419 4.3166953.77419 3.190601 0 6.2169798-1.1495548 8.3049468-3.1906009.82111-.7976503 1.994125-2.0410462 2.651014-3.6128864l.258063-.6099678h.328444l.187683-1.2433959.445745-1.0791739z" fill="#fff" fill-rule="nonzero"/><g fill="#010914" transform="translate(2.580633 2.580633)"><path d="m94.6153933 13.6304348c-.3519046-.6568884-1.1026342-.9853327-1.8533638-.7976502-.8680311.1876824-1.5483799 1.1495547-1.6656814 1.9706652h3.7301879c.0469206-.3519045-.0469206-.8211105-.2111427-1.173015zm-36.8561327 0c-.3519045-.6568884-1.1026341-.9853327-1.8533637-.7976502-.8680312.1876824-1.5483799 1.1495547-1.6656814 1.9706652h3.7301879c.0703809-.3519045-.0469206-.8211105-.2111428-1.173015zm-.0938412 5.1847265 5.7946943 1.0791738c-1.6187607 3.1906009-5.1847264 5.6539325-9.7829454 5.1143456-2.6744743-.3049839-5.0205044-1.7360623-6.1231385-4.1993939-.4926663-1.0791738-.5865075-1.8064431-.5630472-3.0967597 0-.0234603-.0234603-.1173015-.0234603-.1173015l-1.243396 6.8738682h-7.178852l4.2463144-23.64798327h7.2023124l-2.5102522 13.88849807c.9149517-2.8621567 3.8474893-5.41932947 6.6627254-6.02929729 2.8621567-.70380903 6.0292973-.28152361 8.1172641 1.90028439.7976502.8680311 1.3372372 1.7360622 1.6656814 2.8152361l.0234603.1407618.7976502-4.41053658h2.0645065l1.173015-6.56888423h7.249233l-1.1964754 6.56888423h2.3694904l1.173015-6.56888423h7.2726933l-1.1964753 6.56888423h2.4164109l-.5865075 3.26098178c2.5806331-3.33136268 6.3577416-4.55129832 10.1583103-3.75364809 2.7448552.58650752 4.8562825 3.00291849 5.2785675 5.41932949.281524 1.5014593.258063 2.5337125.093841 3.6363466h-10.4398335c-.0938412.3988251-.0703809.7272694-.0234603 1.008793.1173015.5630472.5395869 1.1260944 1.0557135 1.3137768.77419.2815236 1.6187608.1407618 2.2052683-.3753648.3049839-.2111427.4926663-.5395869.6568884-.8211105l5.7712336 1.0791738c-.422285.9853326-1.1964749 1.9002844-2.064506 2.7448552-2.5102522 2.416411-6.6627255 3.0732994-9.900247 1.8533638-2.2991095-.8680312-4.2463144-3.1436803-4.4339968-5.6773928-.0938412-1.4310784.0469206-2.8386964.469206-4.0820924h-1.6422211l-1.7829828 9.7594852h-7.2257727l1.7595226-9.7594852h-2.3460301l-1.7829829 9.7594852h-7.2257726l1.7595225-9.7594852h-1.6656813c.1876824 1.0791739.1407618 2.0175859 0 2.9794582h-10.4632942c-.1407618.77419.0234603 1.6187608.6568884 2.1114271.5395869.3753648 1.3372372.4926663 1.947205.234603.6334281-.2580633 1.0791738-.7272693 1.3606974-1.2433959z"/><path d="m24.8913792 6.63926514c-1.008793-.93841204-1.2199357-2.651014-.703809-3.91787024.6803487-1.64222106 2.4164109-2.55717279 4.1524732-2.5806331 1.3841578.02346031 2.7683155.58650753 3.4252039 1.90028437.6334281 1.21993565.3988251 2.885617-.4222854 3.94133054-1.173015 1.36069745-2.8621567 1.92374467-4.6216793 1.59530046-.6568884-.16422211-1.2903165-.44574572-1.8299034-.93841203z"/><path d="m11.0263414 8.75069221c.9149517-.49266632 2.2991095-.51612662 3.1906009.0703809.5395869.30498391.9618723.89149143 1.2903165 1.36069749l6.9442491-2.51025223c-.0938412-.35190451-.234603-.68034872-.3988251-.98533263-.9853327-1.87682407-2.9090773-3.35482302-4.832822-3.96479084-4.6685999-1.45453866-10.18177055-.65688843-13.60697447 2.9559979-3.37828332 3.51904513-4.55129836 9.1495173-2.55717279 13.6773554 1.24339594 2.9090773 4.17593355 5.067425 7.34307416 5.4193295 4.363616.469206 8.5630098-.4457457 11.8239916-3.0029185l1.8533638-10.2990721h-10.2990721l-.9149517 4.9970441h2.7683155l-.3988251 1.9706653c-.9384121.2580633-2.181808.3988251-3.0732994-.0234603-1.07917388-.4926664-1.82990351-1.712602-1.92374471-3.2844422-.18768241-2.8386964.96187234-5.37240885 2.79177581-6.38120179z"/><path d="m31.1552795 9.10259672-2.7683155 15.38995738h-7.249233l2.7683155-15.38995738z"/><path d="m41.3370501.82111053-4.2932351 23.64798327-7.1553917.0234603 4.2463144-23.67144357z"/></g><g fill-rule="nonzero"><path d="m57.4073561 21.7711592c.2111427.1407618.4926664.234603.77419.234603.1642221 0 .3284442-.0234603.4457457-.0938412h.0234603c.469206-.1642221.7741899-.5630472.9149517-.8680312l.0234603-.0469206h-2.6040934c.0469206.304984.1642221.5865076.4222854.77419z" fill="#d3d3d3"/><path d="m34.5101025 9.05567612c-.9149517 1.07917388-2.1348874 1.73606228-3.4955848 1.90028438h3.6128863l.5395869-3.04983912c-.1642221.39882511-.3753648.77418993-.6334281 1.12609444z" fill="#d3d3d3"/><path d="m17.548305 13.3019906-.1173015-.1642221c-.2815236-.3753648-.6334281-.8680312-1.0087929-1.0791739l-.0469206-.0234603c-.3049839-.2111427-.7507296-.3284442-1.2199357-.3284442-.4457457 0-.8680311.0938412-1.1964753.2815236-1.5953005.8914915-2.5571728 3.1671406-2.3929507 5.6773928.0703809 1.243396.6568884 2.2756492 1.5014593 2.651014.2815236.1407618.6334281.1876824 1.0791738.1876824.3753648 0 .7507296-.0469206 1.0557135-.1173015l.1173015-.6334281h-2.7683155l1.1730151-6.475043z" fill="#d3d3d3"/><path d="m58.9088154 16.1172267c-.0703809 0-.1642221 0-.234603.0234603h-.0234603c-.2580633.0469206-.4926663.2580633-.703809.4926663h1.7829828c0-.0234603-.0234603-.0703809-.0469206-.0938412-.1642221-.2580633-.4457457-.4222854-.7741899-.4222854z" fill="#d3d3d3"/><path d="m95.764948 16.1172267c-.0703809 0-.1642221 0-.234603.0234603h-.0234603c-.2580633.0469206-.4926663.2580633-.703809.4926663h1.7829828c0-.0234603-.0234603-.0703809-.0469206-.0938412-.1642221-.2580633-.4457457-.4222854-.7741899-.4222854z" fill="#d3d3d3"/><path d="m105.24291 16.3283694c-.281524-1.5953005-1.079174-3.1436803-2.29911-4.3870763-1.196475-1.2433959-2.744855-2.11142705-4.3401556-2.43987126-.8680311-.18768241-1.7360623-.28152361-2.5806331-.28152361-1.9002844 0-3.7067275.44574571-5.3489486 1.31377687l.0938412-.58650755h-1.2199356-1.1964754l.9853327-5.37240889.2111427-1.19647534h-1.2199357-8.3987877-1.2199356-8.7741525-.8445709l-.1407618.82111053-1.0322532 5.7243134h-1.2199356-.8445709l-.1407618.82111055-.1173015.6803487c-1.6656813-1.47799895-3.8474893-2.25218888-6.3577415-2.25218888-.9618723 0-1.947205.11730151-2.9090773.35190452-1.1260944.25806331-2.2756492.75072966-3.354823 1.45453866l1.4779989-8.1641847.2111427-1.19647534h-1.173015-8.7037716-.8445708-7.8357405-.8445709l-.1407618.82111053-.0234603.1173015c-1.0087929-1.03225324-2.4633315-1.64222106-4.1055526-1.66568136h-.0234603-.0234603c-2.6040934.0234603-4.8562823 1.47799895-5.7477737 3.65980693-.234603.58650752-.3753648 1.19647534-.3988251 1.82990347-1.1964754-1.29031655-2.7683155-2.32256979-4.4574572-2.86215671-1.642221-.51612661-3.3313627-.77418992-5.0439647-.77418992-4.1055526 0-7.78881983 1.47799895-10.34599262 4.17593355-.96187234 1.00879293-1.78298287 2.18180797-2.43987129 3.44866425-.63342812 1.2433959-1.07917384 2.5806331-1.33723715 3.9647908-.25806331 1.3841578-.32844421 2.7917758-.1876824 4.1524733.1407618 1.407618.49266631 2.7683155 1.05571353 4.0117114.72726933 1.6891417 1.94720497 3.2140612 3.51904513 4.363616 1.57184015 1.173015 3.37828332 1.876824 5.2316471 2.0879667.7976502.0938412 1.6187607.1407618 2.3929507.1407618 3.2375215 0 6.2169797-.7507296 8.7741525-2.2052682l-.1173015.6334281-.2111427 1.1964753h1.2199356 8.7506922.8445708 6.6392652 1.1964753 8.6803113.8445709l.1407618-.8211105.2580633-1.4310784c1.4779989 1.5249196 3.5190451 2.5102522 5.8650752 2.7917758.469206.0469206.9618723.0938412 1.4310783.0938412 2.8152361 0 5.4427898-1.0087929 7.4603757-2.7448552l-.1642221.9384121-.2111427 1.1964753h1.2199356 8.7272319.8445709.0234603 8.7272319.8445708l.1407618-.8211105.5865075-3.2140612c.2111427.3753648.4457458.7507296.7272694 1.1026341 1.0087929 1.2903166 2.34603 2.2991095 3.8474893 2.8621567 1.2433959.469206 2.6275537.703809 4.0117114.703809 2.9794582 0 5.771234-1.0791738 7.718439-2.9559979 1.219936-1.1964753 2.017586-2.2521888 2.463332-3.3313627l.351904-.8445708.117302-.2815236h.164222l.093841-.6334281.093841-.2346031h-.04692l.093841-.6099678c.234603-1.3841577.211142-2.6040934-.093841-4.1524732zm-.891492 4.0351717-.093841.6334281h-5.2081869l4.8562819.9149518-.351904.8445708c-.398825.938412-1.102634 1.9002844-2.228729 2.9794582-1.7595223 1.6891417-4.3166951 2.651014-7.0146297 2.651014-1.2668562 0-2.5337125-.234603-3.6598069-.6568884-2.6979346-1.008793-4.7155205-3.6128863-4.9266632-6.3108209-.0938412-1.1964754 0-2.3225698.234603-3.4017437h-.0469206l-1.7829828 9.7594852h-8.7272319l1.7595225-9.7594852h-.8445708l-1.7829829 9.7594852h-8.7272319l.8914915-4.8797426c-1.7595226 3.4017436-5.2551074 5.5131707-9.1495174 5.5131707-.4222854 0-.8680311-.0234603-1.3137768-.0703809-2.9559979-.3284442-5.3254883-1.9002844-6.5688842-4.3166953l-.6803488 3.7771084h-8.6803113l1.9237447-10.7448178-1.947205 10.7448178h-8.6803113-8.7506922l.5395869-2.9794582-.0938412.0703809c-2.7448552 2.1348874-6.2169797 3.2844421-10.0879293 3.2844421-.7507297 0-1.5249196-.0469206-2.2756492-.1173015-3.40174363-.3753648-6.59234455-2.7213949-7.92958169-5.8650752-2.08796678-4.7155205-.98533264-10.6509766 2.69793459-14.47500563 2.36949039-2.48679188 5.7946943-3.87094963 9.6187233-3.87094963 1.6187608 0 3.190601.234603 4.7389808.72726932 2.2052683.70380903 4.2228542 2.34603009 5.2551074 4.31669535v.02346031c.1642221.32844421.3284442.70380902.4457457 1.14955478l.1642221.6568884-7.1553917 2.5806331h6.6861857l.4222854-2.3460301h3.7771084c-.1407618-.0234603-.3049839-.0469206-.4457457-.0703809h-.0234603c-.8680311-.1876824-1.5953004-.5630472-2.1818079-1.12609445-1.1730151-1.10263414-1.5483799-3.09675971-.8680312-4.73898077.7272694-1.80644317 2.6275537-3.00291851 4.832822-3.02637881 1.8299035.0234603 3.354823.89149143 4.0820923 2.32256978.2815237.56304722.4222855 1.19647535.4457458 1.82990347l.6099678-3.44866422h8.6803113 8.7037716l-1.9706653 10.9090399c1.3841578-1.477999 3.2375215-2.6275537 5.067425-3.0263788.8914914-.2111427 1.8064432-.3284442 2.6744743-.3284442 2.4867919 0 4.6216793.8445708 6.1231385 2.4398712.3049839.3284443.5865075.6803488.8211105 1.0322533l.4926664-2.7448552h2.0645064l1.1730151-6.56888424h8.7741525l-1.1964754 6.56888424h.8445709l1.173015-6.56888424h8.7741525l-1.1964753 6.56888424h2.3929507l-.3049839 1.7360623c1.9002843-1.5953005 4.2463144-2.4633316 6.7565666-2.4633316.7741899 0 1.5953005.0938412 2.3694904.2580633 2.8856172.6099678 5.3489482 3.1436803 5.8416152 6.0292973.351904 1.407618.375365 2.5337125.187682 3.824029zm-79.7415624-8.1172641v.0469206h-.0938412z" fill="#010914"/><path d="m66.8383971 21.8884607.1642221-.8914915h-4.8562823z" fill="#d3d3d3"/><path d="m93.8646636 21.137731c.0703809.3284443.3284442.6568885.5630472.7507297h.0234603c.1876825.0703809.3753649.0938412.539587.0938412.3519045 0 .6568884-.1173015.9149517-.3284442l.0469206-.0469206c.1876824-.1407618.3284442-.3753648.469206-.6099679h-2.6040934c.0469206.0469206.0469206.0938412.0469206.1407618z" fill="#d3d3d3"/></g></g><g fill-rule="nonzero"><g transform="translate(57.786425 123.598743)"><path d="m59.6671107.38766575-1.678433 2.76211843-.2836788-2.76211843h-20.5194343l-.709197 2.73788932c-.1181995-.2665202-.2600389-.5330404-.4255182-.75110238-1.0165158-1.35683011-2.5531094-1.98678694-4.7989-1.98678694h-4.2551822l-1.3001946 5.01542558-.3545985-5.01542558h-5.0116591l-.2836788.43612396.1181995-.43612396h-10.25971709l-.0709197.2665202c-.61463743-.24229109-1.56023348-.5330404-2.69494874-.55726951-.0472798 0-.09455961 0-.16547931 0-1.13471526 0-2.26943052.38766574-3.12046696 1.04185169-1.04015565.82378971-1.63115319 1.96255783-1.67843299 3.29515884-.0472798 1.332601.59099753 2.51982734 1.9384719 3.53744992.0236399.02422911.0472798.02422911.0472798.04845822-.33095861-.04845822-.82739654-.29074931-1.20563496-.55726951l-1.46567387-1.13876812-1.41839408 5.18502932.94559605.4603531c.16547931.0726873 1.58387338.7511024 3.71146449.7995606h.14183941c1.25291477 0 2.41126993-.3634366 3.30958617-1.0176226.0472798-.0242291.07091971-.0726873.11819951-.0969164 0 0 0 0 .0236399-.0242291s.0709197-.0484583.0945596-.0726874c.23639902-.1938328.75647684-.5814986 1.15835516-.7268732l-.42551822 1.6475794h9.50324033l.9219561-1.5264339h1.1347153l.0945596 1.5264339h9.1722816c1.7020729 0 3.1677468-.4603531 4.3024621-1.332601l-.3545985 1.332601h5.5553767l.6146375-2.3502236c.5909975 1.1872263 1.5602334 1.7444959 1.7493527 1.8414123 1.0165157.5088113 2.1039512.7753315 3.2150265.7753315 1.2765547 0 2.2221507-.3392075 2.5531094-.4845822.3545985-.1453746.6855571-.3392075.9692359-.5330404l-.2600389.7268733h5.5553768l.4255182-1.4295175.1654793 1.4295175h2.7185887l.5437177-.872248-.1891192.872248h5.4844571l1.9384719-12.09032546h-5.2953379z" fill="#010914"/><g fill="#fff" transform="translate(.709197 .726873)"><path d="m36.9728055.31497842-1.4893138 5.62115331c.2127591-1.45374655 0-3.00440953-.6619172-3.87665746-.8983162-1.21145545-2.2221507-1.74449585-4.2788221-1.74449585h-3.7587443l-2.1748709 8.28635531-.5909976-8.28635531h-4.0424231l-6.1227344 9.71587278 1.6311532-6.22688107h2.2221507l.8983163-3.48899171h-8.9358827l-.14183941.5330404c-.14183941-.07268733-1.39475417-.77533149-3.12046696-.82378971-.0472798 0-.0945596 0-.14183941 0-.99287585 0-1.9857517.33920753-2.71858864.92070615-.87467634.67841505-1.37111427 1.67180852-1.41839407 2.81057665-.0472798 1.09030991.52007783 2.08370338 1.67843299 2.98018042.49643792.38766575.63827733.60572773.68555713.70264416.0236399.04845822.0236399.09691644-.0236399.19383288-.0945596.21806198-.37823842.31497841-.82739654.33920752-.0236399 0-.0236399 0-.0472798 0-.54371773 0-1.27655467-.36343663-1.72571279-.70264416l-.70919704-.55726951-1.01651575 3.73128278.47279802.218062c.0472798.0242291 1.44203398.6784151 3.45142558.7268733h.14183941c2.10395121 0 4.27882212-1.1387682 4.39702162-3.68282461.04727981-1.13876812-.47279802-2.10793249-1.67843298-3.12555507-.66191724-.55726951-.75647684-.72687327-.68555714-.94493525.0236399-.04845822.21275911-.2422911.61463743-.2422911.44915813 0 .94559605.2422911 1.39475418.70264417l.75647683.75110238.28367882-1.0660808h2.00939162l-1.91483202 7.31719098h3.82966402.4018783 4.0897029l.9219562-1.52643391h2.1039512l.0945596 1.52643391h3.1913866.8273966 4.538861c1.678433 0 3.0731872-.4603531 4.1369827-1.38105925.8746764-.75110238 1.2765547-1.5991212 1.442034-1.96255784.0236399-.04845822.0236399-.07268733.0472798-.09691643.0709197-.14537466.1418394-.29074931.1891192-.43612397l-1.0165157 3.87665749h4.1606226l2.8131482-10.78195358zm-6.4064132 6.75992144c-.1181995.14537465-.5909976.60572772-1.6075133.60572772l1.0401556-3.94934478h.0236399c.5909976 0 .969236.16960377 1.1347153.50881129.1891192.36343664.4491581 1.64757942-.5909975 2.83480577z"/><path d="m49.5019532 7.26873273c.2600389-.94493525 1.5602334-5.96036084 1.6311531-6.17842282l.2127591-.77533149h-4.2079024l-.1181995.46035307c-.0236399.04845822-1.3947541 5.30617489-1.5838734 6.00881906-.1418394.48458218-.3545985.84801882-.6146374.99339347-.0945596.07268733-.2836788.12114555-.4964379.12114555-.1418394 0-.2836788-.02422911-.3782384-.09691644-.3073187-.16960376-.2836788-.58149862-.2127591-.87224793.1654793-.67841505 1.5602334-5.81498618 1.5602334-5.8634444l.2127591-.7995606h-4.2079024l-.1181995.46035307s-1.3001945 4.96696737-1.3947541 5.3061749c-.8510365 3.22247151 1.3711142 4.45815603 1.6075132 4.57930163.9219562.4603531 1.914832.7026441 2.9313478.7026441 1.1583551 0 2.0093916-.3149784 2.3167103-.4361239 2.1039512-.8237897 2.5767492-2.54405647 2.8604281-3.61013727z"/><path d="m59.3125122.31497842-2.4585498 4.07049033-.4255182-4.07049033h-4.0424231l-3.8533039 10.75772448h4.1369827l1.205635-3.92511572.4491581 3.92511572h1.7966325l2.2694305-3.58590819-.7564768 3.58590819h4.1606226l1.7257128-10.75772448z"/></g><g transform="translate(1.418394 1.211455)"><g fill="#0c2e59"><path d="m7.94300681 3.17401329.59099753-2.25330714s-1.18199506-.70264417-2.86042805-.75110239c-1.67843298-.04845821-3.56962508.99339348-3.66418469 3.12555508-.0472798.87224793.42551823 1.67180853 1.44203398 2.44714002s1.04015565 1.23568456.87467634 1.67180852c-.18911921.41189486-.59099753.67841506-1.37111427.70264417s-1.67843298-.46035307-2.15123101-.82378971l-.63827733 2.32599447s1.30019457.62995679 3.19138666.67841509c1.914832.0484582 3.8060241-.92070618 3.9005837-3.07709689.04727981-.75110238-.21275911-1.57489209-1.46567387-2.59251467-.63827733-.5330404-1.08743546-.94493526-.89831625-1.62335031.21275911-.70264417 1.63115319-1.28414278 3.04954726.16960376z"/><path d="m9.43232059.46035307-.59099753 2.22907804h2.50582954l-1.91483201 7.29296184h2.95498761l1.914832-7.29296184h2.2221508l.5909975-2.22907804z"/><path d="m22.741585.46035307h-3.1441069l-6.0045349 9.54626903h3.0022675l.9219561-1.52643391h3.0259074l.0945596 1.52643391h2.7895083zm-4.066063 6.03304817 1.6311531-2.88326398.1181996 2.88326398z"/><path d="m33.6159395 1.93832873c-.8273965-1.09030991-2.0566714-1.50220477-3.7823842-1.50220477-1.7257127 0-3.2859462 0-3.2859462 0l-2.4821897 9.54626899h4.5861409c3.8060241 0 4.7988999-2.56828557 5.0825787-3.10132597.7091971-1.45374654.7091971-3.82819923-.1181995-4.94273825zm-3.3095861 5.0638838c-.2600389.29074931-.8983163.82378971-2.1039512.82378971h-.7564769l1.3711143-5.18502935h.472798c.6855571 0 1.3474744.19383287 1.678433.84801882s.5200778 2.18061982-.6619172 3.51322082z"/><path d="m36.7127666.46035307h2.8840679l-2.5058295 9.52203988h-2.8840679z"/><path d="m41.0861483.46035307h2.9313478s-1.3947542 5.18502935-1.5602335 5.86344441c-.1654793.67841505-.0236399 1.28414278.4964379 1.57489209s1.1347153.16960376 1.5129537-.04845822.6855571-.65418595.8746763-1.38105922 1.5838734-6.03304817 1.5838734-6.03304817h2.9313478s-1.3474744 5.20925846-1.6311532 6.17842282c-.2836788.96916437-.6619172 2.47136913-2.4821896 3.24670062-.6382774.2665202-2.6003892.8237897-4.7279803-.24229109-.5200778-.2665202-1.9621118-1.38105922-1.3001946-3.85242834.0472799-.36343664 1.3711143-5.3061749 1.3711143-5.3061749z"/><path d="m52.1023423.46035307h3.0495472l.5673577 5.3061749 3.2386664-5.3061749h3.120467l-1.5129537 9.49781077h-2.8840679l1.3001945-6.17842282-3.9005837 6.17842282h-.9219561l-.709197-6.29956837-1.9384719 6.29956837h-2.8131483z"/></g><g fill="#010914"><path d="m7.94300681 3.17401329.59099753-2.25330714s-1.18199506-.70264417-2.86042805-.75110239c-1.67843298-.04845821-3.56962508.99339348-3.66418469 3.12555508-.0472798.87224793.42551823 1.67180853 1.44203398 2.44714002s1.04015565 1.23568456.87467634 1.67180852c-.18911921.41189486-.59099753.67841506-1.37111427.70264417s-1.67843298-.46035307-2.15123101-.82378971l-.63827733 2.32599447s1.30019457.62995679 3.19138666.67841509c1.914832.0484582 3.8060241-.92070618 3.9005837-3.07709689.04727981-.75110238-.21275911-1.57489209-1.46567387-2.59251467-.63827733-.5330404-1.08743546-.94493526-.89831625-1.62335031.21275911-.70264417 1.63115319-1.28414278 3.04954726.16960376z"/><path d="m9.43232059.46035307-.59099753 2.22907804h2.50582954l-1.91483201 7.29296184h2.95498761l1.914832-7.29296184h2.2221508l.5909975-2.22907804z"/><path d="m22.741585.46035307h-3.1441069l-6.0045349 9.54626903h3.0022675l.9219561-1.52643391h3.0259074l.0945596 1.52643391h2.7895083zm-4.066063 6.03304817 1.6311531-2.88326398.1181996 2.88326398z"/><path d="m33.6159395 1.93832873c-.8273965-1.09030991-2.0566714-1.50220477-3.7823842-1.50220477-1.7257127 0-3.2859462 0-3.2859462 0l-2.4821897 9.54626899h4.5861409c3.8060241 0 4.7988999-2.56828557 5.0825787-3.10132597.7091971-1.45374654.7091971-3.82819923-.1181995-4.94273825zm-3.3095861 5.0638838c-.2600389.29074931-.8983163.82378971-2.1039512.82378971h-.7564769l1.3711143-5.18502935h.472798c.6855571 0 1.3474744.19383287 1.678433.84801882s.5200778 2.18061982-.6619172 3.51322082z"/><path d="m36.7127666.46035307h2.8840679l-2.5058295 9.52203988h-2.8840679z"/><path d="m41.0861483.46035307h2.9313478s-1.3947542 5.18502935-1.5602335 5.86344441c-.1654793.67841505-.0236399 1.28414278.4964379 1.57489209s1.1347153.16960376 1.5129537-.04845822.6855571-.65418595.8746763-1.38105922 1.5838734-6.03304817 1.5838734-6.03304817h2.9313478s-1.3474744 5.20925846-1.6311532 6.17842282c-.2836788.96916437-.6619172 2.47136913-2.4821896 3.24670062-.6382774.2665202-2.6003892.8237897-4.7279803-.24229109-.5200778-.2665202-1.9621118-1.38105922-1.3001946-3.85242834.0472799-.36343664 1.3711143-5.3061749 1.3711143-5.3061749z"/><path d="m52.1023423.46035307h3.0495472l.5673577 5.3061749 3.2386664-5.3061749h3.120467l-1.5129537 9.49781077h-2.8840679l1.3001945-6.17842282-3.9005837 6.17842282h-.9219561l-.709197-6.29956837-1.9384719 6.29956837h-2.8131483z"/></g></g></g><g fill="#010914" transform="translate(124.401332 124.401332)"><path d="m1.88243658.14446606h-1.88243658v.45747587h.70044152v1.80582579h.50344234v-1.80582579h.67855272z"/><path d="m4.53098107.14446606-.39399836.40932051-.61288632.69825264-.8755519-.93902941-.15322158-.16854374h-.30644317v2.26330166h.45966475v-1.17980618l.65666392.69825263h.17511038l.65666392-.69825263v1.17980618h.56910874v-2.26330166z"/></g></g></g></svg>