<?xml version="1.0" encoding="UTF-8"?>
<svg width="130px" height="137px" viewBox="0 0 130 137" version="1.1" xmlns="http://www.w3.org/2000/svg" xmlns:xlink="http://www.w3.org/1999/xlink">
    <!-- Generator: Sketch 48.2 (47327) - http://www.bohemiancoding.com/sketch -->
    <title>130x137-gillette-logo</title>
    <desc>Created with Sketch.</desc>
    <defs></defs>
    <g id="Artboard" stroke="none" stroke-width="1" fill="none" fill-rule="evenodd" transform="translate(-655.000000, -2527.000000)">
        <g id="130x137-gillette-logo" transform="translate(655.000000, 2527.000000)">
            <g id="Group" fill="#0C2340" fill-rule="nonzero">
                <path d="M69.1844899,50.9608337 L63.8173365,80.354948 L0,80.354948 L3.97828472,86.1959345 L5.86149642,86.1959345 L14.6890513,95.7259651 C13.4885038,97.5231917 12.7352191,99.2731229 12.7352191,99.2731229 L16.901825,105.752598 C17.6315696,101.212236 20.432847,97.6177826 21.0684309,96.8374079 C23.7284674,93.4321364 26.7416062,91.7295006 27.683212,91.2328985 C34.6981756,87.5675022 41.195256,88.6552972 42.6076647,88.9154221 C48.1866794,89.9559217 52.4239057,94.1652157 52.4239057,94.1652157 L60.2156942,94.1652157 C60.2156942,94.1652157 59.1093073,92.9118866 56.6611321,91.3511371 L62.6403292,87.1654909 L61.3456212,94.1652157 L75.2578476,94.0706248 L78.5770082,46.8697784 L69.1844899,50.9608337 Z M16.9489053,93.0537729 C16.4074819,93.5267273 15.9131389,94.0942725 15.442336,94.6854655 L7.5799271,86.2195822 L12.5233578,86.2432299 L18.0082119,92.1788073 C17.537409,92.5335231 17.1843068,92.8409434 16.9489053,93.0537729 Z M19.0204382,91.3984326 L14.1711681,86.2195822 L19.7031024,86.2432299 L22.5750003,89.3174333 C21.2096718,89.9795695 19.9855842,90.7362965 19.0204382,91.3984326 Z M23.3047448,88.7025926 L21.0448908,86.2668776 L32.1558398,86.2905253 C27.35365,87.0709001 24.2934309,88.2769337 23.3047448,88.7025926 Z M47.3863144,87.331025 C47.3863144,87.331025 45.8091246,86.8107752 42.7959859,86.3141731 L54.0010955,86.3378208 L51.1291977,88.5843541 C49.9992707,88.1350474 48.7516429,87.7093885 47.3863144,87.331025 Z M55.4841248,90.6653533 C54.5425189,90.1214558 53.436132,89.5539105 52.1649641,89.010013 L55.5782853,86.3378208 L61.6516431,86.3614685 L55.4841248,90.6653533 Z" id="Shape"></path>
                <polygon id="Shape" points="78.5534681 76.0274155 77.6589425 102.962167 86.3217164 102.962167 84.5797455 76.0274155"></polygon>
                <polygon id="Shape" points="94.1135048 49.7548 85.0976288 47.1062555 88.8169719 102.583803 90.3235412 102.583803 101.787592 95.7969082"></polygon>
                <polygon id="Shape" points="84.8622273 66.6865666 84.8622273 65.6697147 78.3886871 67.9398957"></polygon>
                <polygon id="Shape" points="84.979928 70.4465539 78.5534681 72.7403826 84.979928 71.4634058"></polygon>
                <polygon id="Shape" points="84.650366 61.7441934 84.650366 60.7273415 78.7417893 63.0448179"></polygon>
                <polygon id="Shape" points="78.9771907 57.2274791 84.2031032 56.2106272 84.2031032 55.1937753"></polygon>
                <polygon id="Shape" points="85.4036507 34.3601352 83.1437966 32.8230335 86.7689791 46.4914149"></polygon>
                <polygon id="Shape" points="86.4864974 9.41179202 84.2031032 7.87469031 92.0890522 46.7751875"></polygon>
                <polygon id="Shape" points="76.6937965 42.6604844 81.4489061 23.8132527 79.1184316 25.3267067"></polygon>
                <polygon id="Shape" points="78.6005484 1.51345399 71.3972636 46.7751875 80.9074827 0"></polygon>
            </g>
            <g id="Group" transform="translate(21.669909, 93.100352)">
                <path d="M106.204782,20.4573823 C106.415925,19.026304 106.369004,17.7359874 106.08748,16.1641473 C105.782496,14.4750056 104.937926,12.785864 103.671069,11.4486268 C102.310372,10.0175485 100.644691,9.05567612 98.7913268,8.65685101 C97.8763751,8.4691686 96.937963,8.3753274 96.0230113,8.3753274 C94.5450123,8.3753274 93.113934,8.63339071 91.8001572,9.10259672 L89.4072065,9.10259672 L90.6036818,2.53371249 L80.9849585,2.53371249 L68.4571578,2.53371249 L67.2841428,9.10259672 L65.2196363,9.10259672 L65.0554142,9.97062785 C63.4131931,8.91491432 61.4425279,8.3753274 59.2841802,8.3753274 C58.251927,8.3753274 57.2196737,8.4926289 56.1874205,8.75069221 C55.5070718,8.89145401 54.826723,9.12605702 54.1698346,9.43104093 L55.7182145,0.84457083 L43.2607947,0.84457083 L34.5804834,0.84457083 L34.5335628,1.10263414 C33.5247699,0.492666317 32.3282945,0.140761805 31.0145177,0.140761805 L30.9910574,0.140761805 L30.9675971,0.140761805 C28.0350595,0.187682407 25.4778867,1.82990346 24.4456335,4.34015565 C24.3752526,4.50437776 24.328332,4.66859987 24.2579511,4.83282197 C23.1787772,3.94133054 21.911921,3.26098182 20.5981441,2.8386964 C18.8855422,2.29910948 17.1025593,2.04104617 15.2961161,2.04104617 C10.9559605,2.04104617 7.06155055,3.61288633 4.34015565,6.47504303 C0.164222106,10.8151987 -1.07917384,17.5952256 1.29031655,22.9676345 C2.08796677,24.8209983 3.40174362,26.439759 5.09088528,27.683155 C6.78002694,28.9265509 8.72723191,29.7007409 10.7448178,29.9118836 C11.5893886,30.0057248 12.4104991,30.0526454 13.2316097,30.0526454 C15.9764649,30.0526454 18.557098,29.5365187 20.8796677,28.5277258 L20.668525,29.6772806 L33.1963257,29.6772806 L38.1229888,29.6772806 L50.5569483,29.6772806 L50.8150116,28.1992816 C50.9557734,28.2931228 51.0965352,28.4104243 51.237297,28.5042655 C52.6214548,29.4192172 54.2636758,30.0057248 56.0231984,30.2168675 C56.539325,30.2637881 57.0554516,30.3107087 57.5481179,30.3107087 C59.8003068,30.3107087 61.9586545,29.7007409 63.8120183,28.621567 L63.6243359,29.7007409 L76.1286762,29.7007409 L85.7473995,29.7007409 L86.2635262,26.9089651 C87.3192397,28.0819801 88.6330165,28.9969318 90.0640949,29.5365187 C91.4247923,30.0526454 92.8558707,30.3107087 94.3807902,30.3107087 C97.5713912,30.3107087 100.59777,29.1611539 102.685737,27.1201078 C103.506847,26.3224575 104.679862,25.0790616 105.336751,23.5072214 L105.594814,22.8972536 L105.923258,22.8972536 L106.110941,21.6538577 L106.556686,20.5746838 L106.204782,20.4573823 Z" id="Shape" fill="#FFFFFF" fill-rule="nonzero"></path>
                <g transform="translate(2.580633, 2.580633)" fill="#0C2340" id="Shape">
                    <path d="M94.6153933,13.6304348 C94.2634887,12.9735464 93.5127591,12.6451021 92.7620295,12.8327846 C91.8939984,13.020467 91.2136496,13.9823393 91.0963481,14.8034498 L94.826536,14.8034498 C94.8734566,14.4515453 94.7796154,13.9823393 94.6153933,13.6304348 Z M57.7592606,13.6304348 C57.4073561,12.9735464 56.6566265,12.6451021 55.9058969,12.8327846 C55.0378657,13.020467 54.357517,13.9823393 54.2402155,14.8034498 L57.9704034,14.8034498 C58.0407843,14.4515453 57.9234828,13.9823393 57.7592606,13.6304348 Z M57.6654194,18.8151613 L63.4601137,19.8943351 C61.841353,23.084936 58.2753873,25.5482676 53.6771683,25.0086807 C51.002694,24.7036968 48.6566639,23.2726184 47.5540298,20.8092868 C47.0613635,19.730113 46.9675223,19.0028437 46.9909826,17.7125271 C46.9909826,17.6890668 46.9675223,17.5952256 46.9675223,17.5952256 L45.7241263,24.4690938 L38.5452743,24.4690938 L42.7915887,0.821110529 L49.9939011,0.821110529 L47.4836489,14.7096086 C48.3986006,11.8474519 51.3311382,9.29027913 54.1463743,8.68031131 C57.008531,7.97650228 60.1756716,8.3987877 62.2636384,10.5805957 C63.0612886,11.4486268 63.6008756,12.3166579 63.9293198,13.3958318 L63.9527801,13.5365936 L64.7504303,9.12605702 L66.8149368,9.12605702 L67.9879518,2.55717279 L75.2371848,2.55717279 L74.0407094,9.12605702 L76.4101998,9.12605702 L77.5832148,2.55717279 L84.8559081,2.55717279 L83.6594328,9.12605702 L86.0758437,9.12605702 L85.4893362,12.3870388 C88.0699693,9.05567612 91.8470778,7.83574048 95.6476465,8.63339071 C98.3925017,9.21989823 100.503929,11.6363092 100.926214,14.0527202 C101.207738,15.5541795 101.184277,16.5864327 101.020055,17.6890668 L90.5802215,17.6890668 C90.4863803,18.0878919 90.5098406,18.4163362 90.5567612,18.6978598 C90.6740627,19.260907 91.0963481,19.8239542 91.6124747,20.0116366 C92.3866647,20.2931602 93.2312355,20.1523984 93.817743,19.6362718 C94.1227269,19.4251291 94.3104093,19.0966849 94.4746314,18.8151613 L100.245865,19.8943351 C99.82358,20.8796677 99.0493901,21.7946195 98.181359,22.6391903 C95.6711068,25.0556013 91.5186335,25.7124897 88.281112,24.4925541 C85.9820025,23.6245229 84.0347976,21.3488738 83.8471152,18.8151613 C83.753274,17.3840829 83.8940358,15.9764649 84.3163212,14.7330689 L82.6741001,14.7330689 L80.8911173,24.4925541 L73.6653446,24.4925541 L75.4248672,14.7330689 L73.0788371,14.7330689 L71.2958542,24.4925541 L64.0700816,24.4925541 L65.8296041,14.7330689 L64.1639228,14.7330689 C64.3516052,15.8122428 64.3046846,16.7506548 64.1639228,17.7125271 L53.7006286,17.7125271 C53.5598668,18.4867171 53.7240889,19.3312879 54.357517,19.8239542 C54.8971039,20.199319 55.6947542,20.3166205 56.304722,20.0585572 C56.9381501,19.8004939 57.3838958,19.3312879 57.6654194,18.8151613 Z"></path>
                    <path d="M24.8913792,6.63926514 C23.8825862,5.7008531 23.6714435,3.98825114 24.1875702,2.7213949 C24.8679189,1.07917384 26.6039811,0.164222106 28.3400434,0.140761805 C29.7242012,0.164222106 31.1083589,0.727269326 31.7652473,2.04104617 C32.3986754,3.26098182 32.1640724,4.92666317 31.3429619,5.98237671 C30.1699469,7.34307416 28.4808052,7.90612138 26.7212826,7.57767717 C26.0643942,7.41345506 25.4309661,7.13193145 24.8913792,6.63926514 Z"></path>
                    <path d="M11.0263414,8.75069221 C11.9412931,8.25802589 13.3254509,8.23456559 14.2169423,8.82107311 C14.7565292,9.12605702 15.1788146,9.71256454 15.5072588,10.1817706 L22.4515079,7.67151837 C22.3576667,7.31961386 22.2169049,6.99116965 22.0526828,6.68618574 C21.0673501,4.80936167 19.1436055,3.33136272 17.2198608,2.7213949 C12.5512609,1.26685624 7.03809025,2.06450647 3.61288633,5.6773928 C0.234603008,9.19643793 -0.938412033,14.8269101 1.05571354,19.3547482 C2.29910948,22.2638255 5.23164709,24.4221732 8.3987877,24.7740777 C12.7624037,25.2432837 16.9617975,24.328332 20.2227793,21.7711592 L22.0761431,11.4720871 L11.777071,11.4720871 L10.8621193,16.4691312 L13.6304348,16.4691312 L13.2316097,18.4397965 C12.2931976,18.6978598 11.0498017,18.8386216 10.1583103,18.4163362 C9.07913642,17.9236698 8.32840679,16.7037342 8.23456559,15.131894 C8.04688318,12.2931976 9.19643793,9.75948515 11.0263414,8.75069221 Z"></path>
                    <polygon points="31.1552795 9.10259672 28.386964 24.4925541 21.137731 24.4925541 23.9060465 9.10259672"></polygon>
                    <polygon points="41.3370501 0.821110529 37.043815 24.4690938 29.8884233 24.4925541 34.1347377 0.821110529"></polygon>
                </g>
                <path d="M57.4073561,21.7711592 C57.6184988,21.911921 57.9000225,22.0057622 58.1815461,22.0057622 C58.3457682,22.0057622 58.5099903,21.9823019 58.6272918,21.911921 L58.6507521,21.911921 C59.1199581,21.7476989 59.424942,21.3488738 59.5657038,21.0438898 L59.5891641,20.9969692 L56.9850707,20.9969692 C57.0319913,21.3019532 57.1492928,21.5834768 57.4073561,21.7711592 Z" id="Shape" fill="#0C2340" fill-rule="nonzero"></path>
                <path d="M34.5101025,9.05567612 C33.5951508,10.13485 32.3752151,10.7917384 31.0145177,10.9559605 L34.627404,10.9559605 L35.1669909,7.90612138 C35.0027688,8.30494649 34.7916261,8.68031131 34.5335628,9.03221582 L34.5101025,9.05567612 Z" id="Shape" fill="#0C2340" fill-rule="nonzero"></path>
                <path d="M17.548305,13.3019906 L17.4310035,13.1377685 C17.1494799,12.7624037 16.7975754,12.2697373 16.4222106,12.0585946 L16.37529,12.0351343 C16.0703061,11.8239916 15.6245604,11.7066901 15.1553543,11.7066901 C14.7096086,11.7066901 14.2873232,11.8005313 13.958879,11.9882137 C12.3635785,12.8797052 11.4017062,15.1553543 11.5659283,17.6656065 C11.6363092,18.9090025 12.2228167,19.9412557 13.0673876,20.3166205 C13.3489112,20.4573823 13.7008157,20.5043029 14.1465614,20.5043029 C14.5219262,20.5043029 14.897291,20.4573823 15.2022749,20.3870014 L15.3195764,19.7535733 L12.5512609,19.7535733 L13.724276,13.2785303 L17.548305,13.3019906 Z" id="Shape" fill="#0C2340" fill-rule="nonzero"></path>
                <path d="M58.9088154,16.1172267 C58.8384345,16.1172267 58.7445933,16.1172267 58.6742124,16.140687 L58.6507521,16.140687 C58.3926888,16.1876076 58.1580858,16.3987503 57.9469431,16.6333533 L59.7299259,16.6333533 C59.7299259,16.609893 59.7064656,16.5629724 59.6830053,16.5395121 C59.5187832,16.2814488 59.2372596,16.1172267 58.9088154,16.1172267 Z" id="Shape" fill="#0C2340" fill-rule="nonzero"></path>
                <path d="M95.764948,16.1172267 C95.6945671,16.1172267 95.6007259,16.1172267 95.530345,16.140687 L95.5068847,16.140687 C95.2488214,16.1876076 95.0142184,16.3987503 94.8030757,16.6333533 L96.5860585,16.6333533 C96.5860585,16.609893 96.5625982,16.5629724 96.5391379,16.5395121 C96.3749158,16.2814488 96.0933922,16.1172267 95.764948,16.1172267 Z" id="Shape" fill="#0C2340" fill-rule="nonzero"></path>
                <path d="M105.24291,16.3283694 C104.961386,14.7330689 104.163736,13.1846891 102.9438,11.9412931 C101.747325,10.6978972 100.198945,9.82986605 98.6036444,9.50142184 C97.7356133,9.31373943 96.8675821,9.21989823 96.0230113,9.21989823 C94.1227269,9.21989823 92.3162838,9.66564394 90.6740627,10.5336751 L90.7679039,9.94716755 L89.5479683,9.94716755 L88.3514929,9.94716755 L89.3368256,4.57475866 L89.5479683,3.37828332 L88.3280326,3.37828332 L79.9292449,3.37828332 L78.7093093,3.37828332 L69.9351568,3.37828332 L69.0905859,3.37828332 L68.9498241,4.19939385 L67.9175709,9.92370725 L66.6976353,9.92370725 L65.8530644,9.92370725 L65.7123026,10.7448178 L65.5950011,11.4251665 C63.9293198,9.94716755 61.7475118,9.17297762 59.2372596,9.17297762 C58.2753873,9.17297762 57.2900546,9.29027913 56.3281823,9.52488214 C55.2020879,9.78294545 54.0525331,10.2756118 52.9733593,10.9794208 L54.4513582,2.8152361 L54.6625009,1.61876076 L53.4894859,1.61876076 L44.7857143,1.61876076 L43.9411435,1.61876076 L36.105403,1.61876076 L35.2608321,1.61876076 L35.1200703,2.43987129 L35.09661,2.55717279 C34.0878171,1.52491955 32.6332785,0.914951732 30.9910574,0.891491432 L30.9675971,0.891491432 L30.9441368,0.891491432 C28.3400434,0.914951732 26.0878545,2.36949038 25.1963631,4.55129836 C24.9617601,5.13780588 24.8209983,5.7477737 24.797538,6.38120183 C23.6010626,5.09088528 22.0292225,4.05863204 20.3400808,3.51904512 C18.6978598,3.00291851 17.0087181,2.7448552 15.2961161,2.7448552 C11.1905635,2.7448552 7.50729627,4.22285415 4.95012348,6.92078875 C3.98825114,7.92958168 3.16714061,9.10259672 2.51025219,10.369453 C1.87682407,11.6128489 1.43107835,12.9500861 1.17301504,14.3342438 C0.914951732,15.7184016 0.84457083,17.1260196 0.985332635,18.4867171 C1.12609444,19.8943351 1.47799895,21.2550326 2.04104617,22.4984285 C2.7683155,24.1875702 3.98825114,25.7124897 5.5600913,26.8620445 C7.13193145,28.0350595 8.93837462,28.7388685 10.7917384,28.9500112 C11.5893886,29.0438524 12.4104991,29.090773 13.1846891,29.090773 C16.4222106,29.090773 19.4016688,28.3400434 21.9588416,26.8855048 L21.8415401,27.5189329 L21.6303974,28.7154082 L22.850333,28.7154082 L31.6010252,28.7154082 L32.445596,28.7154082 L39.0848612,28.7154082 L40.2813365,28.7154082 L48.9616478,28.7154082 L49.8062187,28.7154082 L49.9469805,27.8942977 L50.2050438,26.4632193 C51.6830427,27.9881389 53.7240889,28.9734715 56.070119,29.2549951 C56.539325,29.3019157 57.0319913,29.3488363 57.5011973,29.3488363 C60.3164334,29.3488363 62.9439871,28.3400434 64.961573,26.6039811 L64.7973509,27.5423932 L64.5862082,28.7388685 L65.8061438,28.7388685 L74.5333757,28.7388685 L75.3779466,28.7388685 L75.4014069,28.7388685 L84.1286388,28.7388685 L84.9732096,28.7388685 L85.1139714,27.917758 L85.7004789,24.7036968 C85.9116216,25.0790616 86.1462247,25.4544264 86.4277483,25.8063309 C87.4365412,27.0966475 88.7737783,28.1054404 90.2752376,28.6684876 C91.5186335,29.1376936 92.9027913,29.3722966 94.286949,29.3722966 C97.2664072,29.3722966 100.058183,28.2931228 102.005388,26.4162987 C103.225324,25.2198234 104.022974,24.1641099 104.46872,23.084936 L104.820624,22.2403652 L104.937926,21.9588416 L105.102148,21.9588416 L105.195989,21.3254135 L105.28983,21.0908104 L105.24291,21.0908104 L105.336751,20.4808426 C105.571354,19.0966849 105.547893,17.8767492 105.24291,16.3283694 Z M104.351418,20.3635411 L104.257577,20.9969692 L99.0493901,20.9969692 L103.905672,21.911921 L103.553768,22.7564918 C103.154943,23.6949038 102.451134,24.6567762 101.325039,25.73595 C99.5655167,27.4250917 97.0083439,28.386964 94.3104093,28.386964 C93.0435531,28.386964 91.7766968,28.152361 90.6506024,27.7300756 C87.9526678,26.7212826 85.9350819,24.1171893 85.7239392,21.4192547 C85.630098,20.2227793 85.7239392,19.0966849 85.9585422,18.017511 L85.9116216,18.017511 L84.1286388,27.7769962 L75.4014069,27.7769962 L77.1609294,18.017511 L76.3163586,18.017511 L74.5333757,27.7769962 L65.8061438,27.7769962 L66.6976353,22.8972536 C64.9381127,26.2989972 61.4425279,28.4104243 57.5481179,28.4104243 C57.1258325,28.4104243 56.6800868,28.386964 56.2343411,28.3400434 C53.2783432,28.0115992 50.9088528,26.439759 49.6654569,24.0233481 L48.9851081,27.8004565 L40.3047968,27.8004565 L42.2285415,17.0556387 L40.2813365,27.8004565 L31.6010252,27.8004565 L22.850333,27.8004565 L23.3899199,24.8209983 L23.2960787,24.8913792 C20.5512235,27.0262666 17.079099,28.1758213 13.2081494,28.1758213 C12.4574197,28.1758213 11.6832298,28.1289007 10.9325002,28.0585198 C7.53075657,27.683155 4.34015565,25.3371249 3.00291851,22.1934446 C0.914951732,17.4779241 2.01758587,11.542468 5.7008531,7.71843897 C8.07034349,5.23164709 11.4955474,3.84748934 15.3195764,3.84748934 C16.9383372,3.84748934 18.5101774,4.08209234 20.0585572,4.57475866 C22.2638255,5.27856769 24.2814114,6.92078875 25.3136646,8.89145401 L25.3136646,8.91491432 C25.4778867,9.24335853 25.6421088,9.61872334 25.7594103,10.0644691 L25.9236324,10.7213575 L18.7682407,13.3019906 L25.4544264,13.3019906 L25.8767118,10.9559605 L29.6538202,10.9559605 C29.5130584,10.9325002 29.3488363,10.9090399 29.2080745,10.8855796 L29.1846142,10.8855796 C28.3165831,10.6978972 27.5893138,10.3225324 27.0028063,9.75948515 C25.8297912,8.65685101 25.4544264,6.66272544 26.1347751,5.02050438 C26.8620445,3.21406121 28.7623288,2.01758587 30.9675971,1.99412557 C32.7975006,2.01758587 34.3224201,2.885617 35.0496894,4.31669535 C35.3312131,4.87974257 35.4719749,5.5131707 35.4954352,6.14659882 L36.105403,2.6979346 L44.7857143,2.6979346 L53.4894859,2.6979346 L51.5188206,13.6069745 C52.9029784,12.1289755 54.7563421,10.9794208 56.5862456,10.5805957 C57.477737,10.369453 58.3926888,10.2521515 59.2607199,10.2521515 C61.7475118,10.2521515 63.8823992,11.0967223 65.3838584,12.6920227 C65.6888423,13.020467 65.9703659,13.3723715 66.2049689,13.724276 L66.6976353,10.9794208 L68.7621417,10.9794208 L69.9351568,4.41053656 L78.7093093,4.41053656 L77.5128339,10.9794208 L78.3574048,10.9794208 L79.5304198,4.41053656 L88.3045723,4.41053656 L87.108097,10.9794208 L89.5010477,10.9794208 L89.1960638,12.7154831 C91.0963481,11.1201826 93.4423782,10.2521515 95.9526304,10.2521515 C96.7268203,10.2521515 97.5479309,10.3459927 98.3221208,10.5102148 C101.207738,11.1201826 103.671069,13.6538951 104.163736,16.5395121 C104.51564,17.9471301 104.539101,19.0732246 104.351418,20.3635411 Z M24.6098556,12.246277 L24.6098556,12.2931976 L24.5160144,12.2931976 L24.6098556,12.246277 Z" id="Shape" fill="#0C2340" fill-rule="nonzero"></path>
                <polygon id="Shape" fill="#0C2340" fill-rule="nonzero" points="66.8383971 21.8884607 67.0026192 20.9969692 62.1463369 20.9969692"></polygon>
                <path d="M93.8646636,21.137731 C93.9350445,21.4661753 94.1931078,21.7946195 94.4277108,21.8884607 L94.4511711,21.8884607 C94.6388536,21.9588416 94.826536,21.9823019 94.9907581,21.9823019 C95.3426626,21.9823019 95.6476465,21.8650004 95.9057098,21.6538577 L95.9526304,21.6069371 C96.1403128,21.4661753 96.2810746,21.2315723 96.4218364,20.9969692 L93.817743,20.9969692 C93.8646636,21.0438898 93.8646636,21.0908104 93.8646636,21.137731 Z" id="Shape" fill="#0C2340" fill-rule="nonzero"></path>
            </g>
            <g id="Group" transform="translate(57.786425, 123.598743)" fill-rule="nonzero">
                <path d="M59.6671107,0.387665746 L57.9886777,3.14978418 L57.7049989,0.387665746 L37.1855646,0.387665746 L36.4763676,3.12555507 C36.3581681,2.85903487 36.2163287,2.59251467 36.0508494,2.37445269 C35.0343336,1.01762258 33.49774,0.387665746 31.2519494,0.387665746 L26.9967672,0.387665746 L25.6965726,5.40309133 L25.3419741,0.387665746 L20.330315,0.387665746 L20.0466362,0.823789709 L20.1648357,0.387665746 L9.90511861,0.387665746 L9.83419891,0.654185946 C9.21956148,0.411894855 8.27396543,0.121145546 7.13925017,0.0969164364 C7.09197037,0.0969164364 7.04469056,0.0969164364 6.97377086,0.0969164364 C5.8390556,0.0969164364 4.70434034,0.484582182 3.8533039,1.13876813 C2.81314825,1.96255784 2.22215071,3.10132596 2.17487091,4.43392697 C2.12759111,5.76652797 2.76586844,6.95375431 4.11334281,7.97137689 C4.13698271,7.995606 4.16062261,7.995606 4.16062261,8.01983511 C3.829664,7.97137689 3.33322607,7.7290858 2.95498765,7.4625656 L1.48931378,6.32379748 L0.0709197037,11.5088268 L1.01651575,11.9691799 C1.18199506,12.0418672 2.60038913,12.7202823 4.72798024,12.7687405 C4.77526005,12.7687405 4.82253985,12.7687405 4.86981965,12.7687405 C6.12273442,12.7687405 7.28108958,12.4053039 8.17940582,11.7511179 C8.22668562,11.7268888 8.25032553,11.6784306 8.29760533,11.6542015 C8.29760533,11.6542015 8.29760533,11.6542015 8.32124523,11.6299724 C8.34488513,11.6057433 8.39216493,11.5815141 8.41580483,11.557285 C8.65220385,11.3634522 9.17228167,10.9757864 9.57415999,10.8304118 L9.14864177,12.4779912 L18.6518821,12.4779912 L19.5738382,10.9515573 L20.7085535,10.9515573 L20.8031131,12.4779912 L29.9753947,12.4779912 C31.6774676,12.4779912 33.1431415,12.0176381 34.2778568,11.1453902 L33.9232583,12.4779912 L39.478635,12.4779912 L40.0932725,10.1277676 C40.68427,11.3149939 41.6535059,11.8722635 41.8426252,11.9691799 C42.8591409,12.4779912 43.9465764,12.7445114 45.0576517,12.7445114 C46.3342064,12.7445114 47.2798024,12.4053039 47.6107611,12.2599292 C47.9653596,12.1145546 48.2963182,11.9207217 48.579997,11.7268888 L48.3199581,12.4537621 L53.8753349,12.4537621 L54.3008531,11.0242446 L54.4663324,12.4537621 L57.1849211,12.4537621 L57.7286388,11.5815141 L57.5395196,12.4537621 L63.0239767,12.4537621 L64.9624486,0.363436637 L59.6671107,0.363436637 L59.6671107,0.387665746 Z" id="Shape" fill="#0C2340"></path>
                <g transform="translate(0.709197, 0.726873)" fill="#FFFFFF" id="Shape">
                    <path d="M36.9728055,0.314978418 L35.4834917,5.93613173 C35.6962508,4.48238518 35.4834917,2.9317222 34.8215745,2.05947427 C33.9232583,0.848018819 32.5994238,0.314978418 30.5427524,0.314978418 L26.7840081,0.314978418 L24.6091372,8.60133373 L24.0181396,0.314978418 L19.9757165,0.314978418 L13.8529821,10.0308512 L15.4841353,3.80397013 L17.706286,3.80397013 L18.6046023,0.314978418 L9.6687196,0.314978418 L9.52688019,0.848018819 C9.38504078,0.775331491 8.13212602,0.0726873273 6.40641323,0.0242291091 C6.35913343,0.0242291091 6.31185363,0.0242291091 6.26457382,0.0242291091 C5.27169797,0.0242291091 4.27882212,0.363436637 3.54598518,0.944935255 C2.67130884,1.62335031 2.17487091,2.61674378 2.12759111,3.75551191 C2.08031131,4.84582182 2.64766894,5.83921529 3.8060241,6.73569233 C4.30246202,7.12335808 4.44430143,7.34142006 4.49158123,7.43833649 C4.51522113,7.48679471 4.51522113,7.53525293 4.46794133,7.63216937 C4.37338173,7.85023135 4.08970291,7.94714778 3.64054479,7.97137689 C3.61690489,7.97137689 3.61690489,7.97137689 3.59326499,7.97137689 C3.04954726,7.97137689 2.31671032,7.60794026 1.8675522,7.26873273 L1.15835516,6.71146322 L0.141839407,10.442746 L0.614637432,10.660808 C0.661917234,10.6850371 2.05667141,11.3392231 4.06606301,11.3876813 C4.11334281,11.3876813 4.16062261,11.3876813 4.20790242,11.3876813 C6.31185363,11.3876813 8.48672454,10.2489131 8.60492404,7.70485669 C8.65220385,6.56608857 8.13212602,5.5969242 6.92649106,4.57930162 C6.26457382,4.02203211 6.17001422,3.85242835 6.24093392,3.63436637 C6.26457382,3.58590815 6.45369303,3.39207527 6.85557135,3.39207527 C7.30472948,3.39207527 7.8011674,3.63436637 8.25032553,4.09471944 L9.00680236,4.84582182 L9.29048118,3.77974102 L11.2998728,3.77974102 L9.38504078,11.096932 L13.2147048,11.096932 L13.6165831,11.096932 L17.706286,11.096932 L18.6282422,9.57049809 L20.7321934,9.57049809 L20.826753,11.096932 L24.0181396,11.096932 L24.8455362,11.096932 L29.3843972,11.096932 C31.0628302,11.096932 32.4575844,10.6365789 33.5213799,9.71587275 C34.3960563,8.96477037 34.7979346,8.11675155 34.9634139,7.75331491 C34.9870538,7.70485669 34.9870538,7.68062758 35.0106937,7.65639848 C35.0816134,7.51102382 35.1525331,7.36564917 35.1998129,7.22027451 L34.1832972,11.096932 L38.3439198,11.096932 L41.157068,0.314978418 L36.9728055,0.314978418 Z M30.5663923,7.07489986 C30.4481928,7.22027451 29.9753947,7.68062758 28.958879,7.68062758 L29.9990346,3.7312828 L30.0226745,3.7312828 C30.6136721,3.7312828 30.9919105,3.90088657 31.1573898,4.24009409 C31.346509,4.60353073 31.6065479,5.88767351 30.5663923,7.07489986 Z"></path>
                    <path d="M49.5019532,7.26873273 C49.7619921,6.32379748 51.0621866,1.30837189 51.1331063,1.09030991 L51.3458654,0.314978418 L47.137963,0.314978418 L47.0197635,0.775331491 C46.9961236,0.823789709 45.6250094,6.08150638 45.4358901,6.78415055 C45.2940507,7.26873273 45.0812916,7.63216937 44.8212527,7.77754402 C44.7266931,7.85023135 44.5375739,7.89868957 44.3248148,7.89868957 C44.1829754,7.89868957 44.041136,7.87446046 43.9465764,7.80177313 C43.6392577,7.63216937 43.6628976,7.22027451 43.7338173,6.9295252 C43.8992966,6.25111015 45.2940507,1.11453902 45.2940507,1.0660808 L45.5068098,0.2665202 L41.2989074,0.2665202 L41.1807079,0.726873273 C41.1807079,0.726873273 39.8805134,5.69384064 39.7859538,6.03304817 C38.9349173,9.25551968 41.157068,10.4912042 41.393467,10.6123498 C42.3154232,11.0727029 43.308299,11.3149939 44.3248148,11.3149939 C45.4831699,11.3149939 46.3342064,11.0000155 46.6415251,10.87887 C48.7454763,10.0550803 49.2182743,8.33481353 49.5019532,7.26873273 Z"></path>
                    <polygon points="59.3125122 0.314978418 56.8539624 4.38546875 56.4284442 0.314978418 52.3860211 0.314978418 48.5327172 11.0727029 52.6696999 11.0727029 53.8753349 7.14758718 54.324493 11.0727029 56.1211255 11.0727029 58.390556 7.48679471 57.6340792 11.0727029 61.7947018 11.0727029 63.5204146 0.314978418"></polygon>
                </g>
                <g transform="translate(1.418394, 1.211455)" fill="#0C2E59" id="Shape">
                    <path d="M7.94300681,3.17401329 L8.53400434,0.920706146 C8.53400434,0.920706146 7.35200928,0.218061982 5.67357629,0.169603764 C3.99514331,0.121145546 2.10395121,1.16299724 2.0093916,3.29515884 C1.9621118,4.16740677 2.43490983,4.96696737 3.45142558,5.74229886 C4.46794133,6.51763035 4.49158123,6.97798342 4.32610192,7.41410738 C4.13698271,7.82600224 3.73510439,8.09252244 2.95498765,8.11675155 C2.17487091,8.14098066 1.27655467,7.65639848 0.803756641,7.29296184 L0.165479309,9.61895631 C0.165479309,9.61895631 1.46567388,10.2489131 3.35686597,10.2973714 C5.27169797,10.3458296 7.16289007,9.37666522 7.25744967,7.22027451 C7.30472948,6.46917213 7.04469056,5.64538242 5.7917758,4.62775984 C5.15349847,4.09471944 4.70434034,3.68282458 4.89345955,3.00440953 C5.10621866,2.30176536 6.52461274,1.72026675 7.94300681,3.17401329 Z"></path>
                    <polygon points="9.43232059 0.460353073 8.84132306 2.68943111 11.3471526 2.68943111 9.43232059 9.98239295 12.3873082 9.98239295 14.3021402 2.68943111 16.524291 2.68943111 17.1152885 0.460353073"></polygon>
                    <path d="M22.741585,0.460353073 L19.5974781,0.460353073 L13.5929432,10.0066221 L16.5952107,10.0066221 L17.5171668,8.48018819 L20.5430742,8.48018819 L20.6376338,10.0066221 L23.4271421,10.0066221 L22.741585,0.460353073 Z M18.675522,6.49340124 L20.3066751,3.61013726 L20.4248747,6.49340124 L18.675522,6.49340124 Z"></path>
                    <path d="M33.6159395,1.93832873 C32.788543,0.848018819 31.5592681,0.436123964 29.8335553,0.436123964 C28.1078426,0.436123964 26.5476091,0.436123964 26.5476091,0.436123964 L24.0654194,9.98239295 C24.0654194,9.98239295 27.8950834,9.98239295 28.6515603,9.98239295 C32.4575844,9.98239295 33.4504602,7.41410738 33.734139,6.88106698 C34.4433361,5.42732044 34.4433361,3.05286775 33.6159395,1.93832873 Z M30.3063534,7.00221253 C30.0463145,7.29296184 29.4080371,7.82600224 28.2024022,7.82600224 L27.4459253,7.82600224 L28.8170396,2.64097289 C28.8643194,2.64097289 28.9825189,2.64097289 29.2898376,2.64097289 C29.9753947,2.64097289 30.637312,2.83480576 30.9682706,3.48899171 C31.2992292,4.14317766 31.4883484,5.66961153 30.3063534,7.00221253 Z"></path>
                    <polygon points="36.7127666 0.460353073 39.5968345 0.460353073 37.091005 9.98239295 34.2069371 9.98239295"></polygon>
                    <path d="M41.0861483,0.460353073 L44.0174961,0.460353073 C44.0174961,0.460353073 42.6227419,5.64538242 42.4572626,6.32379748 C42.2917833,7.00221253 42.4336227,7.60794026 42.9537005,7.89868957 C43.4737783,8.18943888 44.0884158,8.06829333 44.4666542,7.85023135 C44.8448926,7.63216937 45.1522113,7.1960454 45.3413305,6.46917213 C45.5304497,5.74229886 46.9252039,0.436123964 46.9252039,0.436123964 L49.8565517,0.436123964 C49.8565517,0.436123964 48.5090773,5.64538242 48.2253985,6.61454678 C47.9417197,7.58371115 47.5634813,9.08591591 45.7432089,9.8612474 C45.1049315,10.1277676 43.1428197,10.6850371 41.0152286,9.61895631 C40.4951508,9.35243611 39.0531168,8.23789709 39.715034,5.76652797 C39.7623139,5.40309133 41.0861483,0.460353073 41.0861483,0.460353073 Z"></path>
                    <polygon points="52.1023423 0.460353073 55.1518895 0.460353073 55.7192472 5.76652797 58.9579136 0.460353073 62.0783806 0.460353073 60.5654269 9.95816384 57.681359 9.95816384 58.9815535 3.77974102 55.0809698 9.95816384 54.1590137 9.95816384 53.4498167 3.65859547 51.5113448 9.95816384 48.6981965 9.95816384"></polygon>
                </g>
                <g transform="translate(1.418394, 1.211455)" fill="#0C2340" id="Shape">
                    <path d="M7.94300681,3.17401329 L8.53400434,0.920706146 C8.53400434,0.920706146 7.35200928,0.218061982 5.67357629,0.169603764 C3.99514331,0.121145546 2.10395121,1.16299724 2.0093916,3.29515884 C1.9621118,4.16740677 2.43490983,4.96696737 3.45142558,5.74229886 C4.46794133,6.51763035 4.49158123,6.97798342 4.32610192,7.41410738 C4.13698271,7.82600224 3.73510439,8.09252244 2.95498765,8.11675155 C2.17487091,8.14098066 1.27655467,7.65639848 0.803756641,7.29296184 L0.165479309,9.61895631 C0.165479309,9.61895631 1.46567388,10.2489131 3.35686597,10.2973714 C5.27169797,10.3458296 7.16289007,9.37666522 7.25744967,7.22027451 C7.30472948,6.46917213 7.04469056,5.64538242 5.7917758,4.62775984 C5.15349847,4.09471944 4.70434034,3.68282458 4.89345955,3.00440953 C5.10621866,2.30176536 6.52461274,1.72026675 7.94300681,3.17401329 Z"></path>
                    <polygon points="9.43232059 0.460353073 8.84132306 2.68943111 11.3471526 2.68943111 9.43232059 9.98239295 12.3873082 9.98239295 14.3021402 2.68943111 16.524291 2.68943111 17.1152885 0.460353073"></polygon>
                    <path d="M22.741585,0.460353073 L19.5974781,0.460353073 L13.5929432,10.0066221 L16.5952107,10.0066221 L17.5171668,8.48018819 L20.5430742,8.48018819 L20.6376338,10.0066221 L23.4271421,10.0066221 L22.741585,0.460353073 Z M18.675522,6.49340124 L20.3066751,3.61013726 L20.4248747,6.49340124 L18.675522,6.49340124 Z"></path>
                    <path d="M33.6159395,1.93832873 C32.788543,0.848018819 31.5592681,0.436123964 29.8335553,0.436123964 C28.1078426,0.436123964 26.5476091,0.436123964 26.5476091,0.436123964 L24.0654194,9.98239295 C24.0654194,9.98239295 27.8950834,9.98239295 28.6515603,9.98239295 C32.4575844,9.98239295 33.4504602,7.41410738 33.734139,6.88106698 C34.4433361,5.42732044 34.4433361,3.05286775 33.6159395,1.93832873 Z M30.3063534,7.00221253 C30.0463145,7.29296184 29.4080371,7.82600224 28.2024022,7.82600224 L27.4459253,7.82600224 L28.8170396,2.64097289 C28.8643194,2.64097289 28.9825189,2.64097289 29.2898376,2.64097289 C29.9753947,2.64097289 30.637312,2.83480576 30.9682706,3.48899171 C31.2992292,4.14317766 31.4883484,5.66961153 30.3063534,7.00221253 Z"></path>
                    <polygon points="36.7127666 0.460353073 39.5968345 0.460353073 37.091005 9.98239295 34.2069371 9.98239295"></polygon>
                    <path d="M41.0861483,0.460353073 L44.0174961,0.460353073 C44.0174961,0.460353073 42.6227419,5.64538242 42.4572626,6.32379748 C42.2917833,7.00221253 42.4336227,7.60794026 42.9537005,7.89868957 C43.4737783,8.18943888 44.0884158,8.06829333 44.4666542,7.85023135 C44.8448926,7.63216937 45.1522113,7.1960454 45.3413305,6.46917213 C45.5304497,5.74229886 46.9252039,0.436123964 46.9252039,0.436123964 L49.8565517,0.436123964 C49.8565517,0.436123964 48.5090773,5.64538242 48.2253985,6.61454678 C47.9417197,7.58371115 47.5634813,9.08591591 45.7432089,9.8612474 C45.1049315,10.1277676 43.1428197,10.6850371 41.0152286,9.61895631 C40.4951508,9.35243611 39.0531168,8.23789709 39.715034,5.76652797 C39.7623139,5.40309133 41.0861483,0.460353073 41.0861483,0.460353073 Z"></path>
                    <polygon points="52.1023423 0.460353073 55.1518895 0.460353073 55.7192472 5.76652797 58.9579136 0.460353073 62.0783806 0.460353073 60.5654269 9.95816384 57.681359 9.95816384 58.9815535 3.77974102 55.0809698 9.95816384 54.1590137 9.95816384 53.4498167 3.65859547 51.5113448 9.95816384 48.6981965 9.95816384"></polygon>
                </g>
            </g>
            <g id="Group" transform="translate(124.401332, 124.401332)" fill="#0C2340" fill-rule="nonzero">
                <polygon id="Shape" points="1.88243658 0.144466063 0 0.144466063 0 0.601941929 0.700441518 0.601941929 0.700441518 2.40776772 1.20388386 2.40776772 1.20388386 0.601941929 1.88243658 0.601941929"></polygon>
                <polygon id="Shape" points="4.53098107 0.144466063 4.13698271 0.553786575 3.52409639 1.25203921 2.64854449 0.313009803 2.49532291 0.144466063 2.18887974 0.144466063 2.18887974 2.40776772 2.64854449 2.40776772 2.64854449 1.22796154 3.30520841 1.92621417 3.48031879 1.92621417 4.13698271 1.22796154 4.13698271 2.40776772 4.70609145 2.40776772 4.70609145 0.144466063"></polygon>
            </g>
        </g>
    </g>
</svg>