<?xml version="1.0" encoding="UTF-8"?>
<svg width="1440px" height="383px" viewBox="0 0 1440 383" version="1.1" xmlns="http://www.w3.org/2000/svg" xmlns:xlink="http://www.w3.org/1999/xlink">
    <!-- Generator: Sketch 48.2 (47327) - http://www.bohemiancoding.com/sketch -->
    <title>1440x384-hero-landscape</title>
    <desc>Created with Sketch.</desc>
    <defs>
        <rect id="path-1" x="0" y="0" width="1440" height="383"></rect>
        <linearGradient x1="50%" y1="0%" x2="50%" y2="100%" id="linearGradient-3">
            <stop stop-color="#1C4974" offset="0%"></stop>
            <stop stop-color="#0C2340" offset="100%"></stop>
        </linearGradient>
        <linearGradient x1="50%" y1="0%" x2="50%" y2="100%" id="linearGradient-4">
            <stop stop-color="#6487AB" offset="0%"></stop>
            <stop stop-color="#344F73" offset="100%"></stop>
        </linearGradient>
        <linearGradient x1="50%" y1="0%" x2="50%" y2="100%" id="linearGradient-5">
            <stop stop-color="#8DA5C1" offset="0%"></stop>
            <stop stop-color="#546C8D" offset="100%"></stop>
        </linearGradient>
        <linearGradient x1="50%" y1="0%" x2="50%" y2="100%" id="linearGradient-6">
            <stop stop-color="#B5C3D4" offset="0%"></stop>
            <stop stop-color="#7E90A9" offset="100%"></stop>
        </linearGradient>
    </defs>
    <g id="Artboard-2" stroke="none" stroke-width="1" fill="none" fill-rule="evenodd" transform="translate(0.000000, -517.000000)">
        <g id="1440x384-hero-landscape" transform="translate(0.000000, 517.000000)">
            <mask id="mask-2" fill="white">
                <use xlink:href="#path-1"></use>
            </mask>
            <g id="Rectangle-3"></g>
            <polyline id="Shape" fill="#0C2340" mask="url(#mask-2)" points="1280 296.333333 1333.33333 296.333333 1324.44444 198.555556 1280 216.333333 1280 296.333333"></polyline>
            <rect id="Rectangle-path" fill="url(#linearGradient-3)" mask="url(#mask-2)" x="1324.44444" y="163" width="35.5555556" height="133.333333"></rect>
            <polygon id="Shape" fill="#0C2340" mask="url(#mask-2)" points="1395.55556 74.1111111 1395.55556 296.333333 1440 296.333333 1440 97.4444444 1440 43"></polygon>
            <polyline id="Shape" fill="url(#linearGradient-3)" mask="url(#mask-2)" points="1360 296.333333 1360 251.888889 1306.66667 251.888889 1306.66667 296.333333"></polyline>
            <polyline id="Shape" fill="url(#linearGradient-3)" mask="url(#mask-2)" points="1396.11111 296.333333 1396.11111 189.666667 1345 189.666667 1345 296.333333"></polyline>
            <path d="M79.8187598,100.050569 C79.5780266,100.050569 79.355999,100.115742 79.1160791,100.121445 C75.8800067,83.9894588 61.6669881,71.8354796 44.6090885,71.8354796 C43.7974272,71.8354796 43.0386297,72.0204085 42.2407943,72.0741763 C36.5030484,55.5218237 20.8366844,43.6203905 2.35797095,43.6203905 C-2.95442534,43.6203905 -7.98867719,44.7022649 -12.672402,46.4953414 C-33.9455725,78.0758095 -46.7516031,115.820844 -48,156.481562 L79.8195731,156.481562 C95.3761433,156.481562 107.986985,143.84856 107.986985,128.266473 C107.986985,112.682756 95.3761433,100.050569 79.8187598,100.050569 Z" id="Shape-Copy-7" fill="url(#linearGradient-4)" mask="url(#mask-2)"></path>
            <path d="M-0.975999906,141 C-6.6835808,154.015976 -10.9683593,167.788972 -13.6569498,182.132152 C-13.9025172,189.065917 -14,195.660252 -14,201.077744 C-14,218.512274 -11.454285,235.381087 -6.77808702,251.425142 C27.9176051,253.180356 82.8376302,253.183333 82.8376302,253.183333 L113,207.032669 L93.1566686,206.535433 C55.9621424,206.535433 30.5421994,154.469295 -0.975999906,141 Z" id="Shape" fill="#0C2340" mask="url(#mask-2)"></path>
            <path d="M329.030865,177 C309.72973,177 301.766,202.777291 276,202.777291 L284.432432,262.765803 C284.432432,262.765803 350.486486,268.366626 356.108108,269.830801 C359.291351,270.660263 366.526378,268.285599 372.20773,266.069436 C377.260162,249.280471 380,231.47227 380,213.012298 C380,211.714442 379.92973,210.435066 379.903027,209.143607 C378.859514,208.301352 340.03027,177 329.030865,177 Z" id="Shape" fill="#344F73" mask="url(#mask-2)"></path>
            <path d="M257.075761,357 L352.960516,306.844983 C364.004276,288.668552 371.904655,268.372845 376,246.724138 L376,246.724138 C376,246.724138 337.991228,247.784483 322.842259,241.068966 C304.214501,232.811707 261.99412,174.377517 235.58718,139.298483 C230.677277,133.103241 225.912528,127.351224 221.374672,122.310345 C213.544052,113.611276 190.675795,111 187.552143,111 C184.845636,111 162.93357,136.861103 146.939741,156.2435 C122.828506,185.780466 94.4408349,221.374828 80.4467635,235.413793 L57,283.482759 L257.075761,357 Z" id="Shape" fill="#0C2340" mask="url(#mask-2)"></path>
            <path d="M358,287.824885 C330.264175,287.824885 302.730025,291.993098 270.090559,264.200281 C257.397786,253.392278 244.847454,242.999749 234.127702,256.046776 C227.428739,264.200281 215.019438,291.142298 199.575153,279.798291 C184.130869,268.454283 177.625823,233.394211 162.907142,233.004261 C150.919523,232.686629 141.047367,250.26275 132.217427,240.567169 C126.404137,234.184038 73,271.644785 73,271.644785 C73,271.644785 127.649439,320.432525 135.406134,319.96742 C143.162829,319.502316 188.928737,326.529928 188.928737,326.529928 C188.928737,326.529928 205.163499,345.755894 213.501241,342.663234 C221.838982,339.570574 242.212293,346.020351 253.89176,340.815579 C265.571227,335.611515 321.276987,312.412311 322.479275,309.57631 C323.681562,306.740308 358,287.824885 358,287.824885 Z" id="Shape" fill="#0C2340" mask="url(#mask-2)"></path>
            <path d="M99.1135946,268.549482 C90.1922077,264.459764 92.1325251,253.814936 82.2595891,250.57122 C72.6036484,247.39871 71.3747105,245.107453 65.9322712,240.348688 C60.489832,235.589923 53.095137,241.981473 48.2004529,232.241162 C45.366171,226.600439 33.2776355,224.133637 28.1863214,219.198621 C23.0950072,214.263605 14.0064847,215.89639 10.1033779,214.263605 C1.67637517,210.738594 5.01206377,205.627328 -4.99500202,206.684831 C-11.9950323,207.424379 -15.7148518,201.787886 -20.9508295,200 C-22.4999935,207.979215 -23.5358126,216.141731 -24,224.459348 L19.9348812,248.456214 C19.9348812,248.456214 62.7721452,262.380008 65.9322712,263.613762 C69.0923973,264.847516 117.395977,285.797362 115.969005,283.875526 C113.421943,280.44569 106.223878,271.809413 99.1135946,268.549482 Z" id="Shape" fill="url(#linearGradient-4)" mask="url(#mask-2)" transform="translate(46.000000, 242.000000) rotate(-1.000000) translate(-46.000000, -242.000000) "></path>
            <path d="M138.794072,307.681038 C136.160473,306.368144 130.028112,303.058749 124.663532,295.956707 C119.298951,288.854664 119.253081,284.198513 112.90196,281.023864 C105.761182,277.454148 105.845158,277.143737 97.3769951,272.910872 C88.9088326,268.678007 88.9088326,265.856097 83.7926511,259.859538 C78.1796708,253.28096 69.4680487,253.642165 60.9998862,249.879853 C52.5317238,246.117541 48.947574,239.431025 43.7452996,236.931518 C38.5430251,234.432011 35.2771371,237.166442 30.5723672,234.768524 C24.1965466,231.518389 23.8232417,222.292154 15.8666974,223.232556 C7.91015314,224.172957 5.92930881,226.981463 0.463109946,222.11649 C-8.65216125,214.003499 -12.8862425,219.118211 -23.0233386,216 C-23.6633905,222.184921 -24,228.46085 -24,234.815086 C-24,250.05975 -22.0897237,264.85573 -18.5323898,278.996321 C-10.4925752,280.564598 -1.68427491,282.235169 7.09015274,284.198513 C34.4162073,290.312886 106.315846,312.888167 131.720334,317.121033 C157.124821,321.353898 141.428376,308.993931 138.794072,307.681038 Z" id="Shape" fill="url(#linearGradient-3)" mask="url(#mask-2)" transform="translate(61.000000, 267.000000) rotate(-1.000000) translate(-61.000000, -267.000000) "></path>
            <path d="M-38,247 C-32.9816484,307.799149 -2.01178517,361.208053 43.8379226,396.066667 L119.14498,396.066667 L222,334.039211 C136.459026,334.039211 88.7765362,247.359922 -38,247 Z" id="Shape" fill="url(#linearGradient-3)" mask="url(#mask-2)"></path>
            <path d="M129.378944,444.321101 C234.558244,444.321101 322.082539,368.823932 341,269 C261.33154,269.023601 163.879303,368.866919 75.5142139,356.660129 C26.6993027,349.916977 14.0747567,336.402858 -49,349.583191 C-10.2460103,406.75416 55.1819618,444.321101 129.378944,444.321101 Z" id="Shape" fill="url(#linearGradient-3)" mask="url(#mask-2)"></path>
            <path d="M174.5,347 C173.670938,347 173,346.22887 173,345.27743 L173,326.72257 C173,325.77113 173.670938,325 174.5,325 C175.329062,325 176,325.77113 176,326.72257 L176,345.27743 C176,346.22887 175.329062,347 174.5,347 Z" id="Shape" fill="#344F73" mask="url(#mask-2)"></path>
            <path d="M186,324.230824 C186,330.178434 181.07509,335 175,335 C168.92491,335 164,330.178434 164,324.230824 C164,318.283213 168.92491,300 175,300 C181.07509,300 186,318.283213 186,324.230824 Z" id="Shape" fill="url(#linearGradient-3)" mask="url(#mask-2)"></path>
            <path d="M175.214104,300 C173.718776,300 172.294959,301.15432 171,302.973805 L171,302.973805 C176.452421,302.973805 180.872557,319.707557 180.872557,325.151169 C180.872557,329.886497 177.525064,333.83437 173.065987,334.783698 C173.760549,334.923658 174.477768,335 175.213396,335 C181.170631,335 186,330.178434 186,324.230824 C186.001416,318.283213 181.172047,300 175.214104,300 Z" id="Shape" fill="url(#linearGradient-3)" mask="url(#mask-2)"></path>
            <path d="M313.5,296 C312.119012,296 311,294.913302 311,293.572749 L311,267.427251 C311,266.086698 312.118263,265 313.5,265 C314.880988,265 316,266.086698 316,267.427251 L316,293.572749 C316,294.913302 314.881737,296 313.5,296 Z" id="Shape" fill="#344F73" mask="url(#mask-2)"></path>
            <path d="M328,265.923408 C328,274.250154 321.50845,281 313.499655,281 C305.49086,281 299,274.250154 299,265.923408 C299,257.596662 305.49155,232 313.499655,232 C321.507761,232 328,257.596662 328,265.923408 Z" id="Shape" fill="url(#linearGradient-3)" mask="url(#mask-2)"></path>
            <path d="M313.618569,232 C311.624927,232 309.726319,233.615605 308,236.163731 L308.000684,236.163731 C315.270365,236.163731 321.163094,259.590723 321.163094,267.212165 C321.163094,273.841593 316.700646,279.368626 310.755273,280.697522 C311.68099,280.893918 312.637473,281 313.618569,281 C321.561002,281 328,274.250154 328,265.923408 C328,257.596662 321.561002,232 313.618569,232 Z" id="Shape" fill="url(#linearGradient-3)" mask="url(#mask-2)"></path>
            <path d="M351.5,300 C350.119012,300 349,298.913302 349,297.572749 L349,271.427251 C349,270.086698 350.118263,269 351.5,269 C352.881737,269 354,270.086698 354,271.427251 L354,297.572749 C354,298.912574 352.880988,300 351.5,300 Z" id="Shape" fill="#674447" mask="url(#mask-2)"></path>
            <path d="M366,269.923408 C366,278.250154 359.50845,285 351.499655,285 C343.49086,285 337,278.250154 337,269.923408 C337,261.596662 343.49155,236 351.499655,236 C359.507761,236 366,261.596662 366,269.923408 Z" id="Shape" fill="url(#linearGradient-3)" mask="url(#mask-2)"></path>
            <path d="M351.618569,236 C349.624927,236 347.726319,237.615605 346,240.163731 L346.000684,240.163731 C353.270365,240.163731 359.163094,263.590723 359.163094,271.212165 C359.163094,277.841593 354.700646,283.368626 348.755273,284.697522 C349.68099,284.893918 350.637473,285 351.618569,285 C359.561002,285 366,278.250154 366,269.923408 C366,261.595945 359.561002,236 351.618569,236 Z" id="Shape" fill="url(#linearGradient-3)" mask="url(#mask-2)"></path>
            <path d="M225.5,332 C224.119012,332 223,330.913302 223,329.572749 L223,303.427251 C223,302.086698 224.118263,301 225.5,301 C226.881737,301 228,302.086698 228,303.427251 L228,329.572749 C228,330.913302 226.880988,332 225.5,332 Z" id="Shape" fill="#344F73" mask="url(#mask-2)"></path>
            <path d="M239,300.922912 C239,309.249536 232.50845,316 224.500345,316 C216.492239,316 210,309.250252 210,300.922912 C210,292.595571 216.49155,267 224.500345,267 C232.50914,267 239,292.596287 239,300.922912 Z" id="Shape" fill="url(#linearGradient-3)" mask="url(#mask-2)"></path>
            <path d="M224.618569,267 C222.624927,267 220.726319,268.615605 219,271.163731 L219.000684,271.163731 C226.270365,271.163731 232.163094,294.590723 232.163094,302.212165 C232.163094,308.841593 227.700646,314.368626 221.755273,315.697522 C222.68099,315.893201 223.637473,316 224.618569,316 C232.561002,316 239,309.250154 239,300.923408 C239,292.596662 232.561002,267 224.618569,267 Z" id="Shape" fill="url(#linearGradient-3)" mask="url(#mask-2)"></path>
            <path d="M194.5,342 C193.118971,342 192,341.018522 192,339.807726 L192,316.192274 C192,314.981478 193.118167,314 194.5,314 C195.881833,314 197,314.981478 197,316.192274 L197,339.807726 C197,341.017816 195.881833,342 194.5,342 Z" id="Shape" fill="#344F73" mask="url(#mask-2)"></path>
            <path d="M207,314.153737 C207,321.800782 200.95581,328 193.5,328 C186.04419,328 180,321.800782 180,314.153737 C180,306.506692 186.04419,283 193.5,283 C200.95581,283 207,306.506692 207,314.153737 Z" id="Shape" fill="url(#linearGradient-3)" mask="url(#mask-2)"></path>
            <path d="M194.337494,283 C192.443702,283 190.639891,284.483905 189,286.823936 L189.000698,286.823936 C195.906237,286.823936 201.504607,308.33879 201.504607,315.337675 C201.504607,321.425997 197.265024,326.501956 191.617827,327.722165 C192.497412,327.90244 193.406292,328 194.338192,328 C201.883366,328 208,321.800685 208,314.15352 C207.999302,306.507062 201.882668,283 194.337494,283 Z" id="Shape" fill="url(#linearGradient-3)" mask="url(#mask-2)"></path>
            <path d="M401.784851,310.639453 C302.121697,291.668119 281.018957,369.482493 124.784851,369.501551 C156.043767,395.781063 196.276094,411.659444 240.240955,411.659444 C311.162614,411.659444 372.455488,370.469951 401.784851,310.639453 Z" id="Shape" fill="url(#linearGradient-3)" mask="url(#mask-2)" transform="translate(263.284851, 359.659444) rotate(-12.000000) translate(-263.284851, -359.659444) "></path>
            <path d="M236.113818,139.443789 C231.178757,133.216737 226.389594,127.435184 221.828487,122.368421 C213.957745,113.624684 190.972315,111 187.832658,111 C185.112284,111 163.087945,136.993895 147.012167,156.475816 C140.849715,164.025158 134.40963,171.967421 128,179.848579 C130.771368,183.728053 136.133502,189.192 144.072944,188.415395 C159.697569,186.886342 162.745862,168.535579 174.559412,170.063921 C190.652188,172.147184 188.209446,219 205.046588,219 C221.433286,219 210.069472,183.466579 229.435762,176.180842 C243.701262,170.814237 248.9607,186.200684 273,188.199395 C259.851405,171.335763 246.71485,153.526421 236.113818,139.443789 Z" id="Shape" fill="#344F73" mask="url(#mask-2)"></path>
            <path d="M243,148.126313 C240.664795,145.023366 238.390949,142.003444 236.244056,139.167167 C231.329616,133.000674 226.560465,127.275348 222.018417,122.257861 C214.180562,113.599159 191.291178,111 188.16464,111 C186.276587,111 175.049829,123.50678 163,137.615693 C176.174761,127.183175 183.363046,131.475938 185.813214,143.679458 C191.471731,171.862809 197.568232,194.49533 204.621102,176.670619 C211.673972,158.845908 208.574236,148.637842 229.26242,150.75432 C237.428233,151.589513 239.110342,149.204254 243,148.126313 Z" id="Shape" fill="url(#linearGradient-5)" mask="url(#mask-2)"></path>
            <path d="M359,192.325101 C347.727768,184.588204 335.269807,177 329.748713,177 C317.401515,177 309.636057,187.138316 299,194.584808 L299.00781,194.589695 C316.636826,191.659824 317.924087,214 326.089285,214 C335.643986,214 335.904562,202.018735 345.273948,206.087185 C363.497959,214 349.771197,195.5 359,192.325101 Z" id="Shape" fill="#546C8D" mask="url(#mask-2)"></path>
            <path d="M348,184.828563 C340.348083,180.363667 333.353319,177 329.575945,177 C321.019992,177 314.628399,181.588228 308,186.77829 C317.429759,190.627873 324.91037,201.845713 336.490094,194.634485 C344.164324,189.85553 345.557087,186.942059 348,184.828563 Z" id="Shape" fill="url(#linearGradient-6)" mask="url(#mask-2)"></path>
            <path d="M294,306 C292.342637,306 291,304.702917 291,303.103019 L291,271.896981 C291,270.297083 292.341915,269 294,269 C295.658085,269 297,270.297083 297,271.896981 L297,303.103019 C296.999278,304.702917 295.657363,306 294,306 Z" id="Shape" fill="#344F73" mask="url(#mask-2)"></path>
            <path d="M312,269.538679 C312,279.735011 303.716988,288 293.5,288 C283.283012,288 275,279.734305 275,269.538679 C275,259.343052 283.283012,228 293.5,228 C303.716988,228 312,259.342347 312,269.538679 Z" id="Shape" fill="url(#linearGradient-3)" mask="url(#mask-2)"></path>
            <path d="M293.303973,228 C290.711687,228 288.243695,229.97858 286,233.098459 L286.000714,233.098459 C295.451234,233.098459 303.111654,261.784696 303.111654,271.116822 C303.111654,279.234291 297.309907,286.002375 289.581625,287.629678 C290.785263,287.869505 292.028903,288 293.303973,288 C303.62954,288 312,279.734402 312,269.538896 C311.999286,259.341978 303.628826,228 293.303973,228 Z" id="Shape" fill="url(#linearGradient-3)" mask="url(#mask-2)"></path>
            <path d="M334,301 C332.342588,301 331,299.772628 331,298.259545 L331,268.740455 C331,267.226673 332.342588,266 334,266 C335.657412,266 337,267.227372 337,268.740455 L337,298.259545 C337.000764,299.772628 335.658176,301 334,301 Z" id="Shape" fill="#344F73" mask="url(#mask-2)"></path>
            <path d="M352,267.461757 C352,277.147934 344.165056,285 334.5,285 C324.834944,285 317,277.147934 317,267.461757 C317,257.77558 324.834944,228 334.5,228 C344.164348,228 352,257.77558 352,267.461757 Z" id="Shape" fill="url(#linearGradient-3)" mask="url(#mask-2)"></path>
            <path d="M333.741996,228 C331.349743,228 329.07124,229.879503 327,232.843443 L327.000698,232.843443 C335.72391,232.843443 342.795295,260.095524 342.795295,268.961103 C342.795295,276.672739 337.440639,283.102057 330.306446,284.648214 C331.417435,284.876591 332.56541,285 333.742694,285 C343.273327,285 351,277.147934 351,267.461757 C350.999302,257.77558 343.272629,228 333.741996,228 Z" id="Shape" fill="url(#linearGradient-3)" mask="url(#mask-2)"></path>
            <path d="M270.5,310 C269.118728,310 268,308.913076 268,307.57249 L268,281.42751 C268,280.086924 269.118728,279 270.5,279 C271.881272,279 273,280.086924 273,281.42751 L273,307.57249 C273,308.913076 271.881272,310 270.5,310 Z" id="Shape" fill="#344F73" mask="url(#mask-2)"></path>
            <path d="M287,279.61533 C287,288.111703 280.060784,295 271.5,295 C262.939934,295 256,288.112416 256,279.61533 C256,271.118244 262.939216,245 271.5,245 C280.060066,245 287,271.118956 287,279.61533 Z" id="Shape" fill="url(#linearGradient-3)" mask="url(#mask-2)"></path>
            <path d="M271.180426,245 C268.986946,245 266.898964,246.648688 265,249.248543 L265.000733,249.248543 C272.997336,249.248543 279.479603,273.153811 279.479603,280.930576 C279.479603,287.6949 274.570282,293.334925 268.03087,294.691494 C269.049219,294.891702 270.101269,295 271.180426,295 C279.91698,295 287,288.112416 287,279.61533 C287,271.118956 279.91698,245 271.180426,245 Z" id="Shape" fill="url(#linearGradient-3)" mask="url(#mask-2)"></path>
            <path d="M249.5,337 C247.565771,337 246,335.457481 246,333.554805 L246,296.445195 C246,294.542519 247.565771,293 249.5,293 C251.434229,293 253,294.542519 253,296.445195 L253,333.554805 C253,335.457481 251.433511,337 249.5,337 Z" id="Shape" fill="#344F73" mask="url(#mask-2)"></path>
            <path d="M271,293.461377 C271,305.35671 261.374002,315 249.5,315 C237.625998,315 228,305.35671 228,293.461377 C228,281.566043 237.625998,245 249.5,245 C261.374703,245 271,281.566043 271,293.461377 Z" id="Shape" fill="url(#linearGradient-3)" mask="url(#mask-2)"></path>
            <path d="M250.708355,245 C247.617942,245 244.675695,247.308209 242,250.947726 L242.000726,250.947726 C253.268568,250.947726 262.402535,284.415002 262.402535,295.302675 C262.402535,304.77342 255.48524,312.669333 246.270653,314.567693 C247.705824,314.84771 249.188206,315 250.709081,315 C263.019891,315 273,305.356613 273,293.461862 C272.998547,281.56641 263.018439,245 250.708355,245 Z" id="Shape" fill="url(#linearGradient-3)" mask="url(#mask-2)"></path>
            <path d="M311.695039,393 C359.35196,393 402.675726,374.585793 435,344.51995 C415.337028,347.77014 385.44781,314.554461 354.349554,326.671823 C340.493363,332.071138 296.412621,369.425349 258,384.855798 C274.971818,390.11589 292.991375,393 311.695039,393 Z" id="Shape" fill="url(#linearGradient-3)" mask="url(#mask-2)"></path>
            <path d="M354.349169,326.675273 C340.493033,332.081553 296.412468,369.483955 258,384.934312 C259.293928,385.335537 260.633133,385.62708 261.939087,386 C300.773903,376.813569 346.5,335.771127 361.688266,335.306923 C366.023526,335.174596 393.995432,356.291641 409.743999,364.197264 C418.737116,358.384805 427.1954,351.814476 435,344.545718 C415.336399,347.800808 385.447301,314.542278 354.349169,326.675273 Z" id="Shape" fill="url(#linearGradient-3)" mask="url(#mask-2)"></path>
            <rect id="Rectangle-2" fill="#0C2340" mask="url(#mask-2)" x="1075" y="293" width="365" height="90"></rect>
            <path d="M1041.22923,105.163762 L1044.31846,118.693991 L1136.61456,151.875422 L1142.38412,141.709767 L1140.69945,134.562909 C1142.24085,130.134849 1143.07956,125.369187 1143.07956,120.404888 C1143.07956,104.530248 1134.488,90.7130983 1121.78337,83.4264586 C1122.01277,81.6256433 1122.17133,79.8027572 1122.17133,77.9381818 C1122.17133,60.4352057 1111.68744,45.5136979 1096.7983,39.0142507 C1074.0396,56.8343926 1055.02209,79.3409049 1041.22923,105.163762 Z" id="Shape" fill="url(#linearGradient-4)" mask="url(#mask-2)" transform="translate(1092.154397, 95.444836) rotate(-20.000000) translate(-1092.154397, -95.444836) "></path>
            <path d="M1176.81876,153.430178 C1176.57803,153.430178 1176.356,153.495352 1176.11608,153.501054 C1172.88001,137.369068 1158.66699,125.215089 1141.60909,125.215089 C1140.79743,125.215089 1140.03863,125.400018 1139.24079,125.453786 C1133.50305,108.901433 1117.83668,97 1099.35797,97 C1094.04557,97 1089.01132,98.0818744 1084.3276,99.8749509 C1063.05443,131.455419 1050.2484,169.200453 1049,209.861171 L1176.81957,209.861171 C1192.37614,209.861171 1204.98698,197.228169 1204.98698,181.646082 C1204.98698,166.062366 1192.37614,153.430178 1176.81876,153.430178 Z" id="Shape" fill="url(#linearGradient-4)" mask="url(#mask-2)"></path>
            <path d="M1459.80454,102 C1443.45697,103.761845 1429.9142,114.705269 1424.64679,129.606799 C1423.84705,129.561665 1423.05462,129.485904 1422.24269,129.485904 C1403.821,129.485904 1388.20247,141.232072 1382.48237,157.568224 C1381.69076,157.502135 1380.93003,157.332881 1380.12135,157.332881 C1364.61254,157.332881 1352.04018,169.80039 1352.04018,185.179859 C1344.28577,185.179859 1338,191.41321 1338,199.102945 C1338,206.792679 1344.28577,213.02603 1352.04018,213.02603 L1493.98698,213.02603 C1493.52616,172.035338 1481.02288,133.929202 1459.80454,102 Z" id="Shape" fill="url(#linearGradient-4)" mask="url(#mask-2)"></path>
            <path d="M396.804536,17 C380.456974,18.7618446 366.914197,29.7052691 361.646793,44.6067992 C360.847052,44.561665 360.054625,44.4859041 359.242692,44.4859041 C340.821004,44.4859041 325.202474,56.232072 319.482372,72.5682239 C318.690758,72.5021346 317.930028,72.3328815 317.121346,72.3328815 C301.612537,72.3328815 289.040178,84.8003902 289.040178,100.179859 C281.285773,100.179859 275,106.41321 275,114.102945 C275,121.792679 281.285773,128.02603 289.040178,128.02603 L430.986985,128.02603 C430.526158,87.0353376 418.022882,48.929202 396.804536,17 Z" id="Shape-Copy-5" fill="url(#linearGradient-4)" mask="url(#mask-2)"></path>
            <path d="M1256.25271,319.034707 C1252.956,319.034707 1250.2885,316.120295 1250.2885,312.525691 L1250.2885,117.25522 C1250.2885,113.660616 1252.956,110.746204 1256.25271,110.746204 C1259.54943,110.746204 1262.21692,113.660616 1262.21692,117.25522 L1262.21692,312.525691 C1262.21692,316.120295 1259.54943,319.034707 1256.25271,319.034707 Z" id="Shape" fill="#0C2340" mask="url(#mask-2)"></path>
            <path d="M1231.47831,263.980477 C1229.70315,263.980477 1228.26681,262.531311 1228.26681,260.740306 L1228.26681,163.535182 C1228.26681,161.744177 1229.70315,160.295011 1231.47831,160.295011 C1233.25346,160.295011 1234.6898,161.744177 1234.6898,163.535182 L1234.6898,260.740306 C1234.6898,262.531311 1233.25346,263.980477 1231.47831,263.980477 Z" id="Shape" fill="#0C2340" mask="url(#mask-2)"></path>
            <path d="M1205.78633,263.980477 C1204.01118,263.980477 1202.57484,262.522177 1202.57484,260.719883 L1202.57484,183.742156 C1202.57484,181.939862 1204.01118,180.481562 1205.78633,180.481562 C1207.56149,180.481562 1208.99783,181.939862 1208.99783,183.742156 L1208.99783,260.719883 C1208.99783,262.522177 1207.56149,263.980477 1205.78633,263.980477 Z" id="Shape" fill="#0C2340" mask="url(#mask-2)"></path>
            <path d="M1179.17679,263.980477 C1177.40163,263.980477 1175.96529,262.526748 1175.96529,260.730106 L1175.96529,203.918484 C1175.96529,202.121842 1177.40163,200.668113 1179.17679,200.668113 C1180.95194,200.668113 1182.38829,202.121842 1182.38829,203.918484 L1182.38829,260.730106 C1182.38829,262.526748 1180.95194,263.980477 1179.17679,263.980477 Z" id="Shape" fill="#0C2340" mask="url(#mask-2)"></path>
            <path d="M1152.56725,263.980477 C1150.79209,263.980477 1149.35575,262.544135 1149.35575,260.76898 L1149.35575,222.23102 C1149.35575,220.455865 1150.79209,219.019523 1152.56725,219.019523 C1154.3424,219.019523 1155.77874,220.455865 1155.77874,222.23102 L1155.77874,260.76898 C1155.77874,262.544135 1154.3424,263.980477 1152.56725,263.980477 Z" id="Shape" fill="#0C2340" mask="url(#mask-2)"></path>
            <path d="M1126.87527,263.980477 C1125.10012,263.980477 1123.66377,262.495401 1123.66377,260.660016 L1123.66377,236.103542 C1123.66377,234.268157 1125.10012,232.78308 1126.87527,232.78308 C1128.65043,232.78308 1130.08677,234.268157 1130.08677,236.103542 L1130.08677,260.660016 C1130.08677,262.495401 1128.65043,263.980477 1126.87527,263.980477 Z" id="Shape" fill="#0C2340" mask="url(#mask-2)"></path>
            <path d="M1282.86226,263.980477 C1281.0871,263.980477 1279.65076,262.531311 1279.65076,260.740306 L1279.65076,163.535182 C1279.65076,161.744177 1281.0871,160.295011 1282.86226,160.295011 C1284.63741,160.295011 1286.07375,161.744177 1286.07375,163.535182 L1286.07375,260.740306 C1286.07375,262.531311 1284.63741,263.980477 1282.86226,263.980477 Z" id="Shape" fill="#0C2340" mask="url(#mask-2)"></path>
            <path d="M1309.4718,263.980477 C1307.69665,263.980477 1306.2603,262.522177 1306.2603,260.719883 L1306.2603,183.742156 C1306.2603,181.939862 1307.69665,180.481562 1309.4718,180.481562 C1311.24696,180.481562 1312.6833,181.939862 1312.6833,183.742156 L1312.6833,260.719883 C1312.6833,262.522177 1311.24696,263.980477 1309.4718,263.980477 Z" id="Shape" fill="#0C2340" mask="url(#mask-2)"></path>
            <path d="M1335.16377,263.980477 C1333.38862,263.980477 1331.95228,262.526748 1331.95228,260.730106 L1331.95228,203.918484 C1331.95228,202.121842 1333.38862,200.668113 1335.16377,200.668113 C1336.93893,200.668113 1338.37527,202.121842 1338.37527,203.918484 L1338.37527,260.730106 C1338.37527,262.526748 1336.93893,263.980477 1335.16377,263.980477 Z" id="Shape" fill="#0C2340" mask="url(#mask-2)"></path>
            <path d="M1361.77332,263.980477 C1359.99816,263.980477 1358.56182,262.544135 1358.56182,260.76898 L1358.56182,222.23102 C1358.56182,220.455865 1359.99816,219.019523 1361.77332,219.019523 C1363.54847,219.019523 1364.98482,220.455865 1364.98482,222.23102 L1364.98482,260.76898 C1364.98482,262.544135 1363.54847,263.980477 1361.77332,263.980477 Z" id="Shape" fill="#0C2340" mask="url(#mask-2)"></path>
            <path d="M1386.54772,263.980477 C1384.77257,263.980477 1383.33623,262.495401 1383.33623,260.660016 L1383.33623,236.103542 C1383.33623,234.268157 1384.77257,232.78308 1386.54772,232.78308 C1388.32288,232.78308 1389.75922,234.268157 1389.75922,236.103542 L1389.75922,260.660016 C1389.75922,262.495401 1388.32288,263.980477 1386.54772,263.980477 Z" id="Shape" fill="#0C2340" mask="url(#mask-2)"></path>
            <path d="M1450.74807,263.062907 C1410.57644,263.062907 1295.84689,191.703365 1253.63662,132.370049 C1252.60515,130.911026 1252.94627,128.893453 1254.40881,127.861225 C1255.86487,126.825763 1257.88407,127.166875 1258.92851,128.62509 C1303.17094,190.815826 1415.50127,256.596325 1450.74807,256.596325 C1452.53958,256.596325 1453.98915,258.042414 1453.98915,259.829616 C1453.98915,261.616817 1452.53958,263.062907 1450.74807,263.062907 Z" id="Shape" fill="#0C2340" mask="url(#mask-2)"></path>
            <path d="M1061.75736,263.062907 C1059.96585,263.062907 1058.51627,261.616785 1058.51627,259.829543 C1058.51627,258.042301 1059.96585,256.59618 1061.75736,256.59618 C1097.00424,256.59618 1209.33483,190.814206 1253.57655,128.622883 C1254.62099,127.163828 1256.64668,126.829175 1258.09625,127.859001 C1259.5588,128.891253 1259.90073,130.908871 1258.86844,132.367927 C1216.65889,191.701765 1101.92908,263.062907 1061.75736,263.062907 Z" id="Shape" fill="#0C2340" mask="url(#mask-2)"></path>
            <path d="M1054.9392,265.815618 L1457.56541,265.815618 C1458.66481,261.89266 1459.58151,257.904096 1460.41215,253.887202 L1052.09328,253.887202 C1052.9231,257.904096 1053.8398,261.89266 1054.9392,265.815618 Z" id="Shape" fill="#0C2340" mask="url(#mask-2)"></path>
            <path d="M1059.23839,274.073753 L1456.9365,274.073753 C1458.24342,270.154522 1459.37814,266.168195 1460.41215,262.145336 L1055.76356,262.145336 C1056.79756,266.168195 1057.93228,270.154522 1059.23839,274.073753 Z" id="Shape" fill="#0C2340" mask="url(#mask-2)"></path>
            <path d="M1033,278 C1038.01835,338.799149 1068.98821,392.208053 1114.83792,427.066667 L1190.14498,427.066667 L1293,365.039211 C1207.45903,365.039211 1159.77654,278.359922 1033,278 Z" id="Shape-Copy" fill="url(#linearGradient-3)" mask="url(#mask-2)"></path>
            <path d="M1235.78229,448.614679 C1344.73726,448.614679 1435.40345,370.407355 1455,267 C1372.47165,267.024448 1271.52112,370.451886 1179.98395,357.806903 C1129.41671,350.821689 1116.33898,336.822448 1051,350.475921 C1091.14516,409.699181 1158.92183,448.614679 1235.78229,448.614679 Z" id="Shape-Copy-2" fill="url(#linearGradient-3)" mask="url(#mask-2)" transform="translate(1253.000000, 357.807339) rotate(6.000000) translate(-1253.000000, -357.807339) "></path>
            <path d="M1520.78485,320.639453 C1421.1217,301.668119 1400.01896,379.482493 1243.78485,379.501551 C1275.04377,405.781063 1315.27609,421.659444 1359.24095,421.659444 C1430.16261,421.659444 1491.45549,380.469951 1520.78485,320.639453 Z" id="Shape-Copy-3" fill="url(#linearGradient-3)" mask="url(#mask-2)" transform="translate(1382.284851, 369.659444) rotate(-12.000000) translate(-1382.284851, -369.659444) "></path>
            <path d="M1382.69504,392 C1430.35196,392 1473.67573,373.585793 1506,343.51995 C1486.33703,346.77014 1456.44781,313.554461 1425.34955,325.671823 C1411.49336,331.071138 1367.41262,368.425349 1329,383.855798 C1345.97182,389.11589 1363.99137,392 1382.69504,392 Z" id="Shape-Copy-4" fill="url(#linearGradient-3)" mask="url(#mask-2)"></path>
            <rect id="Rectangle-240" fill="#0C2340" mask="url(#mask-2)" x="360.552001" y="0.816648365" width="716.540983" height="499.772282" rx="4"></rect>
            <circle id="Oval-35" fill="#546C8D" mask="url(#mask-2)" cx="400.327375" cy="19.0648646" r="9.66860939"></circle>
            <circle id="Oval-34" fill="#546C8D" mask="url(#mask-2)" cx="448.498197" cy="19.0648646" r="9.66860939"></circle>
            <circle id="Oval-33" fill="#546C8D" mask="url(#mask-2)" cx="496.66902" cy="19.0648646" r="9.66860939"></circle>
            <rect id="Rectangle-238" fill="#DB3069" mask="url(#mask-2)" x="447.945724" y="109.200999" width="199.321424" height="12.0427056" rx="4"></rect>
            <rect id="Rectangle-237" fill="#7E90A9" opacity="0.305445429" mask="url(#mask-2)" x="468.936352" y="157.371821" width="210.747348" height="12.0427056" rx="4"></rect>
            <rect id="Rectangle-236" fill="#7E90A9" opacity="0.305445429" mask="url(#mask-2)" x="468.936352" y="199.521291" width="132.469762" height="12.0427056" rx="4"></rect>
            <rect id="Rectangle-235" fill="#7E90A9" opacity="0.305445429" mask="url(#mask-2)" x="620.905421" y="199.521291" width="132.469762" height="12.0427056" rx="4"></rect>
            <rect id="Rectangle-234" fill="#DB3069" mask="url(#mask-2)" x="772.87449" y="199.521291" width="132.469762" height="12.0427056" rx="4"></rect>
            <rect id="Rectangle-233" fill="#7E90A9" opacity="0.305445429" mask="url(#mask-2)" x="700.674328" y="155.866483" width="150.53382" height="12.0427056" rx="4"></rect>
            <rect id="Rectangle-232" fill="#7E90A9" opacity="0.305445429" mask="url(#mask-2)" x="872.198776" y="155.866483" width="72.2562336" height="12.0427056" rx="4"></rect>
            <rect id="Rectangle-231" fill="#DB3069" mask="url(#mask-2)" x="420.765529" y="307.905641" width="210.747348" height="12.0427056" rx="4"></rect>
            <rect id="Rectangle-230" fill="#7E90A9" opacity="0.305445429" mask="url(#mask-2)" x="468.936352" y="350.055111" width="30.106764" height="12.0427056" rx="4"></rect>
            <rect id="Rectangle-229" fill="#7E90A9" opacity="0.305445429" mask="url(#mask-2)" x="658.468787" y="350.055111" width="84.2989391" height="12.0427056" rx="4"></rect>
            <rect id="Rectangle-228" fill="#7E90A9" opacity="0.305445429" mask="url(#mask-2)" x="512.521071" y="350.055111" width="132.469762" height="12.0427056" rx="4"></rect>
            <rect id="Rectangle-224" fill="#7E90A9" opacity="0.305445429" mask="url(#mask-2)" x="647.973473" y="307.905641" width="150.53382" height="12.0427056" rx="4"></rect>
            <rect id="Rectangle-223" fill="#7E90A9" opacity="0.305445429" mask="url(#mask-2)" x="814.967889" y="307.905641" width="72.2562336" height="12.0427056" rx="4"></rect>
            <rect id="Rectangle-218" fill="#7E90A9" opacity="0.305445429" mask="url(#mask-2)" x="692.600944" y="109.200999" width="120.427056" height="12.0427056" rx="4"></rect>
        </g>
    </g>
</svg>