<?xml version="1.0" encoding="UTF-8"?>
<svg width="1440px" height="416px" viewBox="0 0 1440 416" version="1.1" xmlns="http://www.w3.org/2000/svg" xmlns:xlink="http://www.w3.org/1999/xlink">
    <!-- Generator: Sketch 48.2 (47327) - http://www.bohemiancoding.com/sketch -->
    <title>1440x416-hero-landscape</title>
    <desc>Created with Sketch.</desc>
    <defs>
        <rect id="path-1" x="0" y="0" width="1440" height="416"></rect>
        <linearGradient x1="50%" y1="0%" x2="50%" y2="100%" id="linearGradient-3">
            <stop stop-color="#1C4974" offset="0%"></stop>
            <stop stop-color="#0C2340" offset="100%"></stop>
        </linearGradient>
        <linearGradient x1="50%" y1="0%" x2="50%" y2="100%" id="linearGradient-4">
            <stop stop-color="#6487AB" offset="0%"></stop>
            <stop stop-color="#344F73" offset="100%"></stop>
        </linearGradient>
        <linearGradient x1="50%" y1="0%" x2="50%" y2="100%" id="linearGradient-5">
            <stop stop-color="#8DA5C1" offset="0%"></stop>
            <stop stop-color="#546C8D" offset="100%"></stop>
        </linearGradient>
        <linearGradient x1="50%" y1="0%" x2="50%" y2="100%" id="linearGradient-6">
            <stop stop-color="#B5C3D4" offset="0%"></stop>
            <stop stop-color="#7E90A9" offset="100%"></stop>
        </linearGradient>
        <rect id="path-7" x="360.552001" y="0.816648365" width="716.540983" height="499.772282" rx="4"></rect>
        <filter x="-2.5%" y="-3.6%" width="105.0%" height="107.2%" filterUnits="objectBoundingBox" id="filter-8">
            <feOffset dx="0" dy="36" in="SourceAlpha" result="shadowOffsetInner1"></feOffset>
            <feComposite in="shadowOffsetInner1" in2="SourceAlpha" operator="arithmetic" k2="-1" k3="1" result="shadowInnerInner1"></feComposite>
            <feColorMatrix values="0 0 0 0 0.0470588235   0 0 0 0 0.137254902   0 0 0 0 0.250980392  0 0 0 1 0" type="matrix" in="shadowInnerInner1"></feColorMatrix>
        </filter>
    </defs>
    <g id="Artboard-2" stroke="none" stroke-width="1" fill="none" fill-rule="evenodd" transform="translate(0.000000, -484.000000)">
        <g id="1440x416-hero-landscape" transform="translate(0.000000, 484.000000)">
            <mask id="mask-2" fill="white">
                <use xlink:href="#path-1"></use>
            </mask>
            <g id="Rectangle-3"></g>
            <polyline id="Shape" fill="#0C2340" mask="url(#mask-2)" points="1280 329.333333 1333.33333 329.333333 1324.44444 231.555556 1280 249.333333 1280 329.333333"></polyline>
            <rect id="Rectangle-path" fill="url(#linearGradient-3)" mask="url(#mask-2)" x="1324.44444" y="196" width="35.5555556" height="133.333333"></rect>
            <polygon id="Shape" fill="#0C2340" mask="url(#mask-2)" points="1395.55556 107.111111 1395.55556 329.333333 1440 329.333333 1440 130.444444 1440 76"></polygon>
            <polyline id="Shape" fill="url(#linearGradient-3)" mask="url(#mask-2)" points="1360 329.333333 1360 284.888889 1306.66667 284.888889 1306.66667 329.333333"></polyline>
            <polyline id="Shape" fill="url(#linearGradient-3)" mask="url(#mask-2)" points="1396.11111 329.333333 1396.11111 222.666667 1345 222.666667 1345 329.333333"></polyline>
            <path d="M79.8187598,133.050569 C79.5780266,133.050569 79.355999,133.115742 79.1160791,133.121445 C75.8800067,116.989459 61.6669881,104.83548 44.6090885,104.83548 C43.7974272,104.83548 43.0386297,105.020408 42.2407943,105.074176 C36.5030484,88.5218237 20.8366844,76.6203905 2.35797095,76.6203905 C-2.95442534,76.6203905 -7.98867719,77.7022649 -12.672402,79.4953414 C-33.9455725,111.075809 -46.7516031,148.820844 -48,189.481562 L79.8195731,189.481562 C95.3761433,189.481562 107.986985,176.84856 107.986985,161.266473 C107.986985,145.682756 95.3761433,133.050569 79.8187598,133.050569 Z" id="Shape-Copy-7" fill="url(#linearGradient-4)" mask="url(#mask-2)"></path>
            <path d="M-0.975999906,174 C-6.6835808,187.015976 -10.9683593,200.788972 -13.6569498,215.132152 C-13.9025172,222.065917 -14,228.660252 -14,234.077744 C-14,251.512274 -11.454285,268.381087 -6.77808702,284.425142 C27.9176051,286.180356 82.8376302,286.183333 82.8376302,286.183333 L113,240.032669 L93.1566686,239.535433 C55.9621424,239.535433 30.5421994,187.469295 -0.975999906,174 Z" id="Shape" fill="#0C2340" mask="url(#mask-2)"></path>
            <path d="M329.030865,210 C309.72973,210 301.766,235.777291 276,235.777291 L284.432432,295.765803 C284.432432,295.765803 350.486486,301.366626 356.108108,302.830801 C359.291351,303.660263 366.526378,301.285599 372.20773,299.069436 C377.260162,282.280471 380,264.47227 380,246.012298 C380,244.714442 379.92973,243.435066 379.903027,242.143607 C378.859514,241.301352 340.03027,210 329.030865,210 Z" id="Shape" fill="#344F73" mask="url(#mask-2)"></path>
            <path d="M257.075761,390 L352.960516,339.844983 C364.004276,321.668552 371.904655,301.372845 376,279.724138 L376,279.724138 C376,279.724138 337.991228,280.784483 322.842259,274.068966 C304.214501,265.811707 261.99412,207.377517 235.58718,172.298483 C230.677277,166.103241 225.912528,160.351224 221.374672,155.310345 C213.544052,146.611276 190.675795,144 187.552143,144 C184.845636,144 162.93357,169.861103 146.939741,189.2435 C122.828506,218.780466 94.4408349,254.374828 80.4467635,268.413793 L57,316.482759 L257.075761,390 Z" id="Shape" fill="#0C2340" mask="url(#mask-2)"></path>
            <path d="M358,320.824885 C330.264175,320.824885 302.730025,324.993098 270.090559,297.200281 C257.397786,286.392278 244.847454,275.999749 234.127702,289.046776 C227.428739,297.200281 215.019438,324.142298 199.575153,312.798291 C184.130869,301.454283 177.625823,266.394211 162.907142,266.004261 C150.919523,265.686629 141.047367,283.26275 132.217427,273.567169 C126.404137,267.184038 73,304.644785 73,304.644785 C73,304.644785 127.649439,353.432525 135.406134,352.96742 C143.162829,352.502316 188.928737,359.529928 188.928737,359.529928 C188.928737,359.529928 205.163499,378.755894 213.501241,375.663234 C221.838982,372.570574 242.212293,379.020351 253.89176,373.815579 C265.571227,368.611515 321.276987,345.412311 322.479275,342.57631 C323.681562,339.740308 358,320.824885 358,320.824885 Z" id="Shape" fill="#0C2340" mask="url(#mask-2)"></path>
            <path d="M99.1135946,301.549482 C90.1922077,297.459764 92.1325251,286.814936 82.2595891,283.57122 C72.6036484,280.39871 71.3747105,278.107453 65.9322712,273.348688 C60.489832,268.589923 53.095137,274.981473 48.2004529,265.241162 C45.366171,259.600439 33.2776355,257.133637 28.1863214,252.198621 C23.0950072,247.263605 14.0064847,248.89639 10.1033779,247.263605 C1.67637517,243.738594 5.01206377,238.627328 -4.99500202,239.684831 C-11.9950323,240.424379 -15.7148518,234.787886 -20.9508295,233 C-22.4999935,240.979215 -23.5358126,249.141731 -24,257.459348 L19.9348812,281.456214 C19.9348812,281.456214 62.7721452,295.380008 65.9322712,296.613762 C69.0923973,297.847516 117.395977,318.797362 115.969005,316.875526 C113.421943,313.44569 106.223878,304.809413 99.1135946,301.549482 Z" id="Shape" fill="url(#linearGradient-4)" mask="url(#mask-2)" transform="translate(46.000000, 275.000000) rotate(-1.000000) translate(-46.000000, -275.000000) "></path>
            <path d="M138.794072,340.681038 C136.160473,339.368144 130.028112,336.058749 124.663532,328.956707 C119.298951,321.854664 119.253081,317.198513 112.90196,314.023864 C105.761182,310.454148 105.845158,310.143737 97.3769951,305.910872 C88.9088326,301.678007 88.9088326,298.856097 83.7926511,292.859538 C78.1796708,286.28096 69.4680487,286.642165 60.9998862,282.879853 C52.5317238,279.117541 48.947574,272.431025 43.7452996,269.931518 C38.5430251,267.432011 35.2771371,270.166442 30.5723672,267.768524 C24.1965466,264.518389 23.8232417,255.292154 15.8666974,256.232556 C7.91015314,257.172957 5.92930881,259.981463 0.463109946,255.11649 C-8.65216125,247.003499 -12.8862425,252.118211 -23.0233386,249 C-23.6633905,255.184921 -24,261.46085 -24,267.815086 C-24,283.05975 -22.0897237,297.85573 -18.5323898,311.996321 C-10.4925752,313.564598 -1.68427491,315.235169 7.09015274,317.198513 C34.4162073,323.312886 106.315846,345.888167 131.720334,350.121033 C157.124821,354.353898 141.428376,341.993931 138.794072,340.681038 Z" id="Shape" fill="url(#linearGradient-3)" mask="url(#mask-2)" transform="translate(61.000000, 300.000000) rotate(-1.000000) translate(-61.000000, -300.000000) "></path>
            <path d="M-38,280 C-32.9816484,340.799149 -2.01178517,394.208053 43.8379226,429.066667 L119.14498,429.066667 L222,367.039211 C136.459026,367.039211 88.7765362,280.359922 -38,280 Z" id="Shape" fill="url(#linearGradient-3)" mask="url(#mask-2)"></path>
            <path d="M129.378944,477.321101 C234.558244,477.321101 322.082539,401.823932 341,302 C261.33154,302.023601 163.879303,401.866919 75.5142139,389.660129 C26.6993027,382.916977 14.0747567,369.402858 -49,382.583191 C-10.2460103,439.75416 55.1819618,477.321101 129.378944,477.321101 Z" id="Shape" fill="url(#linearGradient-3)" mask="url(#mask-2)"></path>
            <path d="M174.5,380 C173.670938,380 173,379.22887 173,378.27743 L173,359.72257 C173,358.77113 173.670938,358 174.5,358 C175.329062,358 176,358.77113 176,359.72257 L176,378.27743 C176,379.22887 175.329062,380 174.5,380 Z" id="Shape" fill="#344F73" mask="url(#mask-2)"></path>
            <path d="M186,357.230824 C186,363.178434 181.07509,368 175,368 C168.92491,368 164,363.178434 164,357.230824 C164,351.283213 168.92491,333 175,333 C181.07509,333 186,351.283213 186,357.230824 Z" id="Shape" fill="url(#linearGradient-3)" mask="url(#mask-2)"></path>
            <path d="M175.214104,333 C173.718776,333 172.294959,334.15432 171,335.973805 L171,335.973805 C176.452421,335.973805 180.872557,352.707557 180.872557,358.151169 C180.872557,362.886497 177.525064,366.83437 173.065987,367.783698 C173.760549,367.923658 174.477768,368 175.213396,368 C181.170631,368 186,363.178434 186,357.230824 C186.001416,351.283213 181.172047,333 175.214104,333 Z" id="Shape" fill="url(#linearGradient-3)" mask="url(#mask-2)"></path>
            <path d="M313.5,329 C312.119012,329 311,327.913302 311,326.572749 L311,300.427251 C311,299.086698 312.118263,298 313.5,298 C314.880988,298 316,299.086698 316,300.427251 L316,326.572749 C316,327.913302 314.881737,329 313.5,329 Z" id="Shape" fill="#344F73" mask="url(#mask-2)"></path>
            <path d="M328,298.923408 C328,307.250154 321.50845,314 313.499655,314 C305.49086,314 299,307.250154 299,298.923408 C299,290.596662 305.49155,265 313.499655,265 C321.507761,265 328,290.596662 328,298.923408 Z" id="Shape" fill="url(#linearGradient-3)" mask="url(#mask-2)"></path>
            <path d="M313.618569,265 C311.624927,265 309.726319,266.615605 308,269.163731 L308.000684,269.163731 C315.270365,269.163731 321.163094,292.590723 321.163094,300.212165 C321.163094,306.841593 316.700646,312.368626 310.755273,313.697522 C311.68099,313.893918 312.637473,314 313.618569,314 C321.561002,314 328,307.250154 328,298.923408 C328,290.596662 321.561002,265 313.618569,265 Z" id="Shape" fill="url(#linearGradient-3)" mask="url(#mask-2)"></path>
            <path d="M351.5,333 C350.119012,333 349,331.913302 349,330.572749 L349,304.427251 C349,303.086698 350.118263,302 351.5,302 C352.881737,302 354,303.086698 354,304.427251 L354,330.572749 C354,331.912574 352.880988,333 351.5,333 Z" id="Shape" fill="#674447" mask="url(#mask-2)"></path>
            <path d="M366,302.923408 C366,311.250154 359.50845,318 351.499655,318 C343.49086,318 337,311.250154 337,302.923408 C337,294.596662 343.49155,269 351.499655,269 C359.507761,269 366,294.596662 366,302.923408 Z" id="Shape" fill="url(#linearGradient-3)" mask="url(#mask-2)"></path>
            <path d="M351.618569,269 C349.624927,269 347.726319,270.615605 346,273.163731 L346.000684,273.163731 C353.270365,273.163731 359.163094,296.590723 359.163094,304.212165 C359.163094,310.841593 354.700646,316.368626 348.755273,317.697522 C349.68099,317.893918 350.637473,318 351.618569,318 C359.561002,318 366,311.250154 366,302.923408 C366,294.595945 359.561002,269 351.618569,269 Z" id="Shape" fill="url(#linearGradient-3)" mask="url(#mask-2)"></path>
            <path d="M225.5,365 C224.119012,365 223,363.913302 223,362.572749 L223,336.427251 C223,335.086698 224.118263,334 225.5,334 C226.881737,334 228,335.086698 228,336.427251 L228,362.572749 C228,363.913302 226.880988,365 225.5,365 Z" id="Shape" fill="#344F73" mask="url(#mask-2)"></path>
            <path d="M239,333.922912 C239,342.249536 232.50845,349 224.500345,349 C216.492239,349 210,342.250252 210,333.922912 C210,325.595571 216.49155,300 224.500345,300 C232.50914,300 239,325.596287 239,333.922912 Z" id="Shape" fill="url(#linearGradient-3)" mask="url(#mask-2)"></path>
            <path d="M224.618569,300 C222.624927,300 220.726319,301.615605 219,304.163731 L219.000684,304.163731 C226.270365,304.163731 232.163094,327.590723 232.163094,335.212165 C232.163094,341.841593 227.700646,347.368626 221.755273,348.697522 C222.68099,348.893201 223.637473,349 224.618569,349 C232.561002,349 239,342.250154 239,333.923408 C239,325.596662 232.561002,300 224.618569,300 Z" id="Shape" fill="url(#linearGradient-3)" mask="url(#mask-2)"></path>
            <path d="M194.5,375 C193.118971,375 192,374.018522 192,372.807726 L192,349.192274 C192,347.981478 193.118167,347 194.5,347 C195.881833,347 197,347.981478 197,349.192274 L197,372.807726 C197,374.017816 195.881833,375 194.5,375 Z" id="Shape" fill="#344F73" mask="url(#mask-2)"></path>
            <path d="M207,347.153737 C207,354.800782 200.95581,361 193.5,361 C186.04419,361 180,354.800782 180,347.153737 C180,339.506692 186.04419,316 193.5,316 C200.95581,316 207,339.506692 207,347.153737 Z" id="Shape" fill="url(#linearGradient-3)" mask="url(#mask-2)"></path>
            <path d="M194.337494,316 C192.443702,316 190.639891,317.483905 189,319.823936 L189.000698,319.823936 C195.906237,319.823936 201.504607,341.33879 201.504607,348.337675 C201.504607,354.425997 197.265024,359.501956 191.617827,360.722165 C192.497412,360.90244 193.406292,361 194.338192,361 C201.883366,361 208,354.800685 208,347.15352 C207.999302,339.507062 201.882668,316 194.337494,316 Z" id="Shape" fill="url(#linearGradient-3)" mask="url(#mask-2)"></path>
            <path d="M401.784851,343.639453 C302.121697,324.668119 281.018957,402.482493 124.784851,402.501551 C156.043767,428.781063 196.276094,444.659444 240.240955,444.659444 C311.162614,444.659444 372.455488,403.469951 401.784851,343.639453 Z" id="Shape" fill="url(#linearGradient-3)" mask="url(#mask-2)" transform="translate(263.284851, 392.659444) rotate(-12.000000) translate(-263.284851, -392.659444) "></path>
            <path d="M236.113818,172.443789 C231.178757,166.216737 226.389594,160.435184 221.828487,155.368421 C213.957745,146.624684 190.972315,144 187.832658,144 C185.112284,144 163.087945,169.993895 147.012167,189.475816 C140.849715,197.025158 134.40963,204.967421 128,212.848579 C130.771368,216.728053 136.133502,222.192 144.072944,221.415395 C159.697569,219.886342 162.745862,201.535579 174.559412,203.063921 C190.652188,205.147184 188.209446,252 205.046588,252 C221.433286,252 210.069472,216.466579 229.435762,209.180842 C243.701262,203.814237 248.9607,219.200684 273,221.199395 C259.851405,204.335763 246.71485,186.526421 236.113818,172.443789 Z" id="Shape" fill="#344F73" mask="url(#mask-2)"></path>
            <path d="M243,181.126313 C240.664795,178.023366 238.390949,175.003444 236.244056,172.167167 C231.329616,166.000674 226.560465,160.275348 222.018417,155.257861 C214.180562,146.599159 191.291178,144 188.16464,144 C186.276587,144 175.049829,156.50678 163,170.615693 C176.174761,160.183175 183.363046,164.475938 185.813214,176.679458 C191.471731,204.862809 197.568232,227.49533 204.621102,209.670619 C211.673972,191.845908 208.574236,181.637842 229.26242,183.75432 C237.428233,184.589513 239.110342,182.204254 243,181.126313 Z" id="Shape" fill="url(#linearGradient-5)" mask="url(#mask-2)"></path>
            <path d="M359,225.325101 C347.727768,217.588204 335.269807,210 329.748713,210 C317.401515,210 309.636057,220.138316 299,227.584808 L299.00781,227.589695 C316.636826,224.659824 317.924087,247 326.089285,247 C335.643986,247 335.904562,235.018735 345.273948,239.087185 C363.497959,247 349.771197,228.5 359,225.325101 Z" id="Shape" fill="#546C8D" mask="url(#mask-2)"></path>
            <path d="M348,217.828563 C340.348083,213.363667 333.353319,210 329.575945,210 C321.019992,210 314.628399,214.588228 308,219.77829 C317.429759,223.627873 324.91037,234.845713 336.490094,227.634485 C344.164324,222.85553 345.557087,219.942059 348,217.828563 Z" id="Shape" fill="url(#linearGradient-6)" mask="url(#mask-2)"></path>
            <path d="M294,339 C292.342637,339 291,337.702917 291,336.103019 L291,304.896981 C291,303.297083 292.341915,302 294,302 C295.658085,302 297,303.297083 297,304.896981 L297,336.103019 C296.999278,337.702917 295.657363,339 294,339 Z" id="Shape" fill="#344F73" mask="url(#mask-2)"></path>
            <path d="M312,302.538679 C312,312.735011 303.716988,321 293.5,321 C283.283012,321 275,312.734305 275,302.538679 C275,292.343052 283.283012,261 293.5,261 C303.716988,261 312,292.342347 312,302.538679 Z" id="Shape" fill="url(#linearGradient-3)" mask="url(#mask-2)"></path>
            <path d="M293.303973,261 C290.711687,261 288.243695,262.97858 286,266.098459 L286.000714,266.098459 C295.451234,266.098459 303.111654,294.784696 303.111654,304.116822 C303.111654,312.234291 297.309907,319.002375 289.581625,320.629678 C290.785263,320.869505 292.028903,321 293.303973,321 C303.62954,321 312,312.734402 312,302.538896 C311.999286,292.341978 303.628826,261 293.303973,261 Z" id="Shape" fill="url(#linearGradient-3)" mask="url(#mask-2)"></path>
            <path d="M334,334 C332.342588,334 331,332.772628 331,331.259545 L331,301.740455 C331,300.226673 332.342588,299 334,299 C335.657412,299 337,300.227372 337,301.740455 L337,331.259545 C337.000764,332.772628 335.658176,334 334,334 Z" id="Shape" fill="#344F73" mask="url(#mask-2)"></path>
            <path d="M352,300.461757 C352,310.147934 344.165056,318 334.5,318 C324.834944,318 317,310.147934 317,300.461757 C317,290.77558 324.834944,261 334.5,261 C344.164348,261 352,290.77558 352,300.461757 Z" id="Shape" fill="url(#linearGradient-3)" mask="url(#mask-2)"></path>
            <path d="M333.741996,261 C331.349743,261 329.07124,262.879503 327,265.843443 L327.000698,265.843443 C335.72391,265.843443 342.795295,293.095524 342.795295,301.961103 C342.795295,309.672739 337.440639,316.102057 330.306446,317.648214 C331.417435,317.876591 332.56541,318 333.742694,318 C343.273327,318 351,310.147934 351,300.461757 C350.999302,290.77558 343.272629,261 333.741996,261 Z" id="Shape" fill="url(#linearGradient-3)" mask="url(#mask-2)"></path>
            <path d="M270.5,343 C269.118728,343 268,341.913076 268,340.57249 L268,314.42751 C268,313.086924 269.118728,312 270.5,312 C271.881272,312 273,313.086924 273,314.42751 L273,340.57249 C273,341.913076 271.881272,343 270.5,343 Z" id="Shape" fill="#344F73" mask="url(#mask-2)"></path>
            <path d="M287,312.61533 C287,321.111703 280.060784,328 271.5,328 C262.939934,328 256,321.112416 256,312.61533 C256,304.118244 262.939216,278 271.5,278 C280.060066,278 287,304.118956 287,312.61533 Z" id="Shape" fill="url(#linearGradient-3)" mask="url(#mask-2)"></path>
            <path d="M271.180426,278 C268.986946,278 266.898964,279.648688 265,282.248543 L265.000733,282.248543 C272.997336,282.248543 279.479603,306.153811 279.479603,313.930576 C279.479603,320.6949 274.570282,326.334925 268.03087,327.691494 C269.049219,327.891702 270.101269,328 271.180426,328 C279.91698,328 287,321.112416 287,312.61533 C287,304.118956 279.91698,278 271.180426,278 Z" id="Shape" fill="url(#linearGradient-3)" mask="url(#mask-2)"></path>
            <path d="M249.5,370 C247.565771,370 246,368.457481 246,366.554805 L246,329.445195 C246,327.542519 247.565771,326 249.5,326 C251.434229,326 253,327.542519 253,329.445195 L253,366.554805 C253,368.457481 251.433511,370 249.5,370 Z" id="Shape" fill="#344F73" mask="url(#mask-2)"></path>
            <path d="M271,326.461377 C271,338.35671 261.374002,348 249.5,348 C237.625998,348 228,338.35671 228,326.461377 C228,314.566043 237.625998,278 249.5,278 C261.374703,278 271,314.566043 271,326.461377 Z" id="Shape" fill="url(#linearGradient-3)" mask="url(#mask-2)"></path>
            <path d="M250.708355,278 C247.617942,278 244.675695,280.308209 242,283.947726 L242.000726,283.947726 C253.268568,283.947726 262.402535,317.415002 262.402535,328.302675 C262.402535,337.77342 255.48524,345.669333 246.270653,347.567693 C247.705824,347.84771 249.188206,348 250.709081,348 C263.019891,348 273,338.356613 273,326.461862 C272.998547,314.56641 263.018439,278 250.708355,278 Z" id="Shape" fill="url(#linearGradient-3)" mask="url(#mask-2)"></path>
            <path d="M311.695039,426 C359.35196,426 402.675726,407.585793 435,377.51995 C415.337028,380.77014 385.44781,347.554461 354.349554,359.671823 C340.493363,365.071138 296.412621,402.425349 258,417.855798 C274.971818,423.11589 292.991375,426 311.695039,426 Z" id="Shape" fill="url(#linearGradient-3)" mask="url(#mask-2)"></path>
            <path d="M354.349169,359.675273 C340.493033,365.081553 296.412468,402.483955 258,417.934312 C259.293928,418.335537 260.633133,418.62708 261.939087,419 C300.773903,409.813569 346.5,368.771127 361.688266,368.306923 C366.023526,368.174596 393.995432,389.291641 409.743999,397.197264 C418.737116,391.384805 427.1954,384.814476 435,377.545718 C415.336399,380.800808 385.447301,347.542278 354.349169,359.675273 Z" id="Shape" fill="url(#linearGradient-3)" mask="url(#mask-2)"></path>
            <rect id="Rectangle-2" fill="#0C2340" mask="url(#mask-2)" x="1075" y="326" width="365" height="90"></rect>
            <path d="M1041.22923,138.163762 L1044.31846,151.693991 L1136.61456,184.875422 L1142.38412,174.709767 L1140.69945,167.562909 C1142.24085,163.134849 1143.07956,158.369187 1143.07956,153.404888 C1143.07956,137.530248 1134.488,123.713098 1121.78337,116.426459 C1122.01277,114.625643 1122.17133,112.802757 1122.17133,110.938182 C1122.17133,93.4352057 1111.68744,78.5136979 1096.7983,72.0142507 C1074.0396,89.8343926 1055.02209,112.340905 1041.22923,138.163762 Z" id="Shape" fill="url(#linearGradient-4)" mask="url(#mask-2)" transform="translate(1092.154397, 128.444836) rotate(-20.000000) translate(-1092.154397, -128.444836) "></path>
            <path d="M1176.81876,186.430178 C1176.57803,186.430178 1176.356,186.495352 1176.11608,186.501054 C1172.88001,170.369068 1158.66699,158.215089 1141.60909,158.215089 C1140.79743,158.215089 1140.03863,158.400018 1139.24079,158.453786 C1133.50305,141.901433 1117.83668,130 1099.35797,130 C1094.04557,130 1089.01132,131.081874 1084.3276,132.874951 C1063.05443,164.455419 1050.2484,202.200453 1049,242.861171 L1176.81957,242.861171 C1192.37614,242.861171 1204.98698,230.228169 1204.98698,214.646082 C1204.98698,199.062366 1192.37614,186.430178 1176.81876,186.430178 Z" id="Shape" fill="url(#linearGradient-4)" mask="url(#mask-2)"></path>
            <path d="M1459.80454,135 C1443.45697,136.761845 1429.9142,147.705269 1424.64679,162.606799 C1423.84705,162.561665 1423.05462,162.485904 1422.24269,162.485904 C1403.821,162.485904 1388.20247,174.232072 1382.48237,190.568224 C1381.69076,190.502135 1380.93003,190.332881 1380.12135,190.332881 C1364.61254,190.332881 1352.04018,202.80039 1352.04018,218.179859 C1344.28577,218.179859 1338,224.41321 1338,232.102945 C1338,239.792679 1344.28577,246.02603 1352.04018,246.02603 L1493.98698,246.02603 C1493.52616,205.035338 1481.02288,166.929202 1459.80454,135 Z" id="Shape" fill="url(#linearGradient-4)" mask="url(#mask-2)"></path>
            <path d="M396.804536,50 C380.456974,51.7618446 366.914197,62.7052691 361.646793,77.6067992 C360.847052,77.561665 360.054625,77.4859041 359.242692,77.4859041 C340.821004,77.4859041 325.202474,89.232072 319.482372,105.568224 C318.690758,105.502135 317.930028,105.332881 317.121346,105.332881 C301.612537,105.332881 289.040178,117.80039 289.040178,133.179859 C281.285773,133.179859 275,139.41321 275,147.102945 C275,154.792679 281.285773,161.02603 289.040178,161.02603 L430.986985,161.02603 C430.526158,120.035338 418.022882,81.929202 396.804536,50 Z" id="Shape-Copy-5" fill="url(#linearGradient-4)" mask="url(#mask-2)"></path>
            <path d="M1256.25271,352.034707 C1252.956,352.034707 1250.2885,349.120295 1250.2885,345.525691 L1250.2885,150.25522 C1250.2885,146.660616 1252.956,143.746204 1256.25271,143.746204 C1259.54943,143.746204 1262.21692,146.660616 1262.21692,150.25522 L1262.21692,345.525691 C1262.21692,349.120295 1259.54943,352.034707 1256.25271,352.034707 Z" id="Shape" fill="#0C2340" mask="url(#mask-2)"></path>
            <path d="M1231.47831,296.980477 C1229.70315,296.980477 1228.26681,295.531311 1228.26681,293.740306 L1228.26681,196.535182 C1228.26681,194.744177 1229.70315,193.295011 1231.47831,193.295011 C1233.25346,193.295011 1234.6898,194.744177 1234.6898,196.535182 L1234.6898,293.740306 C1234.6898,295.531311 1233.25346,296.980477 1231.47831,296.980477 Z" id="Shape" fill="#0C2340" mask="url(#mask-2)"></path>
            <path d="M1205.78633,296.980477 C1204.01118,296.980477 1202.57484,295.522177 1202.57484,293.719883 L1202.57484,216.742156 C1202.57484,214.939862 1204.01118,213.481562 1205.78633,213.481562 C1207.56149,213.481562 1208.99783,214.939862 1208.99783,216.742156 L1208.99783,293.719883 C1208.99783,295.522177 1207.56149,296.980477 1205.78633,296.980477 Z" id="Shape" fill="#0C2340" mask="url(#mask-2)"></path>
            <path d="M1179.17679,296.980477 C1177.40163,296.980477 1175.96529,295.526748 1175.96529,293.730106 L1175.96529,236.918484 C1175.96529,235.121842 1177.40163,233.668113 1179.17679,233.668113 C1180.95194,233.668113 1182.38829,235.121842 1182.38829,236.918484 L1182.38829,293.730106 C1182.38829,295.526748 1180.95194,296.980477 1179.17679,296.980477 Z" id="Shape" fill="#0C2340" mask="url(#mask-2)"></path>
            <path d="M1152.56725,296.980477 C1150.79209,296.980477 1149.35575,295.544135 1149.35575,293.76898 L1149.35575,255.23102 C1149.35575,253.455865 1150.79209,252.019523 1152.56725,252.019523 C1154.3424,252.019523 1155.77874,253.455865 1155.77874,255.23102 L1155.77874,293.76898 C1155.77874,295.544135 1154.3424,296.980477 1152.56725,296.980477 Z" id="Shape" fill="#0C2340" mask="url(#mask-2)"></path>
            <path d="M1126.87527,296.980477 C1125.10012,296.980477 1123.66377,295.495401 1123.66377,293.660016 L1123.66377,269.103542 C1123.66377,267.268157 1125.10012,265.78308 1126.87527,265.78308 C1128.65043,265.78308 1130.08677,267.268157 1130.08677,269.103542 L1130.08677,293.660016 C1130.08677,295.495401 1128.65043,296.980477 1126.87527,296.980477 Z" id="Shape" fill="#0C2340" mask="url(#mask-2)"></path>
            <path d="M1282.86226,296.980477 C1281.0871,296.980477 1279.65076,295.531311 1279.65076,293.740306 L1279.65076,196.535182 C1279.65076,194.744177 1281.0871,193.295011 1282.86226,193.295011 C1284.63741,193.295011 1286.07375,194.744177 1286.07375,196.535182 L1286.07375,293.740306 C1286.07375,295.531311 1284.63741,296.980477 1282.86226,296.980477 Z" id="Shape" fill="#0C2340" mask="url(#mask-2)"></path>
            <path d="M1309.4718,296.980477 C1307.69665,296.980477 1306.2603,295.522177 1306.2603,293.719883 L1306.2603,216.742156 C1306.2603,214.939862 1307.69665,213.481562 1309.4718,213.481562 C1311.24696,213.481562 1312.6833,214.939862 1312.6833,216.742156 L1312.6833,293.719883 C1312.6833,295.522177 1311.24696,296.980477 1309.4718,296.980477 Z" id="Shape" fill="#0C2340" mask="url(#mask-2)"></path>
            <path d="M1335.16377,296.980477 C1333.38862,296.980477 1331.95228,295.526748 1331.95228,293.730106 L1331.95228,236.918484 C1331.95228,235.121842 1333.38862,233.668113 1335.16377,233.668113 C1336.93893,233.668113 1338.37527,235.121842 1338.37527,236.918484 L1338.37527,293.730106 C1338.37527,295.526748 1336.93893,296.980477 1335.16377,296.980477 Z" id="Shape" fill="#0C2340" mask="url(#mask-2)"></path>
            <path d="M1361.77332,296.980477 C1359.99816,296.980477 1358.56182,295.544135 1358.56182,293.76898 L1358.56182,255.23102 C1358.56182,253.455865 1359.99816,252.019523 1361.77332,252.019523 C1363.54847,252.019523 1364.98482,253.455865 1364.98482,255.23102 L1364.98482,293.76898 C1364.98482,295.544135 1363.54847,296.980477 1361.77332,296.980477 Z" id="Shape" fill="#0C2340" mask="url(#mask-2)"></path>
            <path d="M1386.54772,296.980477 C1384.77257,296.980477 1383.33623,295.495401 1383.33623,293.660016 L1383.33623,269.103542 C1383.33623,267.268157 1384.77257,265.78308 1386.54772,265.78308 C1388.32288,265.78308 1389.75922,267.268157 1389.75922,269.103542 L1389.75922,293.660016 C1389.75922,295.495401 1388.32288,296.980477 1386.54772,296.980477 Z" id="Shape" fill="#0C2340" mask="url(#mask-2)"></path>
            <path d="M1450.74807,296.062907 C1410.57644,296.062907 1295.84689,224.703365 1253.63662,165.370049 C1252.60515,163.911026 1252.94627,161.893453 1254.40881,160.861225 C1255.86487,159.825763 1257.88407,160.166875 1258.92851,161.62509 C1303.17094,223.815826 1415.50127,289.596325 1450.74807,289.596325 C1452.53958,289.596325 1453.98915,291.042414 1453.98915,292.829616 C1453.98915,294.616817 1452.53958,296.062907 1450.74807,296.062907 Z" id="Shape" fill="#0C2340" mask="url(#mask-2)"></path>
            <path d="M1061.75736,296.062907 C1059.96585,296.062907 1058.51627,294.616785 1058.51627,292.829543 C1058.51627,291.042301 1059.96585,289.59618 1061.75736,289.59618 C1097.00424,289.59618 1209.33483,223.814206 1253.57655,161.622883 C1254.62099,160.163828 1256.64668,159.829175 1258.09625,160.859001 C1259.5588,161.891253 1259.90073,163.908871 1258.86844,165.367927 C1216.65889,224.701765 1101.92908,296.062907 1061.75736,296.062907 Z" id="Shape" fill="#0C2340" mask="url(#mask-2)"></path>
            <path d="M1054.9392,298.815618 L1457.56541,298.815618 C1458.66481,294.89266 1459.58151,290.904096 1460.41215,286.887202 L1052.09328,286.887202 C1052.9231,290.904096 1053.8398,294.89266 1054.9392,298.815618 Z" id="Shape" fill="#0C2340" mask="url(#mask-2)"></path>
            <path d="M1059.23839,307.073753 L1456.9365,307.073753 C1458.24342,303.154522 1459.37814,299.168195 1460.41215,295.145336 L1055.76356,295.145336 C1056.79756,299.168195 1057.93228,303.154522 1059.23839,307.073753 Z" id="Shape" fill="#0C2340" mask="url(#mask-2)"></path>
            <path d="M1033,311 C1038.01835,371.799149 1068.98821,425.208053 1114.83792,460.066667 L1190.14498,460.066667 L1293,398.039211 C1207.45903,398.039211 1159.77654,311.359922 1033,311 Z" id="Shape-Copy" fill="url(#linearGradient-3)" mask="url(#mask-2)"></path>
            <path d="M1235.78229,481.614679 C1344.73726,481.614679 1435.40345,403.407355 1455,300 C1372.47165,300.024448 1271.52112,403.451886 1179.98395,390.806903 C1129.41671,383.821689 1116.33898,369.822448 1051,383.475921 C1091.14516,442.699181 1158.92183,481.614679 1235.78229,481.614679 Z" id="Shape-Copy-2" fill="url(#linearGradient-3)" mask="url(#mask-2)" transform="translate(1253.000000, 390.807339) rotate(6.000000) translate(-1253.000000, -390.807339) "></path>
            <path d="M1520.78485,353.639453 C1421.1217,334.668119 1400.01896,412.482493 1243.78485,412.501551 C1275.04377,438.781063 1315.27609,454.659444 1359.24095,454.659444 C1430.16261,454.659444 1491.45549,413.469951 1520.78485,353.639453 Z" id="Shape-Copy-3" fill="url(#linearGradient-3)" mask="url(#mask-2)" transform="translate(1382.284851, 402.659444) rotate(-12.000000) translate(-1382.284851, -402.659444) "></path>
            <path d="M1382.69504,425 C1430.35196,425 1473.67573,406.585793 1506,376.51995 C1486.33703,379.77014 1456.44781,346.554461 1425.34955,358.671823 C1411.49336,364.071138 1367.41262,401.425349 1329,416.855798 C1345.97182,422.11589 1363.99137,425 1382.69504,425 Z" id="Shape-Copy-4" fill="url(#linearGradient-3)" mask="url(#mask-2)"></path>
            <g id="Rectangle-240" mask="url(#mask-2)">
                <use fill="#0C2340" fill-rule="evenodd" xlink:href="#path-7"></use>
                <use fill="black" fill-opacity="1" filter="url(#filter-8)" xlink:href="#path-7"></use>
            </g>
            <circle id="Oval-35" fill="#546C8D" mask="url(#mask-2)" cx="400.327375" cy="19.0648646" r="9.66860939"></circle>
            <circle id="Oval-34" fill="#546C8D" mask="url(#mask-2)" cx="448.498197" cy="19.0648646" r="9.66860939"></circle>
            <circle id="Oval-33" fill="#546C8D" mask="url(#mask-2)" cx="496.66902" cy="19.0648646" r="9.66860939"></circle>
            <rect id="Rectangle-238" fill="#DB3069" mask="url(#mask-2)" x="447.945724" y="109.200999" width="199.321424" height="12.0427056" rx="4"></rect>
            <rect id="Rectangle-237" fill="#7E90A9" opacity="0.305445429" mask="url(#mask-2)" x="468.936352" y="157.371821" width="210.747348" height="12.0427056" rx="4"></rect>
            <rect id="Rectangle-236" fill="#7E90A9" opacity="0.305445429" mask="url(#mask-2)" x="468.936352" y="199.521291" width="132.469762" height="12.0427056" rx="4"></rect>
            <rect id="Rectangle-235" fill="#7E90A9" opacity="0.305445429" mask="url(#mask-2)" x="620.905421" y="199.521291" width="132.469762" height="12.0427056" rx="4"></rect>
            <rect id="Rectangle-234" fill="#DB3069" mask="url(#mask-2)" x="772.87449" y="199.521291" width="132.469762" height="12.0427056" rx="4"></rect>
            <rect id="Rectangle-233" fill="#7E90A9" opacity="0.305445429" mask="url(#mask-2)" x="700.674328" y="155.866483" width="150.53382" height="12.0427056" rx="4"></rect>
            <rect id="Rectangle-232" fill="#7E90A9" opacity="0.305445429" mask="url(#mask-2)" x="872.198776" y="155.866483" width="72.2562336" height="12.0427056" rx="4"></rect>
            <rect id="Rectangle-231" fill="#DB3069" mask="url(#mask-2)" x="420.765529" y="307.905641" width="210.747348" height="12.0427056" rx="4"></rect>
            <rect id="Rectangle-230" fill="#7E90A9" opacity="0.305445429" mask="url(#mask-2)" x="468.936352" y="350.055111" width="30.106764" height="12.0427056" rx="4"></rect>
            <rect id="Rectangle-229" fill="#7E90A9" opacity="0.305445429" mask="url(#mask-2)" x="658.468787" y="350.055111" width="84.2989391" height="12.0427056" rx="4"></rect>
            <rect id="Rectangle-228" fill="#7E90A9" opacity="0.305445429" mask="url(#mask-2)" x="512.521071" y="350.055111" width="132.469762" height="12.0427056" rx="4"></rect>
            <rect id="Rectangle-227" fill="#7E90A9" opacity="0.305445429" mask="url(#mask-2)" x="468.936352" y="386.183227" width="30.106764" height="12.0427056" rx="4"></rect>
            <rect id="Rectangle-226" fill="#7E90A9" opacity="0.305445429" mask="url(#mask-2)" x="658.468787" y="386.183227" width="84.2989391" height="12.0427056" rx="4"></rect>
            <rect id="Rectangle-225" fill="#7E90A9" opacity="0.305445429" mask="url(#mask-2)" x="512.521071" y="386.183227" width="132.469762" height="12.0427056" rx="4"></rect>
            <rect id="Rectangle-224" fill="#7E90A9" opacity="0.305445429" mask="url(#mask-2)" x="647.973473" y="307.905641" width="150.53382" height="12.0427056" rx="4"></rect>
            <rect id="Rectangle-223" fill="#7E90A9" opacity="0.305445429" mask="url(#mask-2)" x="814.967889" y="307.905641" width="72.2562336" height="12.0427056" rx="4"></rect>
            <rect id="Rectangle-218" fill="#7E90A9" opacity="0.305445429" mask="url(#mask-2)" x="692.600944" y="109.200999" width="120.427056" height="12.0427056" rx="4"></rect>
        </g>
    </g>
</svg>