<svg height="36" viewBox="0 0 165 36" width="165" xmlns="http://www.w3.org/2000/svg"><g fill="none" transform=""><g fill="#010914"><path d="m4.89042324 2.8827775-1.09487087.36958686c-.72991392.29566949-1.45982784.5174216-2.04375897.73917372-.51093974.22175211-.58393113.36958686-.58393113.66525635h-.21897418v-1.55226481h.14598279v.14783474c0 .22175212.07299139.22175212.29196556.14783474.14598279-.07391737.51093974-.22175211.8758967-.29566948v-1.10876058c-.07299139-.07391737-.43794835-.14783474-.65692252-.29566949-.36495696-.07391737-.43794835 0-.43794835.22175212v.14783474h-.21897418v-1.33051269h.14598279c.07299139.36958686.07299139.44350423.58393113.66525634l3.06563845 1.18267795zm-2.26273314-.81309109v.96092583l1.31384505-.44350423z"/><path d="m4.81743185 6.72648084c0 .66525634-.14598278 1.25659532-.51093974 1.70009955-.29196557.29566949-.72991392.5174216-1.24085366.5174216-1.45982783 0-2.11675036-1.10876058-2.11675036-2.51319064v-1.47834744h.14598279c0 .51742161.07299139.51742161.72991391.51742161h2.04375897c.65692252 0 .65692252-.07391738.72991392-.51742161h.14598278v1.77401693zm-2.91965567-.59133898c-.58393113 0-.65692252.07391737-.65692252.5174216 0 .96092584.65692252 1.47834744 1.67880201 1.47834744 1.24085366 0 1.67880201-.66525635 1.67880201-1.62618218 0-.22175211 0-.36958686-.0729914-.36958686 0 0-.14598278 0-.29196556 0z"/><path d="m2.91965567 12.0485316c-.36495696 0-.65692253-.2956695-.65692253-.6652563 0-.3695869.29196557-.6652564.65692253-.6652564s.65692252.2956695.65692252.6652564c0 .3695868-.29196556.6652563-.65692252.6652563z"/><path d="m4.81743185 14.6356396-2.84666427 1.3305127 2.84666427 1.2565953v1.1087606h-.14598278c-.07299139-.5174216-.07299139-.5174216-.72991392-.5174216l-2.04375897.0739174c-.65692252 0-.65692252 0-.72991391.5174216h-.21897418v-1.7000996h.14598279c.07299139.4435043.07299139.5174216.72991391.4435043h2.26273314l-3.06563845-1.3305127v-.1478348l2.99264706-1.3305127-1.53281922-.0739173c-.51093974 0-.8758967 0-1.02187949 0-.21897417 0-.29196556.1478347-.29196556.5174216h-.21897418v-1.4044301h.14598279c0 .2956695.07299139.4435042.29196556.4435042.14598279 0 .51093974.0739174 1.09487088.0739174l1.24085366.1478347c.8029053.0739174.8758967 0 .8758967-.5174216h.14598278v1.1087606z"/><path d="m4.89042324 20.7707815-1.09487087.4435042c-.72991392.2956695-1.45982784.5174216-2.04375897.8130911-.51093974.2217521-.58393113.2956695-.58393113.6652564h-.14598279v-1.5522649h.14598279v.1478348c.07299139.1478347.07299139.2217521.36495696.1478347.14598278-.0739173.51093974-.2217521.8758967-.3695868v-1.1087606c-.14598279-.0739174-.51093975-.1478348-.72991392-.2956695-.29196557-.0739174-.36495696-.0739174-.43794835.2217521v.1478348h-.14598278v-1.3305127h.14598278c.07299139.3695868.07299139.4435042.58393113.6652563l3.06563845 1.182678zm-2.26273314-.7391737v.9609258l1.31384505-.5174216z"/><path d="m4.16050933 22.6187158c.58393113-.2217521.65692252-.2217521.51093974-.7391737l.14598278-.0739174.51093974 1.6261822-.14598278.0739173c-.14598278-.3695868-.21897418-.4435042-.80290531-.2217521l-1.82478479.591339c-.58393113.2217521-1.09487088.2956695-1.67880201-.0739174-.21897417-.1478347-.36495696-.2956695-.51093974-.5913389l.14598278-.1478348c.29196557.2956695.58393114.3695869.94888809.3695869.29196557 0 .65692253-.1478348 1.02187949-.2217521z"/><path d="m5.40136298 27.7929318c-1.09487087.6652564-2.26273314.3695869-2.84666427-.591339-.65692253-.9609258-.36495696-2.0696864.58393113-2.6610254.80290531-.5174216 2.11675036-.5913389 2.84666428.591339.58393113.8870085.36495696 1.9957691-.58393114 2.6610254zm-1.678802-2.7349428c-.8758967.591339-1.31384505 1.4783475-.8758967 2.1436038.36495695.5174216 1.02187948.6652564 1.97076757 0 1.02187948-.6652563 1.31384505-1.4783474.94888809-2.1436038-.43794835-.5174216-1.16786226-.5913389-2.04375896 0z"/><path d="m8.17503587 27.4233449c.36495696.2956695.51093974.5174217.58393113.8130911.07299139.2956695.07299139.591339-.14598278.8130911-.29196557.3695869-.80290531.4435043-1.24085366.2956695 0 .2217521-.14598278.6652564-.14598278.9609258 0 .3695869-.0729914.6652564-.0729914.8130911 0 .2217522 0 .3695869.14598279.4435043l-.14598279.2217521-.21897417-.1478348c-.43794835-.4435042-.51093974-.7391737-.51093974-1.1087605 0-.3695869.14598278-.7391738.21897417-1.1087606 0-.2217521 0-.2956695-.14598278-.3695869l-.07299139-.2217521-.51093974.591339c-.43794835.5174216-.36495696.591339-.0729914.8870084l-.07299139.1478348-1.31384505-1.1087606.07299139-.1478347c.43794835.3695868.51093975.3695868.8758967-.1478348l1.31384505-1.6261822c.43794835-.5174216.43794835-.5913389.0729914-.8870084l.07299139-.1478348zm-1.60581062 1.2565954.14598278.1478347c.14598279.1478348.36495696.2217521.51093975.2217521.29196556 0 .58393113-.1478347.72991391-.3695868.36495696-.4435043.21897418-.8870085-.07299139-1.182678-.21897417-.1478347-.21897417-.1478347-.36495696 0z"/><path d="m11.8246055 30.010453c-.0729914.0739173-.2189742.5174216-.364957.8130911l-.1459828-.0739174c.0729914-.2956695.0729914-.4435043.0729914-.591339-.0729914-.1478347-.2189742-.2956695-.5109397-.4435042l-.2919656-.1478348c-.2189742-.1478347-.2189742-.1478347-.2919656.0739174l-.58393111 1.1087606.43794831.2217521c.4379484.2217521.4379484.2217521.729914-.1478347l.1459827.0739173-.6569225 1.1087606h-.1459828c.1459828-.4435042.1459828-.4435042-.29196553-.7391737l-.43794835-.2217521-.51093974.8870084c-.14598279.2956695-.21897418.4435043-.14598279.591339s.21897418.2217521.43794835.3695869c.29196557.1478347.51093974.2956695.65692253.2217521.14598283-.0739174.36495693-.1478348.58393113-.3695869l.1459828.1478348c-.1459828.1478347-.5109398.6652563-.65692254.7391737l-2.48170732-1.4783475.07299139-.1478347c.43794835.2217521.51093975.2217521.8758967-.3695869l1.02187949-1.8479343c.29196556-.5913389.29196556-.5913389-.07299139-.8870084l.07299139-.1478348z"/><path d="m13.2114419 30.6757093.1459828 3.178447 2.1897417-2.2175212 1.0218795.4435043-.0729914.1478347c-.4379483-.1478347-.5109397-.1478347-.7299139.5174216l-.7299139 1.9957691c-.2189742.6652563-.2189742.6652563.2189742.8870084l.0729914.0739174-1.5328193-.591339.0729914-.1478347c.4379484.1478347.4379484.1478347.7299139-.5174216l.8029053-2.1436038-2.4087159 2.3653559-.1459828-.0739174-.0729914-3.2523643-.5839311 1.40443c-.2189742.5174216-.2919656.8130911-.3649569.9609259-.0729914.2217521 0 .2956694.3649569.5174216l-.0729914.1478347-1.313845-.5174216.0729914-.1478347c.2919655.0739173.4379483.0739173.5109397-.1478348.0729914-.1478347.2919656-.4435042.5109397-.9609258l.5109398-1.1087606c.3649569-.7391737.2919656-.8130911-.1459828-1.0348432l.0729914-.1478348z"/><path d="m19.4157102 34.8889995c-.1459828.3695869-.5109398.5174216-.8029053.4435042-.364957-.1478347-.5109398-.5174216-.4379484-.8130911.1459828-.3695868.5109398-.5174216.8029053-.4435042.364957.0739174.5839312.4435042.4379484.8130911z"/><path d="m22.2623745 31.7844699c.5839311-.2217521 1.2408536-.3695869 1.7517934-.1478348.3649569.1478348.7299139.5174216.8758967.9609259.5109397 1.40443-.2919656 2.3653559-1.6058107 2.8827775l-1.3868364.5174216v-.0739174c.4379484-.2217521.4379484-.2956695.2189742-.8870085l-.7299139-1.9218516c-.2189742-.591339-.2919656-.6652564-.729914-.5174216l-.0729913-.1478348zm.5109397 2.9566949c.2189742.5174216.2919656.5913389.7299139.4435042.8758967-.3695869 1.0948709-1.2565953.7299139-2.1436038-.5109397-1.1826779-1.2408536-1.3305127-2.1167503-.9609258-.1459828.0739173-.2919656.1478347-.364957.2217521 0 .0739174 0 .1478347.0729914.2956695z"/><path d="m26.5688666 29.7887008c.0729914.0739174.2919655.4435043.4379483.8130911l-.1459828.0739174c-.2189741-.2217521-.2919655-.3695869-.4379483-.3695869-.1459828-.0739173-.2919656 0-.6569225.1478348l-.2189742.1478347c-.2189742.0739174-.2189742.0739174-.1459828.2956695l.5839311 1.1087606.4379484-.2217521c.4379483-.2217521.4379483-.2956695.2919656-.7391737l.1459827-.0739174.5839312 1.1087606-.1459828.0739173c-.2919656-.3695868-.2919656-.3695868-.7299139-.1478347l-.4379484.2217521.4379484.8870085c.1459828.2956695.2189741.4435042.3649569.4435042s.2919656-.0739174.5109398-.2217521c.2919655-.1478347.5109397-.2956695.5109397-.4435042.0729914-.1478348 0-.3695869 0-.6652564l.1459828-.0739174c.0729914.2217522.2189742.8130911.2919656.9609259l-2.5546987 1.3305127-.0729914-.1478348c.4379483-.2956695.4379483-.2956695.1459827-.8870084l-.948888-1.8479343c-.2919656-.591339-.364957-.591339-.8029054-.4435043v-.0739173z"/><path d="m28.3936514 28.6060229.0729914.1478347c-.364957.2956695-.364957.3695869-.0729914.8870085l1.0948708 1.7740169c.364957.5174216.4379484.591339.8029053.3695869l.0729914.1478347-1.3868364.8870085-.0729914-.1478348c.364957-.2956694.364957-.3695868.0729914-.8870084l-1.0948709-1.7740169c-.3649569-.5174216-.4379483-.591339-.8029053-.3695869l-.0729914-.1478347z"/><path d="m31.5322812 28.5321055c.2189742.2956695.2189742.7391737-.0729914.9609259-.2919656.2217521-.7299139.1478347-.9488881-.1478348s-.1459828-.7391737.0729914-.9609258c.2919656-.2217521.7299139-.1478348.9488881.1478347z"/><path d="m35.5468077 24.7623196c.2189742.0739173.364957.1478347.5109398.1478347 0 .3695869 0 .8870085-.1459828 1.3305127-.4379483 1.2565953-1.4598278 1.8479343-2.5546987 1.4783474-1.3138451-.4435042-1.6058106-1.7000995-1.2408537-2.8088601.1459828-.5174216.364957-.8870085.5109398-1.0348432.2189742.0739174.5109397.1478347.9488881.2217521v.2217521c-.7299139-.0739173-1.0218795.3695869-1.2408537.8130911-.2189742.8130911.1459828 1.5522648 1.1678623 1.8479343.8758967.2956695 1.8977762.2217521 2.1897417-.8130911.0729914-.1478347.0729914-.2956695.0729914-.3695868 0-.1478348-.0729914-.2217521-.2919655-.2956695l-.4379484-.1478348c-.4379483-.2217521-.5109397-.2217521-.7299139.3695869l-.1459828-.0739174.5109397-1.5522648.1459828.0739174c-.0729914.2956695 0 .3695868.364957.4435042z"/><path d="m32.8461263 21.5838726h.1459827c0 .4435042 0 .5174216.6569226.5913389l2.0437589.2956695c.364957.0739174.5109398 0 .5839312-.0739173.0729914-.0739174.1459827-.2956695.1459827-.4435043.0729914-.2956695.1459828-.9609258 0-1.1087605-.0729913-.1478348-.2919655-.2217522-.5839311-.3695869l.0729914-.1478347c.1459828.0739173.7299139.2956694.9488881.3695868l-.4379484 3.2523644h-.1459827c0-.5174216 0-.591339-.6569226-.6652564l-2.0437589-.3695868c-.6569226-.0739174-.6569226-.0739174-.8029053.4435042h-.1459828z"/><path d="m35.035868 16.1879044c1.2408537.0739174 2.043759 1.0348432 1.9707676 2.1436038-.0729914 1.182678-1.0218795 1.9218517-2.043759 1.8479343-.9488881-.0739174-2.043759-.8130911-1.8977762-2.2175211 0-1.0348433.8029053-1.8479343 1.9707676-1.774017zm-.2919656 3.178447c1.0948709.0739174 1.8977762-.3695868 1.9707676-1.1826779.0729914-.591339-.4379483-1.1087606-1.5328192-1.182678-1.2408537-.0739174-1.9707676.3695869-1.9707676 1.182678-.0729914.5913389.5109398 1.1087605 1.5328192 1.1826779z"/><path d="m33.0651004 14.4138875c0-.4435042.0729914-.7391737.2189742-.9609258s.4379484-.3695869.7299139-.3695869c.5109398 0 .8758967.2956695 1.0218795.8130911.1459828-.0739174.5839311-.2956695.8758967-.5174216s.5109397-.3695869.6569225-.5174216.2189742-.2217521.2919656-.4435042h.1459828v.2217521c-.0729914.6652563-.2189742.8870084-.5109398 1.1087606-.2919655.2217521-.6569225.3695868-.9488881.5913389-.1459827.0739174-.2189741.1478348-.2189741.3695869v.2217521h.8029053c.6569225 0 .6569225-.0739174.7299139-.5174216h.1459828v1.7000996h-.1459828c0-.4435043-.0729914-.5174216-.7299139-.5174216h-2.043759c-.6569225 0-.6569225.0739173-.7299139.5174216h-.1459828v-1.7000996zm1.9707676.4435042v-.2217521c0-.2217521 0-.4435042-.1459828-.591339-.2189742-.2217521-.4379483-.2956694-.7299139-.2956694-.5839311 0-.8029053.4435042-.8029053.813091 0 .2956695 0 .2956695.2189742.2956695z"/><path d="m33.0651004 10.2745147h.1459828c0 .4435042.0729914.5174216.7299139.5174216h2.043759c.6569225 0 .6569225-.0739174.7299139-.5174216h.1459828v1.7000995h-.1459828c0-.4435042-.0729914-.5174216-.7299139-.5174216h-2.043759c-.6569225 0-.6569225.0739174-.7299139.5174216h-.1459828z"/><path d="m32.992109 7.90915879 1.0948709-.44350424c.7299139-.29566948 1.4598278-.5174216 2.043759-.73917371.5109397-.22175212.5839311-.29566949.5839311-.66525635h.1459828v1.55226481h-.1459828v-.14783475c0-.22175211-.0729914-.22175211-.2919656-.14783474-.1459827.07391737-.5109397.22175212-.8758967.29566949v1.10876058c.1459828.07391737.5109398.22175211.729914.29566948.2919655.07391737.3649569.07391737.4379483-.22175211v-.14783475h.1459828v1.3305127h-.1459828c-.0729914-.36958686-.0729914-.44350423-.5839311-.66525635l-3.0656385-1.18267795zm2.2627332.73917371v-.96092583l-1.3138451.44350423z"/><path d="m33.0651004 4.50895968 2.8466643-1.33051269-2.8466643-1.25659532v-1.18267795h.1459828c.0729914.5174216.0729914.5174216.7299139.5174216l2.043759-.07391737c.6569225 0 .6569225 0 .7299139-.5174216h.1459828v1.70009955h-.1459828c-.0729914-.44350423-.0729914-.5174216-.7299139-.44350423h-2.2627331l3.0656384 1.33051269v.14783474l-2.9926471 1.3305127 1.5328193.07391737h1.0218795c.2189741 0 .2919655-.14783474.2919655-.5174216h.1459828v1.40443006h-.1459828c0-.29566949-.0729914-.44350423-.2919655-.44350423-.1459828 0-.5109398-.07391737-1.0948709-.07391737l-1.2408537-.07391737c-.8029053-.07391738-.8758967 0-.8758967.5174216h-.1459828v-1.10876058z"/><path d="m31.1890244 1.00609756v19.15871994c0 7.019989-12.0731707 10.0181093-12.0731707 10.0181093s-12.07317077-2.9249954-12.07317077-10.0181093v-19.15871994z"/></g><path d="m8.04878049 7.94611747.11836442-.90343454h.88773314v4.02439027h-.71018651v-3.12095573z" fill="#fff"/><path d="m12.9115854 8.10572941c0 .37965945-.2515244.68338702-.6707317.8352508.5030487.15186378.8384146.45559135.8384146.98711459 0 .7593189-.8384146 1.1389784-1.5091463 1.1389784-.6707318 0-1.5091464-.3796595-1.5091464-1.1389784 0-.45559135.3353659-.83525081.8384146-.98711459-.3353658-.07593189-.6707317-.45559135-.6707317-.8352508 0-.68338703.6707317-1.06304648 1.3414635-1.06304648.6707317.07593189 1.3414634.37965945 1.3414634 1.06304648zm-1.8445122.07593189c0 .22779567.1676829.37965945.4192073.37965945s.4192073-.15186378.4192073-.37965945c0-.22779568-.1676829-.37965946-.4192073-.37965946s-.4192073.15186378-.4192073.37965946zm0 1.67050161c0 .22779569.2515244.45559139.5030488.45559139.2515243 0 .5030487-.2277957.5030487-.45559139 0-.22779568-.2515244-.45559135-.5030487-.45559135-.2515244 0-.5030488.15186378-.5030488.45559135z" fill="#fff"/><path d="m13.2229965 8.04878049v-1.00609756h2.8745645l-1.940331 4.02439027h-1.0779617l1.5091463-3.10213418h-1.3654181z" fill="#fff"/><path d="m19.1158537 9.05705799c0 .96480731-.4527439 2.01001521-1.5091464 2.01001521-1.0564024 0-1.5091463-1.0452079-1.5091463-2.01001521 0-.96480729.4527439-2.01001519 1.5091463-2.01001519 1.0564025-.0804006 1.5091464.96480729 1.5091464 2.01001519zm-2.1128049 0c0 .40200303.0754573 1.20600911.6036585 1.20600911.4527439 0 .6036586-.80400608.6036586-1.20600911 0-.40200304-.1509147-1.12560851-.6036586-1.12560851-.4527439-.0804006-.6036585.72360547-.6036585 1.12560851z" fill="#fff"/><path d="m9.88490854 16.330552s.37728656.296534-.30182927 1.8533376c-.15091464.296534-.75457317 1.4085366 0 2.2240051.52820123.5930681 1.35823173.3706676 1.35823173.3706676.0754573.296534.0754573.444801.0754573.444801h-.6036585c-.52820126 0-.60365858.593068-.60365858.593068v2.4464057l.37728658.3706675h1.3582317c0-.593068-.7545732-.8896021-.7545732-.8896021v-1.037869h1.2827744c.6791159-.0741335 1.0564025-1.3344031 1.0564025-1.3344031l.4527439.0741335c0 .0741335-.6791159 1.3344031-.6791159 1.3344031l1.433689 1.3344031v.3706675h1.5846037c.0754573-.3706675-.6791159-.7413351-.6791159-.7413351l-.9809451-1.037869c-.1509146-.148267 0-.296534.1509147-.296534.2263719-.0741335.3772865-.0741335.5282012-.2224006.2263719-.0741335 1.1318597-.6672015.7545732-1.7050706-.3772866-1.037869-1.660061-.6672015-1.660061-.741335 0-.148267.6791158-1.6309371.6791158-1.6309371l-.5282012-.8154686.6791159.3706676 1.7355183-.296534c.1509146 1.4085365.8300304 1.037869.8300304 1.037869v-1.037869s0-.6672016-.6791158-.8896021c-.7545732-.2224005-1.2827744-.0741335-1.5846037-.148267-.2263719-.0741335-.1509146-.2224005-.1509146-.2224005h.9809451l.9054878-.7413351.5282012-.0741335c.9054878-.148267.6036586-.8154685.6036586-.8154685s-.8300305 0-1.2827744 0-1.7355183.889602-1.7355183.889602-.1509146-1.037869.7545732-1.334403c.9809451-.3706676.7545731-.6672016.7545731-.6672016l-.9054878.296534s-.0754573-.0741335.0754574-.296534c.0754573-.148267.8300304-.3706675.8300304-.3706675.6036586-.2224005.3772866-.6672016.3772866-.6672016l-1.1318597.2224006c-.226372-.2224006-.226372-.2224006-.5282013-.2965341-.3018292-.0741335-.8300304.3706676-.8300304.2224006.0754573-.1482671.0754573-.5930681.1509146-1.0378691s-1.2827744 1.4826701-1.2827744 1.4826701c-1.7355183 3.2618742-1.2827744 5.4858793-1.2827744 5.4858793-1.1318597.5189345-1.1318597 1.7792041-1.1318597 1.4085366 0-1.8533376.6036585-1.7050706.6036585-2.8912067 0-1.186136-1.2827744-1.037869-1.2827744-1.037869-.52820121 0-.67911585.296534-.67911585.296534s.22637195 0 .37728659.148267z" fill="#fff"/><path d="m14.8650915 12.8462773h.6791158l-.1509146-.2224005z" fill="#010914" fill-opacity=".9"/><path d="m19.6189024 24.7817715s-.9809451.0741335-1.8864329-.741335c-.8300305-.8154686-.8300305-1.8533377-.8300305-1.8533377v-1.9274711s-.2263719-.0741335-.2263719-.296534c0-.296534.3018292-.2224005.3018292-.2224005h.6036586c0 .6672015.3772866.593068.3772866.593068.4527439 0 .3772865-.593068.3772865-.593068h1.2827744 1.2827744s-.0754573.593068.3772866.593068c0 0 .3772866.0741335.3772866-.593068h.6036585s.3018293-.0741335.3018293.2224005c0 .2224005-.2263719.296534-.2263719.296534v1.9274711s0 .9637356-.8300305 1.8533377c-.9054878.8154685-1.886433.741335-1.886433.741335z" fill="#fff"/><path d="m29.277439 16.330552s-.3772866.296534.3018293 1.8533376c.1509146.296534.7545732 1.4085366 0 2.2240051-.5282012.5930681-1.3582317.3706676-1.3582317.3706676-.0754573.296534-.0754573.444801-.0754573.444801h.6036585c.5282012 0 .6036585.593068.6036585.593068v2.4464057l-.3772865.3706675h-1.3582318c0-.593068.7545732-.8896021.7545732-.8896021v-1.037869h-1.2827744c-.6791158 0-.9809451-1.2602696-.9809451-1.2602696l-.5282012.0741335c0 .0741335.6791158 1.3344031.6791158 1.3344031l-1.433689 1.3344031v.3706675h-1.5846036c-.0754574-.3706675.6791158-.7413351.6791158-.7413351l.9809451-1.037869c.1509147-.148267.0754574-.296534-.1509146-.296534-.226372-.0741335-.3772866-.0741335-.5282012-.2224006-.226372-.0741335-1.1318598-.6672015-.7545732-1.7050706.3772866-1.037869 1.660061-.6672015 1.660061-.741335 0-.148267-.6791159-1.6309371-.6791159-1.6309371l.5282013-.8154685-.6791159.3706675-1.660061-.2224005c-.1509146 1.4085365-.8300305 1.037869-.8300305 1.037869v-1.037869s0-.6672016.6791159-.8896021c.7545732-.2224005 1.2827744-.0741335 1.5846036-.148267.226372-.0741335.1509147-.2224005.1509147-.2224005h-.9809451l-.9054878-.7413351-.5282013-.0741335c-.9054878-.148267-.6036585-.8154685-.6036585-.8154685h1.2827744c.4527439 0 1.7355183.889602 1.7355183.889602s.1509146-1.037869-.7545732-1.334403c-.9809451-.3706676-.7545732-.6672016-.7545732-.6672016l.9054878.296534s.0754574-.0741335-.0754573-.296534c-.0754573-.148267-.8300305-.3706675-.8300305-.3706675-.6036585-.2224005-.3772865-.6672015-.3772865-.6672015l1.0564024.0741335c.2263719-.2224006.2263719-.2224006.5282012-.2965341s.8300305.3706676.8300305.2224006c-.0754573-.1482671-.0754573-.5930681-.1509146-1.0378691-.0754574-.444801 1.2827744 1.4826701 1.2827744 1.4826701 1.7355182 3.2618742 1.2827743 5.4858793 1.2827743 5.4858793 1.1318598.5189345 1.1318598 1.7792041 1.1318598 1.4085366 0-1.8533376-.6036585-1.7050706-.6036585-2.8912067 0-1.186136 1.2827744-1.037869 1.2827744-1.037869.5282012 0 .6791158.296534.6791158.296534s-.2263719 0-.3772866.148267z" fill="#fff"/><path d="m24.2972561 12.8462773h-.6791159l.1509147-.2224005z" fill="#010914" fill-opacity=".9"/><path d="m19.6943598 17.5166881v-4.8928113c.0754573-.0741335.1509146-.148267.1509146-.2224005 0-.1482671-.0754573-.2224006-.226372-.2224006-.1509146 0-.2263719.0741335-.2263719.2224006 0 .0741335.0754573.148267.1509146.2224005v4.8928113l-1.660061 1.6309371v.5189345h.226372v-.444801l1.5091463-1.5568036 1.5091464 1.5568036v.444801h.2263719v-.5189345z" fill="#fff"/><path d="m19.1158537 1.29355401v1.50914634l1.6334289-1.50914634z" fill="#fff"/><path d="m29.2005022 10.4921603h1.5624103v-1.50914636z" fill="#fff"/><path d="m22.4537303 1.29355401-3.3378766 3.01829268v1.58101045l5.0423242-4.59930313z" fill="#fff"/><path d="m25.7916069 1.29355401-6.6757532 6.10844947v1.58101046l8.3802008-7.68945993z" fill="#fff"/><path d="m29.2005022 1.29355401-10.0846485 9.19860629h1.6334289l10.0136299-9.19860629z" fill="#fff"/><path d="m22.4537303 10.4921603h1.7044476l6.6047346-6.18031361v-1.50914634z" fill="#fff"/><path d="m25.7916069 10.4921603h1.7044476l3.266858-3.09015682v-1.50914634z" fill="#fff"/><path d="m45.4947441 21.5439024v-1.0329268c3.0849544-.2213415 3.3053083-.4426829 3.3053083-3.8365854v-10.77195118c0-3.46768292-.2938052-3.6152439-3.0849544-3.83658536v-1.10670732h9.9159247v1.03292683c-3.0849543.22134146-3.3787595.44268293-3.3787595 3.91036585v10.84573168c0 1.7707317.2203539 2.7298781.8814155 3.025.5876104.295122 1.5424772.3689025 3.231857.3689025 1.7628311 0 3.1584056-.295122 3.8929186-1.1804878.514159-.5164634 1.1017694-1.6231708 1.5424772-3.0987805l1.1752207.147561c-.2203539 1.0329268-.8814156 4.5743902-1.1752207 5.4597561h-16.3061874z" fill="#010914"/><path d="m63.1965061 11.7310976c0-7.74695126 5.8761035-11.28841467 10.5769863-11.28841467 6.3902627 0 10.5035351 4.64817073 10.5035351 10.62439027 0 7.2304878-5.2884932 11.0670731-10.5035351 11.0670731-6.8309703-.0737804-10.5769863-5.4597561-10.5769863-10.4030487zm11.0176941 8.927439c3.4522108 0 6.1699087-2.2871951 6.1699087-8.7798781 0-5.2384146-2.497344-10.10792679-6.9044216-10.10792679-3.5991135 0-6.1699088 3.17256097-6.1699088 8.77987809-.0734513 6.05 2.497344 10.1079268 6.9044217 10.1079268z" fill="#010914"/><path d="m87.9495922 21.5439024v-1.0329268c3.231857-.2213415 3.4522109-.4426829 3.4522109-3.8365854v-2.8036585c0-.8853658-.0734513-1.1804878-.6610617-2.1396341-.9548668-1.6969513-2.2035388-3.8365854-4.1867237-7.30426833-1.1752208-1.99207317-1.4690259-2.06585366-3.4522109-2.28719512v-1.18048781h8.8876066v1.03292683l-1.4690258.22134146c-1.0283182.14756098-1.1017695.44268293-.5876104 1.32804878.2203539.44268293 3.0849544 5.53353659 4.1132725 7.30426829 1.3955746-2.43475609 2.7911492-5.53353658 3.4522108-7.00914633.5876104-1.2542683.5141591-1.47560976-.7345129-1.62317074l-1.3221233-.22134146v-1.03292683h7.8592887v1.03292683c-2.423893.22134146-2.570796.51646342-3.7460162 2.36097561-1.1752208 1.77073171-2.5707953 3.98414634-4.0398212 6.64024392-.6610617 1.2542683-.734513 1.5493902-.734513 2.2871951v3.320122c0 3.3939024.2938052 3.6152439 3.5256621 3.8365853v1.0329269h-10.3566325z" fill="#010914"/><path d="m102.199143 11.7310976c0-7.74695126 5.876104-11.28841467 10.576987-11.28841467 6.390262 0 10.503535 4.64817073 10.503535 10.62439027 0 7.2304878-5.288493 11.0670731-10.503535 11.0670731-6.830971-.0737804-10.576987-5.4597561-10.576987-10.4030487zm11.017694 8.927439c3.452211 0 6.169909-2.2871951 6.169909-8.7798781 0-5.2384146-2.497344-10.10792679-6.904421-10.10792679-3.599114 0-6.169909 3.17256097-6.169909 8.77987809-.073451 6.05 2.497344 10.1079268 6.904421 10.1079268z" fill="#010914"/><path d="m124.454886 21.5439024v-1.0329268c3.084954-.2213415 3.305308-.4426829 3.305308-3.8365854v-10.77195118c0-3.46768292-.293805-3.6152439-3.084955-3.83658536v-1.10670732h9.915925v1.03292683c-3.084954.22134146-3.378759.44268293-3.378759 3.91036585v10.84573168c0 1.7707317.220353 2.7298781.881415 3.025.58761.295122 1.542477.3689025 3.231857.3689025 1.762831 0 3.158406-.295122 3.892919-1.1804878.514159-.5164634 1.101769-1.6231708 1.542477-3.0987805l1.175221.147561c-.220354 1.0329268-.881416 4.5743902-1.175221 5.4597561h-16.306187z" fill="#010914"/><path d="m155.304429 20.4371951.807964-.0737805c1.248672-.1475609 1.615929-.5164634.734513-2.6560975l-1.542477-3.7628049h-6.169909c-.293805.7378049-1.101769 2.877439-1.542477 4.2792683-.514159 1.5493902-.146902 1.9920732 1.175221 2.1396341l1.028318.0737805v1.0329269h-7.785837v-1.0329269c1.983185-.2213414 2.717698-.4426829 4.039821-3.6152439l6.610617-16.15792681 1.101769-.29512195 6.610616 16.96951216c1.10177 2.7298781 1.909734 2.8774391 3.892919 3.025v1.0329269h-8.961058zm-5.582298-8.0420731h5.14159l-2.570795-7.00914639h-.073451z" fill="#010914"/><path d="m45.4947441 25.6756098h1.4690259v4.2054878c0 .4426829.0734513.8115853.1469026 1.0329268.1469026.3689024.5141591.5902439 1.1017694.5902439.5876104 0 .9548668-.2213415 1.1017694-.5902439.1469026-.2213415.1469026-.5902439.1469026-1.0329268v-4.2054878h1.4690259v4.2054878c0 .7378048-.1469026 1.3280487-.3672565 1.6969512-.4407077.7378049-1.248672 1.1067073-2.4238927 1.1067073s-1.9831849-.3689024-2.4238927-1.1067073c-.2203539-.3689025-.3672565-.9591464-.3672565-1.6969512v-4.2054878z" fill="#010914"/><path d="m53.5009352 25.6756098h1.4690259l2.7176979 4.7957317v-4.7957317h1.3221233v6.8615853h-1.3955746l-2.7911492-4.8695122v4.8695122h-1.3221233z" fill="#010914"/><path d="m62.9761522 32.5371951h-1.3955746v-6.8615853h1.3955746z" fill="#010914"/><path d="m69.4398661 25.6756098h1.4690259l-2.3504415 6.8615853h-1.248672l-2.2769901-6.8615853h1.5424772l1.4690259 5.1646341z" fill="#010914"/><path d="m77.666411 26.929878h-3.5991134v1.4756098h3.3053083v1.1067073h-3.3053083v1.7707317h3.746016v1.2542683h-5.1415906v-6.8615853h4.994688z" fill="#010914"/><path d="m84.3504788 25.8969512c.2203539.0737805.4407078.295122.6610617.4426829.1469026.147561.2938052.3689025.3672564.5902439.0734513.2213415.1469026.442683.1469026.7378049 0 .295122-.0734513.6640244-.2203538.9591464-.1469026.2951219-.4407078.5164634-.8079643.6640244.2938052.1475609.5141591.2951219.6610617.5164634.1469026.2213414.2203538.5902439.2203538 1.0329268v.4426829c0 .295122 0 .5164634.0734513.6640244s.1469026.295122.2938052.3689025v.1475609h-1.5424772c-.0734513-.1475609-.0734513-.2951219-.0734513-.3689024-.0734513-.2213415-.0734513-.3689024-.0734513-.5902439v-.6640244c0-.4426829-.0734512-.7378049-.2203538-.8853659-.1469026-.1475609-.4407078-.2213414-.8079643-.2213414h-1.3955746v2.6560975h-1.3955746v-6.8615853h3.231857c.2938052.147561.6610616.2213414.8814155.3689024zm-2.9380517.9591464v1.8445122h1.5424771c.2938052 0 .5141591-.0737805.6610617-.147561.2938052-.147561.4407077-.3689025.4407077-.7378049 0-.4426829-.1469025-.6640244-.3672564-.8115854-.1469026-.0737805-.3672565-.1475609-.6610617-.1475609z" fill="#010914"/><path d="m88.5372026 30.397561c.0734513.2951219.1469026.5164634.2938052.6640244.2203539.2951219.6610616.4426829 1.1752207.4426829.3672565 0 .5876103-.0737805.8079642-.147561.4407078-.147561.5876104-.3689024.5876104-.8115853 0-.2213415-.0734513-.3689025-.2938052-.5164635-.2203539-.1475609-.5141591-.2213414-.9548668-.2951219l-.734513-.147561c-.7345129-.147561-1.248672-.3689024-1.4690259-.5164634-.4407077-.295122-.6610616-.8115854-.6610616-1.4756098 0-.5902439.2203539-1.1067073.6610616-1.5493902.4407078-.3689024 1.1017695-.5902439 1.983185-.5902439.7345129 0 1.3221233.2213415 1.8362824.5902439.514159.3689024.8079642.9591463.8079642 1.6969512h-1.3955746c0-.4426829-.2203539-.7378049-.5141591-.8853658-.2203538-.147561-.514159-.147561-.8814155-.147561s-.6610616.0737805-.8814155.2213414c-.2203539.147561-.3672565.3689025-.3672565.590244 0 .2213414.0734513.4426829.2938052.5164634.1469026.0737805.4407077.1475609.8814155.2951219l1.1752207.295122c.5141591.1475609.8814156.2951219 1.1752207.5164634.4407078.2951219.5876104.8115853.5876104 1.4018293 0 .5902439-.2203539 1.1067073-.734513 1.5493902-.514159.4426829-1.1752207.5902439-2.0566362.5902439s-1.6159285-.2213415-2.1300875-.5902439c-.5141591-.4426829-.734513-.9591463-.734513-1.6969512z" fill="#010914"/><path d="m96.3964911 32.5371951h-1.3955746v-6.8615853h1.3955746z" fill="#010914"/><path d="m104.108877 25.6756098v1.1804878h-2.056636v5.607317h-1.395575v-5.607317h-2.0566361v-1.1804878z" fill="#010914"/><path d="m109.470821 25.6756098h1.615929l-2.27699 4.2792682v2.5823171h-1.395575v-2.5823171l-2.350441-4.2792682h1.68938l1.395574 2.9512195z" fill="#010914"/><path d="m117.109756 26.4134146c.514159-.5902439 1.248672-.8115853 2.056636-.8115853 1.10177 0 1.983185.3689024 2.497344 1.1067073.293806.4426829.440708.8115854.440708 1.2542683h-1.395574c-.073452-.295122-.220354-.5902439-.367257-.7378049-.220354-.295122-.661062-.4426829-1.101769-.4426829-.514159 0-.881416.2213414-1.175221.6640244-.293805.4426829-.440708 1.0329268-.440708 1.7707317 0 .7378048.146903 1.3280488.440708 1.6969512s.734513.5902439 1.175221.5902439c.514159 0 .881415-.147561 1.101769-.5164634.146903-.147561.220354-.4426829.367257-.8115854h1.395574c-.146902.7378049-.440708 1.3280488-.954867 1.8445122-.514159.4426829-1.17522.6640244-1.909733.6640244-.954867 0-1.762831-.295122-2.27699-.9591463-.587611-.6640244-.807965-1.4756098-.807965-2.5823171 0-1.1804878.293805-2.0658537.954867-2.7298781z" fill="#010914"/><path d="m124.16108 32.5371951v-6.8615853h1.395575v2.582317h2.644247v-2.582317h1.395574v6.8615853h-1.395574v-3.025h-2.644247v3.025z" fill="#010914"/><path d="m133.636297 32.5371951h-1.395574v-6.8615853h1.395574z" fill="#010914"/><path d="m136.794703 26.4134146c.514159-.5902439 1.248672-.8115853 2.056636-.8115853 1.10177 0 1.983185.3689024 2.497344 1.1067073.293805.4426829.440708.8115854.440708 1.2542683h-1.395575c-.073451-.295122-.220353-.5902439-.367256-.7378049-.220354-.295122-.661062-.4426829-1.101769-.4426829-.51416 0-.881416.2213414-1.175221.6640244-.293805.4426829-.440708 1.0329268-.440708 1.7707317 0 .7378048.146903 1.3280488.440708 1.6969512s.734513.5902439 1.175221.5902439c.514159 0 .881415-.147561 1.101769-.5164634.146903-.147561.293805-.4426829.367256-.8115854h1.395575c-.146903.7378049-.440708 1.3280488-.954867 1.8445122-.514159.4426829-1.175221.6640244-1.909733.6640244-.954867 0-1.762832-.295122-2.276991-.9591463-.58761-.6640244-.807964-1.4756098-.807964-2.5823171s.293805-2.0658537.954867-2.7298781z" fill="#010914"/><path d="m145.168151 25.7493902h1.615928l2.423893 6.8615854h-1.542477l-.440708-1.4018293h-2.497344l-.440708 1.4018293h-1.469026zm-.073452 4.2054878h1.762831l-.881415-2.6560975z" fill="#010914"/><path d="m155.084075 27.8890244c-.073451-.4426829-.367256-.8115854-.807964-.9591464-.220354-.0737804-.514159-.1475609-.807964-.1475609-.514159 0-1.028318.2213414-1.322124.5902439-.367256.4426829-.514159 1.0329268-.514159 1.8445122 0 .8115853.220354 1.4018292.587611 1.7707317.367256.3689024.807964.5164634 1.322123.5164634s.881416-.147561 1.175221-.4426829c.293805-.295122.514159-.6640244.58761-1.1067074h-1.542477v-1.1067073h2.8646v3.6890244h-.954866l-.220354-.8115853c-.293805.2951219-.514159.5164634-.734513.6640243-.367257.2213415-.807964.3689025-1.395575.3689025-.881415 0-1.615928-.295122-2.203539-.9591464-.58761-.6640243-.881415-1.4756097-.881415-2.582317s.293805-1.9920732.881415-2.6560976c.587611-.6640244 1.395575-1.0329268 2.423893-1.0329268.881416 0 1.542477.2213414 2.056636.6640244.514159.4426829.807965.9591463.881416 1.6231707h-1.395575z" fill="#010914"/><path d="m163.384072 31.9469512c-.51416.5164634-1.248672.8115854-2.203539.8115854s-1.68938-.295122-2.203539-.8115854c-.661062-.6640244-1.028318-1.6231707-1.028318-2.8036585 0-1.2542683.367256-2.2134147 1.028318-2.8036586.514159-.5164634 1.248672-.8115853 2.203539-.8115853s1.689379.2951219 2.203539.8115853c.661061.5902439 1.028318 1.5493903 1.028318 2.8036586.073451 1.2542683-.293806 2.1396341-1.028318 2.8036585zm-.881416-1.0329268c.293805-.4426829.514159-1.0329268.514159-1.7707317s-.146903-1.3280488-.514159-1.7707317c-.367256-.442683-.807964-.5902439-1.322123-.5902439-.587611 0-1.028318.2213414-1.322124.5902439-.367256.4426829-.514159 1.0329268-.514159 1.7707317s.146903 1.3280488.514159 1.7707317c.367257.4426829.807965.5902439 1.322124.5902439.58761.0737805 1.028318-.147561 1.322123-.5902439z" fill="#010914"/></g></svg>