<svg height="73" viewBox="0 0 165 73" width="165" xmlns="http://www.w3.org/2000/svg"><g fill="#010914" transform=""><path d="m145.786026 6.05484413s-17.864098-5.95838496-31.208805-6.05110125c-11.395193-.07976327-23.2953808 1.11600414-33.9486256 3.5225372.8331375 3.20757451 1.4728434 6.18404004 2.2196275 9.25390362 6.2354054-.5358456 12.2400746-.3122358 17.6547771 1.7207052-5.6689269.3960894-11.2100511 1.0212426-16.5701785 2.531291 0 0 1.5529793 6.2406242 1.9999444 7.9715555 8.3210124-1.8413727 17.4226591-1.5332274 24.5312701 2.3329054-20.0243141-.0538572-24.4200469 5.1764322-36.0128165 6.9871268 41.1864205 5.6890986 65.3632965 38.1152568 65.3632965 38.1152568 1.673184-.9360255 3.356729-2.2026936 4.404023-3.8906754 1.245561-2.0915704 1.691145-5.0925785.104315-7.1643784l1.35264-3.4829965-.014508-2.6062821 4.299017-2.4760703c-.864915-3.5804848-1.385799-7.4568437-2.345358-11.0557355 2.745347-1.4991406 5.518327-2.9042014 8.341047-4.2390432 0 0 8.159358-27.8285211 9.044308-31.64488712-6.154579 1.82501105-13.172691 1.82978321-19.213974.17588825zm-4.905563 45.28099877-1.040386 1.2871202c1.159899.4226772 2.454509 1.1800875 3.59161 1.6293524l-.084281 1.420059-3.137736.083172c-1.432085 1.0430582-2.556752 2.0547566-3.987455 3.0964513 0 0 3.071418-.5147117 4.665156-.9435246l2.957431-.0013634c-.320544.8583074-.671484 1.6020829-1.043149 2.367674l-2.921508.1199858s1.774044 2.0833895 2.997499 3.4230035c1.374055 2.2995003-2.402697 5.1212114-2.402697 5.1212114-6.759743-7.4486629-14.105998-15.2715997-23.075007-20.3055487.91051-1.3927895 2.265913-2.1358833 3.868632-1.9674942 3.335313.638788 6.202937 2.8592067 7.002914 3.694335 1.037623 1.0894164 2.927726 3.8824946 3.491441 4.2819927-.281858-2.2415526-1.092198-4.509693-1.638642-6.7648803l-10.115091-6.8453253c1.062492-2.788306 4.721804-4.738075 7.912043-4.8280644 3.092142-.0893076 6.111747-.0627198 8.400458 1.721387-5.275847-.0709007-7.175621 2.5490162-7.955565 4.9521405-.039377.1888413 10.777593-.0415859 10.777593-.0415859.406207-1.0962338.570623-2.277003 1.365765-3.2014389.829684-1.1862231 2.359866-1.599356 3.689708-1.6307159.252843.8794413 2.625143 13.2052536 2.625143 13.2052536-2.069027.0381773-3.856888-.0040904-5.943876.1268032zm9.489201-19.9469549c-2.232063-2.1631528-4.645813-4.6235431-6.902745-6.8800939-3.120466 1.066919-6.293435 1.9954454-9.413901 3.0378219 1.687-2.3213159 3.756027-4.6139988 5.368418-7.0273492-1.700817-1.9743116-3.585393-3.7761436-5.500366-5.7640898 3.04862.6087915 8.533788 2.0227148 8.533788 2.0227148l4.062754-5.1907486c.232118.4376754 1.020351 5.008043 1.419649 6.6108077 2.627907.7846797 5.409177 1.3287062 7.965928 2.1420189l-7.085814 2.3779001c.281858 2.7821704 1.167498 5.7286394 1.552289 8.6710181z"/><g transform="translate(0 4.02439)"><path d="m83.2617132 14.097766c-11.1787581 2.3123895-23.1051116 9.5504063-42.8391473 12.3836776 0 0 15.5677776 3.1701128 44.9129659-4.6933697-.5565586-2.1969398-1.4138105-4.9799565-2.0738186-7.6903079z"/><path d="m79.585806.59015168c-25.2278964 5.61289253-49.7385425 19.49673702-79.43614899 23.48043062 41.75982369 1.3100145 45.57366369-6.916795 81.66721089-14.3938605 0 0-1.4372591-6.05499695-2.2310619-9.08657012z"/></g></g></svg>