<?xml version="1.0" encoding="UTF-8"?>
<svg width="165px" height="36px" viewBox="0 0 165 36" version="1.1" xmlns="http://www.w3.org/2000/svg" xmlns:xlink="http://www.w3.org/1999/xlink">
    <!-- Generator: Sketch 48.2 (47327) - http://www.bohemiancoding.com/sketch -->
    <title>165x36-loyola</title>
    <desc>Created with Sketch.</desc>
    <defs></defs>
    <g id="Artboard" stroke="none" stroke-width="1" fill="none" fill-rule="evenodd" transform="translate(-345.000000, -2578.000000)">
        <g id="165x36-loyola" transform="translate(345.000000, 2578.000000)" fill-rule="nonzero">
            <path d="M4.89042324,2.8827775 L3.79555237,3.25236436 C3.06563845,3.54803385 2.33572453,3.76978596 1.7517934,3.99153808 C1.24085366,4.21329019 1.16786227,4.36112494 1.16786227,4.65679443 L0.948888092,4.65679443 L0.948888092,3.10452962 L1.09487088,3.10452962 L1.09487088,3.25236436 C1.09487088,3.47411648 1.16786227,3.47411648 1.38683644,3.4001991 C1.53281923,3.32628173 1.89777618,3.17844699 2.26273314,3.10452962 L2.26273314,1.99576904 C2.18974175,1.92185167 1.82478479,1.8479343 1.60581062,1.70009955 C1.24085366,1.62618218 1.16786227,1.70009955 1.16786227,1.92185167 L1.16786227,2.06968641 L0.948888092,2.06968641 L0.948888092,0.739173718 L1.09487088,0.739173718 C1.16786227,1.10876058 1.16786227,1.18267795 1.67880201,1.40443006 L4.74444046,2.58710801 L4.89042324,2.8827775 Z M2.6276901,2.06968641 L2.6276901,3.03061224 L3.94153515,2.58710801 L2.6276901,2.06968641 Z" id="Shape" fill="#0C2340"></path>
            <path d="M4.81743185,6.72648084 C4.81743185,7.39173718 4.67144907,7.98307616 4.30649211,8.42658039 C4.01452654,8.72224988 3.57657819,8.94400199 3.06563845,8.94400199 C1.60581062,8.94400199 0.948888092,7.83524141 0.948888092,6.43081135 L0.948888092,4.95246391 L1.09487088,4.95246391 C1.09487088,5.46988552 1.16786227,5.46988552 1.82478479,5.46988552 L3.86854376,5.46988552 C4.52546628,5.46988552 4.52546628,5.39596814 4.59845768,4.95246391 L4.74444046,4.95246391 L4.74444046,6.72648084 L4.81743185,6.72648084 Z M1.89777618,6.13514186 C1.31384505,6.13514186 1.24085366,6.20905923 1.24085366,6.65256346 C1.24085366,7.6134893 1.89777618,8.1309109 2.91965567,8.1309109 C4.16050933,8.1309109 4.59845768,7.46565455 4.59845768,6.50472872 C4.59845768,6.28297661 4.59845768,6.13514186 4.52546628,6.13514186 C4.52546628,6.13514186 4.3794835,6.13514186 4.23350072,6.13514186 L1.89777618,6.13514186 Z" id="Shape" fill="#0C2340"></path>
            <path d="M2.91965567,12.0485316 C2.55469871,12.0485316 2.26273314,11.7528621 2.26273314,11.3832753 C2.26273314,11.0136884 2.55469871,10.7180189 2.91965567,10.7180189 C3.28461263,10.7180189 3.57657819,11.0136884 3.57657819,11.3832753 C3.57657819,11.7528621 3.28461263,12.0485316 2.91965567,12.0485316 Z" id="Shape" fill="#0C2340"></path>
            <path d="M4.81743185,14.6356396 L1.97076758,15.9661523 L4.81743185,17.2227476 L4.81743185,18.3315082 L4.67144907,18.3315082 C4.59845768,17.8140866 4.59845768,17.8140866 3.94153515,17.8140866 L1.89777618,17.888004 C1.24085366,17.888004 1.24085366,17.888004 1.16786227,18.4054256 L0.948888092,18.4054256 L0.948888092,16.705326 L1.09487088,16.705326 C1.16786227,17.1488303 1.16786227,17.2227476 1.82478479,17.1488303 L4.08751793,17.1488303 L1.02187948,15.8183176 L1.02187948,15.6704828 L4.01452654,14.3399701 L2.48170732,14.2660528 C1.97076758,14.2660528 1.60581062,14.2660528 1.45982783,14.2660528 C1.24085366,14.2660528 1.16786227,14.4138875 1.16786227,14.7834744 L0.948888092,14.7834744 L0.948888092,13.3790443 L1.09487088,13.3790443 C1.09487088,13.6747138 1.16786227,13.8225485 1.38683644,13.8225485 C1.53281923,13.8225485 1.89777618,13.8964659 2.48170732,13.8964659 L3.72256098,14.0443006 C4.52546628,14.118218 4.59845768,14.0443006 4.59845768,13.526879 L4.74444046,13.526879 L4.74444046,14.6356396 L4.81743185,14.6356396 Z" id="Shape" fill="#0C2340"></path>
            <path d="M4.89042324,20.7707815 L3.79555237,21.2142857 C3.06563845,21.5099552 2.33572453,21.7317073 1.7517934,22.0273768 C1.24085366,22.2491289 1.16786227,22.3230463 1.16786227,22.6926332 L1.02187948,22.6926332 L1.02187948,21.1403683 L1.16786227,21.1403683 L1.16786227,21.2882031 C1.24085366,21.4360378 1.24085366,21.5099552 1.53281923,21.4360378 C1.67880201,21.3621205 2.04375897,21.2142857 2.40871593,21.066451 L2.40871593,19.9576904 C2.26273314,19.883773 1.89777618,19.8098556 1.67880201,19.6620209 C1.38683644,19.5881035 1.31384505,19.5881035 1.24085366,19.883773 L1.24085366,20.0316078 L1.09487088,20.0316078 L1.09487088,18.7010951 L1.24085366,18.7010951 C1.31384505,19.0706819 1.31384505,19.1445993 1.82478479,19.3663514 L4.89042324,20.5490294 L4.89042324,20.7707815 Z M2.6276901,20.0316078 L2.6276901,20.9925336 L3.94153515,20.475112 L2.6276901,20.0316078 Z" id="Shape" fill="#0C2340"></path>
            <path d="M4.16050933,22.6187158 C4.74444046,22.3969637 4.81743185,22.3969637 4.67144907,21.8795421 L4.81743185,21.8056247 L5.32837159,23.4318069 L5.18238881,23.5057242 C5.03640603,23.1361374 4.96341463,23.06222 4.3794835,23.2839721 L2.55469871,23.8753111 C1.97076758,24.0970632 1.45982783,24.1709806 0.8758967,23.8013937 C0.656922525,23.653559 0.510939742,23.5057242 0.364956958,23.2100548 L0.510939742,23.06222 C0.802905308,23.3578895 1.09487088,23.4318069 1.45982783,23.4318069 C1.7517934,23.4318069 2.11675036,23.2839721 2.48170732,23.2100548 L4.16050933,22.6187158 Z" id="Shape" fill="#0C2340"></path>
            <path d="M5.40136298,27.7929318 C4.30649211,28.4581882 3.13862984,28.1625187 2.55469871,27.2015928 C1.89777618,26.240667 2.18974175,25.1319064 3.13862984,24.5405674 C3.94153515,24.0231458 5.2553802,23.9492285 5.98529412,25.1319064 C6.56922525,26.0189149 6.35025108,27.1276755 5.40136298,27.7929318 Z M3.72256098,25.057989 C2.84666428,25.649328 2.40871593,26.5363365 2.84666428,27.2015928 C3.21162123,27.7190144 3.86854376,27.8668492 4.81743185,27.2015928 C5.83931133,26.5363365 6.1312769,25.7232454 5.76631994,25.057989 C5.32837159,24.5405674 4.59845768,24.4666501 3.72256098,25.057989 Z" id="Shape" fill="#0C2340"></path>
            <path d="M8.17503587,27.4233449 C8.53999283,27.7190144 8.68597561,27.9407666 8.758967,28.236436 C8.83195839,28.5321055 8.83195839,28.827775 8.61298422,29.0495271 C8.32101865,29.419114 7.81007891,29.4930314 7.37213056,29.3451966 C7.37213056,29.5669487 7.22614778,30.010453 7.22614778,30.3061224 C7.22614778,30.6757093 7.15315638,30.9713788 7.15315638,31.1192135 C7.15315638,31.3409657 7.15315638,31.4888004 7.29913917,31.5627178 L7.15315638,31.7844699 L6.93418221,31.6366351 C6.49623386,31.1931309 6.42324247,30.8974614 6.42324247,30.5278746 C6.42324247,30.1582877 6.56922525,29.7887008 6.64221664,29.419114 C6.64221664,29.1973619 6.64221664,29.1234445 6.49623386,29.0495271 L6.42324247,28.827775 L5.91230273,29.419114 C5.47435438,29.9365356 5.54734577,30.010453 5.83931133,30.3061224 L5.76631994,30.4539572 L4.45247489,29.3451966 L4.52546628,29.1973619 C4.96341463,29.5669487 5.03640603,29.5669487 5.40136298,29.0495271 L6.71520803,27.4233449 C7.15315638,26.9059233 7.15315638,26.832006 6.78819943,26.5363365 L6.86119082,26.3885017 L8.17503587,27.4233449 Z M6.56922525,28.6799403 L6.71520803,28.827775 C6.86119082,28.9756098 7.08016499,29.0495271 7.22614778,29.0495271 C7.51811334,29.0495271 7.81007891,28.9016924 7.95606169,28.6799403 C8.32101865,28.236436 8.17503587,27.7929318 7.8830703,27.4972623 C7.66409613,27.3494276 7.66409613,27.3494276 7.51811334,27.4972623 L6.56922525,28.6799403 Z" id="Shape" fill="#0C2340"></path>
            <path d="M11.8246055,30.010453 C11.7516141,30.0843703 11.6056313,30.5278746 11.4596485,30.8235441 L11.3136657,30.7496267 C11.3866571,30.4539572 11.3866571,30.3061224 11.3866571,30.1582877 C11.3136657,30.010453 11.1676829,29.8626182 10.8757174,29.7147835 L10.5837518,29.5669487 C10.3647776,29.419114 10.3647776,29.419114 10.2917862,29.6408661 L9.70785509,30.7496267 L10.1458034,30.9713788 C10.5837518,31.1931309 10.5837518,31.1931309 10.8757174,30.8235441 L11.0217001,30.8974614 L10.3647776,32.006222 L10.2187948,32.006222 C10.3647776,31.5627178 10.3647776,31.5627178 9.92682927,31.2670483 L9.48888092,31.0452962 L8.97794118,31.9323046 C8.83195839,32.2279741 8.758967,32.3758089 8.83195839,32.5236436 C8.90494978,32.6714783 9.05093257,32.7453957 9.26990674,32.8932305 C9.56187231,33.0410652 9.78084648,33.1889 9.92682927,33.1149826 C10.0728121,33.0410652 10.2917862,32.9671478 10.5107604,32.7453957 L10.6567432,32.8932305 C10.5107604,33.0410652 10.1458034,33.5584868 9.99982066,33.6324042 L7.51811334,32.1540567 L7.59110473,32.006222 C8.02905308,32.2279741 8.10204448,32.2279741 8.46700143,31.6366351 L9.48888092,29.7887008 C9.78084648,29.1973619 9.78084648,29.1973619 9.41588953,28.9016924 L9.48888092,28.7538576 L11.8246055,30.010453 Z" id="Shape" fill="#0C2340"></path>
            <path d="M13.2114419,30.6757093 L13.3574247,33.8541563 L15.5471664,31.6366351 L16.5690459,32.0801394 L16.4960545,32.2279741 C16.0581062,32.0801394 15.9851148,32.0801394 15.7661406,32.7453957 L15.0362267,34.7411648 C14.8172525,35.4064211 14.8172525,35.4064211 15.2552009,35.6281732 L15.3281923,35.7020906 L13.795373,35.1107516 L13.8683644,34.9629169 C14.3063128,35.1107516 14.3063128,35.1107516 14.5982783,34.4454953 L15.4011836,32.3018915 L12.9924677,34.6672474 L12.8464849,34.59333 L12.7734935,31.3409657 L12.1895624,32.7453957 C11.9705882,33.2628173 11.8975968,33.5584868 11.8246055,33.7063216 C11.7516141,33.9280737 11.8246055,34.001991 12.1895624,34.2237432 L12.116571,34.3715779 L10.802726,33.8541563 L10.8757174,33.7063216 C11.1676829,33.7802389 11.3136657,33.7802389 11.3866571,33.5584868 C11.4596485,33.4106521 11.6786227,33.1149826 11.8975968,32.597561 L12.4085366,31.4888004 C12.7734935,30.7496267 12.7005022,30.6757093 12.2625538,30.4539572 L12.3355452,30.3061224 L13.2114419,30.6757093 Z" id="Shape" fill="#0C2340"></path>
            <path d="M19.4157102,34.8889995 C19.2697274,35.2585864 18.9047704,35.4064211 18.6128049,35.3325037 C18.2478479,35.184669 18.1018651,34.8150821 18.1748565,34.5194126 C18.3208393,34.1498258 18.6857963,34.001991 18.9777618,34.0759084 C19.3427188,34.1498258 19.561693,34.5194126 19.4157102,34.8889995 Z" id="Shape" fill="#0C2340"></path>
            <path d="M22.2623745,31.7844699 C22.8463056,31.5627178 23.5032281,31.414883 24.0141679,31.6366351 C24.3791248,31.7844699 24.7440818,32.1540567 24.8900646,32.597561 C25.4010043,34.001991 24.598099,34.9629169 23.2842539,35.4803385 L21.8974175,35.9977601 L21.8974175,35.9238427 C22.3353659,35.7020906 22.3353659,35.6281732 22.1163917,35.0368342 L21.3864778,33.1149826 C21.1675036,32.5236436 21.0945122,32.4497262 20.6565638,32.597561 L20.5835725,32.4497262 L22.2623745,31.7844699 Z M22.7733142,34.7411648 C22.9922884,35.2585864 23.0652798,35.3325037 23.5032281,35.184669 C24.3791248,34.8150821 24.598099,33.9280737 24.233142,33.0410652 C23.7222023,31.8583873 22.9922884,31.7105525 22.1163917,32.0801394 C21.9704089,32.1540567 21.8244261,32.2279741 21.7514347,32.3018915 C21.7514347,32.3758089 21.7514347,32.4497262 21.8244261,32.597561 L22.7733142,34.7411648 Z" id="Shape" fill="#0C2340"></path>
            <path d="M26.5688666,29.7887008 C26.641858,29.8626182 26.8608321,30.2322051 27.0068149,30.6017919 L26.8608321,30.6757093 C26.641858,30.4539572 26.5688666,30.3061224 26.4228838,30.3061224 C26.276901,30.2322051 26.1309182,30.3061224 25.7659613,30.4539572 L25.5469871,30.6017919 C25.3280129,30.6757093 25.3280129,30.6757093 25.4010043,30.8974614 L25.9849354,32.006222 L26.4228838,31.7844699 C26.8608321,31.5627178 26.8608321,31.4888004 26.7148494,31.0452962 L26.8608321,30.9713788 L27.4447633,32.0801394 L27.2987805,32.1540567 C27.0068149,31.7844699 27.0068149,31.7844699 26.5688666,32.006222 L26.1309182,32.2279741 L26.5688666,33.1149826 C26.7148494,33.4106521 26.7878407,33.5584868 26.9338235,33.5584868 C27.0798063,33.5584868 27.2257891,33.4845694 27.4447633,33.3367347 C27.7367288,33.1889 27.955703,33.0410652 27.955703,32.8932305 C28.0286944,32.7453957 27.955703,32.5236436 27.955703,32.2279741 L28.1016858,32.1540567 C28.1746772,32.3758089 28.32066,32.9671478 28.3936514,33.1149826 L25.8389527,34.4454953 L25.7659613,34.2976605 C26.2039096,34.001991 26.2039096,34.001991 25.911944,33.4106521 L24.963056,31.5627178 C24.6710904,30.9713788 24.598099,30.9713788 24.1601506,31.1192135 L24.1601506,31.0452962 L26.5688666,29.7887008 Z" id="Shape" fill="#0C2340"></path>
            <path d="M28.3936514,28.6060229 L28.4666428,28.7538576 C28.1016858,29.0495271 28.1016858,29.1234445 28.3936514,29.6408661 L29.4885222,31.414883 C29.8534792,31.9323046 29.9264706,32.006222 30.2914275,31.7844699 L30.3644189,31.9323046 L28.9775825,32.8193131 L28.9045911,32.6714783 C29.2695481,32.3758089 29.2695481,32.3018915 28.9775825,31.7844699 L27.8827116,30.010453 C27.5177547,29.4930314 27.4447633,29.419114 27.0798063,29.6408661 L27.0068149,29.4930314 L28.3936514,28.6060229 Z" id="Shape" fill="#0C2340"></path>
            <path d="M31.5322812,28.5321055 C31.7512554,28.827775 31.7512554,29.2712792 31.4592898,29.4930314 C31.1673242,29.7147835 30.7293759,29.6408661 30.5104017,29.3451966 C30.2914275,29.0495271 30.3644189,28.6060229 30.5833931,28.3842708 C30.8753587,28.1625187 31.313307,28.236436 31.5322812,28.5321055 Z" id="Shape" fill="#0C2340"></path>
            <path d="M35.5468077,24.7623196 C35.7657819,24.8362369 35.9117647,24.9101543 36.0577475,24.9101543 C36.0577475,25.2797412 36.0577475,25.7971628 35.9117647,26.240667 C35.4738164,27.4972623 34.4519369,28.0886013 33.357066,27.7190144 C32.0432209,27.2755102 31.7512554,26.0189149 32.1162123,24.9101543 C32.2621951,24.3927327 32.4811693,24.0231458 32.6271521,23.8753111 C32.8461263,23.9492285 33.1380918,24.0231458 33.5760402,24.0970632 L33.5760402,24.3188153 C32.8461263,24.244898 32.5541607,24.6884022 32.3351865,25.1319064 C32.1162123,25.9449975 32.4811693,26.6841712 33.5030488,26.9798407 C34.3789455,27.2755102 35.400825,27.2015928 35.6927905,26.1667496 C35.7657819,26.0189149 35.7657819,25.8710801 35.7657819,25.7971628 C35.7657819,25.649328 35.6927905,25.5754107 35.4738164,25.5014933 L35.035868,25.3536585 C34.5979197,25.1319064 34.5249283,25.1319064 34.3059541,25.7232454 L34.1599713,25.649328 L34.670911,24.0970632 L34.8168938,24.1709806 C34.7439024,24.4666501 34.8168938,24.5405674 35.1818508,24.6144848 L35.5468077,24.7623196 Z" id="Shape" fill="#0C2340"></path>
            <path d="M32.8461263,21.5838726 L32.992109,21.5838726 C32.992109,22.0273768 32.992109,22.1012942 33.6490316,22.1752115 L35.6927905,22.470881 C36.0577475,22.5447984 36.2037303,22.470881 36.2767217,22.3969637 C36.3497131,22.3230463 36.4227044,22.1012942 36.4227044,21.9534594 C36.4956958,21.6577899 36.5686872,20.9925336 36.4227044,20.8446989 C36.3497131,20.6968641 36.1307389,20.6229467 35.8387733,20.475112 L35.9117647,20.3272773 C36.0577475,20.4011946 36.6416786,20.6229467 36.8606528,20.6968641 L36.4227044,23.9492285 L36.2767217,23.9492285 C36.2767217,23.4318069 36.2767217,23.3578895 35.6197991,23.2839721 L33.5760402,22.9143853 C32.9191176,22.8404679 32.9191176,22.8404679 32.7731349,23.3578895 L32.6271521,23.3578895 L32.8461263,21.5838726 Z" id="Shape" fill="#0C2340"></path>
            <path d="M35.035868,16.1879044 C36.2767217,16.2618218 37.079627,17.2227476 37.0066356,18.3315082 C36.9336442,19.5141862 35.9847561,20.2533599 34.9628766,20.1794425 C34.0139885,20.1055251 32.9191176,19.3663514 33.0651004,17.9619214 C33.0651004,16.9270781 33.8680057,16.1139871 35.035868,16.1879044 Z M34.7439024,19.3663514 C35.8387733,19.4402688 36.6416786,18.9967646 36.71467,18.1836735 C36.7876614,17.5923345 36.2767217,17.0749129 35.1818508,17.0009955 C33.9409971,16.9270781 33.2110832,17.3705824 33.2110832,18.1836735 C33.1380918,18.7750124 33.722023,19.292434 34.7439024,19.3663514 Z" id="Shape" fill="#0C2340"></path>
            <path d="M33.0651004,14.4138875 C33.0651004,13.9703833 33.1380918,13.6747138 33.2840746,13.4529617 C33.4300574,13.2312096 33.722023,13.0833748 34.0139885,13.0833748 C34.5249283,13.0833748 34.8898852,13.3790443 35.035868,13.8964659 C35.1818508,13.8225485 35.6197991,13.6007964 35.9117647,13.3790443 C36.2037303,13.1572922 36.4227044,13.0094574 36.5686872,12.8616227 C36.71467,12.713788 36.7876614,12.6398706 36.8606528,12.4181185 L37.0066356,12.4181185 L37.0066356,12.6398706 C36.9336442,13.3051269 36.7876614,13.526879 36.4956958,13.7486312 C36.2037303,13.9703833 35.8387733,14.118218 35.5468077,14.3399701 C35.400825,14.4138875 35.3278336,14.4878049 35.3278336,14.709557 L35.3278336,14.9313091 L36.1307389,14.9313091 C36.7876614,14.9313091 36.7876614,14.8573917 36.8606528,14.4138875 L37.0066356,14.4138875 L37.0066356,16.1139871 L36.8606528,16.1139871 C36.8606528,15.6704828 36.7876614,15.5965655 36.1307389,15.5965655 L34.0869799,15.5965655 C33.4300574,15.5965655 33.4300574,15.6704828 33.357066,16.1139871 L33.2110832,16.1139871 L33.2110832,14.4138875 L33.0651004,14.4138875 Z M35.035868,14.8573917 L35.035868,14.6356396 C35.035868,14.4138875 35.035868,14.1921354 34.8898852,14.0443006 C34.670911,13.8225485 34.4519369,13.7486312 34.1599713,13.7486312 C33.5760402,13.7486312 33.357066,14.1921354 33.357066,14.5617222 C33.357066,14.8573917 33.357066,14.8573917 33.5760402,14.8573917 L35.035868,14.8573917 Z" id="Shape" fill="#0C2340"></path>
            <path d="M33.0651004,10.2745147 L33.2110832,10.2745147 C33.2110832,10.7180189 33.2840746,10.7919363 33.9409971,10.7919363 L35.9847561,10.7919363 C36.6416786,10.7919363 36.6416786,10.7180189 36.71467,10.2745147 L36.8606528,10.2745147 L36.8606528,11.9746142 L36.71467,11.9746142 C36.71467,11.53111 36.6416786,11.4571926 35.9847561,11.4571926 L33.9409971,11.4571926 C33.2840746,11.4571926 33.2840746,11.53111 33.2110832,11.9746142 L33.0651004,11.9746142 L33.0651004,10.2745147 Z" id="Shape" fill="#0C2340"></path>
            <path d="M32.992109,7.90915879 L34.0869799,7.46565455 C34.8168938,7.16998507 35.5468077,6.94823295 36.1307389,6.72648084 C36.6416786,6.50472872 36.71467,6.43081135 36.71467,6.06122449 L36.8606528,6.06122449 L36.8606528,7.6134893 L36.71467,7.6134893 L36.71467,7.46565455 C36.71467,7.24390244 36.6416786,7.24390244 36.4227044,7.31781981 C36.2767217,7.39173718 35.9117647,7.53957193 35.5468077,7.6134893 L35.5468077,8.72224988 C35.6927905,8.79616725 36.0577475,8.94400199 36.2767217,9.01791936 C36.5686872,9.09183673 36.6416786,9.09183673 36.71467,8.79616725 L36.71467,8.6483325 L36.8606528,8.6483325 L36.8606528,9.9788452 L36.71467,9.9788452 C36.6416786,9.60925834 36.6416786,9.53534097 36.1307389,9.31358885 L33.0651004,8.1309109 L32.992109,7.90915879 Z M35.2548422,8.6483325 L35.2548422,7.68740667 L33.9409971,8.1309109 L35.2548422,8.6483325 Z" id="Shape" fill="#0C2340"></path>
            <path d="M33.0651004,4.50895968 L35.9117647,3.17844699 L33.0651004,1.92185167 L33.0651004,0.739173718 L33.2110832,0.739173718 C33.2840746,1.25659532 33.2840746,1.25659532 33.9409971,1.25659532 L35.9847561,1.18267795 C36.6416786,1.18267795 36.6416786,1.18267795 36.71467,0.665256346 L36.8606528,0.665256346 L36.8606528,2.3653559 L36.71467,2.3653559 C36.6416786,1.92185167 36.6416786,1.8479343 35.9847561,1.92185167 L33.722023,1.92185167 L36.7876614,3.25236436 L36.7876614,3.4001991 L33.7950143,4.7307118 L35.3278336,4.80462917 C35.8387733,4.80462917 36.2037303,4.80462917 36.3497131,4.80462917 C36.5686872,4.80462917 36.6416786,4.65679443 36.6416786,4.28720757 L36.7876614,4.28720757 L36.7876614,5.69163763 L36.6416786,5.69163763 C36.6416786,5.39596814 36.5686872,5.2481334 36.3497131,5.2481334 C36.2037303,5.2481334 35.8387733,5.17421603 35.2548422,5.17421603 L34.0139885,5.10029866 C33.2110832,5.02638128 33.1380918,5.10029866 33.1380918,5.61772026 L32.992109,5.61772026 L32.992109,4.50895968 L33.0651004,4.50895968 Z" id="Shape" fill="#0C2340"></path>
            <path d="M31.1890244,1.00609756 L31.1890244,20.1648175 C31.1890244,27.1848065 19.1158537,30.1829268 19.1158537,30.1829268 C19.1158537,30.1829268 7.04268293,27.2579314 7.04268293,20.1648175 L7.04268293,1.00609756 L31.1890244,1.00609756 Z" id="Shape" fill="#0C2340"></path>
            <polygon id="Shape" fill="#FFFFFF" points="8.04878049 7.94611747 8.16714491 7.04268293 9.05487805 7.04268293 9.05487805 11.0670732 8.34469154 11.0670732 8.34469154 7.94611747 8.04878049 7.94611747"></polygon>
            <path d="M12.9115854,8.10572941 C12.9115854,8.48538886 12.660061,8.78911643 12.2408537,8.94098021 C12.7439024,9.09284399 13.0792683,9.39657156 13.0792683,9.9280948 C13.0792683,10.6874137 12.2408537,11.0670732 11.570122,11.0670732 C10.8993902,11.0670732 10.0609756,10.6874137 10.0609756,9.9280948 C10.0609756,9.47250345 10.3963415,9.09284399 10.8993902,8.94098021 C10.5640244,8.86504832 10.2286585,8.48538886 10.2286585,8.10572941 C10.2286585,7.42234238 10.8993902,7.04268293 11.570122,7.04268293 C12.2408537,7.11861482 12.9115854,7.42234238 12.9115854,8.10572941 Z M11.0670732,8.1816613 C11.0670732,8.40945697 11.2347561,8.56132075 11.4862805,8.56132075 C11.7378049,8.56132075 11.9054878,8.40945697 11.9054878,8.1816613 C11.9054878,7.95386562 11.7378049,7.80200184 11.4862805,7.80200184 C11.2347561,7.80200184 11.0670732,7.95386562 11.0670732,8.1816613 Z M11.0670732,9.85216291 C11.0670732,10.0799586 11.3185976,10.3077543 11.570122,10.3077543 C11.8216463,10.3077543 12.0731707,10.0799586 12.0731707,9.85216291 C12.0731707,9.62436723 11.8216463,9.39657156 11.570122,9.39657156 C11.3185976,9.39657156 11.0670732,9.54843534 11.0670732,9.85216291 Z" id="Shape" fill="#FFFFFF"></path>
            <polygon id="Shape" fill="#FFFFFF" points="13.2229965 8.04878049 13.2229965 7.04268293 16.097561 7.04268293 14.15723 11.0670732 13.0792683 11.0670732 14.5884146 7.96493902 13.2229965 7.96493902"></polygon>
            <path d="M19.1158537,9.05705799 C19.1158537,10.0218653 18.6631098,11.0670732 17.6067073,11.0670732 C16.5503049,11.0670732 16.097561,10.0218653 16.097561,9.05705799 C16.097561,8.0922507 16.5503049,7.0470428 17.6067073,7.0470428 C18.6631098,6.9666422 19.1158537,8.01185009 19.1158537,9.05705799 Z M17.0030488,9.05705799 C17.0030488,9.45906102 17.0785061,10.2630671 17.6067073,10.2630671 C18.0594512,10.2630671 18.2103659,9.45906102 18.2103659,9.05705799 C18.2103659,8.65505495 18.0594512,7.93144948 17.6067073,7.93144948 C17.1539634,7.85104888 17.0030488,8.65505495 17.0030488,9.05705799 Z" id="Shape" fill="#FFFFFF"></path>
            <path d="M9.88490854,16.330552 C9.88490854,16.330552 10.2621951,16.627086 9.58307927,18.1838896 C9.43216463,18.4804236 8.8285061,19.5924262 9.58307927,20.4078947 C10.1112805,21.0009628 10.941311,20.7785623 10.941311,20.7785623 C11.0167683,21.0750963 11.0167683,21.2233633 11.0167683,21.2233633 L10.4131098,21.2233633 C9.88490854,21.2233633 9.80945122,21.8164313 9.80945122,21.8164313 L9.80945122,24.262837 L10.1867378,24.6335045 L11.5449695,24.6335045 C11.5449695,24.0404365 10.7903963,23.7439024 10.7903963,23.7439024 L10.7903963,22.7060334 L12.0731707,22.7060334 C12.7522866,22.6318999 13.1295732,21.3716303 13.1295732,21.3716303 L13.5823171,21.4457638 C13.5823171,21.5198973 12.9032012,22.7801669 12.9032012,22.7801669 L14.3368902,24.11457 L14.3368902,24.4852375 L15.9214939,24.4852375 C15.9969512,24.11457 15.242378,23.7439024 15.242378,23.7439024 L14.2614329,22.7060334 C14.1105183,22.5577664 14.2614329,22.4094994 14.4123476,22.4094994 C14.6387195,22.3353659 14.7896341,22.3353659 14.9405488,22.1870988 C15.1669207,22.1129653 16.0724085,21.5198973 15.695122,20.4820282 C15.3178354,19.4441592 14.035061,19.8148267 14.035061,19.7406932 C14.035061,19.5924262 14.7141768,18.1097561 14.7141768,18.1097561 L14.1859756,17.2942875 L14.8650915,17.6649551 L16.6006098,17.3684211 C16.7515244,18.7769576 17.4306402,18.4062901 17.4306402,18.4062901 L17.4306402,17.3684211 C17.4306402,17.3684211 17.4306402,16.7012195 16.7515244,16.478819 C15.9969512,16.2564185 15.46875,16.4046855 15.1669207,16.330552 C14.9405488,16.2564185 15.0160061,16.1081515 15.0160061,16.1081515 L15.9969512,16.1081515 L16.902439,15.3668164 L17.4306402,15.2926829 C18.336128,15.1444159 18.0342988,14.4772144 18.0342988,14.4772144 C18.0342988,14.4772144 17.2042683,14.4772144 16.7515244,14.4772144 C16.2987805,14.4772144 15.0160061,15.3668164 15.0160061,15.3668164 C15.0160061,15.3668164 14.8650915,14.3289474 15.7705793,14.0324134 C16.7515244,13.6617458 16.5251524,13.3652118 16.5251524,13.3652118 L15.6196646,13.6617458 C15.6196646,13.6617458 15.5442073,13.5876123 15.695122,13.3652118 C15.7705793,13.2169448 16.5251524,12.9945443 16.5251524,12.9945443 C17.128811,12.7721438 16.902439,12.3273427 16.902439,12.3273427 L15.7705793,12.5497433 C15.5442073,12.3273427 15.5442073,12.3273427 15.242378,12.2532092 C14.9405488,12.1790757 14.4123476,12.6238768 14.4123476,12.4756098 C14.4878049,12.3273427 14.4878049,11.8825417 14.5632622,11.4377407 C14.6387195,10.9929397 13.2804878,12.9204108 13.2804878,12.9204108 C11.5449695,16.182285 11.9977134,18.4062901 11.9977134,18.4062901 C10.8658537,18.9252246 10.8658537,20.1854942 10.8658537,19.8148267 C10.8658537,17.9614891 11.4695122,18.1097561 11.4695122,16.92362 C11.4695122,15.737484 10.1867378,15.885751 10.1867378,15.885751 C9.65853659,15.885751 9.50762195,16.182285 9.50762195,16.182285 C9.50762195,16.182285 9.7339939,16.182285 9.88490854,16.330552 Z" id="Shape" fill="#FFFFFF"></path>
            <polygon id="Shape" fill-opacity="0.9" fill="#010914" points="14.8650915 12.8462773 15.5442073 12.8462773 15.3932927 12.6238768"></polygon>
            <path d="M19.6189024,24.7817715 C19.6189024,24.7817715 18.6379573,24.855905 17.7324695,24.0404365 C16.902439,23.2249679 16.902439,22.1870988 16.902439,22.1870988 L16.902439,20.2596277 C16.902439,20.2596277 16.6760671,20.1854942 16.6760671,19.9630937 C16.6760671,19.6665597 16.9778963,19.7406932 16.9778963,19.7406932 L17.5815549,19.7406932 C17.5815549,20.4078947 17.9588415,20.3337612 17.9588415,20.3337612 C18.4115854,20.3337612 18.336128,19.7406932 18.336128,19.7406932 L19.6189024,19.7406932 L20.9016768,19.7406932 C20.9016768,19.7406932 20.8262195,20.3337612 21.2789634,20.3337612 C21.2789634,20.3337612 21.65625,20.4078947 21.65625,19.7406932 L22.2599085,19.7406932 C22.2599085,19.7406932 22.5617378,19.6665597 22.5617378,19.9630937 C22.5617378,20.1854942 22.3353659,20.2596277 22.3353659,20.2596277 L22.3353659,22.1870988 C22.3353659,22.1870988 22.3353659,23.1508344 21.5053354,24.0404365 C20.5998476,24.855905 19.6189024,24.7817715 19.6189024,24.7817715 Z" id="Shape" fill="#FFFFFF"></path>
            <path d="M29.277439,16.330552 C29.277439,16.330552 28.9001524,16.627086 29.5792683,18.1838896 C29.7301829,18.4804236 30.3338415,19.5924262 29.5792683,20.4078947 C29.0510671,21.0009628 28.2210366,20.7785623 28.2210366,20.7785623 C28.1455793,21.0750963 28.1455793,21.2233633 28.1455793,21.2233633 L28.7492378,21.2233633 C29.277439,21.2233633 29.3528963,21.8164313 29.3528963,21.8164313 L29.3528963,24.262837 L28.9756098,24.6335045 L27.617378,24.6335045 C27.617378,24.0404365 28.3719512,23.7439024 28.3719512,23.7439024 L28.3719512,22.7060334 L27.0891768,22.7060334 C26.410061,22.7060334 26.1082317,21.4457638 26.1082317,21.4457638 L25.5800305,21.5198973 C25.5800305,21.5940308 26.2591463,22.8543004 26.2591463,22.8543004 L24.8254573,24.1887035 L24.8254573,24.559371 L23.2408537,24.559371 C23.1653963,24.1887035 23.9199695,23.8180359 23.9199695,23.8180359 L24.9009146,22.7801669 C25.0518293,22.6318999 24.976372,22.4836329 24.75,22.4836329 C24.523628,22.4094994 24.3727134,22.4094994 24.2217988,22.2612323 C23.9954268,22.1870988 23.089939,21.5940308 23.4672256,20.5561617 C23.8445122,19.5182927 25.1272866,19.8889602 25.1272866,19.8148267 C25.1272866,19.6665597 24.4481707,18.1838896 24.4481707,18.1838896 L24.976372,17.3684211 L24.2972561,17.7390886 L22.6371951,17.5166881 C22.4862805,18.9252246 21.8071646,18.5545571 21.8071646,18.5545571 L21.8071646,17.5166881 C21.8071646,17.5166881 21.8071646,16.8494865 22.4862805,16.627086 C23.2408537,16.4046855 23.7690549,16.5529525 24.0708841,16.478819 C24.2972561,16.4046855 24.2217988,16.2564185 24.2217988,16.2564185 L23.2408537,16.2564185 L22.3353659,15.5150834 L21.8071646,15.4409499 C20.9016768,15.2926829 21.2035061,14.6254814 21.2035061,14.6254814 C21.2035061,14.6254814 22.0335366,14.6254814 22.4862805,14.6254814 C22.9390244,14.6254814 24.2217988,15.5150834 24.2217988,15.5150834 C24.2217988,15.5150834 24.3727134,14.4772144 23.4672256,14.1806804 C22.4862805,13.8100128 22.7126524,13.5134788 22.7126524,13.5134788 L23.6181402,13.8100128 C23.6181402,13.8100128 23.6935976,13.7358793 23.5426829,13.5134788 C23.4672256,13.3652118 22.7126524,13.1428113 22.7126524,13.1428113 C22.1089939,12.9204108 22.3353659,12.4756098 22.3353659,12.4756098 L23.3917683,12.5497433 C23.6181402,12.3273427 23.6181402,12.3273427 23.9199695,12.2532092 C24.2217988,12.1790757 24.75,12.6238768 24.75,12.4756098 C24.6745427,12.3273427 24.6745427,11.8825417 24.5990854,11.4377407 C24.523628,10.9929397 25.8818598,12.9204108 25.8818598,12.9204108 C27.617378,16.182285 27.1646341,18.4062901 27.1646341,18.4062901 C28.2964939,18.9252246 28.2964939,20.1854942 28.2964939,19.8148267 C28.2964939,17.9614891 27.6928354,18.1097561 27.6928354,16.92362 C27.6928354,15.737484 28.9756098,15.885751 28.9756098,15.885751 C29.503811,15.885751 29.6547256,16.182285 29.6547256,16.182285 C29.6547256,16.182285 29.4283537,16.182285 29.277439,16.330552 Z" id="Shape" fill="#FFFFFF"></path>
            <polygon id="Shape" fill-opacity="0.9" fill="#010914" points="24.2972561 12.8462773 23.6181402 12.8462773 23.7690549 12.6238768"></polygon>
            <path d="M19.6943598,17.5166881 L19.6943598,12.6238768 C19.7698171,12.5497433 19.8452744,12.4756098 19.8452744,12.4014763 C19.8452744,12.2532092 19.7698171,12.1790757 19.6189024,12.1790757 C19.6189024,12.1790757 19.6189024,12.1790757 19.6189024,12.1790757 C19.6189024,12.1790757 19.6189024,12.1790757 19.6189024,12.1790757 C19.4679878,12.1790757 19.3925305,12.2532092 19.3925305,12.4014763 C19.3925305,12.4756098 19.4679878,12.5497433 19.5434451,12.6238768 L19.5434451,17.5166881 L17.8833841,19.1476252 L17.8833841,19.6665597 L18.1097561,19.6665597 L18.1097561,19.2217587 L19.6189024,17.6649551 L21.1280488,19.2217587 L21.1280488,19.6665597 L21.3544207,19.6665597 L21.3544207,19.1476252 L19.6943598,17.5166881 Z" id="Shape" fill="#FFFFFF"></path>
            <polygon id="Shape" fill="#FFFFFF" points="19.1158537 1.29355401 19.1158537 2.80270035 20.7492826 1.29355401"></polygon>
            <polygon id="Shape" fill="#FFFFFF" points="29.2005022 10.4921603 30.7629125 10.4921603 30.7629125 8.98301394"></polygon>
            <polygon id="Shape" fill="#FFFFFF" points="22.4537303 1.29355401 19.1158537 4.31184669 19.1158537 5.89285714 24.1581779 1.29355401"></polygon>
            <polygon id="Shape" fill="#FFFFFF" points="25.7916069 1.29355401 19.1158537 7.40200348 19.1158537 8.98301394 27.4960545 1.29355401"></polygon>
            <polygon id="Shape" fill="#FFFFFF" points="29.2005022 1.29355401 19.1158537 10.4921603 20.7492826 10.4921603 30.7629125 1.29355401"></polygon>
            <polygon id="Shape" fill="#FFFFFF" points="22.4537303 10.4921603 24.1581779 10.4921603 30.7629125 4.31184669 30.7629125 2.80270035"></polygon>
            <polygon id="Shape" fill="#FFFFFF" points="25.7916069 10.4921603 27.4960545 10.4921603 30.7629125 7.40200348 30.7629125 5.89285714"></polygon>
            <path d="M45.4947441,21.5439024 L45.4947441,20.5109756 C48.5796985,20.2896341 48.8000524,20.0682927 48.8000524,16.6743902 L48.8000524,5.90243902 C48.8000524,2.4347561 48.5062472,2.28719512 45.715098,2.06585366 L45.715098,0.959146341 L55.6310227,0.959146341 L55.6310227,1.99207317 C52.5460684,2.21341463 52.2522632,2.4347561 52.2522632,5.90243902 L52.2522632,16.7481707 C52.2522632,18.5189024 52.4726171,19.4780488 53.1336787,19.7731707 C53.7212891,20.0682927 54.6761559,20.1420732 56.3655357,20.1420732 C58.1283668,20.1420732 59.5239413,19.8469512 60.2584543,18.9615854 C60.7726133,18.445122 61.3602237,17.3384146 61.8009315,15.8628049 L62.9761522,16.0103659 C62.7557983,17.0432927 62.0947366,20.5847561 61.8009315,21.470122 L45.4947441,21.470122 L45.4947441,21.5439024 Z" id="Shape" fill="#0C2340"></path>
            <path d="M63.1965061,11.7310976 C63.1965061,3.98414634 69.0726096,0.442682927 73.7734924,0.442682927 C80.1637551,0.442682927 84.2770275,5.09085366 84.2770275,11.0670732 C84.2770275,18.297561 78.9885343,22.1341463 73.7734924,22.1341463 C66.9425221,22.0603659 63.1965061,16.6743902 63.1965061,11.7310976 Z M74.2142002,20.6585366 C77.666411,20.6585366 80.3841089,18.3713415 80.3841089,11.8786585 C80.3841089,6.6402439 77.8867649,1.77073171 73.4796873,1.77073171 C69.8805738,1.77073171 67.3097785,4.94329268 67.3097785,10.5506098 C67.2363272,16.6006098 69.8071225,20.6585366 74.2142002,20.6585366 Z" id="Shape" fill="#0C2340"></path>
            <path d="M87.9495922,21.5439024 L87.9495922,20.5109756 C91.1814492,20.2896341 91.4018031,20.0682927 91.4018031,16.6743902 L91.4018031,13.8707317 C91.4018031,12.9853659 91.3283518,12.6902439 90.7407414,11.7310976 C89.7858746,10.0341463 88.5372026,7.8945122 86.5540177,4.42682927 C85.3787969,2.4347561 85.0849918,2.36097561 83.1018068,2.13963415 L83.1018068,0.959146341 L91.9894134,0.959146341 L91.9894134,1.99207317 L90.5203876,2.21341463 C89.4920694,2.36097561 89.4186181,2.65609756 89.9327772,3.54146341 C90.1531311,3.98414634 93.0177316,9.075 94.0460497,10.8457317 C95.4416243,8.41097561 96.8371989,5.31219512 97.4982605,3.83658537 C98.0858709,2.58231707 98.0124196,2.36097561 96.7637476,2.21341463 L95.4416243,1.99207317 L95.4416243,0.959146341 L103.300913,0.959146341 L103.300913,1.99207317 C100.87702,2.21341463 100.730117,2.50853659 99.5548968,4.35304878 C98.379676,6.12378049 96.9841015,8.33719512 95.5150756,10.9932927 C94.8540139,12.247561 94.7805626,12.5426829 94.7805626,13.2804878 L94.7805626,16.6006098 C94.7805626,19.9945122 95.0743678,20.2158537 98.3062247,20.4371951 L98.3062247,21.470122 L87.9495922,21.470122 L87.9495922,21.5439024 Z" id="Shape" fill="#0C2340"></path>
            <path d="M102.199143,11.7310976 C102.199143,3.98414634 108.075247,0.442682927 112.77613,0.442682927 C119.166392,0.442682927 123.279665,5.09085366 123.279665,11.0670732 C123.279665,18.297561 117.991172,22.1341463 112.77613,22.1341463 C105.945159,22.0603659 102.199143,16.6743902 102.199143,11.7310976 Z M113.216837,20.6585366 C116.669048,20.6585366 119.386746,18.3713415 119.386746,11.8786585 C119.386746,6.6402439 116.889402,1.77073171 112.482325,1.77073171 C108.883211,1.77073171 106.312416,4.94329268 106.312416,10.5506098 C106.238965,16.6006098 108.80976,20.6585366 113.216837,20.6585366 Z" id="Shape" fill="#0C2340"></path>
            <path d="M124.454886,21.5439024 L124.454886,20.5109756 C127.53984,20.2896341 127.760194,20.0682927 127.760194,16.6743902 L127.760194,5.90243902 C127.760194,2.4347561 127.466389,2.28719512 124.675239,2.06585366 L124.675239,0.959146341 L134.591164,0.959146341 L134.591164,1.99207317 C131.50621,2.21341463 131.212405,2.4347561 131.212405,5.90243902 L131.212405,16.7481707 C131.212405,18.5189024 131.432758,19.4780488 132.09382,19.7731707 C132.68143,20.0682927 133.636297,20.1420732 135.325677,20.1420732 C137.088508,20.1420732 138.484083,19.8469512 139.218596,18.9615854 C139.732755,18.445122 140.320365,17.3384146 140.761073,15.8628049 L141.936294,16.0103659 C141.71594,17.0432927 141.054878,20.5847561 140.761073,21.470122 L124.454886,21.470122 L124.454886,21.5439024 Z" id="Shape" fill="#0C2340"></path>
            <path d="M155.304429,20.4371951 L156.112393,20.3634146 C157.361065,20.2158537 157.728322,19.8469512 156.846906,17.7073171 L155.304429,13.9445122 L149.13452,13.9445122 C148.840715,14.6823171 148.032751,16.8219512 147.592043,18.2237805 C147.077884,19.7731707 147.445141,20.2158537 148.767264,20.3634146 L149.795582,20.4371951 L149.795582,21.470122 L142.009745,21.470122 L142.009745,20.4371951 C143.99293,20.2158537 144.727443,19.9945122 146.049566,16.8219512 L152.660183,0.66402439 L153.761952,0.368902439 L160.372568,17.3384146 C161.474338,20.0682927 162.282302,20.2158537 164.265487,20.3634146 L164.265487,21.3963415 L155.304429,21.3963415 L155.304429,20.4371951 Z M149.722131,12.395122 L154.863721,12.395122 L152.292926,5.38597561 L152.219475,5.38597561 L149.722131,12.395122 Z" id="Shape" fill="#0C2340"></path>
            <path d="M45.4947441,25.6756098 L46.96377,25.6756098 L46.96377,29.8810976 C46.96377,30.3237805 47.0372213,30.6926829 47.1106726,30.9140244 C47.2575752,31.2829268 47.6248317,31.5042683 48.212442,31.5042683 C48.8000524,31.5042683 49.1673088,31.2829268 49.3142114,30.9140244 C49.461114,30.6926829 49.461114,30.3237805 49.461114,29.8810976 L49.461114,25.6756098 L50.9301399,25.6756098 L50.9301399,29.8810976 C50.9301399,30.6189024 50.7832373,31.2091463 50.5628834,31.5780488 C50.1221757,32.3158537 49.3142114,32.6847561 48.1389907,32.6847561 C46.96377,32.6847561 46.1558058,32.3158537 45.715098,31.5780488 C45.4947441,31.2091463 45.3478415,30.6189024 45.3478415,29.8810976 L45.3478415,25.6756098 L45.4947441,25.6756098 Z" id="Shape" fill="#0C2340"></path>
            <polygon id="Shape" fill="#0C2340" points="53.5009352 25.6756098 54.9699611 25.6756098 57.687659 30.4713415 57.687659 25.6756098 59.0097823 25.6756098 59.0097823 32.5371951 57.6142077 32.5371951 54.8230585 27.6676829 54.8230585 32.5371951 53.5009352 32.5371951"></polygon>
            <polygon id="Shape" fill="#0C2340" points="62.9761522 32.5371951 61.5805776 32.5371951 61.5805776 25.6756098 62.9761522 25.6756098"></polygon>
            <polygon id="Shape" fill="#0C2340" points="69.4398661 25.6756098 70.908892 25.6756098 68.5584505 32.5371951 67.3097785 32.5371951 65.0327884 25.6756098 66.5752656 25.6756098 68.0442915 30.8402439"></polygon>
            <polygon id="Shape" fill="#0C2340" points="77.666411 26.929878 74.0672976 26.929878 74.0672976 28.4054878 77.3726059 28.4054878 77.3726059 29.5121951 74.0672976 29.5121951 74.0672976 31.2829268 77.8133136 31.2829268 77.8133136 32.5371951 72.671723 32.5371951 72.671723 25.6756098 77.666411 25.6756098 77.666411 26.929878"></polygon>
            <path d="M84.3504788,25.8969512 C84.5708327,25.9707317 84.7911866,26.1920732 85.0115405,26.3396341 C85.1584431,26.4871951 85.3053457,26.7085366 85.3787969,26.929878 C85.4522482,27.1512195 85.5256995,27.372561 85.5256995,27.6676829 C85.5256995,27.9628049 85.4522482,28.3317073 85.3053457,28.6268293 C85.1584431,28.9219512 84.8646379,29.1432927 84.4973814,29.2908537 C84.7911866,29.4384146 85.0115405,29.5859756 85.1584431,29.8073171 C85.3053457,30.0286585 85.3787969,30.397561 85.3787969,30.8402439 L85.3787969,31.2829268 C85.3787969,31.5780488 85.3787969,31.7993902 85.4522482,31.9469512 C85.5256995,32.0945122 85.5991508,32.2420732 85.7460534,32.3158537 L85.7460534,32.4634146 L84.2035762,32.4634146 C84.1301249,32.3158537 84.1301249,32.1682927 84.1301249,32.0945122 C84.0566736,31.8731707 84.0566736,31.7256098 84.0566736,31.5042683 L84.0566736,30.8402439 C84.0566736,30.397561 83.9832224,30.102439 83.8363198,29.954878 C83.6894172,29.8073171 83.395612,29.7335366 83.0283555,29.7335366 L81.6327809,29.7335366 L81.6327809,32.3896341 L80.2372063,32.3896341 L80.2372063,25.5280488 L83.4690633,25.5280488 C83.7628685,25.6756098 84.1301249,25.7493902 84.3504788,25.8969512 Z M81.4124271,26.8560976 L81.4124271,28.7006098 L82.9549042,28.7006098 C83.2487094,28.7006098 83.4690633,28.6268293 83.6159659,28.5530488 C83.9097711,28.4054878 84.0566736,28.1841463 84.0566736,27.8152439 C84.0566736,27.372561 83.9097711,27.1512195 83.6894172,27.0036585 C83.5425146,26.929878 83.3221607,26.8560976 83.0283555,26.8560976 L81.4124271,26.8560976 Z" id="Shape" fill="#0C2340"></path>
            <path d="M88.5372026,30.397561 C88.6106539,30.6926829 88.6841052,30.9140244 88.8310078,31.0615854 C89.0513617,31.3567073 89.4920694,31.5042683 90.0062285,31.5042683 C90.373485,31.5042683 90.5938388,31.4304878 90.8141927,31.3567073 C91.2549005,31.2091463 91.4018031,30.9878049 91.4018031,30.545122 C91.4018031,30.3237805 91.3283518,30.1762195 91.1079979,30.0286585 C90.887644,29.8810976 90.5938388,29.8073171 90.1531311,29.7335366 L89.4186181,29.5859756 C88.6841052,29.4384146 88.1699461,29.2170732 87.9495922,29.0695122 C87.5088845,28.7743902 87.2885306,28.2579268 87.2885306,27.5939024 C87.2885306,27.0036585 87.5088845,26.4871951 87.9495922,26.0445122 C88.3903,25.6756098 89.0513617,25.4542683 89.9327772,25.4542683 C90.6672901,25.4542683 91.2549005,25.6756098 91.7690596,26.0445122 C92.2832186,26.4134146 92.5770238,27.0036585 92.5770238,27.7414634 L91.1814492,27.7414634 C91.1814492,27.2987805 90.9610953,27.0036585 90.6672901,26.8560976 C90.4469363,26.7085366 90.1531311,26.7085366 89.7858746,26.7085366 C89.4186181,26.7085366 89.124813,26.7823171 88.9044591,26.929878 C88.6841052,27.077439 88.5372026,27.2987805 88.5372026,27.520122 C88.5372026,27.7414634 88.6106539,27.9628049 88.8310078,28.0365854 C88.9779104,28.1103659 89.2717155,28.1841463 89.7124233,28.3317073 L90.887644,28.6268293 C91.4018031,28.7743902 91.7690596,28.9219512 92.0628647,29.1432927 C92.5035725,29.4384146 92.6504751,29.954878 92.6504751,30.545122 C92.6504751,31.1353659 92.4301212,31.6518293 91.9159621,32.0945122 C91.4018031,32.5371951 90.7407414,32.6847561 89.8593259,32.6847561 C88.9779104,32.6847561 88.2433974,32.4634146 87.7292384,32.0945122 C87.2150793,31.6518293 86.9947254,31.1353659 86.9947254,30.397561 L88.5372026,30.397561 Z" id="Shape" fill="#0C2340"></path>
            <polygon id="Shape" fill="#0C2340" points="96.3964911 32.5371951 95.0009165 32.5371951 95.0009165 25.6756098 96.3964911 25.6756098"></polygon>
            <polygon id="Shape" fill="#0C2340" points="104.108877 25.6756098 104.108877 26.8560976 102.052241 26.8560976 102.052241 32.4634146 100.656666 32.4634146 100.656666 26.8560976 98.6000299 26.8560976 98.6000299 25.6756098"></polygon>
            <polygon id="Shape" fill="#0C2340" points="109.470821 25.6756098 111.08675 25.6756098 108.80976 29.954878 108.80976 32.5371951 107.414185 32.5371951 107.414185 29.954878 105.063744 25.6756098 106.753124 25.6756098 108.148698 28.6268293"></polygon>
            <path d="M117.109756,26.4134146 C117.623915,25.8231707 118.358428,25.6018293 119.166392,25.6018293 C120.268162,25.6018293 121.149577,25.9707317 121.663736,26.7085366 C121.957542,27.1512195 122.104444,27.520122 122.104444,27.9628049 L120.70887,27.9628049 C120.635418,27.6676829 120.488516,27.372561 120.341613,27.225 C120.121259,26.929878 119.680551,26.7823171 119.239844,26.7823171 C118.725685,26.7823171 118.358428,27.0036585 118.064623,27.4463415 C117.770818,27.8890244 117.623915,28.4792683 117.623915,29.2170732 C117.623915,29.954878 117.770818,30.545122 118.064623,30.9140244 C118.358428,31.2829268 118.799136,31.5042683 119.239844,31.5042683 C119.754003,31.5042683 120.121259,31.3567073 120.341613,30.9878049 C120.488516,30.8402439 120.561967,30.545122 120.70887,30.1762195 L122.104444,30.1762195 C121.957542,30.9140244 121.663736,31.5042683 121.149577,32.0207317 C120.635418,32.4634146 119.974357,32.6847561 119.239844,32.6847561 C118.284977,32.6847561 117.477013,32.3896341 116.962854,31.7256098 C116.375243,31.0615854 116.154889,30.25 116.154889,29.1432927 C116.154889,27.9628049 116.448694,27.077439 117.109756,26.4134146 Z" id="Shape" fill="#0C2340"></path>
            <polygon id="Shape" fill="#0C2340" points="124.16108 32.5371951 124.16108 25.6756098 125.556655 25.6756098 125.556655 28.2579268 128.200902 28.2579268 128.200902 25.6756098 129.596476 25.6756098 129.596476 32.5371951 128.200902 32.5371951 128.200902 29.5121951 125.556655 29.5121951 125.556655 32.5371951"></polygon>
            <polygon id="Shape" fill="#0C2340" points="133.636297 32.5371951 132.240723 32.5371951 132.240723 25.6756098 133.636297 25.6756098"></polygon>
            <path d="M136.794703,26.4134146 C137.308862,25.8231707 138.043375,25.6018293 138.851339,25.6018293 C139.953109,25.6018293 140.834524,25.9707317 141.348683,26.7085366 C141.642488,27.1512195 141.789391,27.520122 141.789391,27.9628049 L140.393816,27.9628049 C140.320365,27.6676829 140.173463,27.372561 140.02656,27.225 C139.806206,26.929878 139.365498,26.7823171 138.924791,26.7823171 C138.410631,26.7823171 138.043375,27.0036585 137.74957,27.4463415 C137.455765,27.8890244 137.308862,28.4792683 137.308862,29.2170732 C137.308862,29.954878 137.455765,30.545122 137.74957,30.9140244 C138.043375,31.2829268 138.484083,31.5042683 138.924791,31.5042683 C139.43895,31.5042683 139.806206,31.3567073 140.02656,30.9878049 C140.173463,30.8402439 140.320365,30.545122 140.393816,30.1762195 L141.789391,30.1762195 C141.642488,30.9140244 141.348683,31.5042683 140.834524,32.0207317 C140.320365,32.4634146 139.659303,32.6847561 138.924791,32.6847561 C137.969924,32.6847561 137.161959,32.3896341 136.6478,31.7256098 C136.06019,31.0615854 135.839836,30.25 135.839836,29.1432927 C135.839836,28.0365854 136.133641,27.077439 136.794703,26.4134146 Z" id="Shape" fill="#0C2340"></path>
            <path d="M145.168151,25.7493902 L146.784079,25.7493902 L149.207972,32.6109756 L147.665495,32.6109756 L147.224787,31.2091463 L144.727443,31.2091463 L144.286735,32.6109756 L142.817709,32.6109756 L145.168151,25.7493902 Z M145.094699,29.954878 L146.85753,29.954878 L145.976115,27.2987805 L145.094699,29.954878 Z" id="Shape" fill="#0C2340"></path>
            <path d="M155.084075,27.8890244 C155.010624,27.4463415 154.716819,27.077439 154.276111,26.929878 C154.055757,26.8560976 153.761952,26.7823171 153.468147,26.7823171 C152.953988,26.7823171 152.439829,27.0036585 152.146023,27.372561 C151.778767,27.8152439 151.631864,28.4054878 151.631864,29.2170732 C151.631864,30.0286585 151.852218,30.6189024 152.219475,30.9878049 C152.586731,31.3567073 153.027439,31.5042683 153.541598,31.5042683 C154.055757,31.5042683 154.423014,31.3567073 154.716819,31.0615854 C155.010624,30.7664634 155.230978,30.397561 155.304429,29.954878 L153.761952,29.954878 L153.761952,28.8481707 L156.626552,28.8481707 L156.626552,32.5371951 L155.671686,32.5371951 L155.451332,31.7256098 C155.157527,32.0207317 154.937173,32.2420732 154.716819,32.3896341 C154.349562,32.6109756 153.908855,32.7585366 153.321244,32.7585366 C152.439829,32.7585366 151.705316,32.4634146 151.117705,31.7993902 C150.530095,31.1353659 150.23629,30.3237805 150.23629,29.2170732 C150.23629,28.1103659 150.530095,27.225 151.117705,26.5609756 C151.705316,25.8969512 152.51328,25.5280488 153.541598,25.5280488 C154.423014,25.5280488 155.084075,25.7493902 155.598234,26.1920732 C156.112393,26.6347561 156.406199,27.1512195 156.47965,27.8152439 L155.084075,27.8152439 L155.084075,27.8890244 Z" id="Shape" fill="#0C2340"></path>
            <path d="M163.384072,31.9469512 C162.869912,32.4634146 162.1354,32.7585366 161.180533,32.7585366 C160.225666,32.7585366 159.491153,32.4634146 158.976994,31.9469512 C158.315932,31.2829268 157.948676,30.3237805 157.948676,29.1432927 C157.948676,27.8890244 158.315932,26.929878 158.976994,26.3396341 C159.491153,25.8231707 160.225666,25.5280488 161.180533,25.5280488 C162.1354,25.5280488 162.869912,25.8231707 163.384072,26.3396341 C164.045133,26.929878 164.41239,27.8890244 164.41239,29.1432927 C164.485841,30.397561 164.118584,31.2829268 163.384072,31.9469512 Z M162.502656,30.9140244 C162.796461,30.4713415 163.016815,29.8810976 163.016815,29.1432927 C163.016815,28.4054878 162.869912,27.8152439 162.502656,27.372561 C162.1354,26.929878 161.694692,26.7823171 161.180533,26.7823171 C160.592922,26.7823171 160.152215,27.0036585 159.858409,27.372561 C159.491153,27.8152439 159.34425,28.4054878 159.34425,29.1432927 C159.34425,29.8810976 159.491153,30.4713415 159.858409,30.9140244 C160.225666,31.3567073 160.666374,31.5042683 161.180533,31.5042683 C161.768143,31.5780488 162.208851,31.3567073 162.502656,30.9140244 Z" id="Shape" fill="#0C2340"></path>
        </g>
    </g>
</svg>