<?xml version="1.0" encoding="UTF-8"?>
<svg width="165px" height="39px" viewBox="0 0 165 39" version="1.1" xmlns="http://www.w3.org/2000/svg" xmlns:xlink="http://www.w3.org/1999/xlink">
    <!-- Generator: Sketch 48.2 (47327) - http://www.bohemiancoding.com/sketch -->
    <title>165x39-vo</title>
    <desc>Created with Sketch.</desc>
    <defs></defs>
    <g id="Artboard" stroke="none" stroke-width="1" fill="none" fill-rule="evenodd" transform="translate(-930.000000, -2578.000000)">
        <g id="165x39-vo" transform="translate(930.000000, 2578.000000)" fill="#0C2340" fill-rule="nonzero">
            <path d="M39.8208064,19.5001917 C39.8208064,30.2697951 30.90608,39 19.9100118,39 C8.91413921,39 0,30.2697951 0,19.5001917 C0,8.73058818 8.91413921,0 19.9100118,0 C30.90608,0 39.8208064,8.73058818 39.8208064,19.5001917 Z M29.3692933,20.1243877 L28.0521646,17.8996663 L30.8305862,14.0344897 L23.1509573,17.6685086 L22.9948896,16.5752639 L25.2389775,12.9900647 L24.9172059,12.3995244 L25.9531857,8.18418014 L21.927167,12.3377646 L21.6855077,10.0438331 L22.8892699,6.60450441 L21.2824902,7.13308897 L19.879581,2.92127388 L18.4772386,7.13308897 L16.8704588,6.60450441 L18.07441,10.0438331 L17.8329396,12.3377646 L13.8063541,8.18418014 L14.8423339,12.3995244 L14.5207513,12.9900647 L16.7648391,16.5752639 L16.6091493,17.6685086 L8.92914263,14.0344897 L11.7081309,17.8996663 L10.3904355,20.1243877 L16.2894561,23.047876 L16.3835502,24.0223067 L11.9116237,22.6353604 L14.1598682,25.3984695 L14.3476786,26.2754572 L17.0879334,27.4816339 L17.36946,28.3099981 L16.141324,27.8023921 L19.4537012,31.574047 L19.4537012,36.0712739 L20.3054607,36.0712739 L20.3054607,31.574047 L23.6184048,27.8023921 L22.3902688,28.3099981 L22.6719843,27.4816339 L25.412428,26.2754572 L25.6004273,25.3984695 L27.8479161,22.6353604 L23.3763675,24.0223067 L23.4698948,23.047876 L29.3692933,20.1243877 Z" id="Combined-Shape"></path>
            <path d="M145.844035,25.3594693 C143.839554,25.3594693 142.86717,23.5826655 142.86717,21.7768396 C142.86717,19.1845119 144.312041,18.0774762 145.844035,18.0774762 C147.611946,18.0774762 148.820574,19.5340682 148.820574,21.7768396 C148.820574,24.0776553 147.435417,25.3594693 145.844035,25.3594693 Z M127.219292,24.864157 C124.06557,24.864157 121.530846,22.1844403 121.530846,18.6311553 C121.530846,15.2233038 124.06557,12.6599983 127.219292,12.6599983 C130.372361,12.6599983 132.907412,15.2233038 132.907412,18.6311553 C132.907412,22.1844403 130.372361,24.864157 127.219292,24.864157 Z M97.8369802,25.3301246 C95.9803136,25.3301246 94.3889324,23.961244 94.3889324,21.7184727 C94.3889324,19.4466791 95.9803136,18.0191093 97.8369802,18.0191093 C99.6939725,18.0191093 101.285354,19.4466791 101.285354,21.7184727 C101.285354,23.961244 99.6939725,25.3301246 97.8369802,25.3301246 Z M159.489049,17.8181818 C161.611327,17.8181818 162.495022,19.2909091 162.495022,19.2909091 L164.499004,15.3636364 C164.499004,15.3636364 163.025851,13.8909091 159.489049,13.8909091 C156.233847,13.8909091 153.331778,15.3425879 152.976107,17.8181818 C151.899307,15.352907 150.98876,13.8909091 146.964161,13.8909091 C142.939562,13.8909091 142.455202,15.8545455 142.455202,15.8545455 C142.455202,15.8545455 142.455202,15.37093 142.455202,14.4036991 L137.946242,14.4036991 L137.915843,15.9569205 C136.753876,11.3252995 132.802489,8 127.425336,8 C122.359476,8 118.17351,10.9518805 116.757027,15.1659043 L116.90443,13.9127901 C116.90443,13.9127901 116.462376,13.9127901 116.167724,13.9127901 C113.898284,13.9127901 111.892823,15.8545455 111.393479,17.8181818 C111.393479,17.8181818 111.393479,16.6727273 111.393479,14.3818182 L106.441926,14.3818182 L106.441926,21.6881606 C106.424958,16.9865638 102.660323,13.9127901 97.8666005,13.9127901 C93.121171,13.9127901 89.2313819,17.0001075 89.2313819,21.7184727 C89.2313819,22.8745238 89.585747,25.1818182 89.3501563,25.1818182 C88.377446,25.1818182 86.8446985,24.907274 86.8446985,23.2181818 L86.8446985,18.3090909 L89.8506719,18.3090909 L89.8506719,14.3818182 L86.8446985,14.3818182 L86.8446985,10.4545455 L81.8347437,10.4545455 L81.8347437,14.3818182 L79.8307616,14.3818182 L79.8307616,15.3636364 C78.8779558,14.7128941 76.8595254,13.9127901 74.3198109,13.8909091 C70.2712758,13.8560289 67.7957998,16.1260076 66.804878,18.8349556 L66.804878,14.3818182 L61.7949229,14.3818182 L61.7949229,29.6 L66.804878,29.6 L66.804878,24.7037331 C67.1239324,26.7881192 70.2863751,29.6 74.3198109,29.6 C78.5637123,29.6 81.039862,27.0485614 81.039862,27.0485614 L79.1831959,23.5239761 C79.1831959,23.5239761 76.9427571,25.1818182 74.8208064,25.1818182 C72.2567146,25.1818182 71.2256359,23.3782202 71.2256359,21.6017389 C71.2256359,19.8249352 72.433611,18.0191093 74.85054,18.0191093 C76.9431234,18.0191093 78.4170356,19.4757013 78.4170356,19.4757013 L79.8307616,17.3272727 L79.8307616,18.3090909 L81.8347437,18.3090909 L81.8347437,23.7090909 C81.8347437,28.7476678 85.9176891,29.6 88.3342919,29.6 C89.1595135,29.6 89.8885561,29.6 89.8506719,29.6 L89.8506719,25.1818182 C91.2110305,27.8937818 94.3875535,29.6 97.8666005,29.6 C102.630956,29.6 106.424958,26.4210369 106.441926,21.7487848 L106.383524,29.6 L111.393479,29.6 L111.540742,23.4952764 C111.540742,22.67943 111.62917,22.0099846 111.806027,21.455983 C112.54282,19.2135341 114.517281,18.8349556 115.725256,18.8349556 C115.903745,18.8349556 116.062328,18.8426949 116.201333,18.852369 C116.312929,24.8625447 121.136492,29.6 127.425336,29.6 C132.802489,29.6 136.784276,26.000643 137.946242,21.2545455 L137.946242,35 L142.455202,35 C142.455202,30.4175111 142.455202,28.126602 142.455202,28.1272727 C142.514262,28.1272727 144.488171,29.6 146.964161,29.6 C151.001839,29.6 153.978099,26.4958497 153.978099,21.7487848 C153.978099,21.4604975 153.998329,21.0399922 153.978099,20.7636364 C155.812576,23.3166228 160.254896,23.7039138 160.254896,24.7477457 C160.254896,25.2427355 159.518104,25.4465358 158.751943,25.4465358 C156.570605,25.4465358 154.98009,23.7090909 154.98009,23.7090909 L152.475112,27.6363636 C152.475112,27.6363636 155.186946,29.6 158.988054,29.6 C162.908262,29.6 165,27.3397509 165,24.7764454 C165,19.941669 157.986063,19.9710136 157.986063,18.8349556 C157.986063,18.3106212 158.723542,17.8181818 159.489049,17.8181818 Z M61.7949229,12.4181818 L66.804878,12.4181818 L66.804878,8.49090909 L56.7849677,8.49090909 L53.2195641,20.2038362 C52.8071166,21.5146724 52.4240365,23.5539658 52.4240365,23.5539658 C52.3649756,23.5539658 51.9818954,21.5146724 51.569448,20.2038362 L47.7670483,8.49090909 L42.2560976,8.49090909 L49.7710304,29.6 L54.7809856,29.6 L61.7949229,10.9454545 L61.7949229,12.4181818 Z" id="Fill-1"></path>
        </g>
    </g>
</svg>