<?xml version="1.0" encoding="UTF-8"?>
<svg width="181px" height="53px" viewBox="0 0 181 53" version="1.1" xmlns="http://www.w3.org/2000/svg" xmlns:xlink="http://www.w3.org/1999/xlink">
    <!-- Generator: Sketch 48.2 (47327) - http://www.bohemiancoding.com/sketch -->
    <title>180x53-logo</title>
    <desc>Created with Sketch.</desc>
    <defs></defs>
    <g id="Page-1" stroke="none" stroke-width="1" fill="none" fill-rule="evenodd">
        <g id="180x53-logo" fill="#0C2340" fill-rule="nonzero">
            <path d="M32.6132812,30.3085937 L13.2070312,30.3085937 L13.2070312,42.5078125 L36.1289062,42.5078125 L36.1289062,52 L0.8671875,52 L0.8671875,0.8125 L36.1992188,0.8125 L36.1992188,10.3398438 L13.2070312,10.3398438 L13.2070312,21.1328125 L32.6132812,21.1328125 L32.6132812,30.3085937 Z M83.0625,45.671875 C81.164053,47.7812605 78.386737,49.4804623 74.7304688,50.7695312 C71.0742005,52.0586002 67.066428,52.703125 62.7070312,52.703125 C56.0038727,52.703125 50.6484575,50.6523643 46.640625,46.5507812 C42.6327925,42.4491982 40.4882827,36.7422241 40.2070312,29.4296875 L40.171875,25 C40.171875,19.9609123 41.0624911,15.5605657 42.84375,11.7988281 C44.6250089,8.03709057 47.1738115,5.14258826 50.4902344,3.11523438 C53.8066572,1.08788049 57.6445095,0.07421875 62.0039062,0.07421875 C68.3789381,0.07421875 73.3300605,1.53318854 76.8574219,4.45117188 C80.3847833,7.36915521 82.4414033,11.7226273 83.0273438,17.5117188 L71.1445312,17.5117188 C70.7226541,14.6523295 69.8086008,12.6132873 68.4023438,11.3945312 C66.9960867,10.1757752 65.0039191,9.56640625 62.4257812,9.56640625 C59.3320158,9.56640625 56.9414147,10.8788931 55.2539062,13.5039062 C53.5663978,16.1289194 52.7109376,19.8788819 52.6875,24.7539062 L52.6875,27.8476562 C52.6875,32.9570568 53.5605381,36.794909 55.3066406,39.3613281 C57.0527431,41.9277472 59.8007625,43.2109375 63.5507812,43.2109375 C66.7617348,43.2109375 69.1523359,42.4961009 70.7226562,41.0664062 L70.7226562,33.1210938 L62.1445312,33.1210938 L62.1445312,24.6484375 L83.0625,24.6484375 L83.0625,45.671875 Z" id="EG"></path>
            <polygon id="N" points="180.420187 52 168.150656 52 150.010031 20.1484375 150.010031 52 137.670187 52 137.670187 0.8125 150.010031 0.8125 168.1155 32.6640625 168.1155 0.8125 180.420187 0.8125"></polygon>
            <polygon id="Shape" points="109 0 135 52 83 52"></polygon>
        </g>
    </g>
</svg>