<?xml version="1.0" encoding="UTF-8"?>
<svg width="181px" height="53px" viewBox="0 0 181 53" version="1.1" xmlns="http://www.w3.org/2000/svg" xmlns:xlink="http://www.w3.org/1999/xlink">
    <!-- Generator: Sketch 48.2 (47327) - http://www.bohemiancoding.com/sketch -->
    <title>180x53-logo-white</title>
    <desc>Created with Sketch.</desc>
    <defs></defs>
    <g id="Artboard" stroke="none" stroke-width="1" fill="none" fill-rule="evenodd" transform="translate(-12.000000, -35.000000)">
        <g id="180x53-logo-white" transform="translate(12.000000, 35.000000)" fill="#FFFFFF" fill-rule="nonzero">
            <path d="M81.7734375,45.671875 C79.8749905,47.7812605 77.0976745,49.4804623 73.4414062,50.7695312 C69.785138,52.0586002 65.7773655,52.703125 61.4179688,52.703125 C54.7148102,52.703125 49.359395,50.6523643 45.3515625,46.5507812 C41.34373,42.4491982 39.1992202,36.7422241 38.9179688,29.4296875 L38.8828125,25 C38.8828125,19.9609123 39.7734286,15.5605657 41.5546875,11.7988281 C43.3359464,8.03709057 45.884749,5.14258826 49.2011719,3.11523438 C52.5175947,1.08788049 56.355447,0.07421875 60.7148438,0.07421875 C67.0898756,0.07421875 72.040998,1.53318854 75.5683594,4.45117188 C79.0957208,7.36915521 81.1523408,11.7226273 81.7382812,17.5117188 L69.8554688,17.5117188 C69.4335916,14.6523295 68.5195383,12.6132873 67.1132812,11.3945312 C65.7070242,10.1757752 63.7148566,9.56640625 61.1367188,9.56640625 C58.0429533,9.56640625 55.6523522,10.8788931 53.9648438,13.5039062 C52.2773353,16.1289194 51.4218751,19.8788819 51.3984375,24.7539062 L51.3984375,27.8476562 C51.3984375,32.9570568 52.2714756,36.794909 54.0175781,39.3613281 C55.7636806,41.9277472 58.5117,43.2109375 62.2617188,43.2109375 C65.4726723,43.2109375 67.8632734,42.4961009 69.4335938,41.0664062 L69.4335938,33.1210938 L60.8554688,33.1210938 L60.8554688,24.6484375 L81.7734375,24.6484375 L81.7734375,45.671875 Z" id="G"></path>
            <polygon id="E" points="32.6132812 30.3085937 13.2070312 30.3085937 13.2070312 42.5078125 36.1289062 42.5078125 36.1289062 52 0.8671875 52 0.8671875 0.8125 36.1992188 0.8125 36.1992188 10.3398438 13.2070312 10.3398438 13.2070312 21.1328125 32.6132812 21.1328125"></polygon>
            <polygon id="N" points="180.420201 52 168.15067 52 150.010045 20.1484375 150.010045 52 137.670201 52 137.670201 0.8125 150.010045 0.8125 168.115514 32.6640625 168.115514 0.8125 180.420201 0.8125"></polygon>
            <polygon id="Triangle" points="109 0 135 52 83 52"></polygon>
        </g>
    </g>
</svg>