<svg height="64" viewBox="0 0 45 64" width="45" xmlns="http://www.w3.org/2000/svg"><path d="m37.6375 26.925c1.4625-4.075 5.675-15.8625 5.675-19.6375 0-3.325-1.9625-6.1125-5.4625-6.1125-5.575 0-10.575 16.4625-12.1375 20.3875-1.2125-3.5625-6.8875-21.5625-11.8875-21.5625-3.8875 0-5.7125 2.8625-5.7125 6.4625 0 4.4125 4.275 15.85 5.825 20.25-.7875-.2875-1.6375-.5375-2.5-.5375-2.925 0-6.0375 3.6375-6.0375 6.575 0 1.1125.6125 2.675 1 3.7125-4.6125 1.25-6.3875 4.325-6.3875 8.9625-.0125 9.025 8.5375 18.575 20.5625 18.575 14.75 0 23.925-11.075 23.925-25.3625 0-5.3875-.8625-10.25-6.8625-11.7125zm-4.425-13.425c.5-1.5375 2.6375-8.0375 4.6375-8.0375 1.075 0 1.3625 1.1125 1.3625 2 0 2.3875-4.825 15.575-5.8875 18.5l-4.25-.75zm-21.175-7.4625c0-1.4875 1.8125-5.7125 5.7875 5.8875l4.325 12.5375c-1.95-.1625-3.4625-.375-4.425.175-1.3625-3.6-5.6875-14.9625-5.6875-18.6zm-.2875 24.4625c3.6625 0 8.3875 11.825 8.3875 13.425 0 .6375-.6125 1.425-1.325 1.425-2.6125 0-9.6125-9.6125-9.6125-12.2125.0125-.9625 1.5875-2.6375 2.55-2.6375zm23.0375 23.2875c-3.6375 4-8.2875 6.075-13.7125 6.075-7.425 0-13.2875-4.075-16.1125-11.0375-2.1375-5.425.475-8.5375 2.575-8.5375 1.425 0 6.7875 7.5375 6.7875 9.1375 0 .6125-.9625 1.0375-1.4625 1.0375-2.0125 0-2.8-1.9375-6.3875-6.425-3.7125 3.7125 2.5625 10.8625 7.2875 10.8625 3.2625 0 5.3875-3.025 4.75-5.25.4625 0 1.0375.0375 1.4625-.075.1375 3.3875 1.1375 7.425 5.2125 7.7125 0-.1125.25-.8875.25-.925 0-2.175-1.325-4.075-1.325-6.2875 0-3.5375 2.7125-6.9625 5.4625-8.9625 1-.75 2.2125-1.2125 3.3875-1.6375 1.2125-.4625 2.5-1 3.425-1.925-.1375-1.4-.7125-2.6375-2.1125-2.6375-3.4625 0-15.075.5-15.075-4.9625 0-.8375.0125-1.6375 2.175-1.6375 4.0375 0 14.2875 1 17.2875 3.6375 2.2625 2.0125 3.0375 14.15-3.875 21.8375zm-12.325-15.75c1.2125.3875 2.4625.5 3.7125.75-.925.675-1.75 1.5-2.5375 2.3875-.35-1.0625-.775-2.1-1.175-3.1375z" fill="#2c9ee6" transform=""/></svg>