<?xml version="1.0" encoding="UTF-8"?>
<svg width="21px" height="20px" viewBox="0 0 21 20" version="1.1" xmlns="http://www.w3.org/2000/svg" xmlns:xlink="http://www.w3.org/1999/xlink">
    <!-- Generator: Sketch 48.2 (47327) - http://www.bohemiancoding.com/sketch -->
    <title>chat icon</title>
    <desc>Created with Sketch.</desc>
    <defs></defs>
    <g id="Artboard" stroke="none" stroke-width="1" fill="none" fill-rule="evenodd" transform="translate(-63.000000, -84.000000)">
        <path d="M81.0004183,100.000418 L84,103 L77.3641255,103 C76.045363,103.640658 74.5646459,104 73,104 C67.4771522,104 63,99.5228478 63,94 C63,88.4771522 67.4771522,84 73,84 C78.5228478,84 83,88.4771522 83,94 C83,96.2513997 82.2559863,98.3290256 81.0004183,100.000418 Z M73,102 C77.4182782,102 81,98.4182782 81,94 C81,89.5817218 77.4182782,86 73,86 C68.5817218,86 65,89.5817218 65,94 C65,98.4182782 68.5817218,102 73,102 Z M76,96 C74.8954304,96 74,95.1045696 74,94 C74,92.8954304 74.8954304,92 76,92 C77.1045696,92 78,92.8954304 78,94 C78,95.1045696 77.1045696,96 76,96 Z M70,96 C68.8954304,96 68,95.1045696 68,94 C68,92.8954304 68.8954304,92 70,92 C71.1045696,92 72,92.8954304 72,94 C72,95.1045696 71.1045696,96 70,96 Z" id="chat-icon" fill="#344F73"></path>
    </g>
</svg>
