<svg height="64" viewBox="0 0 66 64" width="66" xmlns="http://www.w3.org/2000/svg"><path d="m21.9371901 51.4909091c0 .2644628-.3041322.476033-.6876033.476033-.4363637.0396695-.7404959-.1719008-.7404959-.476033 0-.2644628.3041322-.4760331.6876033-.4760331.3966942-.0396694.7404959.1719009.7404959.4760331zm-4.1123967-.5950413c-.092562.2644628.1719008.568595.568595.6479339.3438017.1322314.7404959 0 .8198347-.2644629.0793389-.2644628-.1719008-.568595-.568595-.6876033-.3438017-.0925619-.7272727.0396695-.8198347.3041323zm5.8446281-.2247934c-.3834711.092562-.6479339.3438016-.6082645.6479339.0396694.2644628.3834711.4363636.7801653.3438016.3834711-.092562.6479339-.3438016.6082645-.6082644-.0396694-.2512397-.3966942-.4231405-.7801653-.3834711zm8.7008264-50.6710744c-18.3404958 0-32.3702479 13.9239669-32.3702479 32.2644628 0 14.6644628 9.22975207 27.2132232 22.4132231 31.6297521 1.692562.3041322 2.2876033-.7404959 2.2876033-1.6 0-.8198347-.0396694-5.3421488-.0396694-8.1190083 0 0-9.2561983 1.9834711-11.2-3.9404959 0 0-1.507438-3.8479338-3.67603303-4.8396694 0 0-3.02809918-2.076033.21157024-2.0363636 0 0 3.29256199.2644628 5.10413219 3.4115702 2.8958678 5.1041323 7.7487604 3.6363637 9.6396695 2.7636364.3041322-2.1157025 1.1636363-3.5834711 2.1157024-4.4561983-7.3917355-.8198348-14.8495867-1.8909091-14.8495867-14.6115703 0-3.6363636 1.0049586-5.461157 3.1206611-7.7884297-.3438016-.8595042-1.4677686-4.4033058.3438017-8.9785124 2.7636363-.8595042 9.1239669 3.5702479 9.1239669 3.5702479 2.6446281-.7404959 5.4876033-1.123967 8.3041323-1.123967 2.8165289 0 5.6595041.3834711 8.3041322 1.123967 0 0 6.3603306-4.4429752 9.1239669-3.5702479 1.8115703 4.5884297.6876033 8.1190082.3438017 8.9785124 2.1157025 2.3404958 3.4115702 4.1652892 3.4115702 7.7884297 0 12.7603306-7.7884297 13.7785124-15.1801653 14.6115703 1.216529 1.044628 2.2479339 3.0280991 2.2479339 6.1355371 0 4.4561984-.0396694 9.970248-.0396694 11.0545455 0 .8595041.6082645 1.9041322 2.2876033 1.6 13.2231405-4.3900826 22.1884298-16.938843 22.1884298-31.6033058 0-18.3404959-14.8760331-32.2644628-33.216529-32.2644628zm-19.5173553 45.6066116c-.1719009.1322314-.1322314.4363636.0925619.6876033.2115703.2115702.5157025.3041322.6876034.1322314.1719008-.1322314.1322314-.4363637-.092562-.6876033-.2115703-.2115703-.5157025-.3041323-.6876033-.1322314zm-1.4280992-1.0710744c-.092562.1719008.0396694.3834711.3041322.5157025.2115703.1322314.4760331.092562.5685951-.092562.0925619-.1719008-.0396695-.3834711-.3041323-.5157025-.2644628-.0793388-.476033-.0396694-.568595.092562zm4.2842975 4.707438c-.2115702.1719008-.1322314.568595.1719008.8198347.3041323.3041322.6876033.3438017.8595042.1322314.1719008-.1719008.092562-.568595-.1719009-.8198347-.290909-.3041322-.6876033-.3438016-.8595041-.1322314zm-1.507438-1.9438016c-.2115703.1322314-.2115703.476033 0 .7801652.2115702.3041323.568595.4363637.7404959.3041323.2115702-.1719009.2115702-.5157025 0-.8198347-.185124-.3041323-.5289257-.4363637-.7404959-.2644628z" fill="#2c9ee6" transform=""/></svg>