<?xml version="1.0" encoding="UTF-8"?>
<svg width="20px" height="20px" viewBox="0 0 20 20" version="1.1" xmlns="http://www.w3.org/2000/svg" xmlns:xlink="http://www.w3.org/1999/xlink">
    <!-- Generator: Sketch 48.2 (47327) - http://www.bohemiancoding.com/sketch -->
    <title>icon mail message</title>
    <desc>Created with Sketch.</desc>
    <defs></defs>
    <g id="Artboard" stroke="none" stroke-width="1" fill="none" fill-rule="evenodd" transform="translate(-36.000000, -77.000000)">
        <path d="M39.7546289,92 L43,92 L43,94 L42.1239926,94 C43.2722424,94.6371629 44.5937486,95 46,95 C46.6905991,95 47.3607602,94.912494 48,94.7479651 L48,85 L50,85 L50,93.9297425 C52.3912055,92.5465049 54,89.9611296 54,87 C54,82.5817218 50.4182782,79 46,79 C43.0388704,79 40.4534951,80.6087945 39.0702575,83 L48.9975267,83 C49.544239,83 50,83.4477153 50,84 L50,85 L38.2520349,85 C38.087506,85.6392398 38,86.3094009 38,87 C38,87.6905991 38.087506,88.3607602 38.2520349,89 L43,89 L43,91 L39.0702575,91 C39.2733406,91.3510702 39.5023361,91.6852753 39.7546289,92 Z M46,97 C40.4771522,97 36,92.5228478 36,87 C36,81.4771522 40.4771522,77 46,77 C51.5228478,77 56,81.4771522 56,87 C56,92.5228478 51.5228478,97 46,97 Z M44.9989566,86 L46.0010434,86 C46.5573397,86 47,86.4472481 47,86.9989566 L47,88.0010434 C47,88.5573397 46.5527519,89 46.0010434,89 L44.9989566,89 C44.4426603,89 44,88.5527519 44,88.0010434 L44,86.9989566 C44,86.4426603 44.4472481,86 44.9989566,86 Z" id="icon-mail-message" fill="#344F73"></path>
    </g>
</svg>