<svg height="64" viewBox="0 0 65 64" width="65" xmlns="http://www.w3.org/2000/svg"><path d="m32.0855234 15.6792873c-9.0654789 0-16.3777283 7.3122494-16.3777283 16.3777283 0 9.0654788 7.3122494 16.3777283 16.3777283 16.3777283 9.0654788 0 16.3777283-7.3122495 16.3777283-16.3777283 0-9.0654789-7.3122495-16.3777283-16.3777283-16.3777283zm0 27.0253898c-5.8583519 0-10.6476615-4.7750557-10.6476615-10.6476615s4.7750557-10.6476615 10.6476615-10.6476615 10.6476615 4.7750557 10.6476615 10.6476615-4.7893096 10.6476615-10.6476615 10.6476615zm20.867706-27.695323c0 2.1238308-1.7104677 3.8200446-3.8200445 3.8200446-2.1238308 0-3.8200446-1.7104677-3.8200446-3.8200446 0-2.1095768 1.7104677-3.8200445 3.8200446-3.8200445 2.1095768 0 3.8200445 1.7104677 3.8200445 3.8200445zm10.847216 3.8770602c-.2423162-5.1171493-1.4111358-9.64988869-5.1599109-13.38440985-3.7345211-3.73452115-8.2672606-4.90334075-13.3844098-5.15991091-5.2739421-.29933185-21.0815145-.29933185-26.3554565 0-5.1028954.24231626-9.63563479 1.41113586-13.38440985 5.14565702-3.74877505 3.73452115-4.90334075 8.26726054-5.15991091 13.38440984-.29933185 5.273942-.29933185 21.0815144 0 26.3554565.24231626 5.1171492 1.41113586 9.6498887 5.15991091 13.3844098 3.74877506 3.7345212 8.26726055 4.9033408 13.38440985 5.1599109 5.273942.2993319 21.0815144.2993319 26.3554565 0 5.1171492-.2423162 9.6498887-1.4111358 13.3844098-5.1599109 3.7345212-3.7345211 4.9033408-8.2672606 5.1599109-13.3844098.2993319-5.2739421.2993319-21.0672606 0-26.3412026zm-6.813363 32c-1.111804 2.7937639-3.2641425 4.9461024-6.0721604 6.0721603-4.2048997 1.667706-14.182628 1.2828508-18.8293986 1.2828508s-14.6387528.3706013-18.8293987-1.2828508c-2.7937639-1.111804-4.94610243-3.2641425-6.07216033-6.0721603-1.66770602-4.2048998-1.28285078-14.1826281-1.28285078-18.8293987s-.37060134-14.6387528 1.28285078-18.8293987c1.111804-2.7937639 3.26414253-4.94610242 6.07216033-6.07216033 4.2048998-1.66770601 14.1826281-1.28285078 18.8293987-1.28285078s14.6387528-.37060134 18.8293986 1.28285078c2.793764 1.11180401 4.9461025 3.26414253 6.0721604 6.07216033 1.667706 4.2048998 1.2828508 14.1826281 1.2828508 18.8293987s.3848552 14.6387528-1.2828508 18.8293987z" fill="#2c9ee6" transform=""/></svg>