<svg id="Layer_1" data-name="Layer 1" xmlns="http://www.w3.org/2000/svg" viewBox="0 0 253.919 71.466"><defs><style>.cls-1{fill:#0072bb;}.cls-2{fill:#fff;}.cls-3{fill:#1a233c;}</style></defs><title>Kapost</title><path class="cls-1" d="M85.2,116.268H42.106A7.429,7.429,0,0,0,34.68,123.7v43.094a7.429,7.429,0,0,0,7.427,7.427H64.226l18.014,13.518,0.118-13.518H85.2a7.426,7.426,0,0,0,7.426-7.427V123.7A7.426,7.426,0,0,0,85.2,116.268Z" transform="translate(-34.68 -116.268)"/><path class="cls-2" d="M69.186,165.212l-5.318-6.3-6.218,4.324L55.9,156.5l-10.519.348,3.968-7.012-8.568-3.924,7.963-3.614-3.89-7.73,8.161,1.291,0.818-7.383,5.148,3.447,2.429-7.365,5.023,6.73,4.8-3.439,1.885,5.645,7.922-2.5-2.746,8.7,8.137,2.686L78.8,148.07l4.773,5.731-7.56.633,1.262,6.572-6.244-2.8-1.85,7.006h0Z" transform="translate(-34.68 -116.268)"/><path class="cls-3" d="M103.492,125.045h9.033v23.162l-0.186.981,10.5-12.592h11.493l-11.92,13.33,11.795,18.493H122.784L112.4,150.295l0.184,1.045v17.079h-9.094V125.045Z" transform="translate(-34.68 -116.268)"/><path class="cls-3" d="M155.565,164.917a9.4,9.4,0,0,1-8.353,4.18C139.652,169.1,134,162.952,134,153c0-12.533,7.865-17.205,13.887-17.205a8.554,8.554,0,0,1,7.863,4.855v-4.117h8.663v31.886h-8.848v-3.5ZM153.23,144.7a5.09,5.09,0,0,0-3.625-1.594,5.92,5.92,0,0,0-4.483,2.331,11.321,11.321,0,0,0-1.905,7.009,13.133,13.133,0,0,0,.984,5.467c1.228,2.761,3.255,3.747,5.037,3.747a5.531,5.531,0,0,0,3.932-1.783c1.905-2.089,2.335-4.853,2.335-7.741C155.5,148.023,154.4,145.871,153.23,144.7Z" transform="translate(-34.68 -116.268)"/><path class="cls-3" d="M178.78,136.533v3.811a10.257,10.257,0,0,1,9.029-4.607c7.867,0,13.15,6.512,13.15,16.713,0,9.7-5.4,16.769-13.576,16.769a10.154,10.154,0,0,1-8.357-3.562v12.719H170V136.533h8.785Zm3.871,7.251c-3.5,1.78-3.748,6.2-3.748,8.972a11.739,11.739,0,0,0,1.17,5.774,5.592,5.592,0,0,0,5.281,3.134c4.609,0,6.453-4.607,6.453-9.77,0-3.562-1.168-8.721-6.268-8.721A6.371,6.371,0,0,0,182.651,143.784Z" transform="translate(-34.68 -116.268)"/><path class="cls-3" d="M237.149,152.387c0,10.565-7.559,16.954-17.022,16.954-10.5,0-15.912-7.8-15.912-16.77,0-9.461,5.959-16.9,16.959-16.9C231.864,135.674,237.149,143.844,237.149,152.387ZM226.27,145.75a6.117,6.117,0,0,0-5.406-2.825,7.586,7.586,0,0,0-3.5.8c-3.566,1.963-3.873,6.51-3.873,8.725a17.414,17.414,0,0,0,.369,3.563c1.107,5.1,4.73,5.955,6.82,5.955a6.507,6.507,0,0,0,5.529-2.944,12.416,12.416,0,0,0,1.66-6.884A10.845,10.845,0,0,0,226.27,145.75Z" transform="translate(-34.68 -116.268)"/><path class="cls-3" d="M248.261,157.3c0.367,2.274.859,5.285,6.818,5.285,1.23,0,4.484-.185,4.484-2.949,0-1.9-1.6-2.455-3.562-2.948-0.858-.248-5.037-1.231-5.961-1.478-3.625-.919-9.4-2.333-9.4-9.458a8.763,8.763,0,0,1,3.809-7.558c2.273-1.6,5.527-2.519,9.584-2.519a16.341,16.341,0,0,1,9.217,2.394c3.01,1.966,4.361,4.731,4.607,8.421l-8.479.428a6.678,6.678,0,0,0-.8-2.641c-0.123-.186-1.352-1.965-4.855-1.965-3.074,0-4.361.92-4.361,2.579,0,1.29.861,1.966,3.377,2.579,0.74,0.186,4.363,1.043,5.225,1.23,4.115,0.982,10.812,2.58,10.812,9.953,0,7.618-6.516,10.689-13.945,10.689a22.7,22.7,0,0,1-6.084-.738,11.738,11.738,0,0,1-7.682-5.405,10.238,10.238,0,0,1-1.41-5.653Z" transform="translate(-34.68 -116.268)"/><path class="cls-3" d="M275.02,127.135h9.033V136.6H288.6v6.88h-4.545v24.943H275.02V143.476h-4.547V136.6h4.547v-9.461Z" transform="translate(-34.68 -116.268)"/></svg>