<svg height="64" viewBox="0 0 64 64" width="64" xmlns="http://www.w3.org/2000/svg"><path d="m59.4285714 0h-54.87142854c-2.51428572 0-4.55714286 2.07142857-4.55714286 4.61428571v54.77142859c0 2.5428571 2.04285714 4.6142857 4.55714286 4.6142857h54.87142854c2.5142857 0 4.5714286-2.0714286 4.5714286-4.6142857v-54.77142859c0-2.54285714-2.0571429-4.61428571-4.5714286-4.61428571zm-40.0857143 54.8571429h-9.48571424v-30.5428572h9.50000004v30.5428572zm-4.7428571-34.7142858c-3.0428571 0-5.5-2.4714285-5.5-5.5 0-3.0285714 2.4571429-5.49999996 5.5-5.49999996 3.0285714 0 5.5 2.47142856 5.5 5.49999996 0 3.0428572-2.4571429 5.5-5.5 5.5zm40.3 34.7142858h-9.4857143v-14.8571429c0-3.5428571-.0714286-8.1-4.9285714-8.1-4.9428572 0-5.7 3.8571429-5.7 7.8428571v15.1142858h-9.4857143v-30.5428572h9.1v4.1714286h.1285714c1.2714286-2.4 4.3714286-4.9285714 8.9857143-4.9285714 9.6 0 11.3857143 6.3285714 11.3857143 14.5571428z" fill="#2c9ee6" transform=""/></svg>