<svg height="20" viewBox="0 0 102 20" width="102" xmlns="http://www.w3.org/2000/svg" xmlns:xlink="http://www.w3.org/1999/xlink"><linearGradient id="a"><stop offset="0" stop-color="#57cdf4"/><stop offset="1" stop-color="#2c9ee6"/></linearGradient><radialGradient id="b" cx="148.562062%" cy="61.777283%" gradientTransform="matrix(1 0 0 .51103645 0 .302068)" r="258.959731%" xlink:href="#a"/><radialGradient id="c" cx="148.562062%" cy="61.777283%" gradientTransform="matrix(1 0 0 .61155919 0 .239968)" r="258.959731%" xlink:href="#a"/><radialGradient id="d" cx="148.562062%" cy="61.777283%" gradientTransform="matrix(1 0 0 .47205927 0 .326148)" r="258.959731%" xlink:href="#a"/><radialGradient id="e" cx="148.562062%" cy="61.777283%" gradientTransform="matrix(.986965 0 0 .614976 .019365 .237857)" r="262.379954%" xlink:href="#a"/><g fill="none" fill-rule="evenodd"><path d="m6.57209302 15.3255814c-1.08837753 0-2.09301865-.1848819-3.01395349-.5546512-.92093483-.3697693-1.66395066-.9209265-2.22906976-1.6534883-.56511911-.7325618-.8546511-1.6081345-.86860465-2.6267442 0-.125582.04186004-.2337205.12558139-.3244186.08372135-.0906982.18837147-.1360465.31395349-.1360465h2.99302326c.19534981 0 .34883665.0453483.46046511.1360465.11162847.0906981.20232523.2406966.27209303.45.22325693 1.0465168.90697102 1.5697674 2.05116279 1.5697674.66977079 0 1.18255636-.2197652 1.53837209-.6593023s.53372093-1.0779028.53372093-1.91511629v-5.90232558h-6.71860465c-.13953558 0-.26162739-.05232506-.36627907-.15697675-.10465169-.10465168-.15697675-.22674349-.15697675-.36627907v-2.19767442c0-.15348914.05232506-.27906928.15697675-.37674418.10465168-.09767491.22674349-.14651163.36627907-.14651163h10.23488374c.1534891 0 .2825576.05232506.3872093.15697674.1046517.10465169.1569767.23372017.1569767.38720931v8.72790697c0 1.1860524-.2616253 2.2011586-.7848837 3.0453488-.5232584.8441903-1.2558092 1.4790677-2.19767441 1.9046512-.94186518.4255835-2.02673805.6383721-3.25465117.6383721z" fill="url(#b)"/><path d="m19.2244186 15.3255814c-1.7581483 0-3.1081348-.4081355-4.05-1.2244186-.9418652-.8162832-1.4546507-1.9778995-1.5383721-3.4848837-.0139535-.1813963-.0209302-.4953466-.0209302-.9418605 0-.44651386.0069767-.7604642.0209302-.94186046.0837214-1.47907716.6104603-2.63371678 1.5802326-3.46395349s2.3058054-1.24534884 4.0081395-1.24534884 3.0383672.41511213 4.0081395 1.24534884 1.4965112 1.98487633 1.5802326 3.46395349c.0279071.36279251.0418605.67674286.0418605.94186046 0 .26511761-.0139534.579068-.0418605.9418605-.0837214 1.5069842-.5965069 2.6686005-1.5383721 3.4848837-.9418652.8162831-2.2918517 1.2244186-4.05 1.2244186z" fill="url(#c)"/><path d="m19.2244186 12.6883721c.5720959 0 .997673-.1779052 1.2767442-.5337209.2790712-.3558158.4395347-.9034847.4813953-1.6430233.0139536-.1395356.0209303-.4186026.0209303-.8372093 0-.41860674-.0069767-.69767372-.0209303-.8372093-.0418606-.72558502-.2023241-1.26976563-.4813953-1.63255814s-.7046483-.54418604-1.2767442-.54418604-.997673.18139353-1.2767442.54418604c-.2790711.36279251-.4395347.90697312-.4813953 1.63255814l-.0209303.8372093.0209303.8372093c.0418606.7395386.2023242 1.2872075.4813953 1.6430233.2790712.3558157.7046483.5337209 1.2767442.5337209z" fill="#fff"/><path d="m26.0790698 15.1162791c-.1534892 0-.2825576-.0488368-.3872093-.1465117s-.1569768-.223255-.1569768-.3767441v-13.81395353c0-.15348914.0523251-.27906928.1569768-.37674419s.2337201-.14651163.3872093-.14651163h2.8255814c.1534891 0 .2825576.04883672.3872093.14651163s.1569767.22325505.1569767.37674419v4.66744186c.8093064-.94884196 1.9046443-1.42325582 3.2860465-1.42325582.7953528 0 1.5139503.18139354 2.155814.54418605.6418636.36279251 1.1441842.89999644 1.5069767 1.61162791.3627925.71163146.5441861 1.56976242.5441861 2.5744186v5.83953493c0 .1534891-.0523251.2790692-.1569768.3767441s-.2337201.1465117-.3872093.1465117h-2.8465116c-.1395356 0-.2616274-.0523251-.3662791-.1569768s-.1569767-.2267435-.1569767-.366279v-5.71395353c0-.61395656-.1534869-1.09185876-.4604651-1.43372093-.3069783-.34186218-.7465088-.5127907-1.3186047-.5127907-.5581423 0-.9976728.17092852-1.3186046.5127907-.3209319.34186217-.4813954.81976437-.4813954 1.43372093v5.71395353c0 .1534891-.052325.2790692-.1569767.3767441s-.2337202.1465117-.3872093.1465117z" fill="url(#d)"/><path d="m38.4383721 15.1162791c-.1395356 0-.2616274-.0523251-.3662791-.1569768s-.1569767-.2267435-.1569767-.366279v-9.83720935c0-.15348914.052325-.27906928.1569767-.37674418.1046517-.09767491.2267435-.14651163.3662791-.14651163h2.5744186c.1534891 0 .2790693.04883672.3767442.14651163.0976749.0976749.1465116.22325504.1465116.37674418v.79534884c.3767461-.46046742.861625-.83023116 1.4546512-1.10930232.5930262-.27907117 1.273252-.41860466 2.0406976-.41860466.7953529 0 1.5034853.18139354 2.1244187.54418605.6209333.36279251 1.1093005.89999644 1.4651162 1.61162791.3558158.71163146.533721 1.56976242.533721 2.5744186v5.83953493c0 .1395355-.0488368.2616273-.1465117.366279s-.223255.1569768-.3767442.1569768h-2.7837209c-.1534891 0-.2825576-.0488368-.3872093-.1465117s-.1569767-.223255-.1569767-.3767441v-5.71395353c0-.62791012-.1499985-1.10930065-.45-1.44418605-.3000015-.33488539-.7360437-.50232558-1.3081396-.50232558-.5581423 0-.9976728.17092852-1.3186046.5127907-.3209319.34186217-.4813954.81976437-.4813954 1.43372093v5.71395353c0 .1395355-.0488367.2616273-.1465116.366279s-.223255.1569768-.3767442.1569768z" fill="url(#e)"/><path d="m55.9686047 15.1162791c-.1395356 0-.2616274-.0523251-.3662791-.1569768s-.1569768-.2267435-.1569768-.366279v-13.58372097c0-.15348914.0488368-.28255762.1465117-.38720931.0976749-.10465168.223255-.15697674.3767442-.15697674h9.8790697c.1534892 0 .2825576.05232506.3872093.15697674.1046517.10465169.1569768.23372017.1569768.38720931v2.07209302c0 .15348914-.0523251.27906928-.1569768.37674418-.1046517.09767491-.2337201.14651163-.3872093.14651163h-6.6139535v2.65813954h6.1534884c.1534891 0 .2825576.05232506.3872093.15697674.1046517.10465169.1569767.23372016.1569767.3872093v1.90465117c0 .15348914-.052325.28255761-.1569767.3872093s-.2337202.15697674-.3872093.15697674h-6.1534884v2.72093025h6.7813954c.1534891 0 .2825576.052325.3872093.1569767s.1569767.2337202.1569767.3872093v2.0720931c0 .1534891-.052325.2790692-.1569767.3767441s-.2337202.1465117-.3872093.1465117z" fill="#2f2f2f"/><path d="m72.744186 19.7209302c-1.3395415 0-2.4279027-.2162769-3.2651162-.6488372s-1.4372075-.9313925-1.8-1.4965116-.5441861-1.0360446-.5441861-1.4127907c0-.1395356.0558134-.258139.1674419-.355814.1116284-.0976749.2372086-.1465116.3767442-.1465116h2.8046511c.1395356 0 .2511624.0313951.3348838.0941861.0837213.062791.1604647.1709294.2302325.3244186.1395356.3069782.3209291.5476735.5441861.722093.2232569.1744195.5720906.2616279 1.0465116.2616279.600003 0 1.0465101-.1499985 1.3395349-.45.2930247-.3000015.4395349-.7988337.4395349-1.4965116v-1.4023256c-.7395386.7674457-1.7511564 1.1511628-3.0348838 1.1511628-1.4093093 0-2.4872055-.4081355-3.2337209-1.2244186-.7465154-.8162832-1.1546508-2.0197595-1.2244186-3.6104651l-.0209302-.56511632c0-1.70233409.3802287-3.03487891 1.1406976-3.99767442.760469-.96279551 1.8732485-1.44418605 3.3383721-1.44418605.7116315 0 1.3395322.13604516 1.883721.40813954.5441887.27209438.9976726.63836979 1.3604651 1.09883721v-.75348837c0-.15348914.0488367-.28255762.1465116-.38720931.0976749-.10465168.2232551-.15697674.3767442-.15697674h2.5534884c.1534891 0 .2825576.05232506.3872093.15697674.1046517.10465169.1569767.23372017.1569767.38720931v10.02558141c0 1.6046592-.4813905 2.8255772-1.444186 3.6627907s-2.3162704 1.2558139-4.0604652 1.2558139z" fill="#2f2f2f"/><path d="m72.5767442 12.0395349c.600003 0 1.0465101-.1813936 1.3395349-.5441861.2930247-.3627925.4604649-.823253.5023256-1.3813953.0139535-.0976749.0209302-.30697515.0209302-.62790699 0-.33488539-.0069767-.54418563-.0209302-.62790698-.0418607-.57209588-.2093009-1.03604473-.5023256-1.39186046-.2930248-.35581573-.7395319-.53372093-1.3395349-.53372093-.6139566 0-1.0604637.18488187-1.3395349.55465116s-.432558.88255486-.4604651 1.5383721l-.0209302.46046511c0 .79535279.1325568 1.41976519.3976744 1.87325579.2651176.4534907.7395314.6802326 1.4232558.6802326z" fill="#fff"/><path d="m82.6337209 15.3255814c-.7395386 0-1.4127876-.1430218-2.0197674-.4290698-.6069798-.2860479-1.0813937-.68023-1.4232558-1.1825581-.3418622-.5023281-.5127907-1.0534854-.5127907-1.6534884 0-.9488419.3941821-1.7197645 1.1825581-2.31279068.7883761-.59302622 1.8732489-1.00116168 3.2546512-1.22441861l2.5953488-.39767441v-.2511628c0-.51628165-.1046501-.89302207-.3139535-1.13023255-.2093033-.23721049-.5651137-.35581396-1.0674418-.35581396-.2790712 0-.5127898.04883672-.7011628.14651163-.1883731.09767491-.4011616.24418507-.6383721.43953488-.1813963.15348914-.3418598.26511593-.4813954.33488373-.0558142.0976749-.1255809.14651162-.2093023.14651162h-2.427907c-.1395355 0-.2546507-.04534838-.3453488-.13604651s-.1290698-.19883658-.1151163-.3244186c.0139536-.37674607.2023238-.79883487.5651163-1.26627907s.9139498-.86860298 1.6534884-1.20348837c.7395385-.3348854 1.6534829-.50232559 2.7418604-.50232559 1.7302412 0 3.0139493.38022876 3.8511628 1.14069768s1.255814 1.78952839 1.255814 3.0872093v6.34186051c0 .1395355-.0488367.2616273-.1465117.366279-.0976749.1046517-.223255.1569768-.3767441.1569768h-2.5744186c-.1395356 0-.2616274-.0523251-.3662791-.1569768s-.1569768-.2267435-.1569768-.366279v-.7325582c-.3069782.4325603-.7325554.7848824-1.2767441 1.0569768-.5441888.2720943-1.1930195.4081395-1.9465117.4081395z" fill="#2f2f2f"/><path d="m83.6802326 12.855814c.6139565 0 1.1127887-.2023236 1.4965116-.6069768.3837228-.4046532.5755814-.9906938.5755814-1.7581395v-.2511628l-1.7372093.2930232c-1.1720989.223257-1.7581396.6418574-1.7581396 1.255814 0 .3209318.1360452.5790688.4081396.7744186s.6104631.2930233 1.0151163.2930233z" fill="#fff"/><path d="m90.9744186 15.1162791c-.1395356 0-.2616274-.0523251-.3662791-.1569768s-.1569767-.2267435-.1569767-.366279v-9.83720935c0-.15348914.052325-.27906928.1569767-.37674418.1046517-.09767491.2267435-.14651163.3662791-.14651163h2.5744186c.1534891 0 .2790693.04883672.3767442.14651163.0976749.0976749.1465116.22325504.1465116.37674418v.79534884c.3767461-.46046742.861625-.83023116 1.4546512-1.10930232.5930262-.27907117 1.273252-.41860466 2.0406977-.41860466.7953528 0 1.5034852.18139354 2.1244186.54418605.6209335.36279251 1.1093005.89999644 1.4651165 1.61162791.355815.71163146.533721 1.56976242.533721 2.5744186v5.83953493c0 .1395355-.048837.2616273-.146512.366279s-.223255.1569768-.376744.1569768h-2.7837211c-.1534891 0-.2825576-.0488368-.3872093-.1465117s-.1569767-.223255-.1569767-.3767441v-5.71395353c0-.62791012-.1499985-1.10930065-.45-1.44418605-.3000015-.33488539-.7360437-.50232558-1.3081396-.50232558-.5581423 0-.9976728.17092852-1.3186046.5127907-.3209318.34186217-.4813954.81976437-.4813954 1.43372093v5.71395353c0 .1395355-.0488367.2616273-.1465116.366279s-.223255.1569768-.3767442.1569768z" fill="#2f2f2f"/></g></svg>