<?xml version="1.0" encoding="UTF-8"?>
<svg width="471px" height="314px" viewBox="0 0 471 314" version="1.1" xmlns="http://www.w3.org/2000/svg" xmlns:xlink="http://www.w3.org/1999/xlink">
    <!-- Generator: Sketch 46.2 (44496) - http://www.bohemiancoding.com/sketch -->
    <title>shutterstock_680492827 [Converted]</title>
    <desc>Created with Sketch.</desc>
    <defs>
        <linearGradient x1="49.9959381%" y1="100.012885%" x2="49.9959381%" y2="0.00281442392%" id="linearGradient-1">
            <stop stop-color="#00BCE4" offset="0%"></stop>
            <stop stop-color="#66D6EE" offset="100%"></stop>
        </linearGradient>
        <linearGradient x1="50.0013153%" y1="100.012885%" x2="50.0013153%" y2="0.0212840809%" id="linearGradient-2">
            <stop stop-color="#00BCE4" offset="0%"></stop>
            <stop stop-color="#66D6EE" offset="100%"></stop>
        </linearGradient>
    </defs>
    <g id="landing-pages" stroke="none" stroke-width="1" fill="none" fill-rule="evenodd">
        <g id="chatops" transform="translate(-823.000000, -170.000000)">
            <g id="Group-3" transform="translate(0.000000, 80.000000)">
                <g id="shutterstock_680492827-[Converted]" transform="translate(1058.500000, 247.000000) scale(-1, 1) translate(-1058.500000, -247.000000) translate(823.000000, 90.000000)">
                    <path d="M299.192701,300.342863 L298.699611,300.342863 L298.699611,299.455301 L299.192701,299.455301 C300.474735,299.455301 301.756768,299.455301 303.038802,299.455301 L303.038802,300.342863 C301.756768,300.342863 300.474735,300.342863 299.192701,300.342863 Z M294.36042,300.244245 C292.881151,300.244245 291.500499,300.145627 290.02123,300.145627 L290.02123,299.258065 C291.500499,299.258065 292.881151,299.356683 294.36042,299.356683 L294.36042,300.244245 Z M307.377993,300.145627 L307.377993,299.258065 C308.857262,299.258065 310.237914,299.159447 311.717183,299.060829 L311.717183,299.948391 C310.237914,300.145627 308.758644,300.145627 307.377993,300.145627 Z M285.780657,300.047009 C284.301387,299.948391 282.920736,299.948391 281.441466,299.849773 L281.540084,298.962211 C282.920736,299.060829 284.400005,299.159447 285.879275,299.159447 L285.780657,300.047009 Z M316.056374,299.849773 L315.957756,298.962211 C317.437026,298.863593 318.817677,298.764975 320.296947,298.666357 L320.395565,299.553919 C318.916295,299.652537 317.437026,299.751155 316.056374,299.849773 Z M277.102275,299.455301 C275.623006,299.356683 274.242354,299.258065 272.763085,299.060829 L272.861702,298.173268 C274.242354,298.271885 275.721624,298.370503 277.200893,298.567739 L277.102275,299.455301 Z M324.636138,299.258065 L324.53752,298.370503 C325.918171,298.271885 327.397441,298.07465 328.87671,297.976032 L328.975328,298.863593 C327.496059,298.962211 326.115407,299.060829 324.636138,299.258065 Z M268.423894,298.666357 C266.944624,298.469121 265.563973,298.370503 264.084703,298.173268 L264.183321,297.285706 C265.563973,297.482942 267.043242,297.58156 268.522512,297.778796 L268.423894,298.666357 Z M333.215901,298.370503 L333.117283,297.482942 C334.497935,297.285706 335.977204,297.187088 337.357856,296.989852 L337.456474,297.877414 C336.17444,297.976032 334.695171,298.173268 333.215901,298.370503 Z M259.84413,297.680178 C258.463479,297.482942 256.984209,297.285706 255.50494,297.08847 L255.603557,296.200908 C256.984209,296.398144 258.463479,296.59538 259.84413,296.792616 L259.84413,297.680178 Z M341.795665,297.187088 L341.697047,296.299526 C343.077698,296.10229 344.556968,295.905054 345.937619,295.6092 L346.036237,296.496762 C344.655586,296.792616 343.274934,296.989852 341.795665,297.187088 Z M251.264367,296.398144 C249.883715,296.200908 248.404446,295.905054 247.023794,295.6092 L247.22103,294.721639 C248.601681,295.017492 250.080951,295.214728 251.461603,295.510582 L251.264367,296.398144 Z M350.375428,295.806436 L350.178192,295.017492 C351.558844,294.721639 353.038113,294.524403 354.418765,294.228549 L354.616001,295.11611 C353.235349,295.313346 351.75608,295.6092 350.375428,295.806436 Z M242.783221,294.820256 C241.40257,294.524403 239.9233,294.228549 238.542648,293.932695 L238.739884,293.045133 C240.120536,293.340987 241.599806,293.636841 242.980457,293.932695 L242.783221,294.820256 Z M358.856574,294.129931 L358.659338,293.242369 C360.039989,292.946515 361.519259,292.650661 362.899911,292.354807 L363.097146,293.242369 C361.617877,293.538223 360.237225,293.834077 358.856574,294.129931 Z M234.302076,292.946515 C232.921424,292.650661 231.442154,292.256189 230.061503,291.960335 L230.258739,291.171392 C231.63939,291.565863 233.020042,291.861717 234.499312,292.157571 L234.302076,292.946515 Z M367.239101,292.157571 L367.041865,291.27001 C368.422517,290.875538 369.803169,290.579684 371.18382,290.185212 L371.381056,290.974156 C370.099022,291.467245 368.619753,291.861717 367.239101,292.157571 Z M225.919548,290.875538 C224.538896,290.481066 223.158245,290.086594 221.777593,289.692122 L221.974829,288.903178 C223.355481,289.29765 224.736132,289.692122 226.116784,290.086594 L225.919548,290.875538 Z M375.621629,289.987976 L375.424393,289.199032 C376.805044,288.80456 378.185696,288.410088 379.566348,288.015616 L379.862202,288.80456 C378.382932,289.199032 377.00228,289.593504 375.621629,289.987976 Z M217.53702,288.410088 C216.156369,288.015616 214.775717,287.522527 213.395066,287.128055 L213.69092,286.339111 C215.071571,286.832201 216.452223,287.226673 217.832874,287.621145 L217.53702,288.410088 Z M383.905538,287.423909 L383.609685,286.634965 C384.990336,286.141875 386.370988,285.747403 387.653021,285.254313 L387.948875,286.043257 C386.666842,286.536347 385.28619,286.930819 383.905538,287.423909 Z M209.351729,285.648785 C207.971077,285.155695 206.590426,284.662605 205.308392,284.169516 L205.604246,283.380572 C206.984898,283.873662 208.266931,284.366752 209.647583,284.859841 L209.351729,285.648785 Z M392.09083,284.563987 L391.794976,283.775044 C393.175628,283.281954 394.457661,282.788864 395.838313,282.197156 L396.134167,282.9861 C394.753515,283.577808 393.372864,284.070898 392.09083,284.563987 Z M201.265055,282.591628 C199.884404,282.098538 198.60237,281.50683 197.221718,280.915123 L197.517572,280.126179 C198.799606,280.717887 200.180257,281.210976 201.462291,281.802684 L201.265055,282.591628 Z M400.078886,281.408212 L399.783032,280.619269 C401.065065,280.027561 402.445717,279.435853 403.727751,278.942763 L404.122223,279.731707 C402.741571,280.224797 401.459537,280.816505 400.078886,281.408212 Z M193.276999,279.139999 C191.994966,278.548291 190.614314,277.956583 189.332281,277.266258 L189.726752,276.477314 C191.008786,277.069022 192.29082,277.660729 193.671471,278.351055 L193.276999,279.139999 Z M407.968323,277.857965 L407.573852,277.069022 C408.855885,276.477314 410.137919,275.786988 411.419952,275.19528 L411.814424,275.984224 C410.631009,276.575932 409.348975,277.266258 407.968323,277.857965 Z M185.48618,275.392516 C184.204146,274.70219 182.922112,274.011865 181.640079,273.321539 L182.034551,272.532595 C183.316584,273.222921 184.598618,273.913247 185.880652,274.504954 L185.48618,275.392516 Z M415.759143,273.913247 L415.364671,273.124303 C416.646705,272.433977 417.928739,271.743651 419.112154,271.053325 L419.506626,271.842269 C418.323211,272.532595 417.041177,273.222921 415.759143,273.913247 Z M177.892596,271.250561 C176.610562,270.560235 175.427147,269.771292 174.145113,269.080966 L174.638203,268.39064 C175.821619,269.179584 177.103652,269.86991 178.385686,270.560235 L177.892596,271.250561 Z M423.254109,269.672674 L422.761019,268.88373 C424.043053,268.094786 425.226469,267.40446 426.409884,266.615517 L426.902974,267.305842 C425.719558,268.094786 424.536143,268.88373 423.254109,269.672674 Z M170.496248,266.714135 C169.312832,265.925191 168.030799,265.136247 166.946001,264.248685 L167.439091,263.55836 C168.622507,264.347303 169.805922,265.136247 170.989338,265.925191 L170.496248,266.714135 Z M430.551839,264.939011 L430.058749,264.248685 C431.242165,263.459742 432.42558,262.57218 433.608996,261.783236 L434.102086,262.473562 C432.91867,263.361124 431.735255,264.150067 430.551839,264.939011 Z M163.395754,261.783236 C162.212338,260.895674 161.127541,260.008113 159.944125,259.120551 L160.437215,258.430225 C161.522013,259.317787 162.705428,260.205348 163.888844,261.09291 L163.395754,261.783236 Z M437.553715,259.810877 L437.060625,259.120551 C438.244041,258.232989 439.328838,257.345427 440.413636,256.359248 L441.005344,257.049573 C439.821928,258.035753 438.737131,258.923315 437.553715,259.810877 Z M156.591114,256.359248 C155.506316,255.373068 154.421519,254.485506 153.336721,253.499326 L153.928429,252.907619 C155.013227,253.893798 155.999406,254.879978 157.182822,255.76754 L156.591114,256.359248 Z M444.161119,254.28827 L443.569411,253.696562 C444.654209,252.710383 445.739007,251.724203 446.725186,250.738023 L447.316894,251.329731 C446.330714,252.315911 445.245917,253.30209 444.161119,254.28827 Z M150.279564,250.442169 C149.293384,249.45599 148.208586,248.371192 147.321025,247.286394 L147.912733,246.694686 C148.898912,247.779484 149.885092,248.765664 150.871272,249.850461 L150.279564,250.442169 Z M450.374051,248.173956 L449.782343,247.582248 C450.768523,246.49745 451.754703,245.412653 452.642265,244.327855 L453.33259,244.919563 C452.346411,246.004361 451.360231,247.089158 450.374051,248.173956 Z M144.362486,244.032001 C143.474924,242.947203 142.488744,241.763788 141.6998,240.580372 L142.390126,240.087282 C143.277688,241.17208 144.16525,242.355496 145.052811,243.440293 L144.362486,244.032001 Z M455.995276,241.566552 L455.30495,241.073462 C456.192512,239.890046 457.080073,238.805249 457.869017,237.621833 L458.559343,238.114923 C457.770399,239.199721 456.882837,240.383136 455.995276,241.566552 Z M139.234351,237.128743 C138.445407,235.945327 137.656464,234.663294 136.86752,233.479878 L137.656464,233.085406 C138.346789,234.268822 139.135733,235.550856 139.924677,236.734271 L139.234351,237.128743 Z M460.926174,234.466058 L460.235848,233.972968 C461.024792,232.789552 461.715118,231.507519 462.405444,230.225485 L463.194388,230.619957 C462.405444,231.901991 461.715118,233.184024 460.926174,234.466058 Z M134.796542,229.633777 C134.106217,228.351744 133.514509,227.06971 132.922801,225.689058 L133.711745,225.294587 C134.303452,226.57662 134.89516,227.858654 135.585486,229.140687 L134.796542,229.633777 Z M465.068129,226.773856 L464.279185,226.379384 C464.870893,225.097351 465.462601,223.716699 465.955691,222.434665 L466.744635,222.730519 C466.251545,224.111171 465.659837,225.491823 465.068129,226.773856 Z M131.246295,221.74434 C130.753206,220.363688 130.260116,218.983036 129.865644,217.602385 L130.654588,217.405149 C131.049059,218.7858 131.542149,220.166452 132.035239,221.448486 L131.246295,221.74434 Z M468.223904,218.687182 L467.43496,218.391329 C467.829432,217.010677 468.223904,215.630025 468.519758,214.249374 L469.40732,214.44661 C469.012848,215.925879 468.618376,217.306531 468.223904,218.687182 Z M128.780846,213.361812 C128.484992,211.98116 128.189138,210.501891 127.991902,209.121239 L128.879464,209.022621 C129.0767,210.403273 129.372554,211.882542 129.668408,213.263194 L128.780846,213.361812 Z M470.196264,210.206037 L469.308702,210.107419 C469.505938,208.726767 469.703174,207.247498 469.801792,205.866846 L470.689353,205.965464 C470.590735,207.346116 470.393499,208.825385 470.196264,210.206037 Z M127.59743,204.782048 C127.498812,203.500015 127.498812,202.217981 127.498812,201.034566 C127.498812,200.83733 127.498812,200.640094 127.498812,200.442858 L128.386374,200.442858 C128.386374,200.640094 128.386374,200.83733 128.386374,201.034566 C128.386374,202.316599 128.386374,203.500015 128.484992,204.782048 L127.59743,204.782048 Z M470.886589,201.527655 L469.999028,201.527655 C469.999028,201.330419 469.999028,201.133184 469.999028,200.935948 C469.999028,199.653914 469.999028,198.470498 469.90041,197.188465 L470.787971,197.089847 C470.886589,198.37188 470.886589,199.653914 470.886589,200.83733 C470.886589,201.133184 470.886589,201.330419 470.886589,201.527655 Z M128.58361,196.103667 L127.696048,196.005049 C127.794666,194.525779 127.991902,193.145128 128.189138,191.665858 L129.0767,191.764476 C128.879464,193.243746 128.682228,194.723015 128.58361,196.103667 Z M469.505938,193.04651 C469.308702,191.665858 469.012848,190.186589 468.716994,188.805937 L469.604556,188.608701 C469.90041,189.989353 470.196264,191.468622 470.393499,192.849274 L469.505938,193.04651 Z M129.865644,187.622521 L128.978082,187.425285 C129.273936,186.044634 129.668408,184.663982 130.161498,183.184713 L130.950441,183.480567 C130.654588,184.861218 130.260116,186.24187 129.865644,187.622521 Z M467.730814,184.663982 C467.336342,183.283331 466.843252,181.902679 466.350163,180.620645 L467.139106,180.324792 C467.632196,181.705443 468.125286,183.086095 468.519758,184.466746 L467.730814,184.663982 Z M132.429711,179.43723 L131.640767,179.141376 C132.133857,177.760724 132.725565,176.478691 133.317273,175.098039 L134.106217,175.492511 C133.514509,176.774545 132.922801,178.155196 132.429711,179.43723 Z M464.772275,176.577309 C464.180567,175.295275 463.588859,174.013241 462.898534,172.731208 L463.687477,172.336736 C464.377803,173.618769 464.969511,174.900803 465.561219,176.281455 L464.772275,176.577309 Z M136.078576,171.64641 L135.289632,171.251938 C135.979958,169.969905 136.670284,168.687871 137.459228,167.504455 L138.149553,167.997545 C137.459228,169.180961 136.768902,170.462994 136.078576,171.64641 Z M460.827556,168.983725 C460.13723,167.800309 459.348287,166.518276 458.559343,165.33486 L459.249669,164.84177 C460.038612,166.025186 460.827556,167.307219 461.6165,168.490635 L460.827556,168.983725 Z M140.516385,164.34868 L139.826059,163.85559 C140.615003,162.672175 141.502564,161.488759 142.390126,160.403961 L143.080452,160.897051 C142.19289,162.080467 141.403946,163.165264 140.516385,164.34868 Z M455.995276,161.784613 C455.107714,160.699815 454.220152,159.5164 453.33259,158.431602 L454.022916,157.839894 C454.910478,158.924692 455.896658,160.108107 456.685601,161.291523 L455.995276,161.784613 Z M145.841755,157.54404 L145.151429,156.952332 C146.038991,155.867535 147.025171,154.782737 148.011351,153.697939 L148.603058,154.289647 C147.715497,155.374445 146.729317,156.459242 145.841755,157.54404 Z M450.472669,155.177209 C449.48649,154.092411 448.50031,153.106231 447.51413,152.021434 L448.105838,151.429726 C449.092018,152.415906 450.176815,153.500703 451.064377,154.585501 L450.472669,155.177209 Z M151.660215,151.331108 L151.068508,150.7394 C152.054687,149.75322 153.139485,148.767041 154.224283,147.780861 L154.815991,148.372569 C153.731193,149.260131 152.646395,150.24631 151.660215,151.331108 Z M444.456973,149.062895 C443.470793,148.076715 442.385996,147.090535 441.20258,146.202973 L441.794288,145.512648 C442.879085,146.498827 443.963883,147.386389 445.048681,148.372569 L444.456973,149.062895 Z M158.070384,145.512648 L157.478676,144.822322 C158.563473,143.93476 159.648271,142.94858 160.831687,142.061019 L161.324777,142.751344 C160.239979,143.638906 159.155181,144.625086 158.070384,145.512648 Z M437.948187,143.540288 C436.863389,142.652726 435.679973,141.765165 434.496558,140.877603 L434.989648,140.187277 C436.173063,141.074839 437.356479,141.962401 438.441277,142.849962 L437.948187,143.540288 Z M164.776406,140.187277 L164.283316,139.496951 C165.466731,138.60939 166.650147,137.820446 167.833563,137.031502 L168.326653,137.721828 C167.143237,138.510772 165.959821,139.299715 164.776406,140.187277 Z M431.044929,138.313536 C429.861513,137.524592 428.678098,136.735648 427.494682,135.946704 L427.987772,135.256379 C429.171187,136.045322 430.453221,136.834266 431.538019,137.721828 L431.044929,138.313536 Z M171.975518,135.354997 L171.482428,134.664671 C172.665843,133.875727 173.947877,133.086783 175.131293,132.396457 L175.624383,133.185401 C174.342349,133.777109 173.158933,134.566053 171.975518,135.354997 Z M423.845817,133.678491 C422.662401,132.889547 421.380368,132.199221 420.098334,131.508896 L420.492806,130.719952 C421.77484,131.410278 422.958255,132.199221 424.240289,132.889547 L423.845817,133.678491 Z M179.273248,130.81857 L178.878776,130.029626 C180.160809,129.3393 181.442843,128.648974 182.626259,127.958649 L183.02073,128.747592 C181.837315,129.437918 180.555281,130.128244 179.273248,130.81857 Z M416.350851,129.3393 C415.068817,128.648974 413.786784,127.958649 412.50475,127.366941 L412.899222,126.577997 C414.181256,127.268323 415.463289,127.958649 416.745323,128.648974 L416.350851,129.3393 Z M186.866831,126.775233 L186.472359,125.986289 C187.754393,125.295963 189.036427,124.704256 190.31846,124.112548 L190.712932,124.901492 C189.430899,125.493199 188.148865,126.183525 186.866831,126.775233 Z M408.658649,125.394581 C407.376616,124.802874 406.094582,124.211166 404.71393,123.52084 L405.108402,122.731896 C406.390436,123.323604 407.771088,123.915312 409.053121,124.605638 L408.658649,125.394581 Z M194.657651,123.126368 L194.263179,122.337424 C195.545213,121.745716 196.925864,121.154009 198.207898,120.660919 L198.503752,121.449863 C197.320336,121.942952 196.038303,122.53466 194.657651,123.126368 Z M400.86783,121.844334 C399.585796,121.252627 398.205144,120.759537 396.923111,120.167829 L397.218965,119.378885 C398.599616,119.871975 399.88165,120.463683 401.262301,121.055391 L400.86783,121.844334 Z M202.645707,119.773357 L202.349853,118.984413 C203.631886,118.491323 205.012538,117.899616 206.39319,117.406526 L206.689044,118.195469 C205.308392,118.688559 203.92774,119.181649 202.645707,119.773357 Z M392.879774,118.589941 C391.499122,118.096852 390.217089,117.603762 388.836437,117.110672 L389.132291,116.321728 C390.512943,116.814818 391.893594,117.307908 393.175628,117.800998 L392.879774,118.589941 Z M210.73238,116.7162 L210.436527,115.927256 C211.817178,115.434166 213.19783,114.941076 214.578481,114.546605 L214.874335,115.335548 C213.395066,115.828638 212.113032,116.22311 210.73238,116.7162 Z M384.694482,115.73002 C383.313831,115.23693 381.933179,114.842458 380.552527,114.447987 L380.848381,113.659043 C382.229033,114.053515 383.609685,114.546605 384.990336,114.941076 L384.694482,115.73002 Z M218.917672,114.053515 L218.621818,113.264571 C220.00247,112.870099 221.383121,112.475627 222.763773,112.081155 L222.961009,112.870099 C221.678975,113.264571 220.298324,113.659043 218.917672,114.053515 Z M376.509191,113.165953 C375.128539,112.771481 373.747887,112.377009 372.367236,111.982537 L372.564472,111.193593 C373.945123,111.588065 375.325775,111.982537 376.706427,112.377009 L376.509191,113.165953 Z M227.201582,111.686683 L227.004346,110.89774 C228.384997,110.503268 229.765649,110.207414 231.146301,109.812942 L231.343536,110.700504 C229.962885,110.89774 228.582233,111.292211 227.201582,111.686683 Z M368.126663,110.89774 C366.746011,110.503268 365.36536,110.207414 363.88609,109.91156 L364.083326,109.023998 C365.463978,109.319852 366.943247,109.714324 368.323899,110.010178 L368.126663,110.89774 Z M235.584109,109.615706 L235.386873,108.728144 C236.767525,108.43229 238.246794,108.136436 239.627446,107.741964 L239.824682,108.629526 C238.345412,108.92538 236.964761,109.221234 235.584109,109.615706 Z M359.744135,108.92538 C358.363484,108.629526 356.884214,108.333672 355.503563,108.037818 L355.700799,107.150257 C357.08145,107.446111 358.56072,107.741964 359.941371,108.037818 L359.744135,108.92538 Z M243.966637,107.741964 L243.769401,106.854403 C245.150052,106.558549 246.629322,106.262695 248.009974,106.065459 L248.20721,106.953021 C246.826558,107.248875 245.347288,107.544729 243.966637,107.741964 Z M351.26299,107.150257 C349.882338,106.854403 348.403069,106.657167 347.022417,106.361313 L347.121035,105.473751 C348.501687,105.670987 349.980956,105.966841 351.361608,106.262695 L351.26299,107.150257 Z M252.447782,106.262695 L252.349164,105.375133 C253.729816,105.177897 255.209086,104.882043 256.589737,104.684807 L256.688355,105.572369 C255.307704,105.769605 253.828434,106.065459 252.447782,106.262695 Z M342.683226,105.769605 C341.302575,105.572369 339.823305,105.375133 338.442654,105.177897 L338.541272,104.290335 C340.020541,104.487571 341.401193,104.684807 342.880462,104.882043 L342.683226,105.769605 Z M261.027546,104.980661 L260.928928,104.0931 C262.30958,103.895864 263.788849,103.698628 265.169501,103.60001 L265.268119,104.487571 C263.887467,104.684807 262.408198,104.783425 261.027546,104.980661 Z M334.202081,104.586189 C332.821429,104.388953 331.34216,104.290335 329.86289,104.0931 L329.961508,103.205538 C331.440778,103.402774 332.821429,103.501392 334.300699,103.698628 L334.202081,104.586189 Z M269.508691,103.994482 L269.410073,103.10692 C270.790725,103.008302 272.269995,102.811066 273.749264,102.712448 L273.847882,103.60001 C272.368613,103.698628 270.987961,103.895864 269.508691,103.994482 Z M325.523699,103.698628 C324.143048,103.60001 322.663778,103.501392 321.184509,103.304156 L321.283127,102.416594 C322.762396,102.515212 324.143048,102.61383 325.622317,102.811066 L325.523699,103.698628 Z M278.187073,103.304156 L278.088455,102.416594 C279.567725,102.317976 280.948376,102.219358 282.427646,102.12074 L282.427646,103.008302 C281.046994,103.10692 279.567725,103.205538 278.187073,103.304156 Z M316.943936,103.008302 C315.563284,102.909684 314.084015,102.811066 312.604745,102.811066 L312.604745,101.923504 C314.084015,102.022122 315.464666,102.022122 316.943936,102.12074 L316.943936,103.008302 Z M286.766836,102.811066 L286.766836,101.923504 C288.246106,101.824886 289.626758,101.824886 291.106027,101.726268 L291.106027,102.61383 C289.626758,102.712448 288.147488,102.712448 286.766836,102.811066 Z M308.364172,102.61383 C306.983521,102.61383 305.504251,102.515212 304.024981,102.515212 L304.024981,101.62765 C305.504251,101.62765 306.884903,101.726268 308.364172,101.726268 L308.364172,102.61383 Z M295.3466,102.515212 L295.3466,101.62765 C296.628634,101.62765 297.910667,101.62765 299.192701,101.62765 L299.685791,101.62765 L299.685791,102.515212 L299.192701,102.515212 C297.910667,102.515212 296.628634,102.515212 295.3466,102.515212 Z" id="Shape" fill="#66D6EE" fill-rule="nonzero"></path>
                    <path d="M455.699422,219.969216 C463.194388,224.308407 463.194388,231.310283 455.699422,235.649474 L326.214025,310.401896 C318.719059,314.741087 306.589049,314.741087 299.094083,310.401896 L6.19870747,141.173457 C-1.29625837,136.834266 -1.29625837,129.83239 6.19870747,125.493199 L135.684104,50.7407769 C143.17907,46.4015862 155.30908,46.4015862 162.804046,50.7407769 L455.699422,219.969216 Z" id="Shape" fill="#00A7CB" fill-rule="nonzero" opacity="0.7"></path>
                    <path d="M461.222028,179.338612 C461.222028,184.959836 461.222028,190.383825 461.222028,195.018869 C461.222028,198.273262 459.939994,201.429037 455.699422,203.894487 L326.214025,278.646909 C318.719059,282.9861 306.589049,282.9861 299.094083,278.646909 L6.19870747,109.517088 C2.35260658,107.248875 0.57748309,104.290335 0.57748309,101.430414 C0.57748309,97.0912236 0.57748309,90.2865835 0.57748309,85.8487748 L135.585486,19.1830261 C143.080452,14.8438353 155.210462,14.8438353 162.705428,19.1830261 L461.222028,179.338612 Z" id="Shape" fill="#2D2D2D" fill-rule="nonzero"></path>
                    <path d="M455.699422,172.533972 C463.194388,176.873163 463.194388,183.875039 455.699422,188.214229 L326.214025,262.966652 C318.719059,267.305842 306.589049,267.305842 299.094083,262.966652 L6.19870747,93.7382125 C-1.29625837,89.3990218 -1.29625837,82.3971458 6.19870747,78.0579551 L135.684104,3.30553264 C143.17907,-1.03365811 155.30908,-1.03365811 162.804046,3.30553264 L455.699422,172.533972 Z" id="Shape" fill="#4D4D4D" fill-rule="nonzero"></path>
                    <polygon id="Shape" fill="url(#linearGradient-1)" fill-rule="nonzero" points="417.534267 159.319164 276.411949 240.777608 29.0780769 97.9787853 170.200394 16.5203408"></polygon>
                    <path d="M455.30495,182.099915 L325.819553,256.852337 C318.324587,261.191528 306.194577,261.191528 298.699611,256.852337 L5.80423558,87.7225163 C3.63464021,86.4404826 2.05675266,84.9612131 1.16919092,83.3833255 C-0.310078653,87.0321905 1.36642686,90.9769093 6.29732544,93.7382125 L299.291319,262.868034 C306.786285,267.207224 318.916295,267.207224 326.411261,262.868034 L455.699422,188.115611 C460.926174,185.058454 462.504062,180.719263 460.334466,176.873163 C459.644141,178.845522 457.869017,180.620645 455.30495,182.099915 Z" id="Shape" fill="#FAFAFA" fill-rule="nonzero" opacity="0.3"></path>
                    <polygon id="Shape" fill="url(#linearGradient-2)" fill-rule="nonzero" points="170.101776 15.8040908 170.101776 179.21407 276.411949 240.061358 417.534267 158.602914"></polygon>
                    <path d="M82.4303995,100.444235 C87.657152,103.501392 87.657152,108.333672 82.4303995,111.390829 C77.203647,114.447987 68.7225014,114.447987 63.4957489,111.390829 C58.2689964,108.333672 58.2689964,103.501392 63.4957489,100.444235 C68.8211194,97.4856955 77.3022649,97.4856955 82.4303995,100.444235 Z" id="Shape" fill="#00A7CB" fill-rule="nonzero" opacity="0.4"></path>
                    <path d="M131.542149,58.9260686 L80.8525119,88.2156061 C77.9925907,89.8921116 77.9925907,92.5547969 80.8525119,94.2313024 L118.820431,116.124492 C118.820431,116.124492 120.003847,107.9392 126.216779,104.191718 L168.129417,80.0303145 C170.989338,78.353809 170.989338,75.6911237 168.129417,74.0146182 L141.995654,58.9260686 C139.037115,57.2495631 134.40207,57.2495631 131.542149,58.9260686 Z" id="Shape" fill="#00A7CB" fill-rule="nonzero" opacity="0.4"></path>
                    <path d="M233.414514,186.044634 C238.641266,189.101791 238.641266,193.934072 233.414514,196.991229 C228.187761,200.048386 219.706616,200.048386 214.479863,196.991229 C209.253111,193.934072 209.253111,189.101791 214.479863,186.044634 C219.706616,182.987477 228.187761,182.987477 233.414514,186.044634 Z" id="Shape" fill="#00A7CB" fill-rule="nonzero" opacity="0.4"></path>
                    <path d="M245.150052,66.3224165 C250.376805,69.3795736 250.376805,74.2118542 245.150052,77.2690113 C239.9233,80.3261684 231.442154,80.3261684 226.215402,77.2690113 C220.988649,74.2118542 220.988649,69.3795736 226.215402,66.3224165 C231.442154,63.2652593 239.9233,63.2652593 245.150052,66.3224165 Z" id="Shape" fill="#00A7CB" fill-rule="nonzero" opacity="0.4"></path>
                    <path d="M214.479863,77.6634832 C211.619942,82.9888536 214.874335,84.5667412 223.059627,89.3004038 C231.244919,94.0340665 194.756269,94.8230102 199.09546,92.258943 C206.294572,88.1169882 203.138797,80.8192583 214.479863,77.6634832 Z" id="Shape" fill="#0F0021" fill-rule="nonzero" opacity="0.4"></path>
                    <path d="M244.952817,93.6395946 C247.812738,95.3161001 247.812738,97.9787853 244.952817,99.6552908 L196.728628,127.564177 C193.868707,129.240682 189.233663,129.240682 186.373741,127.564177 L160.239979,112.475627 C157.380058,110.799122 157.380058,108.136436 160.239979,106.459931 L208.464167,78.5510449 C211.324088,76.8745394 215.959133,76.8745394 218.819054,78.5510449 L244.952817,93.6395946 Z" id="Shape" fill="#00A7CB" fill-rule="nonzero" opacity="0.4"></path>
                    <path d="M266.15568,105.868223 C269.015602,107.544729 269.015602,110.207414 266.15568,111.883919 L217.931492,139.792805 C215.071571,141.469311 210.436527,141.469311 207.576605,139.792805 L202.744325,137.031502 C199.884404,135.354997 199.884404,132.692311 202.744325,131.015806 L250.968513,103.10692 C253.828434,101.430414 258.463479,101.430414 261.3234,103.10692 L266.15568,105.868223 Z" id="Shape" fill="#00A7CB" fill-rule="nonzero" opacity="0.4"></path>
                    <path d="M319.212149,158.03713 C322.07207,159.713635 322.07207,162.376321 319.212149,164.052826 L267.14186,194.131308 C264.281939,195.807813 259.646894,195.807813 256.786973,194.131308 L233.808986,180.916499 C230.949065,179.239994 230.949065,176.577309 233.808986,174.900803 L285.879275,144.822322 C288.739196,143.145816 293.374241,143.145816 296.234162,144.822322 L319.212149,158.03713 Z" id="Shape" fill="#00A7CB" fill-rule="nonzero" opacity="0.4"></path>
                    <path d="M287.06269,117.998234 C289.922612,119.674739 289.922612,122.337424 287.06269,124.01393 L266.057062,136.14394 C263.197141,137.820446 258.562097,137.820446 255.702175,136.14394 L250.869895,133.382637 C248.009974,131.706132 248.009974,129.043446 250.869895,127.366941 L271.776905,115.23693 C274.636826,113.560425 279.271871,113.560425 282.131792,115.23693 L287.06269,117.998234 Z" id="Shape" fill="#00A7CB" fill-rule="nonzero" opacity="0.4"></path>
                    <path d="M313.097835,193.5396 C320.592801,197.87879 320.592801,204.880666 313.097835,209.219857 C305.602869,213.559048 293.472859,213.559048 285.977893,209.219857 C278.482927,204.880666 278.482927,197.87879 285.977893,193.5396 C293.374241,189.299027 305.602869,189.299027 313.097835,193.5396 Z" id="Shape" fill="#00A7CB" fill-rule="nonzero" opacity="0.4"></path>
                    <path d="M82.4303995,86.3418647 C87.657152,89.3990218 87.657152,94.2313024 82.4303995,97.2884595 C77.203647,100.345617 68.7225014,100.345617 63.4957489,97.2884595 C58.2689964,94.2313024 58.2689964,89.3990218 63.4957489,86.3418647 C68.8211194,83.2847076 77.3022649,83.2847076 82.4303995,86.3418647 Z" id="Shape" fill="#FFFFFF" fill-rule="nonzero"></path>
                    <path d="M233.414514,174.506331 C238.641266,177.563488 238.641266,182.395769 233.414514,185.452926 C228.187761,188.510083 219.706616,188.510083 214.479863,185.452926 C209.253111,182.395769 209.253111,177.563488 214.479863,174.506331 C219.706616,171.449174 228.187761,171.449174 233.414514,174.506331 Z" id="Shape" fill="#FFFFFF" fill-rule="nonzero"></path>
                    <path d="M226.215402,178.253814 C226.116784,177.46487 224.736132,176.281455 223.651335,175.689747 C221.383121,174.407713 217.931492,174.210477 216.057751,175.295275 C214.085391,176.380073 214.381245,178.352432 216.649459,179.733084 C217.734256,180.324792 219.805234,181.113735 221.185885,181.212353 C218.621818,183.875039 220.101088,185.354308 220.791414,185.847398 C221.580357,186.340488 226.412638,187.721139 231.935244,184.565364 C237.457851,181.409589 235.091019,178.648286 234.203458,178.155196 C233.513132,177.662106 230.949065,176.873163 226.215402,178.253814 Z" id="Shape" fill="#00BCE4" fill-rule="nonzero"></path>
                    <path d="M245.150052,54.6854958 C250.376805,57.7426529 250.376805,62.5749335 245.150052,65.6320907 C239.9233,68.6892478 231.442154,68.6892478 226.215402,65.6320907 C220.988649,62.5749335 220.988649,57.7426529 226.215402,54.6854958 C231.442154,51.7269567 239.9233,51.7269567 245.150052,54.6854958 Z" id="Shape" fill="#FFFFFF" fill-rule="nonzero"></path>
                    <path d="M244.952817,82.1012919 L219.01629,67.1113602 C213.888156,64.0542031 212.21165,62.1804616 214.578481,57.8412709 C203.237415,61.095664 206.294572,68.2947759 199.194078,72.4367307 L160.338597,94.9216282 C157.478676,96.5981337 157.478676,99.2608189 160.338597,100.937324 L186.472359,116.025874 C189.332281,117.70238 193.967325,117.70238 196.827246,116.025874 L245.051435,88.1169882 C247.812738,86.4404826 247.812738,83.7777974 244.952817,82.1012919 Z" id="Shape" fill="#FFFFFF" fill-rule="nonzero"></path>
                    <path d="M131.542149,44.7250807 L80.8525119,74.0146182 C77.9925907,75.6911237 77.9925907,78.353809 80.8525119,80.0303145 L118.820431,101.923504 C118.820431,101.923504 120.003847,93.7382125 126.216779,89.9907296 L168.129417,65.8293266 C170.989338,64.1528211 170.989338,61.4901358 168.129417,59.8136303 L141.995654,44.7250807 C139.037115,43.1471931 134.40207,43.1471931 131.542149,44.7250807 Z" id="Shape" fill="#FFFFFF" fill-rule="nonzero"></path>
                    <path d="M266.15568,94.3299204 C269.015602,96.0064259 269.015602,98.6691111 266.15568,100.345617 L217.931492,128.254503 C215.071571,129.931008 210.436527,129.931008 207.576605,128.254503 L202.744325,125.493199 C199.884404,123.816694 199.884404,121.154009 202.744325,119.477503 L250.968513,91.5686172 C253.828434,89.8921116 258.463479,89.8921116 261.3234,91.5686172 L266.15568,94.3299204 Z" id="Shape" fill="#FFFFFF" fill-rule="nonzero"></path>
                    <path d="M319.212149,146.498827 C322.07207,148.175333 322.07207,150.838018 319.212149,152.514524 L267.043242,182.593005 C264.183321,184.26951 259.548276,184.26951 256.688355,182.593005 L233.808986,169.378197 C230.949065,167.701691 230.949065,165.039006 233.808986,163.3625 L285.879275,133.284019 C288.739196,131.607514 293.374241,131.607514 296.234162,133.284019 L319.212149,146.498827 Z" id="Shape" fill="#FFFFFF" fill-rule="nonzero"></path>
                    <path d="M287.06269,106.361313 C289.922612,108.037818 289.922612,110.700504 287.06269,112.377009 L266.057062,124.50702 C263.197141,126.183525 258.562097,126.183525 255.702175,124.50702 L250.869895,121.745716 C248.009974,120.069211 248.009974,117.406526 250.869895,115.73002 L271.776905,103.60001 C274.636826,101.923504 279.271871,101.923504 282.131792,103.60001 L287.06269,106.361313 Z" id="Shape" fill="#FFFFFF" fill-rule="nonzero"></path>
                    <path d="M237.950941,58.5315967 C237.852323,57.7426529 236.471671,56.5592373 235.386873,55.9675294 C233.11866,54.6854958 229.667031,54.4882599 227.79329,55.5730576 C225.82093,56.6578552 226.116784,58.6302147 228.384997,60.0108663 C229.469795,60.6025741 231.540772,61.3915179 232.921424,61.4901358 C230.357357,64.1528211 231.836626,65.6320907 232.526952,66.1251805 C233.315896,66.6182704 238.148177,67.998922 243.670783,64.8431469 C249.193389,61.6873718 246.826558,58.9260686 245.938996,58.4329787 C245.150052,57.9398889 242.585985,57.0523271 237.950941,58.5315967 Z" id="Shape" fill="#00BCE4" fill-rule="nonzero"></path>
                    <path d="M75.0340516,89.9907296 C74.9354336,89.2017858 73.554782,88.0183702 72.4699843,87.4266624 C70.201771,86.1446287 66.750142,85.9473928 64.8764005,87.0321905 C62.9040411,88.1169882 63.199895,90.0893476 65.4681084,91.4699992 C66.552906,92.061707 68.6238834,92.8506508 70.004535,92.9492688 C67.4404678,95.611954 68.9197374,97.0912236 69.6100632,97.5843134 C70.3990069,98.0774033 75.2312875,99.4580549 80.7538939,96.3022798 C86.2765004,93.1465047 83.909669,90.3852015 83.0221073,89.8921116 C82.3317815,89.3990218 79.7677142,88.51146 75.0340516,89.9907296 Z" id="Shape" fill="#00BCE4" fill-rule="nonzero"></path>
                    <g id="Group" transform="translate(91.799107, 50.444923)" fill-rule="nonzero" fill="#EAEAEA">
                        <path d="M195.559438,91.1230057 C196.249763,91.5174776 196.249763,92.2078034 195.559438,92.6022753 L153.844036,116.763678 C153.15371,117.15815 152.068912,117.15815 151.378586,116.763678 L151.378586,116.763678 C150.688261,116.369206 150.688261,115.678881 151.378586,115.284409 L193.093988,91.1230057 C193.784314,90.7285338 194.869112,90.7285338 195.559438,91.1230057 L195.559438,91.1230057 Z" id="Shape"></path>
                        <path d="M154.041272,51.971671 C154.731597,52.3661429 154.731597,53.0564687 154.041272,53.4509406 L121.004251,72.4842091 C120.313925,72.878681 119.229128,72.878681 118.538802,72.4842091 L118.538802,72.4842091 C117.848476,72.0897372 117.848476,71.3994114 118.538802,71.0049395 L151.575822,51.971671 C152.266148,51.5771991 153.350946,51.5771991 154.041272,51.971671 L154.041272,51.971671 Z" id="Shape"></path>
                        <path d="M191.417483,102.957162 C192.107809,103.351634 192.107809,104.04196 191.417483,104.436432 L162.325181,121.300105 C161.634855,121.694577 160.550058,121.694577 159.859732,121.300105 L159.859732,121.300105 C159.169406,120.905633 159.169406,120.215307 159.859732,119.820835 L188.853415,102.957162 C189.543741,102.56269 190.727157,102.56269 191.417483,102.957162 L191.417483,102.957162 Z" id="Shape"></path>
                        <path d="M187.472764,56.5080977 C188.16309,56.9025696 188.16309,57.5928954 187.472764,57.9873673 L168.636731,68.8353441 C167.946406,69.229816 166.861608,69.229816 166.171282,68.8353441 L166.171282,68.8353441 C165.480956,68.4408722 165.480956,67.7505464 166.171282,67.3560746 L185.105933,56.4094797 C185.69764,56.1136258 186.782438,56.1136258 187.472764,56.5080977 L187.472764,56.5080977 Z" id="Shape"></path>
                        <path d="M206.900504,104.633668 C207.59083,105.02814 207.59083,105.718465 206.900504,106.112937 L171.200799,126.724093 C170.510473,127.118565 169.425675,127.118565 168.735349,126.724093 L168.735349,126.724093 C168.045023,126.329622 168.045023,125.639296 168.735349,125.244824 L204.435055,104.633668 C205.026763,104.239196 206.210178,104.239196 206.900504,104.633668 L206.900504,104.633668 Z" id="Shape"></path>
                        <path d="M45.167031,0.591707829 C45.8573568,0.986179715 45.8573568,1.67650552 45.167031,2.0709774 L3.451629,26.2323804 C2.7613032,26.6268523 1.67650552,26.6268523 0.986179715,26.2323804 L0.986179715,26.2323804 C0.295853915,25.8379085 0.295853915,25.1475827 0.986179715,24.7531109 L42.7015817,0.591707829 C43.2932895,0.197235943 44.4767052,0.197235943 45.167031,0.591707829 L45.167031,0.591707829 Z" id="Shape"></path>
                        <path d="M40.9264582,12.3272464 C41.616784,12.7217183 41.616784,13.4120441 40.9264582,13.806516 L11.9327746,30.6701891 C11.2424488,31.064661 10.1576511,31.064661 9.46732527,30.6701891 L9.46732527,30.6701891 C8.77699947,30.2757173 8.77699947,29.5853915 9.46732527,29.1909196 L38.4610089,12.3272464 C39.1513347,11.9327746 40.2361324,11.9327746 40.9264582,12.3272464 L40.9264582,12.3272464 Z" id="Shape"></path>
                        <path d="M56.4094797,14.1023699 C57.0998055,14.4968418 57.0998055,15.1871676 56.4094797,15.5816395 L20.709774,36.0941776 C20.0194482,36.4886495 18.9346505,36.4886495 18.2443247,36.0941776 L18.2443247,36.0941776 C17.5539989,35.6997057 17.5539989,35.0093799 18.2443247,34.614908 L53.9440304,14.003752 C54.6343562,13.707898 55.7191539,13.707898 56.4094797,14.1023699 L56.4094797,14.1023699 Z" id="Shape"></path>
                        <path d="M124.160026,22.8793694 C124.850352,23.2738413 124.850352,23.9641671 124.160026,24.358639 L82.4446242,48.520042 C81.7542984,48.9145139 80.6695007,48.9145139 79.9791749,48.520042 L79.9791749,48.520042 C79.2888491,48.1255701 79.2888491,47.4352443 79.9791749,47.0407724 L121.694577,22.8793694 C122.384903,22.4848975 123.4697,22.4848975 124.160026,22.8793694 L124.160026,22.8793694 Z" id="Shape"></path>
                        <path d="M126.822711,30.6701891 C127.513037,31.064661 127.513037,31.7549868 126.822711,32.1494587 L91.0243877,52.9578507 C90.3340619,53.3523226 89.2492642,53.3523226 88.5589384,52.9578507 L88.5589384,52.9578507 C87.8686126,52.5633788 87.8686126,51.873053 88.5589384,51.4785811 L124.357262,30.6701891 C124.94897,30.2757173 126.132386,30.2757173 126.822711,30.6701891 L126.822711,30.6701891 Z" id="Shape"></path>
                        <path d="M130.668812,39.2499527 C131.359138,39.6444246 131.359138,40.3347504 130.668812,40.7292222 L99.8013872,58.4804571 C99.1110614,58.874929 98.0262637,58.874929 97.3359379,58.4804571 L97.3359379,58.4804571 C96.6456121,58.0859852 96.6456121,57.3956594 97.3359379,57.0011875 L128.203363,39.2499527 C128.893689,38.8554808 129.978486,38.8554808 130.668812,39.2499527 L130.668812,39.2499527 Z" id="Shape"></path>
                    </g>
                    <path d="M313.097835,183.086095 C320.592801,187.425285 320.592801,194.427161 313.097835,198.766352 C305.602869,203.105543 293.472859,203.105543 285.977893,198.766352 C278.482927,194.427161 278.482927,187.425285 285.977893,183.086095 C293.374241,178.746904 305.602869,178.746904 313.097835,183.086095 Z" id="Shape" fill="#FDCF8C" fill-rule="nonzero"></path>
                    <path d="M308.46279,196.399521 C303.13742,199.456678 297.318959,197.87879 297.023106,197.87879 C296.628634,197.780173 296.431398,197.484319 296.628634,197.287083 C296.628634,197.287083 296.727252,197.188465 296.82587,197.188465 C297.023106,197.089847 297.417577,196.991229 297.713431,197.089847 C297.910667,197.188465 302.940184,198.37188 307.377993,195.807813 C311.914419,193.145128 310.139296,190.087971 310.040678,189.890735 C309.94206,189.693499 310.040678,189.594881 310.237914,189.397645 C310.336532,189.397645 310.43515,189.299027 310.533768,189.299027 C310.92824,189.200409 311.322711,189.299027 311.519947,189.594881 C311.618565,189.693499 313.788161,193.342364 308.46279,196.399521 Z" id="Shape" fill="#2D2D2D" fill-rule="nonzero"></path>
                    <g id="Group" transform="translate(285.568628, 182.593005)">
                        <path d="M8.39732028,7.59358381 C10.2710617,8.67838149 10.2710617,10.453505 8.39732028,11.5383027 C6.52357882,12.6231004 3.4664217,12.6231004 1.59268024,11.5383027 C-0.281061219,10.453505 -0.281061219,8.67838149 1.59268024,7.59358381 C3.4664217,6.50878612 6.52357882,6.50878612 8.39732028,7.59358381 Z" id="Shape"></path>
                        <path d="M19.5411511,1.18341566 C21.4148925,2.26821335 21.4148925,4.04333683 19.5411511,5.12813452 C17.6674096,6.21293221 14.6102525,6.21293221 12.736511,5.12813452 C10.8627696,4.04333683 10.8627696,2.26821335 12.736511,1.18341566 C14.6102525,0.0986179715 17.6674096,0.0986179715 19.5411511,1.18341566 Z" id="Shape"></path>
                        <path d="M18.7522073,2.36683132 C19.837005,2.95853915 19.837005,4.04333683 18.7522073,4.63504466 C17.6674096,5.22675249 15.8922861,5.22675249 14.8074884,4.63504466 C13.7226907,4.04333683 13.7226907,2.95853915 14.8074884,2.36683132 C15.8922861,1.77512349 17.6674096,1.77512349 18.7522073,2.36683132 Z" id="Shape" fill="#2D2D2D" fill-rule="nonzero"></path>
                        <path d="M7.6083765,8.77699947 C8.69317419,9.3687073 8.69317419,10.453505 7.6083765,11.0452128 C6.52357882,11.6369206 4.74845533,11.6369206 3.66365764,11.0452128 C2.57885996,10.453505 2.57885996,9.3687073 3.66365764,8.77699947 C4.74845533,8.18529164 6.52357882,8.18529164 7.6083765,8.77699947 Z" id="Shape" fill="#2D2D2D" fill-rule="nonzero"></path>
                    </g>
                </g>
            </g>
        </g>
    </g>
</svg>