<?xml version="1.0" encoding="UTF-8"?>
<svg width="134px" height="128px" viewBox="0 0 134 128" version="1.1" xmlns="http://www.w3.org/2000/svg" xmlns:xlink="http://www.w3.org/1999/xlink">
    <!-- Generator: Sketch 43.2 (39069) - http://www.bohemiancoding.com/sketch -->
    <title>Group 1091</title>
    <desc>Created with Sketch.</desc>
    <defs></defs>
    <g id="Product" stroke="none" stroke-width="1" fill="none" fill-rule="evenodd">
        <g id="Desktop-HD" transform="translate(-881.000000, -6421.000000)">
            <g id="Group-1091" transform="translate(848.000000, 6386.000000)">
                <rect id="Rectangle-22-Copy-3" x="0" y="0" width="200" height="200"></rect>
                <g id="Group-47" transform="translate(33.000000, 37.000000)">
                    <path d="M17.7391304,0 L106.434783,0" id="Stroke-745" stroke="#66D6EE" stroke-width="2.707" stroke-linejoin="round"></path>
                    <path d="M17.7391304,24 L106.434783,24" id="Stroke-746" stroke="#66D6EE" stroke-width="2.707" stroke-linejoin="round"></path>
                    <path d="M17.7391304,48 L106.434783,48" id="Stroke-747" stroke="#66D6EE" stroke-width="2.707" stroke-linejoin="round"></path>
                    <path d="M17.7391304,71 L59.1304348,71" id="Stroke-748" stroke="#66D6EE" stroke-width="2.707" stroke-linejoin="round"></path>
                    <path d="M17.7391304,95 L59.1304348,95" id="Stroke-749" stroke="#66D6EE" stroke-width="2.707" stroke-linejoin="round"></path>
                    <path d="M133.043478,95.5 C133.043478,111.826818 119.810087,125.045455 103.478261,125.045455 C87.1464348,125.045455 73.9130435,111.826818 73.9130435,95.5 C73.9130435,79.1790909 87.1464348,65.9545455 103.478261,65.9545455 C119.810087,65.9545455 133.043478,79.1790909 133.043478,95.5 L133.043478,95.5 Z" id="Stroke-750" fill="#E5F8FC"></path>
                    <path d="M118.26087,95 L88.6956522,95" id="Stroke-751" stroke="#66D6EE" stroke-width="2.707" fill="#E5F8FC" stroke-linecap="round" stroke-linejoin="round"></path>
                    <path d="M103,110.272727 L103,80.7272727" id="Stroke-752" stroke="#66D6EE" stroke-width="2.707" fill="#E5F8FC" stroke-linecap="round" stroke-linejoin="round"></path>
                    <path d="M0,0 L5.91304348,0" id="Stroke-753" stroke="#66D6EE" stroke-width="2.707" stroke-linejoin="round"></path>
                    <path d="M0,24 L5.91304348,24" id="Stroke-754" stroke="#66D6EE" stroke-width="2.707" stroke-linejoin="round"></path>
                    <path d="M0,48 L5.91304348,48" id="Stroke-755" stroke="#66D6EE" stroke-width="2.707" stroke-linejoin="round"></path>
                    <path d="M0,71 L5.91304348,71" id="Stroke-756" stroke="#66D6EE" stroke-width="2.707" stroke-linejoin="round"></path>
                    <path d="M0,95 L5.91304348,95" id="Stroke-757" stroke="#66D6EE" stroke-width="2.707" stroke-linejoin="round"></path>
                </g>
            </g>
        </g>
    </g>
</svg>