<?xml version="1.0" encoding="UTF-8"?>
<svg width="481px" height="333px" viewBox="0 0 481 333" version="1.1" xmlns="http://www.w3.org/2000/svg" xmlns:xlink="http://www.w3.org/1999/xlink">
    <!-- Generator: Sketch 43.2 (39069) - http://www.bohemiancoding.com/sketch -->
    <title>Browser Window</title>
    <desc>Created with Sketch.</desc>
    <defs>
        <filter x="-0.2%" y="-0.3%" width="100.6%" height="101.2%" filterUnits="objectBoundingBox" id="filter-1">
            <feOffset dx="0" dy="2" in="SourceAlpha" result="shadowOffsetOuter1"></feOffset>
            <feColorMatrix values="0 0 0 0 0.839215686   0 0 0 0 0.839215686   0 0 0 0 0.839215686  0 0 0 1 0" type="matrix" in="shadowOffsetOuter1" result="shadowMatrixOuter1"></feColorMatrix>
            <feMerge>
                <feMergeNode in="shadowMatrixOuter1"></feMergeNode>
                <feMergeNode in="SourceGraphic"></feMergeNode>
            </feMerge>
        </filter>
        <rect id="path-2" x="0" y="0" width="481" height="330.547674" rx="4"></rect>
        <rect id="path-4" x="-4" y="-15" width="129" height="351.955814" rx="4"></rect>
        <path d="M23.9423529,11.9166477 C23.9423529,18.4979969 18.5823529,23.8330612 11.9709412,23.8330612 C5.35964706,23.8330612 0,18.4979969 0,11.9166477 C0,5.33529851 5.35964706,0 11.9709412,0 C18.5823529,0 23.9423529,5.33529851 23.9423529,11.9166477 Z" id="path-5"></path>
        <polygon id="path-7" points="12.5745 10.222195 8.97184615 11.9580636 8.91473077 12.5366477 11.6454231 11.7131258 10.2729231 13.3537667 10.1581154 13.8744924 8.48457692 14.5906793 8.31253846 15.082534 9.06253846 14.7811348 7.03938462 17.020616 6.96830769 18.8730163 6.96830769 20.5725633 6.61996154 20.5725633 6.61996154 18.9397223 6.51923077 17.020616 4.49642308 14.7811348 5.24642308 15.082534 5.0745 14.5906793 3.40107692 13.8744924 3.28638462 13.3537667 1.91342308 11.7131258 4.64434615 12.5366477 4.58688462 11.9580636 0.984461538 10.222195 1.78915385 8.90123059 0.0920769231 6.60621928 4.78211538 8.76397694 4.87719231 8.11484521 3.50676923 5.98607495 3.70315385 5.63543205 3.0705 3.13250301 5.52946154 5.59876123 5.67692308 4.23670217 4.94169231 2.1945449 5.92292308 2.50840056 6.77930769 0.00756699478 7.63603846 2.50840056 8.61726923 2.1945449 7.88215385 4.23670217 8.02973077 5.59876123 10.4883462 3.13250301 9.85569231 5.63543205 10.0521923 5.98607495 8.68176923 8.11484521 8.77707692 8.76397694 13.4668846 6.60621928 11.7701538 8.90123059"></polygon>
        <path d="M23.9423529,11.9166477 C23.9423529,18.4979969 18.5823529,23.8330612 11.9709412,23.8330612 C5.35964706,23.8330612 0,18.4979969 0,11.9166477 C0,5.33529851 5.35964706,0 11.9709412,0 C18.5823529,0 23.9423529,5.33529851 23.9423529,11.9166477 Z" id="path-9"></path>
        <polygon id="path-11" points="12.5745 10.222195 8.97184615 11.9580636 8.91473077 12.5366477 11.6454231 11.7131258 10.2729231 13.3537667 10.1581154 13.8744924 8.48457692 14.5906793 8.31253846 15.082534 9.06253846 14.7811348 7.03938462 17.020616 6.96830769 18.8730163 6.96830769 20.5725633 6.61996154 20.5725633 6.61996154 18.9397223 6.51923077 17.020616 4.49642308 14.7811348 5.24642308 15.082534 5.0745 14.5906793 3.40107692 13.8744924 3.28638462 13.3537667 1.91342308 11.7131258 4.64434615 12.5366477 4.58688462 11.9580636 0.984461538 10.222195 1.78915385 8.90123059 0.0920769231 6.60621928 4.78211538 8.76397694 4.87719231 8.11484521 3.50676923 5.98607495 3.70315385 5.63543205 3.0705 3.13250301 5.52946154 5.59876123 5.67692308 4.23670217 4.94169231 2.1945449 5.92292308 2.50840056 6.77930769 0.00756699478 7.63603846 2.50840056 8.61726923 2.1945449 7.88215385 4.23670217 8.02973077 5.59876123 10.4883462 3.13250301 9.85569231 5.63543205 10.0521923 5.98607495 8.68176923 8.11484521 8.77707692 8.76397694 13.4668846 6.60621928 11.7701538 8.90123059"></polygon>
    </defs>
    <g id="Product" stroke="none" stroke-width="1" fill="none" fill-rule="evenodd">
        <g id="Desktop-HD" transform="translate(-647.000000, -4949.000000)">
            <g id="Resolve-Copy" transform="translate(-123.000000, 4763.000000)">
                <g id="P-Block" transform="translate(164.000000, 0.000000)">
                    <g id="Group-35">
                        <g id="Group-37" transform="translate(606.000000, 0.000000)">
                            <g id="Browser-Window" filter="url(#filter-1)" transform="translate(0.000000, 186.000000)">
                                <mask id="mask-3" fill="white">
                                    <use xlink:href="#path-2"></use>
                                </mask>
                                <g id="Rectangle">
                                    <use fill="#FFFFFF" fill-rule="evenodd" xlink:href="#path-2"></use>
                                    <rect stroke="#D6D6D6" stroke-width="1" x="0.5" y="0.5" width="480" height="329.547674" rx="4"></rect>
                                </g>
                                <g id="Rectangle-4" mask="url(#mask-3)">
                                    <use fill="#4E394B" fill-rule="evenodd" xlink:href="#path-4"></use>
                                    <rect stroke="#F4F4F4" stroke-width="1" x="-3.5" y="-14.5" width="128" height="350.955814" rx="4"></rect>
                                </g>
                                <text id="Walter-White-4:54-PM" mask="url(#mask-3)" font-family="Lato-Bold, Lato" font-size="12" font-weight="bold" letter-spacing="-0.071999982">
                                    <tspan x="163" y="131" fill="#7E7E7E">Walter White</tspan>
                                    <tspan x="235.6" y="131" fill="#4D4D4D">    </tspan>
                                    <tspan x="244.576" y="131" font-size="10" fill="#D6D6D6">4:54 PM</tspan>
                                    <tspan x="281.602" y="131" fill="#4D4D4D"></tspan>
                                </text>
                                <g id="Group-4" transform="translate(134.000000, 17.000000)">
                                    <g id="Group-6">
                                        <mask id="mask-6" fill="white">
                                            <use xlink:href="#path-5"></use>
                                        </mask>
                                        <g id="Clip-5"></g>
                                        <polygon id="Fill-4" fill="#FBB040" mask="url(#mask-6)" points="0 23.8365745 23.9435294 23.8365745 23.9435294 -0.0117110025 0 -0.0117110025"></polygon>
                                    </g>
                                    <g id="Group-9" transform="translate(5.100000, 2.090414)">
                                        <mask id="mask-8" fill="white">
                                            <use xlink:href="#path-7"></use>
                                        </mask>
                                        <g id="Clip-8"></g>
                                        <polygon id="Fill-7" fill="#2D2D2D" mask="url(#mask-8)" points="0.0784615385 20.5845541 13.4676923 20.5845541 13.4676923 0.00698491826 0.0784615385 0.00698491826"></polygon>
                                    </g>
                                </g>
                                <g id="Group-4-Copy-2" transform="translate(134.000000, 114.000000)">
                                    <g id="Group-6">
                                        <mask id="mask-10" fill="white">
                                            <use xlink:href="#path-9"></use>
                                        </mask>
                                        <g id="Clip-5"></g>
                                        <polygon id="Fill-4" fill="#FBB040" mask="url(#mask-10)" points="0 23.8365745 23.9435294 23.8365745 23.9435294 -0.0117110025 0 -0.0117110025"></polygon>
                                    </g>
                                    <g id="Group-9" transform="translate(5.100000, 2.090414)">
                                        <mask id="mask-12" fill="white">
                                            <use xlink:href="#path-11"></use>
                                        </mask>
                                        <g id="Clip-8"></g>
                                        <polygon id="Fill-7" fill="#2D2D2D" mask="url(#mask-12)" points="0.0784615385 20.5845541 13.4676923 20.5845541 13.4676923 0.00698491826 0.0784615385 0.00698491826"></polygon>
                                    </g>
                                </g>
                                <text id="Notify:-Trying-to-co" font-family="Lato-Regular, Lato" font-size="12" font-weight="normal" letter-spacing="-0.09605176" fill="#7E7E7E">
                                    <tspan x="175" y="94">Notify: Trying to contact Saul Goodman for #3303</tspan>
                                </text>
                                <text id="Hey,-I-got-this-one" font-family="Lato-Regular, Lato" font-size="12" font-weight="normal" letter-spacing="-0.09605176" fill="#7E7E7E">
                                    <tspan x="175" y="161">Hey, I got this one </tspan>
                                </text>
                                <path d="M165,79 L165,103" id="Line" stroke="#F1582F" stroke-width="4" stroke-linecap="square"></path>
                                <path d="M165,45 L165,69" id="Line-Copy-14" stroke="#FBB040" stroke-width="4" stroke-linecap="square"></path>
                                <path d="M165,145 L165,169" id="Line-Copy-15" stroke="#D6D6D6" stroke-width="4" stroke-linecap="square"></path>
                                <text id="VictorOps-4:53-PM-Op" font-family="Lato-Bold, Lato" font-size="12" font-weight="bold" letter-spacing="-0.071999982">
                                    <tspan x="163" y="33" fill="#7E7E7E">VictorOps</tspan>
                                    <tspan x="217.84" y="33" font-family="Lato-Regular, Lato" font-weight="normal" fill="#4D4D4D">    </tspan>
                                    <tspan x="226.816" y="33" font-family="Lato-Regular, Lato" font-size="10" font-weight="normal" fill="#B9B9B9">4:53 PM</tspan>
                                    <tspan x="263.472" y="33" font-family="Lato-Regular, Lato" font-weight="normal" fill="#B9B9B9"></tspan>
                                    <tspan x="163" y="48" font-family="Lato-Regular, Lato" font-weight="normal" fill="#B9B9B9"></tspan>
                                    <tspan x="163" y="63" font-family="Lato-Regular, Lato" font-weight="normal" fill="#B9B9B9">     </tspan>
                                    <tspan x="174.22" y="63" font-family="Lato-Regular, Lato" font-weight="normal" fill="#7E7E7E">Opened - Incident #3303 for Critical Incident</tspan>
                                    <tspan x="406.336001" y="63" font-family="Lato-Regular, Lato" font-weight="normal" fill="#B9B9B9"></tspan>
                                    <tspan x="163" y="78" font-family="Lato-Regular, Lato" font-weight="normal" fill="#B9B9B9">      </tspan>
                                </text>
                                <circle id="Oval" stroke="#D84F2A" fill="#F1582F" cx="10.6267442" cy="11.1860465" r="3.35581395"></circle>
                                <circle id="Oval-Copy" stroke="#E29E39" fill="#FBB040" cx="22.9313953" cy="11.1860465" r="3.35581395"></circle>
                                <circle id="Oval-Copy-2" stroke="#87AD2E" fill="#97C133" cx="35.2360465" cy="11.1860465" r="3.35581395"></circle>
                            </g>
                        </g>
                    </g>
                </g>
            </g>
        </g>
    </g>
</svg>