<?xml version="1.0" encoding="UTF-8"?>
<svg width="88px" height="79px" viewBox="0 0 88 79" version="1.1" xmlns="http://www.w3.org/2000/svg" xmlns:xlink="http://www.w3.org/1999/xlink">
    <!-- Generator: Sketch 41.2 (35397) - http://www.bohemiancoding.com/sketch -->
    <title>Group 692</title>
    <desc>Created with Sketch.</desc>
    <defs></defs>
    <g id="Product" stroke="none" stroke-width="1" fill="none" fill-rule="evenodd" stroke-linejoin="round">
        <g id="Desktop-HD-Copy" transform="translate(-679.000000, -962.000000)">
            <g id="Group-692" transform="translate(722.500000, 1001.500000) rotate(-270.000000) translate(-722.500000, -1001.500000) translate(683.500000, 958.500000)">
                <polyline id="Stroke-4406" stroke="#4D4D4D" stroke-width="2" stroke-linecap="round" points="62.6363636 4.4375 77.1818182 4.4375 77.1818182 80.5625 48.0909091 80.5625"></polyline>
                <polyline id="Stroke-4407" stroke="#FBB040" stroke-width="4" points="37.1818182 86 37.1818182 66.0625 22.6363636 66.0625 22.6363636 44.3125 33.5454545 44.3125 33.5454545 26.1875 44.4545455 26.1875 44.4545455 0.8125"></polyline>
                <polyline id="Stroke-4408" stroke="#FBB040" stroke-width="4" stroke-linecap="round" points="33.5454545 11.6875 44.4545455 0.8125 55.2509091 11.6875"></polyline>
                <path d="M11,4.4375 L11,22.5625" id="Stroke-4409" stroke="#4D4D4D" stroke-width="2" stroke-linecap="round"></path>
                <polyline id="Stroke-4410" stroke="#4D4D4D" stroke-width="2" stroke-linecap="round" points="0.818181818 33.4375 22.6363636 33.4375 22.6363636 18.9375"></polyline>
                <polyline id="Stroke-4411" stroke="#4D4D4D" stroke-width="2" stroke-linecap="round" points="29.9090909 55.1875 48.0909091 55.1875 48.0909091 69.6875"></polyline>
                <polyline id="Stroke-4412" stroke="#4D4D4D" stroke-width="2" stroke-linecap="round" points="11.7272727 44.3125 11.7272727 73.3125 26.2727273 73.3125 26.2727273 80.5625 0.818181818 80.5625 0.818181818 4.4375 26.2727273 4.4375"></polyline>
                <polyline id="Stroke-4413" stroke="#4D4D4D" stroke-width="2" stroke-linecap="round" points="59 80.5625 59 47.9375 66.2727273 47.9375"></polyline>
                <path d="M77.1818182,69 L69.9090909,69" id="Stroke-4414" stroke="#4D4D4D" stroke-width="2" stroke-linecap="round"></path>
                <path d="M77.1818182,58 L69.9090909,58" id="Stroke-4415" stroke="#4D4D4D" stroke-width="2" stroke-linecap="round"></path>
                <polyline id="Stroke-4416" stroke="#4D4D4D" stroke-width="2" stroke-linecap="round" points="77.1818182 37.0625 44.4545455 37.0625 44.4545455 44.3125"></polyline>
                <polyline id="Stroke-4417" stroke="#4D4D4D" stroke-width="2" stroke-linecap="round" points="55.3636364 37.0625 55.3636364 18.9375 66.2727273 18.9375 66.2727273 26.1875"></polyline>
            </g>
        </g>
    </g>
</svg>