<?xml version="1.0" encoding="UTF-8"?>
<svg width="1398px" height="669px" viewBox="0 0 1398 669" version="1.1" xmlns="http://www.w3.org/2000/svg" xmlns:xlink="http://www.w3.org/1999/xlink">
    <!-- Generator: Sketch 43.1 (39012) - http://www.bohemiancoding.com/sketch -->
    <title>Group 34</title>
    <desc>Created with Sketch.</desc>
    <defs>
        <path d="M20.2483235,37.6960345 L176.977434,2.0453741 C198.577997,-2.39138099 218.556517,0.445787288 235.292116,11.9908202 L538.723762,246.479497 C558.401632,259.978084 554.016934,286.589787 532.012568,291.749236 L376.055185,327.449782 C355.145379,331.791452 334.335769,331.890747 311.971078,315.740769 L12.7951548,84.6635802 C-10.0903787,67.1164538 1.18511878,42.0137055 20.2483235,37.6960345 Z" id="path-1"></path>
        <polygon id="path-3" points="0.439298243 45.7681597 269.522297 253.189099 470.286953 207.919361 201.553609 0.278351835"></polygon>
        <path d="M36.4346338,18.5562699 C37.3969539,17.1900077 39.2379808,15.9688692 40.5500156,15.8293443 L210.439319,0.229490409 C211.719175,0.132561337 212.034945,1.12947899 211.141399,2.45870904 L175.047839,55.0276874 C174.100351,56.3994894 172.287795,57.6050414 170.994543,57.7203134 L1.70879912,72.8088412 C0.420752577,72.9216523 0.0627175892,71.9530764 0.913569755,70.6424586 L36.4346338,18.5562699 Z" id="path-5"></path>
        <filter x="-0.2%" y="-0.7%" width="100.9%" height="102.8%" filterUnits="objectBoundingBox" id="filter-7">
            <feOffset dx="1" dy="1" in="SourceAlpha" result="shadowOffsetOuter1"></feOffset>
            <feComposite in="shadowOffsetOuter1" in2="SourceAlpha" operator="out" result="shadowOffsetOuter1"></feComposite>
            <feColorMatrix values="0 0 0 0 0.917647059   0 0 0 0 0.917647059   0 0 0 0 0.917647059  0 0 0 1 0" type="matrix" in="shadowOffsetOuter1"></feColorMatrix>
        </filter>
        <path d="M36.4346338,18.5562699 C37.3969539,17.1900077 39.2379808,15.9688692 40.5500156,15.8293443 L210.439319,0.229490409 C211.719175,0.132561337 212.034945,1.12947899 211.141399,2.45870904 L175.047839,55.0276874 C174.100351,56.3994894 172.287795,57.6050414 170.994543,57.7203134 L1.70879912,72.8088412 C0.420752577,72.9216523 0.0627175892,71.9530764 0.913569755,70.6424586 L36.4346338,18.5562699 Z" id="path-8"></path>
        <filter x="-0.2%" y="-0.7%" width="100.9%" height="102.8%" filterUnits="objectBoundingBox" id="filter-10">
            <feOffset dx="1" dy="1" in="SourceAlpha" result="shadowOffsetOuter1"></feOffset>
            <feComposite in="shadowOffsetOuter1" in2="SourceAlpha" operator="out" result="shadowOffsetOuter1"></feComposite>
            <feColorMatrix values="0 0 0 0 0.839215686   0 0 0 0 0.839215686   0 0 0 0 0.839215686  0 0 0 1 0" type="matrix" in="shadowOffsetOuter1"></feColorMatrix>
        </filter>
        <path d="M36.4346338,18.5562699 C37.3969539,17.1900077 39.2379808,15.9688692 40.5500156,15.8293443 L210.439319,0.229490409 C211.719175,0.132561337 212.034945,1.12947899 211.141399,2.45870904 L175.047839,55.0276874 C174.100351,56.3994894 172.287795,57.6050414 170.994543,57.7203134 L1.70879912,72.8088412 C0.420752577,72.9216523 0.0627175892,71.9530764 0.913569755,70.6424586 L36.4346338,18.5562699 Z" id="path-11"></path>
        <filter x="-0.2%" y="-0.7%" width="100.9%" height="102.8%" filterUnits="objectBoundingBox" id="filter-13">
            <feOffset dx="1" dy="1" in="SourceAlpha" result="shadowOffsetOuter1"></feOffset>
            <feComposite in="shadowOffsetOuter1" in2="SourceAlpha" operator="out" result="shadowOffsetOuter1"></feComposite>
            <feColorMatrix values="0 0 0 0 0.839215686   0 0 0 0 0.839215686   0 0 0 0 0.839215686  0 0 0 1 0" type="matrix" in="shadowOffsetOuter1"></feColorMatrix>
        </filter>
        <path d="M36.4346338,18.5562699 C37.3969539,17.1900077 39.2379808,15.9688692 40.5500156,15.8293443 L210.439319,0.229490409 C211.719175,0.132561337 212.034945,1.12947899 211.141399,2.45870904 L175.047839,55.0276874 C174.100351,56.3994894 172.287795,57.6050414 170.994543,57.7203134 L1.70879912,72.8088412 C0.420752577,72.9216523 0.0627175892,71.9530764 0.913569755,70.6424586 L36.4346338,18.5562699 Z" id="path-14"></path>
        <filter x="-0.2%" y="-0.7%" width="100.9%" height="102.8%" filterUnits="objectBoundingBox" id="filter-16">
            <feOffset dx="1" dy="1" in="SourceAlpha" result="shadowOffsetOuter1"></feOffset>
            <feComposite in="shadowOffsetOuter1" in2="SourceAlpha" operator="out" result="shadowOffsetOuter1"></feComposite>
            <feColorMatrix values="0 0 0 0 0.839215686   0 0 0 0 0.839215686   0 0 0 0 0.839215686  0 0 0 1 0" type="matrix" in="shadowOffsetOuter1"></feColorMatrix>
        </filter>
        <path d="M36.4346338,18.5562699 C37.3969539,17.1900077 39.2379808,15.9688692 40.5500156,15.8293443 L210.439319,0.229490409 C211.719175,0.132561337 212.034945,1.12947899 211.141399,2.45870904 L175.047839,55.0276874 C174.100351,56.3994894 172.287795,57.6050414 170.994543,57.7203134 L1.70879912,72.8088412 C0.420752577,72.9216523 0.0627175892,71.9530764 0.913569755,70.6424586 L36.4346338,18.5562699 Z" id="path-17"></path>
        <filter x="-0.2%" y="-0.7%" width="100.9%" height="102.8%" filterUnits="objectBoundingBox" id="filter-19">
            <feOffset dx="1" dy="1" in="SourceAlpha" result="shadowOffsetOuter1"></feOffset>
            <feComposite in="shadowOffsetOuter1" in2="SourceAlpha" operator="out" result="shadowOffsetOuter1"></feComposite>
            <feColorMatrix values="0 0 0 0 0.839215686   0 0 0 0 0.839215686   0 0 0 0 0.839215686  0 0 0 1 0" type="matrix" in="shadowOffsetOuter1"></feColorMatrix>
        </filter>
        <path d="M36.4346338,18.5562699 C37.3969539,17.1900077 39.2379808,15.9688692 40.5500156,15.8293443 L210.439319,0.229490409 C211.719175,0.132561337 212.034945,1.12947899 211.141399,2.45870904 L175.047839,55.0276874 C174.100351,56.3994894 172.287795,57.6050414 170.994543,57.7203134 L1.70879912,72.8088412 C0.420752577,72.9216523 0.0627175892,71.9530764 0.913569755,70.6424586 L36.4346338,18.5562699 Z" id="path-20"></path>
        <filter x="-0.2%" y="-0.7%" width="100.9%" height="102.8%" filterUnits="objectBoundingBox" id="filter-22">
            <feOffset dx="1" dy="1" in="SourceAlpha" result="shadowOffsetOuter1"></feOffset>
            <feComposite in="shadowOffsetOuter1" in2="SourceAlpha" operator="out" result="shadowOffsetOuter1"></feComposite>
            <feColorMatrix values="0 0 0 0 0.839215686   0 0 0 0 0.839215686   0 0 0 0 0.839215686  0 0 0 1 0" type="matrix" in="shadowOffsetOuter1"></feColorMatrix>
        </filter>
        <path d="M36.4346338,18.5562699 C37.3969539,17.1900077 39.2379808,15.9688692 40.5500156,15.8293443 L210.439319,0.229490409 C211.719175,0.132561337 212.034945,1.12947899 211.141399,2.45870904 L175.047839,55.0276874 C174.100351,56.3994894 172.287795,57.6050414 170.994543,57.7203134 L1.70879912,72.8088412 C0.420752577,72.9216523 0.0627175892,71.9530764 0.913569755,70.6424586 L36.4346338,18.5562699 Z" id="path-23"></path>
        <filter x="-0.2%" y="-0.7%" width="100.9%" height="102.8%" filterUnits="objectBoundingBox" id="filter-25">
            <feOffset dx="1" dy="1" in="SourceAlpha" result="shadowOffsetOuter1"></feOffset>
            <feComposite in="shadowOffsetOuter1" in2="SourceAlpha" operator="out" result="shadowOffsetOuter1"></feComposite>
            <feColorMatrix values="0 0 0 0 0.839215686   0 0 0 0 0.839215686   0 0 0 0 0.839215686  0 0 0 1 0" type="matrix" in="shadowOffsetOuter1"></feColorMatrix>
        </filter>
        <path d="M36.4346338,18.5562699 C37.3969539,17.1900077 39.2379808,15.9688692 40.5500156,15.8293443 L210.439319,0.229490409 C211.719175,0.132561337 212.034945,1.12947899 211.141399,2.45870904 L175.047839,55.0276874 C174.100351,56.3994894 172.287795,57.6050414 170.994543,57.7203134 L1.70879912,72.8088412 C0.420752577,72.9216523 0.0627175892,71.9530764 0.913569755,70.6424586 L36.4346338,18.5562699 Z" id="path-26"></path>
        <filter x="-0.2%" y="-0.7%" width="100.9%" height="102.8%" filterUnits="objectBoundingBox" id="filter-28">
            <feOffset dx="1" dy="1" in="SourceAlpha" result="shadowOffsetOuter1"></feOffset>
            <feComposite in="shadowOffsetOuter1" in2="SourceAlpha" operator="out" result="shadowOffsetOuter1"></feComposite>
            <feColorMatrix values="0 0 0 0 0.839215686   0 0 0 0 0.839215686   0 0 0 0 0.839215686  0 0 0 1 0" type="matrix" in="shadowOffsetOuter1"></feColorMatrix>
        </filter>
        <path d="M36.4346338,18.5562699 C37.3969539,17.1900077 39.2379808,15.9688692 40.5500156,15.8293443 L210.439319,0.229490409 C211.719175,0.132561337 212.034945,1.12947899 211.141399,2.45870904 L175.047839,55.0276874 C174.100351,56.3994894 172.287795,57.6050414 170.994543,57.7203134 L1.70879912,72.8088412 C0.420752577,72.9216523 0.0627175892,71.9530764 0.913569755,70.6424586 L36.4346338,18.5562699 Z" id="path-29"></path>
        <filter x="-0.2%" y="-0.7%" width="100.9%" height="102.8%" filterUnits="objectBoundingBox" id="filter-31">
            <feOffset dx="1" dy="1" in="SourceAlpha" result="shadowOffsetOuter1"></feOffset>
            <feComposite in="shadowOffsetOuter1" in2="SourceAlpha" operator="out" result="shadowOffsetOuter1"></feComposite>
            <feColorMatrix values="0 0 0 0 0.839215686   0 0 0 0 0.839215686   0 0 0 0 0.839215686  0 0 0 1 0" type="matrix" in="shadowOffsetOuter1"></feColorMatrix>
        </filter>
        <path d="M36.4346338,18.5562699 C37.3969539,17.1900077 39.2379808,15.9688692 40.5500156,15.8293443 L210.439319,0.229490409 C211.719175,0.132561337 212.034945,1.12947899 211.141399,2.45870904 L175.047839,55.0276874 C174.100351,56.3994894 172.287795,57.6050414 170.994543,57.7203134 L1.70879912,72.8088412 C0.420752577,72.9216523 0.0627175892,71.9530764 0.913569755,70.6424586 L36.4346338,18.5562699 Z" id="path-32"></path>
        <filter x="-0.2%" y="-0.7%" width="100.9%" height="102.8%" filterUnits="objectBoundingBox" id="filter-34">
            <feOffset dx="1" dy="1" in="SourceAlpha" result="shadowOffsetOuter1"></feOffset>
            <feComposite in="shadowOffsetOuter1" in2="SourceAlpha" operator="out" result="shadowOffsetOuter1"></feComposite>
            <feColorMatrix values="0 0 0 0 0.839215686   0 0 0 0 0.839215686   0 0 0 0 0.839215686  0 0 0 1 0" type="matrix" in="shadowOffsetOuter1"></feColorMatrix>
        </filter>
    </defs>
    <g id="Product" stroke="none" stroke-width="1" fill="none" fill-rule="evenodd">
        <g id="Desktop-HD-Copy" transform="translate(0.000000, -260.000000)">
            <g id="Group-34" transform="translate(-3.000000, 226.000000)">
                <g id="Device" transform="translate(709.900460, 377.221117) scale(-1, 1) rotate(-2.000000) translate(-709.900460, -377.221117) translate(408.900460, 166.221117)">
                    <g id="Rose-Gold" transform="translate(300.716777, 210.641299) rotate(-10.000000) translate(-300.716777, -210.641299) translate(24.716777, 45.641299)">
                        <g id="Body-" transform="translate(-0.000000, 0.000000)">
                            <mask id="mask-2" fill="white">
                                <use xlink:href="#path-1"></use>
                            </mask>
                            <use id="Mask" stroke="#EAEAEA" fill="#2D2D2D" xlink:href="#path-1"></use>
                            <path d="M21.5614958,37.4153675 L177.005484,2.0503206 C198.606047,-2.38643449 218.584567,0.450733797 235.320166,11.9957667 L538.751812,246.484444 C556.90808,260.630124 542.679143,270.103901 532.040618,272.760885 L375.969658,307.891345 C355.173429,312.374681 335.642823,311.012996 314.140998,294.324704 L16.9921722,64.120229 C4.48231013,54.5898294 2.43944518,41.9391599 21.5614958,37.4153675 Z" id="Edge" fill="#4D4D4D"></path>
                        </g>
                        <path d="M416.820843,270.578923 C416.044972,264.299984 425.533665,260.188756 437.91492,261.660222 C450.296174,263.131689 461.498364,268.305824 462.085705,275.473283 C462.673045,282.640742 452.230551,285.321466 439.849296,283.849999 C427.468042,282.378532 417.596713,276.857863 416.820843,270.578923 Z" id="Touch-iD-Sensor" stroke="#2D2D2D" stroke-width="1.44181256" fill="#4D4D4D" fill-rule="nonzero"></path>
                        <g id="Screen" transform="translate(42.191248, 25.855283)">
                            <mask id="mask-4" fill="white">
                                <use xlink:href="#path-3"></use>
                            </mask>
                            <g>
                                <use fill="#F4F4F4" fill-rule="evenodd" xlink:href="#path-3"></use>
                                <path stroke="#FFFFFF" stroke-width="2.16271885" d="M2.92068005,46.3155751 L201.295443,1.44542222 L467.807317,207.369977 L269.780076,252.022465 L2.92068005,46.3155751 Z"></path>
                            </g>
                        </g>
                    </g>
                </g>
                <g id="Group-33-Copy-12" transform="translate(434.651206, 495.776897) rotate(30.000000) translate(-434.651206, -495.776897) translate(328.651206, 459.276897)">
                    <mask id="mask-6" fill="white">
                        <use xlink:href="#path-5"></use>
                    </mask>
                    <g id="Rectangle-19">
                        <use fill="black" fill-opacity="1" filter="url(#filter-7)" xlink:href="#path-5"></use>
                        <use fill="#FFFFFF" fill-rule="evenodd" xlink:href="#path-5"></use>
                        <path stroke="#EAEAEA" stroke-width="0.720906282" d="M36.730867,18.7616478 C37.6379171,17.4753564 39.3885971,16.3153379 40.5881321,16.1877764 L210.472278,0.588433498 C211.391367,0.518873068 211.589318,1.1462902 210.842254,2.25761537 L174.750685,54.8236631 C173.860228,56.112891 172.139555,57.2563724 170.962541,57.3612837 L1.6767986,72.4498113 C0.733664961,72.5324135 0.510388202,71.9254725 1.21589995,70.8387312 L36.730867,18.7616478 Z"></path>
                    </g>
                    <path d="M41.3482155,25.6276511 C42.2017978,24.482825 43.6587886,23.4764638 44.5978042,23.3809307 L150.435092,14.1113018 C151.356205,14.0460739 151.475325,14.8480428 150.701061,15.9022659 L146.458305,21.6743542 C145.671746,22.7434884 144.280839,23.6733607 143.358384,23.7491984 L36.854755,33.7315182 C35.905821,33.8286344 35.8344573,32.9813714 36.6932173,31.8406774 L41.3482155,25.6276511 Z" id="Rectangle-12" fill="#F58A6D" mask="url(#mask-6)"></path>
                    <path d="M30.9436822,40.8291608 C31.7972645,39.6843347 33.2542552,38.6779735 34.1932709,38.5824404 L140.030558,29.3128115 C140.951672,29.2475836 141.070792,30.0495525 140.296527,31.1037756 L136.053772,36.8758639 C135.267212,37.9449981 133.876306,38.8748704 132.95385,38.9507081 L26.4502216,48.9330279 C25.5012877,49.0301441 25.4299239,48.1828811 26.2886839,47.0421871 L30.9436822,40.8291608 Z" id="Rectangle-12-Copy-8" fill="#EAEAEA" mask="url(#mask-6)"></path>
                    <path d="M19.9558667,55.5708677 C20.809449,54.4260416 22.2664397,53.4196803 23.2054554,53.3241472 L129.042743,44.0545184 C129.963856,43.9892904 130.082976,44.7912594 129.308712,45.8454824 L125.065956,51.6175707 C124.279397,52.6867049 122.88849,53.6165772 121.966035,53.6924149 L15.4624061,63.6747348 C14.5134722,63.771851 14.4421085,62.924588 15.3008684,61.783894 L19.9558667,55.5708677 Z" id="Rectangle-12-Copy-3" fill="#F4F4F4" mask="url(#mask-6)"></path>
                    <polygon id="Rectangle-10" fill="#F1582F" mask="url(#mask-6)" points="67.0169377 -31.829 74.2729581 -34.3560541 -37.7456885 130.86847 -42.3365272 132.748033"></polygon>
                </g>
                <g id="Group-33-Copy-13" transform="translate(355.365617, 533.206279) rotate(30.000000) translate(-355.365617, -533.206279) translate(249.392393, 496.780862)">
                    <mask id="mask-9" fill="white">
                        <use xlink:href="#path-8"></use>
                    </mask>
                    <g id="Rectangle-19">
                        <use fill="black" fill-opacity="1" filter="url(#filter-10)" xlink:href="#path-8"></use>
                        <use fill="#FFFFFF" fill-rule="evenodd" xlink:href="#path-8"></use>
                        <path stroke="#D6D6D6" stroke-width="0.720906282" d="M36.730867,18.7616478 C37.6379171,17.4753564 39.3885971,16.3153379 40.5881321,16.1877764 L210.472278,0.588433498 C211.391367,0.518873068 211.589318,1.1462902 210.842254,2.25761537 L174.750685,54.8236631 C173.860228,56.112891 172.139555,57.2563724 170.962541,57.3612837 L1.6767986,72.4498113 C0.733664961,72.5324135 0.510388202,71.9254725 1.21589995,70.8387312 L36.730867,18.7616478 Z"></path>
                    </g>
                    <path d="M41.3482155,25.6276511 C42.2017978,24.482825 43.6587886,23.4764638 44.5978042,23.3809307 L150.435092,14.1113018 C151.356205,14.0460739 151.475325,14.8480428 150.701061,15.9022659 L146.458305,21.6743542 C145.671746,22.7434884 144.280839,23.6733607 143.358384,23.7491984 L36.854755,33.7315182 C35.905821,33.8286344 35.8344573,32.9813714 36.6932173,31.8406774 L41.3482155,25.6276511 Z" id="Rectangle-12" fill="#F58A6D" mask="url(#mask-9)"></path>
                    <path d="M30.9436822,40.8291608 C31.7972645,39.6843347 33.2542552,38.6779735 34.1932709,38.5824404 L140.030558,29.3128115 C140.951672,29.2475836 141.070792,30.0495525 140.296527,31.1037756 L136.053772,36.8758639 C135.267212,37.9449981 133.876306,38.8748704 132.95385,38.9507081 L26.4502216,48.9330279 C25.5012877,49.0301441 25.4299239,48.1828811 26.2886839,47.0421871 L30.9436822,40.8291608 Z" id="Rectangle-12-Copy-8" fill="#F4F4F4" mask="url(#mask-9)"></path>
                    <path d="M19.9558667,55.5708677 C20.809449,54.4260416 22.2664397,53.4196803 23.2054554,53.3241472 L129.042743,44.0545184 C129.963856,43.9892904 130.082976,44.7912594 129.308712,45.8454824 L125.065956,51.6175707 C124.279397,52.6867049 122.88849,53.6165772 121.966035,53.6924149 L15.4624061,63.6747348 C14.5134722,63.771851 14.4421085,62.924588 15.3008684,61.783894 L19.9558667,55.5708677 Z" id="Rectangle-12-Copy-3" fill="#F4F4F4" mask="url(#mask-9)"></path>
                    <polygon id="Rectangle-10" fill="#F1582F" mask="url(#mask-9)" points="67.0169377 -31.829 74.2729581 -34.3560541 -37.7456885 130.86847 -42.3365272 132.748033"></polygon>
                </g>
                <g id="Group-33-Copy-14" transform="translate(276.065926, 572.156230) rotate(30.000000) translate(-276.065926, -572.156230) translate(170.092702, 535.730812)">
                    <mask id="mask-12" fill="white">
                        <use xlink:href="#path-11"></use>
                    </mask>
                    <g id="Rectangle-19">
                        <use fill="black" fill-opacity="1" filter="url(#filter-13)" xlink:href="#path-11"></use>
                        <use fill="#FFFFFF" fill-rule="evenodd" xlink:href="#path-11"></use>
                        <path stroke="#D6D6D6" stroke-width="0.720906282" d="M36.730867,18.7616478 C37.6379171,17.4753564 39.3885971,16.3153379 40.5881321,16.1877764 L210.472278,0.588433498 C211.391367,0.518873068 211.589318,1.1462902 210.842254,2.25761537 L174.750685,54.8236631 C173.860228,56.112891 172.139555,57.2563724 170.962541,57.3612837 L1.6767986,72.4498113 C0.733664961,72.5324135 0.510388202,71.9254725 1.21589995,70.8387312 L36.730867,18.7616478 Z"></path>
                    </g>
                    <path d="M41.3482155,25.6276511 C42.2017978,24.482825 43.6587886,23.4764638 44.5978042,23.3809307 L150.435092,14.1113018 C151.356205,14.0460739 151.475325,14.8480428 150.701061,15.9022659 L146.458305,21.6743542 C145.671746,22.7434884 144.280839,23.6733607 143.358384,23.7491984 L36.854755,33.7315182 C35.905821,33.8286344 35.8344573,32.9813714 36.6932173,31.8406774 L41.3482155,25.6276511 Z" id="Rectangle-12" fill="#F58A6D" mask="url(#mask-12)"></path>
                    <path d="M30.9436822,40.8291608 C31.7972645,39.6843347 33.2542552,38.6779735 34.1932709,38.5824404 L140.030558,29.3128115 C140.951672,29.2475836 141.070792,30.0495525 140.296527,31.1037756 L136.053772,36.8758639 C135.267212,37.9449981 133.876306,38.8748704 132.95385,38.9507081 L26.4502216,48.9330279 C25.5012877,49.0301441 25.4299239,48.1828811 26.2886839,47.0421871 L30.9436822,40.8291608 Z" id="Rectangle-12-Copy-8" fill="#F4F4F4" mask="url(#mask-12)"></path>
                    <path d="M19.9558667,55.5708677 C20.809449,54.4260416 22.2664397,53.4196803 23.2054554,53.3241472 L129.042743,44.0545184 C129.963856,43.9892904 130.082976,44.7912594 129.308712,45.8454824 L125.065956,51.6175707 C124.279397,52.6867049 122.88849,53.6165772 121.966035,53.6924149 L15.4624061,63.6747348 C14.5134722,63.771851 14.4421085,62.924588 15.3008684,61.783894 L19.9558667,55.5708677 Z" id="Rectangle-12-Copy-3" fill="#F4F4F4" mask="url(#mask-12)"></path>
                    <polygon id="Rectangle-10" fill="#F1582F" mask="url(#mask-12)" points="67.0169377 -31.829 74.2729581 -34.3560541 -37.7456885 130.86847 -42.3365272 132.748033"></polygon>
                </g>
                <g id="Group-33-Copy-15" transform="translate(192.440797, 611.106180) rotate(30.000000) translate(-192.440797, -611.106180) translate(86.467574, 574.680763)">
                    <mask id="mask-15" fill="white">
                        <use xlink:href="#path-14"></use>
                    </mask>
                    <g id="Rectangle-19">
                        <use fill="black" fill-opacity="1" filter="url(#filter-16)" xlink:href="#path-14"></use>
                        <use fill="#FFFFFF" fill-rule="evenodd" xlink:href="#path-14"></use>
                        <path stroke="#D6D6D6" stroke-width="0.720906282" d="M36.730867,18.7616478 C37.6379171,17.4753564 39.3885971,16.3153379 40.5881321,16.1877764 L210.472278,0.588433498 C211.391367,0.518873068 211.589318,1.1462902 210.842254,2.25761537 L174.750685,54.8236631 C173.860228,56.112891 172.139555,57.2563724 170.962541,57.3612837 L1.6767986,72.4498113 C0.733664961,72.5324135 0.510388202,71.9254725 1.21589995,70.8387312 L36.730867,18.7616478 Z"></path>
                    </g>
                    <path d="M41.3482155,25.6276511 C42.2017978,24.482825 43.6587886,23.4764638 44.5978042,23.3809307 L150.435092,14.1113018 C151.356205,14.0460739 151.475325,14.8480428 150.701061,15.9022659 L146.458305,21.6743542 C145.671746,22.7434884 144.280839,23.6733607 143.358384,23.7491984 L36.854755,33.7315182 C35.905821,33.8286344 35.8344573,32.9813714 36.6932173,31.8406774 L41.3482155,25.6276511 Z" id="Rectangle-12" fill="#F58A6D" mask="url(#mask-15)"></path>
                    <path d="M30.9436822,40.8291608 C31.7972645,39.6843347 33.2542552,38.6779735 34.1932709,38.5824404 L140.030558,29.3128115 C140.951672,29.2475836 141.070792,30.0495525 140.296527,31.1037756 L136.053772,36.8758639 C135.267212,37.9449981 133.876306,38.8748704 132.95385,38.9507081 L26.4502216,48.9330279 C25.5012877,49.0301441 25.4299239,48.1828811 26.2886839,47.0421871 L30.9436822,40.8291608 Z" id="Rectangle-12-Copy-8" fill="#F4F4F4" mask="url(#mask-15)"></path>
                    <path d="M19.9558667,55.5708677 C20.809449,54.4260416 22.2664397,53.4196803 23.2054554,53.3241472 L129.042743,44.0545184 C129.963856,43.9892904 130.082976,44.7912594 129.308712,45.8454824 L125.065956,51.6175707 C124.279397,52.6867049 122.88849,53.6165772 121.966035,53.6924149 L15.4624061,63.6747348 C14.5134722,63.771851 14.4421085,62.924588 15.3008684,61.783894 L19.9558667,55.5708677 Z" id="Rectangle-12-Copy-3" fill="#F4F4F4" mask="url(#mask-15)"></path>
                    <polygon id="Rectangle-10" fill="#F1582F" mask="url(#mask-15)" points="67.0169377 -31.829 74.2729581 -34.3560541 -37.7456885 130.86847 -42.3365272 132.748033"></polygon>
                </g>
                <g id="Group-33-Copy-16" transform="translate(110.978387, 650.056131) rotate(30.000000) translate(-110.978387, -650.056131) translate(5.005164, 613.630714)">
                    <mask id="mask-18" fill="white">
                        <use xlink:href="#path-17"></use>
                    </mask>
                    <g id="Rectangle-19">
                        <use fill="black" fill-opacity="1" filter="url(#filter-19)" xlink:href="#path-17"></use>
                        <use fill="#FFFFFF" fill-rule="evenodd" xlink:href="#path-17"></use>
                        <path stroke="#D6D6D6" stroke-width="0.720906282" d="M36.730867,18.7616478 C37.6379171,17.4753564 39.3885971,16.3153379 40.5881321,16.1877764 L210.472278,0.588433498 C211.391367,0.518873068 211.589318,1.1462902 210.842254,2.25761537 L174.750685,54.8236631 C173.860228,56.112891 172.139555,57.2563724 170.962541,57.3612837 L1.6767986,72.4498113 C0.733664961,72.5324135 0.510388202,71.9254725 1.21589995,70.8387312 L36.730867,18.7616478 Z"></path>
                    </g>
                    <path d="M41.3482155,25.6276511 C42.2017978,24.482825 43.6587886,23.4764638 44.5978042,23.3809307 L150.435092,14.1113018 C151.356205,14.0460739 151.475325,14.8480428 150.701061,15.9022659 L146.458305,21.6743542 C145.671746,22.7434884 144.280839,23.6733607 143.358384,23.7491984 L36.854755,33.7315182 C35.905821,33.8286344 35.8344573,32.9813714 36.6932173,31.8406774 L41.3482155,25.6276511 Z" id="Rectangle-12" fill="#F58A6D" mask="url(#mask-18)"></path>
                    <path d="M30.9436822,40.8291608 C31.7972645,39.6843347 33.2542552,38.6779735 34.1932709,38.5824404 L140.030558,29.3128115 C140.951672,29.2475836 141.070792,30.0495525 140.296527,31.1037756 L136.053772,36.8758639 C135.267212,37.9449981 133.876306,38.8748704 132.95385,38.9507081 L26.4502216,48.9330279 C25.5012877,49.0301441 25.4299239,48.1828811 26.2886839,47.0421871 L30.9436822,40.8291608 Z" id="Rectangle-12-Copy-8" fill="#F4F4F4" mask="url(#mask-18)"></path>
                    <path d="M19.9558667,55.5708677 C20.809449,54.4260416 22.2664397,53.4196803 23.2054554,53.3241472 L129.042743,44.0545184 C129.963856,43.9892904 130.082976,44.7912594 129.308712,45.8454824 L125.065956,51.6175707 C124.279397,52.6867049 122.88849,53.6165772 121.966035,53.6924149 L15.4624061,63.6747348 C14.5134722,63.771851 14.4421085,62.924588 15.3008684,61.783894 L19.9558667,55.5708677 Z" id="Rectangle-12-Copy-3" fill="#F4F4F4" mask="url(#mask-18)"></path>
                    <polygon id="Rectangle-10" fill="#F1582F" mask="url(#mask-18)" points="67.0169377 -31.829 74.2729581 -34.3560541 -37.7456885 130.86847 -42.3365272 132.748033"></polygon>
                </g>
                <g id="Group-33-Copy-21" transform="translate(1290.381065, 85.031707) rotate(30.000000) translate(-1290.381065, -85.031707) translate(1184.407841, 48.606290)">
                    <mask id="mask-21" fill="white">
                        <use xlink:href="#path-20"></use>
                    </mask>
                    <g id="Rectangle-19">
                        <use fill="black" fill-opacity="1" filter="url(#filter-22)" xlink:href="#path-20"></use>
                        <use fill="#FFFFFF" fill-rule="evenodd" xlink:href="#path-20"></use>
                        <path stroke="#D6D6D6" stroke-width="0.720906282" d="M36.730867,18.7616478 C37.6379171,17.4753564 39.3885971,16.3153379 40.5881321,16.1877764 L210.472278,0.588433498 C211.391367,0.518873068 211.589318,1.1462902 210.842254,2.25761537 L174.750685,54.8236631 C173.860228,56.112891 172.139555,57.2563724 170.962541,57.3612837 L1.6767986,72.4498113 C0.733664961,72.5324135 0.510388202,71.9254725 1.21589995,70.8387312 L36.730867,18.7616478 Z"></path>
                    </g>
                    <path d="M41.3482155,25.6276511 C42.2017978,24.482825 43.6587886,23.4764638 44.5978042,23.3809307 L150.435092,14.1113018 C151.356205,14.0460739 151.475325,14.8480428 150.701061,15.9022659 L146.458305,21.6743542 C145.671746,22.7434884 144.280839,23.6733607 143.358384,23.7491984 L36.854755,33.7315182 C35.905821,33.8286344 35.8344573,32.9813714 36.6932173,31.8406774 L41.3482155,25.6276511 Z" id="Rectangle-12" fill="#C0D984" mask="url(#mask-21)"></path>
                    <path d="M30.9436822,40.8291608 C31.7972645,39.6843347 33.2542552,38.6779735 34.1932709,38.5824404 L140.030558,29.3128115 C140.951672,29.2475836 141.070792,30.0495525 140.296527,31.1037756 L136.053772,36.8758639 C135.267212,37.9449981 133.876306,38.8748704 132.95385,38.9507081 L26.4502216,48.9330279 C25.5012877,49.0301441 25.4299239,48.1828811 26.2886839,47.0421871 L30.9436822,40.8291608 Z" id="Rectangle-12-Copy-8" fill="#F4F4F4" mask="url(#mask-21)"></path>
                    <path d="M19.9558667,55.5708677 C20.809449,54.4260416 22.2664397,53.4196803 23.2054554,53.3241472 L129.042743,44.0545184 C129.963856,43.9892904 130.082976,44.7912594 129.308712,45.8454824 L125.065956,51.6175707 C124.279397,52.6867049 122.88849,53.6165772 121.966035,53.6924149 L15.4624061,63.6747348 C14.5134722,63.771851 14.4421085,62.924588 15.3008684,61.783894 L19.9558667,55.5708677 Z" id="Rectangle-12-Copy-3" fill="#F4F4F4" mask="url(#mask-21)"></path>
                    <polygon id="Rectangle-10" fill="#97C133" mask="url(#mask-21)" points="67.0169377 -31.829 74.2729581 -34.3560541 -37.7456885 130.86847 -42.3365272 132.748033"></polygon>
                </g>
                <g id="Group-33-Copy-20" transform="translate(1211.081374, 122.539067) rotate(30.000000) translate(-1211.081374, -122.539067) translate(1105.108150, 86.113650)">
                    <mask id="mask-24" fill="white">
                        <use xlink:href="#path-23"></use>
                    </mask>
                    <g id="Rectangle-19">
                        <use fill="black" fill-opacity="1" filter="url(#filter-25)" xlink:href="#path-23"></use>
                        <use fill="#FFFFFF" fill-rule="evenodd" xlink:href="#path-23"></use>
                        <path stroke="#D6D6D6" stroke-width="0.720906282" d="M36.730867,18.7616478 C37.6379171,17.4753564 39.3885971,16.3153379 40.5881321,16.1877764 L210.472278,0.588433498 C211.391367,0.518873068 211.589318,1.1462902 210.842254,2.25761537 L174.750685,54.8236631 C173.860228,56.112891 172.139555,57.2563724 170.962541,57.3612837 L1.6767986,72.4498113 C0.733664961,72.5324135 0.510388202,71.9254725 1.21589995,70.8387312 L36.730867,18.7616478 Z"></path>
                    </g>
                    <path d="M41.3482155,25.6276511 C42.2017978,24.482825 43.6587886,23.4764638 44.5978042,23.3809307 L150.435092,14.1113018 C151.356205,14.0460739 151.475325,14.8480428 150.701061,15.9022659 L146.458305,21.6743542 C145.671746,22.7434884 144.280839,23.6733607 143.358384,23.7491984 L36.854755,33.7315182 C35.905821,33.8286344 35.8344573,32.9813714 36.6932173,31.8406774 L41.3482155,25.6276511 Z" id="Rectangle-12" fill="#C0D984" mask="url(#mask-24)"></path>
                    <path d="M30.9436822,40.8291608 C31.7972645,39.6843347 33.2542552,38.6779735 34.1932709,38.5824404 L140.030558,29.3128115 C140.951672,29.2475836 141.070792,30.0495525 140.296527,31.1037756 L136.053772,36.8758639 C135.267212,37.9449981 133.876306,38.8748704 132.95385,38.9507081 L26.4502216,48.9330279 C25.5012877,49.0301441 25.4299239,48.1828811 26.2886839,47.0421871 L30.9436822,40.8291608 Z" id="Rectangle-12-Copy-8" fill="#F4F4F4" mask="url(#mask-24)"></path>
                    <path d="M19.9558667,55.5708677 C20.809449,54.4260416 22.2664397,53.4196803 23.2054554,53.3241472 L129.042743,44.0545184 C129.963856,43.9892904 130.082976,44.7912594 129.308712,45.8454824 L125.065956,51.6175707 C124.279397,52.6867049 122.88849,53.6165772 121.966035,53.6924149 L15.4624061,63.6747348 C14.5134722,63.771851 14.4421085,62.924588 15.3008684,61.783894 L19.9558667,55.5708677 Z" id="Rectangle-12-Copy-3" fill="#F4F4F4" mask="url(#mask-24)"></path>
                    <polygon id="Rectangle-10" fill="#97C133" mask="url(#mask-24)" points="67.0169377 -31.829 74.2729581 -34.3560541 -37.7456885 130.86847 -42.3365272 132.748033"></polygon>
                </g>
                <g id="Group-33-Copy-19" transform="translate(1131.781683, 161.489018) rotate(30.000000) translate(-1131.781683, -161.489018) translate(1025.808459, 125.063601)">
                    <mask id="mask-27" fill="white">
                        <use xlink:href="#path-26"></use>
                    </mask>
                    <g id="Rectangle-19">
                        <use fill="black" fill-opacity="1" filter="url(#filter-28)" xlink:href="#path-26"></use>
                        <use fill="#FFFFFF" fill-rule="evenodd" xlink:href="#path-26"></use>
                        <path stroke="#D6D6D6" stroke-width="0.720906282" d="M36.730867,18.7616478 C37.6379171,17.4753564 39.3885971,16.3153379 40.5881321,16.1877764 L210.472278,0.588433498 C211.391367,0.518873068 211.589318,1.1462902 210.842254,2.25761537 L174.750685,54.8236631 C173.860228,56.112891 172.139555,57.2563724 170.962541,57.3612837 L1.6767986,72.4498113 C0.733664961,72.5324135 0.510388202,71.9254725 1.21589995,70.8387312 L36.730867,18.7616478 Z"></path>
                    </g>
                    <path d="M41.3482155,25.6276511 C42.2017978,24.482825 43.6587886,23.4764638 44.5978042,23.3809307 L150.435092,14.1113018 C151.356205,14.0460739 151.475325,14.8480428 150.701061,15.9022659 L146.458305,21.6743542 C145.671746,22.7434884 144.280839,23.6733607 143.358384,23.7491984 L36.854755,33.7315182 C35.905821,33.8286344 35.8344573,32.9813714 36.6932173,31.8406774 L41.3482155,25.6276511 Z" id="Rectangle-12" fill="#C0D984" mask="url(#mask-27)"></path>
                    <path d="M30.9436822,40.8291608 C31.7972645,39.6843347 33.2542552,38.6779735 34.1932709,38.5824404 L140.030558,29.3128115 C140.951672,29.2475836 141.070792,30.0495525 140.296527,31.1037756 L136.053772,36.8758639 C135.267212,37.9449981 133.876306,38.8748704 132.95385,38.9507081 L26.4502216,48.9330279 C25.5012877,49.0301441 25.4299239,48.1828811 26.2886839,47.0421871 L30.9436822,40.8291608 Z" id="Rectangle-12-Copy-8" fill="#F4F4F4" mask="url(#mask-27)"></path>
                    <path d="M19.9558667,55.5708677 C20.809449,54.4260416 22.2664397,53.4196803 23.2054554,53.3241472 L129.042743,44.0545184 C129.963856,43.9892904 130.082976,44.7912594 129.308712,45.8454824 L125.065956,51.6175707 C124.279397,52.6867049 122.88849,53.6165772 121.966035,53.6924149 L15.4624061,63.6747348 C14.5134722,63.771851 14.4421085,62.924588 15.3008684,61.783894 L19.9558667,55.5708677 Z" id="Rectangle-12-Copy-3" fill="#F4F4F4" mask="url(#mask-27)"></path>
                    <polygon id="Rectangle-10" fill="#97C133" mask="url(#mask-27)" points="67.0169377 -31.829 74.2729581 -34.3560541 -37.7456885 130.86847 -42.3365272 132.748033"></polygon>
                </g>
                <g id="Group-33-Copy-18" transform="translate(1048.156554, 200.438969) rotate(30.000000) translate(-1048.156554, -200.438969) translate(942.183331, 164.013552)">
                    <mask id="mask-30" fill="white">
                        <use xlink:href="#path-29"></use>
                    </mask>
                    <g id="Rectangle-19">
                        <use fill="black" fill-opacity="1" filter="url(#filter-31)" xlink:href="#path-29"></use>
                        <use fill="#FFFFFF" fill-rule="evenodd" xlink:href="#path-29"></use>
                        <path stroke="#D6D6D6" stroke-width="0.720906282" d="M36.730867,18.7616478 C37.6379171,17.4753564 39.3885971,16.3153379 40.5881321,16.1877764 L210.472278,0.588433498 C211.391367,0.518873068 211.589318,1.1462902 210.842254,2.25761537 L174.750685,54.8236631 C173.860228,56.112891 172.139555,57.2563724 170.962541,57.3612837 L1.6767986,72.4498113 C0.733664961,72.5324135 0.510388202,71.9254725 1.21589995,70.8387312 L36.730867,18.7616478 Z"></path>
                    </g>
                    <path d="M41.3482155,25.6276511 C42.2017978,24.482825 43.6587886,23.4764638 44.5978042,23.3809307 L150.435092,14.1113018 C151.356205,14.0460739 151.475325,14.8480428 150.701061,15.9022659 L146.458305,21.6743542 C145.671746,22.7434884 144.280839,23.6733607 143.358384,23.7491984 L36.854755,33.7315182 C35.905821,33.8286344 35.8344573,32.9813714 36.6932173,31.8406774 L41.3482155,25.6276511 Z" id="Rectangle-12" fill="#C0D984" mask="url(#mask-30)"></path>
                    <path d="M30.9436822,40.8291608 C31.7972645,39.6843347 33.2542552,38.6779735 34.1932709,38.5824404 L140.030558,29.3128115 C140.951672,29.2475836 141.070792,30.0495525 140.296527,31.1037756 L136.053772,36.8758639 C135.267212,37.9449981 133.876306,38.8748704 132.95385,38.9507081 L26.4502216,48.9330279 C25.5012877,49.0301441 25.4299239,48.1828811 26.2886839,47.0421871 L30.9436822,40.8291608 Z" id="Rectangle-12-Copy-8" fill="#F4F4F4" mask="url(#mask-30)"></path>
                    <path d="M19.9558667,55.5708677 C20.809449,54.4260416 22.2664397,53.4196803 23.2054554,53.3241472 L129.042743,44.0545184 C129.963856,43.9892904 130.082976,44.7912594 129.308712,45.8454824 L125.065956,51.6175707 C124.279397,52.6867049 122.88849,53.6165772 121.966035,53.6924149 L15.4624061,63.6747348 C14.5134722,63.771851 14.4421085,62.924588 15.3008684,61.783894 L19.9558667,55.5708677 Z" id="Rectangle-12-Copy-3" fill="#F4F4F4" mask="url(#mask-30)"></path>
                    <polygon id="Rectangle-10" fill="#97C133" mask="url(#mask-30)" points="67.0169377 -31.829 74.2729581 -34.3560541 -37.7456885 130.86847 -42.3365272 132.748033"></polygon>
                </g>
                <g id="Group-33-Copy-17" transform="translate(966.694144, 239.388920) rotate(30.000000) translate(-966.694144, -239.388920) translate(860.720921, 202.963503)">
                    <mask id="mask-33" fill="white">
                        <use xlink:href="#path-32"></use>
                    </mask>
                    <g id="Rectangle-19">
                        <use fill="black" fill-opacity="1" filter="url(#filter-34)" xlink:href="#path-32"></use>
                        <use fill="#FFFFFF" fill-rule="evenodd" xlink:href="#path-32"></use>
                        <path stroke="#D6D6D6" stroke-width="0.720906282" d="M36.730867,18.7616478 C37.6379171,17.4753564 39.3885971,16.3153379 40.5881321,16.1877764 L210.472278,0.588433498 C211.391367,0.518873068 211.589318,1.1462902 210.842254,2.25761537 L174.750685,54.8236631 C173.860228,56.112891 172.139555,57.2563724 170.962541,57.3612837 L1.6767986,72.4498113 C0.733664961,72.5324135 0.510388202,71.9254725 1.21589995,70.8387312 L36.730867,18.7616478 Z"></path>
                    </g>
                    <path d="M41.3482155,25.6276511 C42.2017978,24.482825 43.6587886,23.4764638 44.5978042,23.3809307 L150.435092,14.1113018 C151.356205,14.0460739 151.475325,14.8480428 150.701061,15.9022659 L146.458305,21.6743542 C145.671746,22.7434884 144.280839,23.6733607 143.358384,23.7491984 L36.854755,33.7315182 C35.905821,33.8286344 35.8344573,32.9813714 36.6932173,31.8406774 L41.3482155,25.6276511 Z" id="Rectangle-12" fill="#C0D984" mask="url(#mask-33)"></path>
                    <path d="M30.9436822,40.8291608 C31.7972645,39.6843347 33.2542552,38.6779735 34.1932709,38.5824404 L140.030558,29.3128115 C140.951672,29.2475836 141.070792,30.0495525 140.296527,31.1037756 L136.053772,36.8758639 C135.267212,37.9449981 133.876306,38.8748704 132.95385,38.9507081 L26.4502216,48.9330279 C25.5012877,49.0301441 25.4299239,48.1828811 26.2886839,47.0421871 L30.9436822,40.8291608 Z" id="Rectangle-12-Copy-8" fill="#F4F4F4" mask="url(#mask-33)"></path>
                    <path d="M19.9558667,55.5708677 C20.809449,54.4260416 22.2664397,53.4196803 23.2054554,53.3241472 L129.042743,44.0545184 C129.963856,43.9892904 130.082976,44.7912594 129.308712,45.8454824 L125.065956,51.6175707 C124.279397,52.6867049 122.88849,53.6165772 121.966035,53.6924149 L15.4624061,63.6747348 C14.5134722,63.771851 14.4421085,62.924588 15.3008684,61.783894 L19.9558667,55.5708677 Z" id="Rectangle-12-Copy-3" fill="#F4F4F4" mask="url(#mask-33)"></path>
                    <polygon id="Rectangle-10" fill="#97C133" mask="url(#mask-33)" points="67.0169377 -31.829 74.2729581 -34.3560541 -37.7456885 130.86847 -42.3365272 132.748033"></polygon>
                </g>
            </g>
        </g>
    </g>
</svg>