<?xml version="1.0" encoding="UTF-8"?>
<svg width="496px" height="301px" viewBox="0 0 496 301" version="1.1" xmlns="http://www.w3.org/2000/svg" xmlns:xlink="http://www.w3.org/1999/xlink">
    <!-- Generator: Sketch 43.2 (39069) - http://www.bohemiancoding.com/sketch -->
    <title>Group 46</title>
    <desc>Created with Sketch.</desc>
    <defs></defs>
    <g id="Product" stroke="none" stroke-width="1" fill="none" fill-rule="evenodd">
        <g id="Desktop-HD" transform="translate(-730.000000, -5523.000000)">
            <g id="Group-46" transform="translate(730.000000, 5523.000000)">
                <g id="Page-1-Copy-3" transform="translate(151.000000, 0.000000)">
                    <polygon id="Path-5" fill="#FEF7EB" points="188.450195 155.193359 99.8066406 189.754883 9.765625 155.077148 9.99609375 86.1210938 0.897460938 82.6884766 1.52050781 52.9101563 99.4609375 14.7333984 195.823242 52.7988281 196.537109 82.9824219 188.260742 86.2636719"></polygon>
                    <polygon id="Path-4" fill="#FDCF8C" points="1.38574219 53.4609375 99.2304687 85.4462891 99.140625 189.175781 9.07714844 155.389648 9.73242188 86.2353516 0.577148438 83.0195312"></polygon>
                    <path d="M98.5,85.5 L195.5,53.5" id="Line" stroke="#FDCF8C" stroke-linecap="square"></path>
                    <polyline id="Stroke-1" stroke="#FDCF8C" points="81.8523404 21.7249739 98.873617 15.056713 120.150213 23.5784522"></polyline>
                    <polyline id="Stroke-2" stroke="#FDCF8C" points="81.8510638 66.1867217 64.8297872 74.7084609 64.8297872 176.96933"></polyline>
                    <polyline id="Stroke-3" stroke="#FDCF8C" points="73.34 50.2084609 43.552766 66.1867217 43.552766 168.447591"></polyline>
                    <polyline id="Stroke-4" stroke="#FDCF8C" points="128.648936 54.4642174 149.938298 66.1858696 149.938298 168.446739"></polyline>
                    <g id="Group-21" transform="translate(0.000000, 0.311496)" stroke="#FDCF8C">
                        <polyline id="Stroke-5" points="111.638298 65.8752261 128.659574 74.2489902 128.67234 178.925229"></polyline>
                        <polyline id="Stroke-7" points="188.234043 87.1795739 188.234043 155.353487 98.8723404 189.440443 9.5106383 155.353487 9.5106383 87.1795739"></polyline>
                        <path d="M120.028936,55.2230522 C119.845957,63.459313 110.203404,70.1360957 98.4842553,70.1360957 C86.7693617,70.1360957 77.4161702,63.459313 77.5991489,55.2230522 C77.7821277,46.9867913 87.4246809,40.3100087 99.1438298,40.3100087 C110.858723,40.3100087 120.211915,46.9867913 120.028936,55.2230522 Z" id="Stroke-9"></path>
                        <path d="M90.3617021,40.3100087 C88.693617,32.461487 69.3617021,9.45705217 60.5744681,1.96218261 C52.5489362,-4.88077391 22.7617021,24.945313 30.787234,31.7882696 C42.5191489,41.7970522 70.812766,51.895313 81.8510638,53.0926174" id="Stroke-11" stroke-linejoin="round"></path>
                        <path d="M110.279149,44.5708783 C111.947234,36.7223565 131.279149,13.7179217 140.066383,6.22305217 C148.091915,-0.619904348 177.879149,29.2061826 169.853617,36.0491391 C158.117447,46.0579217 129.828085,56.1561826 118.789787,57.353487" id="Stroke-13" stroke-linejoin="round"></path>
                        <polyline id="Stroke-15" points="43.5642553 99.5961739 0.998297872 82.9191304 0.998297872 53.0930435 39.2961702 38.0862609"></polyline>
                    </g>
                    <path d="M196.5,83.5 L196.5,52.5" id="Line" stroke="#FDCF8C" stroke-linecap="square"></path>
                    <path d="M196.5,52.5 L98.5,15.5" id="Line" stroke="#FDCF8C" stroke-linecap="square"></path>
                    <path d="M196.5,83.5 L97.5,118.5" id="Line" stroke="#FDCF8C" stroke-linecap="square"></path>
                    <polygon id="Path-6" stroke="#FDCF8C" fill="#FDCF8C" points="170.861328 34.5732907 165.40625 40.1995417 147.280273 49.1667783 127.450195 55.6916189 131.258789 55.813395 150.295898 67.3526601 149.813477 170.707157 129.025391 179.216751 128.669922 74.2713088 113.30957 67.2632922 106.427734 69.5328446 100.489258 70.9214847 92.6542969 70.3990261 85.4179688 67.3349829 82.5009766 65.8216206 65.71875 74.651368 64.0302734 176.903988 42.7197266 168.997559 42.7197266 67.2544536 71.3085938 51.2909851 57.4169922 46.6949204 41.2666016 38.8256326 30.7597656 31.5200503 29.9404297 27.0074611 32.2841797 20.3755753 45.2265625 7.11082184 54.3134766 1.68589415 60.9248047 0.926757812 81.3798828 24.9765504 90.0537109 39.7232402 90.8125 41.8268236 102.842773 40.3213178 111.371094 42.9719116 116.067383 34.1519848 127.856445 19.3679765 140.408203 6.07179695 145.148438 5.00527423 155.248047 10.7218753 166.417969 23.4514033 171.625977 30.7972503"></polygon>
                    <path d="M25.6305106,154.510998 L23.7730448,153.859148 C23.5584033,153.783823 23.3862964,153.555929 23.2567152,153.175472 C23.1271288,152.795033 23.0312365,152.336251 22.9690363,151.79911 L21.4080849,137.884023 L13.438659,135.113554 L11.6868486,147.844166 C11.6259001,148.285452 11.5240271,148.660961 11.3812288,148.970697 C11.2384364,149.280414 11.0638519,149.399048 10.8574658,149.32662 L9,148.674771 L16.4867822,96 L18.9341937,96.8294481 L25.6305106,154.510998 Z M14.1455019,129.959009 L20.7784683,132.257072 L18.1503958,108.839642 C17.9782734,107.391155 17.8127483,105.597644 17.653806,103.459088 C17.5552055,104.48055 17.4592839,105.419239 17.3660366,106.27519 C17.2727983,107.131111 17.1824182,107.878607 17.0948917,108.517708 L14.1455019,129.959009 Z M29.3604424,149.511349 L37.0408101,152.196121 L36.9885702,158.496937 L26.9087223,154.959567 L27.3351786,99.676612 L29.7453199,100.493429 L29.3604424,149.511349 Z M50.1100474,107.395205 L50.0548807,113.517945 L41.5106329,110.610931 L41.3536451,129.025742 L48.2635517,131.404267 L48.21104,137.292619 L41.3035145,134.906102 L41.1422393,153.823838 L49.6648732,156.803394 L49.6097065,162.926135 L38.6754243,159.088913 L39.1401776,103.677424 L50.1100474,107.395205 Z M54.9548261,141.529414 L54.7390639,164.726205 L52.3491246,163.887492 L52.8583814,108.326638 L57.8898619,110.031849 C59.0162566,110.413593 59.9860083,111.099311 60.799095,112.089194 C61.6121137,113.079306 62.2791283,114.338367 62.8001468,115.866455 C63.3210814,117.394824 63.7005292,119.15471 63.9385217,121.146099 C64.1764573,123.137679 64.2838288,125.312273 64.2606823,127.669803 C64.2413511,129.638729 64.1240171,131.444036 63.9087064,133.085679 C63.6934354,134.727189 63.3910088,136.163101 63.0014329,137.393407 C62.6119167,138.623513 62.1417284,139.624175 61.5908546,140.395423 C61.0400414,141.166468 60.4191975,141.679308 59.7282884,141.934013 C60.0206977,142.580493 60.2776557,143.461517 60.4991634,144.577137 L65.4628333,168.48955 L63.3329391,167.742096 C62.8954006,167.588549 62.5786172,166.944613 62.3825603,165.810335 L57.9638625,144.322597 C57.8292213,143.652933 57.680521,143.153672 57.5177608,142.824788 C57.3549954,142.495921 57.1082812,142.274308 56.7776149,142.159928 L54.9548261,141.529414 Z M55.0056998,136.059936 L57.5236894,136.927945 C58.22658,137.170248 58.847226,137.118062 59.3856707,136.771303 C59.9241485,136.424433 60.3779288,135.827516 60.747031,134.980515 C61.116174,134.133376 61.3982461,133.067837 61.5932466,131.783897 C61.7882757,130.49986 61.8937,129.042135 61.9095013,127.410748 C61.9416055,124.096184 61.6160931,121.478065 60.9328516,119.556657 C60.2494727,117.63571 59.2164136,116.440243 57.8337463,115.969876 L55.2008959,115.07421 L55.0056998,136.059936 Z M79.124228,117.228352 L79.056609,123.580784 L73.3066934,121.624247 L72.7963835,171.063149 L70.3940611,170.22009 L70.8974415,120.804445 L65.1226882,118.839456 L65.1851635,112.504287 L79.124228,117.228352 Z M89.7127765,129.59814 C89.6338848,129.963279 89.5519555,130.229361 89.4669851,130.396397 C89.3820166,130.563427 89.2733143,130.624356 89.1408735,130.579189 C89.0001551,130.531199 88.8391527,130.254185 88.6578542,129.748163 C88.4765462,129.242172 88.2460706,128.673751 87.9664144,128.042902 C87.6867406,127.412112 87.3485946,126.807207 86.9519642,126.228176 C86.5553132,125.649215 86.0713412,125.262612 85.5000491,125.068303 C84.9618755,124.885258 84.4833144,124.950911 84.064368,125.265209 C83.6454434,125.579433 83.2930778,126.079348 83.0072629,126.764962 C82.7214732,127.450492 82.5025227,128.295706 82.350399,129.300652 C82.1982925,130.30554 82.1156366,131.418882 82.1024159,132.640756 C82.0855384,134.200595 82.1935847,135.535754 82.4265361,136.646345 C82.6594583,137.757034 82.9725616,138.745271 83.3658517,139.611098 C83.7591079,140.477039 84.2071559,141.26403 84.710011,141.972088 C85.2128346,142.680252 85.7278101,143.412291 86.2549499,144.168237 C86.7820542,144.924302 87.2959147,145.747768 87.7965416,146.638677 C88.2971263,147.529729 88.7417999,148.5911 89.1305696,149.822844 C89.5192883,151.054759 89.8266262,152.507034 90.0525972,154.179698 C90.2785231,155.852513 90.378377,157.847752 90.3521957,160.165361 C90.3245435,162.613173 90.166404,164.865179 89.8778219,166.921282 C89.5893059,168.977163 89.1821984,170.710324 88.656508,172.120745 C88.1309115,173.530851 87.4936046,174.561748 86.7445567,175.213504 C85.9955871,175.864997 85.150601,176.025449 84.2095145,175.695062 C83.0620494,175.292222 82.022842,174.26842 81.091753,172.623988 C80.1605194,170.980042 79.372394,168.923789 78.7273312,166.455241 L79.4593911,163.111698 C79.528531,162.848897 79.6116415,162.636608 79.708725,162.474823 C79.8058107,162.313031 79.9121788,162.252286 80.0278309,162.292591 C80.201309,162.353049 80.3964257,162.714529 80.6131754,163.377081 C80.8299099,164.039684 81.1017487,164.780269 81.4286907,165.598888 C81.7556054,166.417598 82.1533213,167.202419 82.6218465,167.953385 C83.0903393,168.704461 83.6672788,169.199883 84.3527064,169.439587 C84.9225197,169.638859 85.4331148,169.569318 85.8845262,169.230898 C86.3359634,168.892391 86.7215222,168.328329 87.0412192,167.538676 C87.3609485,166.748915 87.6103866,165.758174 87.7895344,164.566443 C87.9687063,163.374631 88.0668772,162.010857 88.084032,160.47514 C88.1029314,158.783249 87.9965138,157.354939 87.764753,156.190245 C87.5329616,155.025654 87.2227296,154.010378 86.8340454,153.144395 C86.4453277,152.278524 85.9995585,151.504062 85.4967272,150.820977 C84.993866,150.137993 84.4787234,149.437831 83.9512818,148.720478 C83.4238071,148.003236 82.9096288,147.205889 82.4087251,146.328436 C81.9077798,145.451121 81.4648636,144.38524 81.0799555,143.130784 C80.6949958,141.876502 80.3894961,140.369339 80.1634501,138.609241 C79.9373567,136.849302 79.8374946,134.735089 79.8638966,132.26642 C79.8850182,130.291485 80.0275301,128.423203 80.2914757,126.661387 C80.5554736,124.899396 80.9269902,123.382485 81.406055,122.110545 C81.8851968,120.838347 82.4710416,119.889107 83.1636002,119.262818 C83.8562269,118.636301 84.6456738,118.473077 85.5319135,118.773313 C86.5258271,119.110025 87.4272671,119.91171 88.2361899,121.178627 C89.0450186,122.445861 89.7452559,124.120843 90.3368933,126.203722 L89.7127765,129.59814 Z" id="ALERTS-Copy" fill-opacity="0.400000006" fill="#FFFFFF"></path>
                </g>
                <g id="Page-1-Copy-2" transform="translate(299.000000, 58.000000)">
                    <polygon id="Path-5" fill="#E5F8FC" points="188.450195 155.193359 99.8066406 189.754883 9.765625 155.077148 9.99609375 86.1210938 0.897460938 82.6884766 1.52050781 52.9101563 99.4609375 14.7333984 195.823242 52.7988281 196.537109 82.9824219 188.260742 86.2636719"></polygon>
                    <polygon id="Path-4" fill="#66D6EE" points="1.38574219 53.4609375 99.2304687 85.4462891 99.140625 189.175781 9.07714844 155.389648 9.73242188 86.2353516 0.577148438 83.0195312"></polygon>
                    <path d="M98.5,85.5 L195.5,53.5" id="Line" stroke="#66D6EE" stroke-linecap="square"></path>
                    <polyline id="Stroke-1" stroke="#66D6EE" points="81.8523404 21.7249739 98.873617 15.056713 120.150213 23.5784522"></polyline>
                    <polyline id="Stroke-2" stroke="#66D6EE" points="81.8510638 66.1867217 64.8297872 74.7084609 64.8297872 176.96933"></polyline>
                    <polyline id="Stroke-3" stroke="#00BCE4" points="73.34 50.2084609 43.552766 66.1867217 43.552766 168.447591"></polyline>
                    <polyline id="Stroke-4" stroke="#00BCE4" points="128.648936 54.4642174 149.938298 66.1858696 149.938298 168.446739"></polyline>
                    <g id="Group-21" transform="translate(0.000000, 0.311496)">
                        <polyline id="Stroke-5" stroke="#00BCE4" points="111.638298 65.8752261 128.659574 74.2489902 128.67234 178.925229"></polyline>
                        <polyline id="Stroke-7" stroke="#66D6EE" points="188.234043 87.1795739 188.234043 155.353487 98.8723404 189.440443 9.5106383 155.353487 9.5106383 87.1795739"></polyline>
                        <path d="M120.028936,55.2230522 C119.845957,63.459313 110.203404,70.1360957 98.4842553,70.1360957 C86.7693617,70.1360957 77.4161702,63.459313 77.5991489,55.2230522 C77.7821277,46.9867913 87.4246809,40.3100087 99.1438298,40.3100087 C110.858723,40.3100087 120.211915,46.9867913 120.028936,55.2230522 Z" id="Stroke-9" stroke="#00BCE4"></path>
                        <path d="M90.3617021,40.3100087 C88.693617,32.461487 69.3617021,9.45705217 60.5744681,1.96218261 C52.5489362,-4.88077391 22.7617021,24.945313 30.787234,31.7882696 C42.5191489,41.7970522 70.812766,51.895313 81.8510638,53.0926174" id="Stroke-11" stroke="#00BCE4" stroke-linejoin="round"></path>
                        <path d="M110.279149,44.5708783 C111.947234,36.7223565 131.279149,13.7179217 140.066383,6.22305217 C148.091915,-0.619904348 177.879149,29.2061826 169.853617,36.0491391 C158.117447,46.0579217 129.828085,56.1561826 118.789787,57.353487" id="Stroke-13" stroke="#00BCE4" stroke-linejoin="round"></path>
                        <polyline id="Stroke-15" stroke="#66D6EE" points="43.5642553 99.5961739 0.998297872 82.9191304 0.998297872 53.0930435 39.2961702 38.0862609"></polyline>
                    </g>
                    <path d="M196.5,83.5 L196.5,52.5" id="Line" stroke="#66D6EE" stroke-linecap="square"></path>
                    <path d="M196.5,52.5 L98.5,15.5" id="Line" stroke="#66D6EE" stroke-linecap="square"></path>
                    <path d="M196.5,83.5 L97.5,118.5" id="Line" stroke="#66D6EE" stroke-linecap="square"></path>
                    <polygon id="Path-6" stroke="#66D6EE" fill="#66D6EE" points="170.861328 34.5732907 165.40625 40.1995417 147.280273 49.1667783 127.450195 55.6916189 131.258789 55.813395 150.295898 67.3526601 149.813477 170.707157 129.025391 179.216751 128.669922 74.2713088 113.30957 67.2632922 106.427734 69.5328446 100.489258 70.9214847 92.6542969 70.3990261 85.4179688 67.3349829 82.5009766 65.8216206 65.71875 74.651368 64.0302734 176.903988 42.7197266 168.997559 42.7197266 67.2544536 71.3085938 51.2909851 57.4169922 46.6949204 41.2666016 38.8256326 30.7597656 31.5200503 29.9404297 27.0074611 32.2841797 20.3755753 45.2265625 7.11082184 54.3134766 1.68589415 60.9248047 0.926757812 81.3798828 24.9765504 90.0537109 39.7232402 90.8125 41.8268236 102.842773 40.3213178 111.371094 42.9719116 116.067383 34.1519848 127.856445 19.3679765 140.408203 6.07179695 145.148438 5.00527423 155.248047 10.7218753 166.417969 23.4514033 171.625977 30.7972503"></polygon>
                    <path d="M27.7828573,156.276428 L25.9253915,155.624579 C25.7107499,155.549253 25.5386431,155.321359 25.4090619,154.940903 C25.2794755,154.560464 25.1835832,154.101682 25.121383,153.564541 L23.5604316,139.649454 L15.5910057,136.878985 L13.8391953,149.609597 C13.7782468,150.050882 13.6763738,150.426391 13.5335754,150.736128 C13.390783,151.045844 13.2161986,151.164479 13.0098125,151.092051 L11.1523467,150.440201 L18.6391289,97.7654307 L21.0865403,98.5948788 L27.7828573,156.276428 Z M16.2978486,131.724439 L22.9308149,134.022503 L20.3027425,110.605072 C20.1306201,109.156585 19.965095,107.363075 19.8061526,105.224519 C19.7075522,106.245981 19.6116305,107.18467 19.5183832,108.040621 C19.425145,108.896542 19.3347649,109.644038 19.2472383,110.283138 L16.2978486,131.724439 Z M31.5127891,151.27678 L39.1931568,153.961552 L39.1409169,160.262368 L29.061069,156.724997 L29.4875253,101.442043 L31.8976666,102.25886 L31.5127891,151.27678 Z M52.2623941,109.160635 L52.2072274,115.283376 L43.6629796,112.376362 L43.5059918,130.791173 L50.4158984,133.169698 L50.3633866,139.05805 L43.4558612,136.671533 L43.294586,155.589269 L51.8172198,158.568825 L51.7620531,164.691565 L40.827771,160.854344 L41.2925243,105.442855 L52.2623941,109.160635 Z M57.1071728,143.294844 L56.8914106,166.491636 L54.5014713,165.652923 L55.0107281,110.092069 L60.0422086,111.797279 C61.1686033,112.179024 62.138355,112.864742 62.9514417,113.854625 C63.7644604,114.844737 64.4314749,116.103798 64.9524934,117.631885 C65.4734281,119.160254 65.8528759,120.920141 66.0908684,122.911529 C66.328804,124.903109 66.4361755,127.077703 66.413029,129.435233 C66.3936978,131.404159 66.2763638,133.209467 66.0610531,134.85111 C65.845782,136.49262 65.5433555,137.928532 65.1537796,139.158838 C64.7642634,140.388943 64.2940751,141.389606 63.7432013,142.160854 C63.1923881,142.931898 62.5715442,143.444739 61.8806351,143.699443 C62.1730444,144.345923 62.4300024,145.226948 62.65151,146.342568 L67.61518,170.254981 L65.4852858,169.507527 C65.0477472,169.353979 64.7309639,168.710044 64.534907,167.575765 L60.1162092,146.088027 C59.981568,145.418363 59.8328677,144.919103 59.6701075,144.590219 C59.5073421,144.261352 59.2606279,144.039739 58.9299616,143.925359 L57.1071728,143.294844 Z M57.1580464,137.825367 L59.6760361,138.693376 C60.3789267,138.935678 60.9995727,138.883493 61.5380174,138.536734 C62.0764952,138.189864 62.5302755,137.592947 62.8993777,136.745946 C63.2685207,135.898807 63.5505928,134.833268 63.7455933,133.549328 C63.9406224,132.265291 64.0460467,130.807565 64.061848,129.176178 C64.0939521,125.861615 63.7684398,123.243495 63.0851983,121.322088 C62.4018194,119.401141 61.3687603,118.205674 59.986093,117.735306 L57.3532426,116.83964 L57.1580464,137.825367 Z M81.2765747,118.993783 L81.2089556,125.346215 L75.45904,123.389677 L74.9487302,172.82858 L72.5464078,171.985521 L73.0497881,122.569875 L67.2750349,120.604886 L67.3375102,114.269718 L81.2765747,118.993783 Z M91.8651231,131.363571 C91.7862314,131.72871 91.7043022,131.994791 91.6193318,132.161828 C91.5343633,132.328858 91.425661,132.389786 91.2932202,132.344619 C91.1525018,132.29663 90.9914994,132.019616 90.8102009,131.513593 C90.6288929,131.007603 90.3984173,130.439182 90.1187611,129.808332 C89.8390873,129.177542 89.5009413,128.572638 89.1043109,127.993607 C88.7076599,127.414646 88.2236879,127.028042 87.6523958,126.833733 C87.1142221,126.650689 86.6356611,126.716342 86.2167147,127.030639 C85.7977901,127.344864 85.4454245,127.844779 85.1596096,128.530393 C84.8738199,129.215922 84.6548694,130.061137 84.5027456,131.066083 C84.3506391,132.07097 84.2679832,133.184313 84.2547626,134.406187 C84.2378851,135.966026 84.3459314,137.301184 84.5788828,138.411776 C84.811805,139.522465 85.1249083,140.510702 85.5181984,141.376529 C85.9114545,142.24247 86.3595025,143.029461 86.8623577,143.737519 C87.3651813,144.445683 87.8801568,145.177722 88.4072966,145.933668 C88.9344009,146.689733 89.4482614,147.513199 89.9488883,148.404108 C90.4494729,149.295159 90.8941466,150.35653 91.2829162,151.588274 C91.6716349,152.82019 91.9789729,154.272465 92.2049438,155.945129 C92.4308698,157.617944 92.5307237,159.613183 92.5045424,161.930792 C92.4768902,164.378604 92.3187507,166.63061 92.0301686,168.686713 C91.7416526,170.742594 91.3345451,172.475754 90.8088547,173.886175 C90.2832582,175.296282 89.6459513,176.327178 88.8969034,176.978934 C88.1479337,177.630428 87.3029477,177.79088 86.3618612,177.460493 C85.214396,177.057653 84.1751887,176.03385 83.2440997,174.389419 C82.312866,172.745473 81.5247407,170.689219 80.8796778,168.220672 L81.6117378,164.877129 C81.6808777,164.614328 81.7639882,164.402038 81.8610717,164.240254 C81.9581574,164.078462 82.0645255,164.017717 82.1801775,164.058022 C82.3536557,164.11848 82.5487724,164.47996 82.7655221,165.142512 C82.9822566,165.805115 83.2540954,166.5457 83.5810374,167.364318 C83.9079521,168.183029 84.3056679,168.96785 84.7741931,169.718816 C85.242686,170.469891 85.8196255,170.965314 86.505053,171.205018 C87.0748663,171.40429 87.5854614,171.334749 88.0368729,170.996329 C88.4883101,170.657822 88.8738688,170.09376 89.1935659,169.304107 C89.5132952,168.514346 89.7627332,167.523604 89.9418811,166.331873 C90.121053,165.140062 90.2192238,163.776288 90.2363787,162.240571 C90.2552781,160.548679 90.1488604,159.12037 89.9170997,157.955676 C89.6853083,156.791085 89.3750763,155.775809 88.9863921,154.909826 C88.5976744,154.043955 88.1519052,153.269493 87.6490739,152.586408 C87.1462127,151.903424 86.6310701,151.203262 86.1036285,150.485909 C85.5761538,149.768666 85.0619755,148.97132 84.5610718,148.093866 C84.0601265,147.216552 83.6172103,146.15067 83.2323022,144.896215 C82.8473425,143.641933 82.5418427,142.13477 82.3157968,140.374671 C82.0897033,138.614732 81.9898413,136.50052 82.0162433,134.031851 C82.0373649,132.056915 82.1798767,130.188634 82.4438224,128.426818 C82.7078203,126.664827 83.0793369,125.147915 83.5584017,123.875976 C84.0375435,122.603778 84.6233883,121.654538 85.3159469,121.028249 C86.0085736,120.401732 86.7980205,120.238508 87.6842602,120.538743 C88.6781738,120.875456 89.5796138,121.677141 90.3885366,122.944058 C91.1973653,124.211291 91.8976025,125.886273 92.48924,127.969153 L91.8651231,131.363571 Z" id="ALERTS" fill-opacity="0.280000001" fill="#FFFFFF"></path>
                </g>
                <g id="Page-1-Copy-6" transform="translate(0.000000, 58.000000)">
                    <polygon id="Path-5" fill="#E5F8FC" points="188.450195 155.193359 99.8066406 189.754883 9.765625 155.077148 9.99609375 86.1210938 0.897460938 82.6884766 1.52050781 52.9101563 99.4609375 14.7333984 195.823242 52.7988281 196.537109 82.9824219 188.260742 86.2636719"></polygon>
                    <polygon id="Path-4" fill="#66D6EE" points="1.38574219 53.4609375 99.2304687 85.4462891 99.140625 189.175781 9.07714844 155.389648 9.73242188 86.2353516 0.577148438 83.0195312"></polygon>
                    <path d="M98.5,85.5 L195.5,53.5" id="Line" stroke="#66D6EE" stroke-linecap="square"></path>
                    <polyline id="Stroke-1" stroke="#66D6EE" points="81.8523404 21.7249739 98.873617 15.056713 120.150213 23.5784522"></polyline>
                    <polyline id="Stroke-2" stroke="#66D6EE" points="81.8510638 66.1867217 64.8297872 74.7084609 64.8297872 176.96933"></polyline>
                    <polyline id="Stroke-3" stroke="#00BCE4" points="73.34 50.2084609 43.552766 66.1867217 43.552766 168.447591"></polyline>
                    <polyline id="Stroke-4" stroke="#00BCE4" points="128.648936 54.4642174 149.938298 66.1858696 149.938298 168.446739"></polyline>
                    <g id="Group-21" transform="translate(0.000000, 0.311496)">
                        <polyline id="Stroke-5" stroke="#00BCE4" points="111.638298 65.8752261 128.659574 74.2489902 128.67234 178.925229"></polyline>
                        <polyline id="Stroke-7" stroke="#66D6EE" points="188.234043 87.1795739 188.234043 155.353487 98.8723404 189.440443 9.5106383 155.353487 9.5106383 87.1795739"></polyline>
                        <path d="M120.028936,55.2230522 C119.845957,63.459313 110.203404,70.1360957 98.4842553,70.1360957 C86.7693617,70.1360957 77.4161702,63.459313 77.5991489,55.2230522 C77.7821277,46.9867913 87.4246809,40.3100087 99.1438298,40.3100087 C110.858723,40.3100087 120.211915,46.9867913 120.028936,55.2230522 Z" id="Stroke-9" stroke="#00BCE4"></path>
                        <path d="M90.3617021,40.3100087 C88.693617,32.461487 69.3617021,9.45705217 60.5744681,1.96218261 C52.5489362,-4.88077391 22.7617021,24.945313 30.787234,31.7882696 C42.5191489,41.7970522 70.812766,51.895313 81.8510638,53.0926174" id="Stroke-11" stroke="#00BCE4" stroke-linejoin="round"></path>
                        <path d="M110.279149,44.5708783 C111.947234,36.7223565 131.279149,13.7179217 140.066383,6.22305217 C148.091915,-0.619904348 177.879149,29.2061826 169.853617,36.0491391 C158.117447,46.0579217 129.828085,56.1561826 118.789787,57.353487" id="Stroke-13" stroke="#00BCE4" stroke-linejoin="round"></path>
                        <polyline id="Stroke-15" stroke="#66D6EE" points="43.5642553 99.5961739 0.998297872 82.9191304 0.998297872 53.0930435 39.2961702 38.0862609"></polyline>
                    </g>
                    <path d="M196.5,83.5 L196.5,52.5" id="Line" stroke="#66D6EE" stroke-linecap="square"></path>
                    <path d="M196.5,52.5 L98.5,15.5" id="Line" stroke="#66D6EE" stroke-linecap="square"></path>
                    <path d="M196.5,83.5 L97.5,118.5" id="Line" stroke="#66D6EE" stroke-linecap="square"></path>
                    <polygon id="Path-6" stroke="#66D6EE" fill="#66D6EE" points="170.861328 34.5732907 165.40625 40.1995417 147.280273 49.1667783 127.450195 55.6916189 131.258789 55.813395 150.295898 67.3526601 149.813477 170.707157 129.025391 179.216751 128.669922 74.2713088 113.30957 67.2632922 106.427734 69.5328446 100.489258 70.9214847 92.6542969 70.3990261 85.4179688 67.3349829 82.5009766 65.8216206 65.71875 74.651368 64.0302734 176.903988 42.7197266 168.997559 42.7197266 67.2544536 71.3085938 51.2909851 57.4169922 46.6949204 41.2666016 38.8256326 30.7597656 31.5200503 29.9404297 27.0074611 32.2841797 20.3755753 45.2265625 7.11082184 54.3134766 1.68589415 60.9248047 0.926757812 81.3798828 24.9765504 90.0537109 39.7232402 90.8125 41.8268236 102.842773 40.3213178 111.371094 42.9719116 116.067383 34.1519848 127.856445 19.3679765 140.408203 6.07179695 145.148438 5.00527423 155.248047 10.7218753 166.417969 23.4514033 171.625977 30.7972503"></polygon>
                    <path d="M27.7828573,156.276428 L25.9253915,155.624579 C25.7107499,155.549253 25.5386431,155.321359 25.4090619,154.940903 C25.2794755,154.560464 25.1835832,154.101682 25.121383,153.564541 L23.5604316,139.649454 L15.5910057,136.878985 L13.8391953,149.609597 C13.7782468,150.050882 13.6763738,150.426391 13.5335754,150.736128 C13.390783,151.045844 13.2161986,151.164479 13.0098125,151.092051 L11.1523467,150.440201 L18.6391289,97.7654307 L21.0865403,98.5948788 L27.7828573,156.276428 Z M16.2978486,131.724439 L22.9308149,134.022503 L20.3027425,110.605072 C20.1306201,109.156585 19.965095,107.363075 19.8061526,105.224519 C19.7075522,106.245981 19.6116305,107.18467 19.5183832,108.040621 C19.425145,108.896542 19.3347649,109.644038 19.2472383,110.283138 L16.2978486,131.724439 Z M31.5127891,151.27678 L39.1931568,153.961552 L39.1409169,160.262368 L29.061069,156.724997 L29.4875253,101.442043 L31.8976666,102.25886 L31.5127891,151.27678 Z M52.2623941,109.160635 L52.2072274,115.283376 L43.6629796,112.376362 L43.5059918,130.791173 L50.4158984,133.169698 L50.3633866,139.05805 L43.4558612,136.671533 L43.294586,155.589269 L51.8172198,158.568825 L51.7620531,164.691565 L40.827771,160.854344 L41.2925243,105.442855 L52.2623941,109.160635 Z M57.1071728,143.294844 L56.8914106,166.491636 L54.5014713,165.652923 L55.0107281,110.092069 L60.0422086,111.797279 C61.1686033,112.179024 62.138355,112.864742 62.9514417,113.854625 C63.7644604,114.844737 64.4314749,116.103798 64.9524934,117.631885 C65.4734281,119.160254 65.8528759,120.920141 66.0908684,122.911529 C66.328804,124.903109 66.4361755,127.077703 66.413029,129.435233 C66.3936978,131.404159 66.2763638,133.209467 66.0610531,134.85111 C65.845782,136.49262 65.5433555,137.928532 65.1537796,139.158838 C64.7642634,140.388943 64.2940751,141.389606 63.7432013,142.160854 C63.1923881,142.931898 62.5715442,143.444739 61.8806351,143.699443 C62.1730444,144.345923 62.4300024,145.226948 62.65151,146.342568 L67.61518,170.254981 L65.4852858,169.507527 C65.0477472,169.353979 64.7309639,168.710044 64.534907,167.575765 L60.1162092,146.088027 C59.981568,145.418363 59.8328677,144.919103 59.6701075,144.590219 C59.5073421,144.261352 59.2606279,144.039739 58.9299616,143.925359 L57.1071728,143.294844 Z M57.1580464,137.825367 L59.6760361,138.693376 C60.3789267,138.935678 60.9995727,138.883493 61.5380174,138.536734 C62.0764952,138.189864 62.5302755,137.592947 62.8993777,136.745946 C63.2685207,135.898807 63.5505928,134.833268 63.7455933,133.549328 C63.9406224,132.265291 64.0460467,130.807565 64.061848,129.176178 C64.0939521,125.861615 63.7684398,123.243495 63.0851983,121.322088 C62.4018194,119.401141 61.3687603,118.205674 59.986093,117.735306 L57.3532426,116.83964 L57.1580464,137.825367 Z M81.2765747,118.993783 L81.2089556,125.346215 L75.45904,123.389677 L74.9487302,172.82858 L72.5464078,171.985521 L73.0497881,122.569875 L67.2750349,120.604886 L67.3375102,114.269718 L81.2765747,118.993783 Z M91.8651231,131.363571 C91.7862314,131.72871 91.7043022,131.994791 91.6193318,132.161828 C91.5343633,132.328858 91.425661,132.389786 91.2932202,132.344619 C91.1525018,132.29663 90.9914994,132.019616 90.8102009,131.513593 C90.6288929,131.007603 90.3984173,130.439182 90.1187611,129.808332 C89.8390873,129.177542 89.5009413,128.572638 89.1043109,127.993607 C88.7076599,127.414646 88.2236879,127.028042 87.6523958,126.833733 C87.1142221,126.650689 86.6356611,126.716342 86.2167147,127.030639 C85.7977901,127.344864 85.4454245,127.844779 85.1596096,128.530393 C84.8738199,129.215922 84.6548694,130.061137 84.5027456,131.066083 C84.3506391,132.07097 84.2679832,133.184313 84.2547626,134.406187 C84.2378851,135.966026 84.3459314,137.301184 84.5788828,138.411776 C84.811805,139.522465 85.1249083,140.510702 85.5181984,141.376529 C85.9114545,142.24247 86.3595025,143.029461 86.8623577,143.737519 C87.3651813,144.445683 87.8801568,145.177722 88.4072966,145.933668 C88.9344009,146.689733 89.4482614,147.513199 89.9488883,148.404108 C90.4494729,149.295159 90.8941466,150.35653 91.2829162,151.588274 C91.6716349,152.82019 91.9789729,154.272465 92.2049438,155.945129 C92.4308698,157.617944 92.5307237,159.613183 92.5045424,161.930792 C92.4768902,164.378604 92.3187507,166.63061 92.0301686,168.686713 C91.7416526,170.742594 91.3345451,172.475754 90.8088547,173.886175 C90.2832582,175.296282 89.6459513,176.327178 88.8969034,176.978934 C88.1479337,177.630428 87.3029477,177.79088 86.3618612,177.460493 C85.214396,177.057653 84.1751887,176.03385 83.2440997,174.389419 C82.312866,172.745473 81.5247407,170.689219 80.8796778,168.220672 L81.6117378,164.877129 C81.6808777,164.614328 81.7639882,164.402038 81.8610717,164.240254 C81.9581574,164.078462 82.0645255,164.017717 82.1801775,164.058022 C82.3536557,164.11848 82.5487724,164.47996 82.7655221,165.142512 C82.9822566,165.805115 83.2540954,166.5457 83.5810374,167.364318 C83.9079521,168.183029 84.3056679,168.96785 84.7741931,169.718816 C85.242686,170.469891 85.8196255,170.965314 86.505053,171.205018 C87.0748663,171.40429 87.5854614,171.334749 88.0368729,170.996329 C88.4883101,170.657822 88.8738688,170.09376 89.1935659,169.304107 C89.5132952,168.514346 89.7627332,167.523604 89.9418811,166.331873 C90.121053,165.140062 90.2192238,163.776288 90.2363787,162.240571 C90.2552781,160.548679 90.1488604,159.12037 89.9170997,157.955676 C89.6853083,156.791085 89.3750763,155.775809 88.9863921,154.909826 C88.5976744,154.043955 88.1519052,153.269493 87.6490739,152.586408 C87.1462127,151.903424 86.6310701,151.203262 86.1036285,150.485909 C85.5761538,149.768666 85.0619755,148.97132 84.5610718,148.093866 C84.0601265,147.216552 83.6172103,146.15067 83.2323022,144.896215 C82.8473425,143.641933 82.5418427,142.13477 82.3157968,140.374671 C82.0897033,138.614732 81.9898413,136.50052 82.0162433,134.031851 C82.0373649,132.056915 82.1798767,130.188634 82.4438224,128.426818 C82.7078203,126.664827 83.0793369,125.147915 83.5584017,123.875976 C84.0375435,122.603778 84.6233883,121.654538 85.3159469,121.028249 C86.0085736,120.401732 86.7980205,120.238508 87.6842602,120.538743 C88.6781738,120.875456 89.5796138,121.677141 90.3885366,122.944058 C91.1973653,124.211291 91.8976025,125.886273 92.48924,127.969153 L91.8651231,131.363571 Z" id="ALERTS" fill-opacity="0.239999995" fill="#FFFFFF"></path>
                </g>
                <g id="Page-1-Copy" transform="translate(151.000000, 110.000000)">
                    <polygon id="Path-5" fill="#E5F8FC" points="188.450195 155.193359 99.8066406 189.754883 9.765625 155.077148 9.99609375 86.1210938 0.897460938 82.6884766 1.52050781 52.9101563 99.4609375 14.7333984 195.823242 52.7988281 196.537109 82.9824219 188.260742 86.2636719"></polygon>
                    <polygon id="Path-4" fill="#66D6EE" points="1.38574219 53.4609375 99.2304687 85.4462891 99.140625 189.175781 9.07714844 155.389648 9.73242188 86.2353516 0.577148438 83.0195312"></polygon>
                    <path d="M98.5,85.5 L195.5,53.5" id="Line" stroke="#66D6EE" stroke-linecap="square"></path>
                    <polyline id="Stroke-1" stroke="#66D6EE" points="81.8523404 21.7249739 98.873617 15.056713 120.150213 23.5784522"></polyline>
                    <polyline id="Stroke-2" stroke="#66D6EE" points="81.8510638 66.1867217 64.8297872 74.7084609 64.8297872 176.96933"></polyline>
                    <polyline id="Stroke-3" stroke="#00BCE4" points="73.34 50.2084609 43.552766 66.1867217 43.552766 168.447591"></polyline>
                    <polyline id="Stroke-4" stroke="#00BCE4" points="128.648936 54.4642174 149.938298 66.1858696 149.938298 168.446739"></polyline>
                    <g id="Group-21" transform="translate(0.000000, 0.311496)">
                        <polyline id="Stroke-5" stroke="#00BCE4" points="111.638298 65.8752261 128.659574 74.2489902 128.67234 178.925229"></polyline>
                        <polyline id="Stroke-7" stroke="#66D6EE" points="188.234043 87.1795739 188.234043 155.353487 98.8723404 189.440443 9.5106383 155.353487 9.5106383 87.1795739"></polyline>
                        <path d="M120.028936,55.2230522 C119.845957,63.459313 110.203404,70.1360957 98.4842553,70.1360957 C86.7693617,70.1360957 77.4161702,63.459313 77.5991489,55.2230522 C77.7821277,46.9867913 87.4246809,40.3100087 99.1438298,40.3100087 C110.858723,40.3100087 120.211915,46.9867913 120.028936,55.2230522 Z" id="Stroke-9" stroke="#00BCE4"></path>
                        <path d="M90.3617021,40.3100087 C88.693617,32.461487 69.3617021,9.45705217 60.5744681,1.96218261 C52.5489362,-4.88077391 22.7617021,24.945313 30.787234,31.7882696 C42.5191489,41.7970522 70.812766,51.895313 81.8510638,53.0926174" id="Stroke-11" stroke="#00BCE4" stroke-linejoin="round"></path>
                        <path d="M110.279149,44.5708783 C111.947234,36.7223565 131.279149,13.7179217 140.066383,6.22305217 C148.091915,-0.619904348 177.879149,29.2061826 169.853617,36.0491391 C158.117447,46.0579217 129.828085,56.1561826 118.789787,57.353487" id="Stroke-13" stroke="#00BCE4" stroke-linejoin="round"></path>
                        <polyline id="Stroke-15" stroke="#66D6EE" points="43.5642553 99.5961739 0.998297872 82.9191304 0.998297872 53.0930435 39.2961702 38.0862609"></polyline>
                    </g>
                    <path d="M196.5,83.5 L196.5,52.5" id="Line" stroke="#66D6EE" stroke-linecap="square"></path>
                    <path d="M196.5,52.5 L98.5,15.5" id="Line" stroke="#66D6EE" stroke-linecap="square"></path>
                    <path d="M196.5,83.5 L97.5,118.5" id="Line" stroke="#66D6EE" stroke-linecap="square"></path>
                    <polygon id="Path-6" stroke="#66D6EE" fill="#66D6EE" points="170.861328 34.5732907 165.40625 40.1995417 147.280273 49.1667783 127.450195 55.6916189 131.258789 55.813395 150.295898 67.3526601 149.813477 170.707157 129.025391 179.216751 128.669922 74.2713088 113.30957 67.2632922 106.427734 69.5328446 100.489258 70.9214847 92.6542969 70.3990261 85.4179688 67.3349829 82.5009766 65.8216206 65.71875 74.651368 64.0302734 176.903988 42.7197266 168.997559 42.7197266 67.2544536 71.3085938 51.2909851 57.4169922 46.6949204 41.2666016 38.8256326 30.7597656 31.5200503 29.9404297 27.0074611 32.2841797 20.3755753 45.2265625 7.11082184 54.3134766 1.68589415 60.9248047 0.926757812 81.3798828 24.9765504 90.0537109 39.7232402 90.8125 41.8268236 102.842773 40.3213178 111.371094 42.9719116 116.067383 34.1519848 127.856445 19.3679765 140.408203 6.07179695 145.148438 5.00527423 155.248047 10.7218753 166.417969 23.4514033 171.625977 30.7972503"></polygon>
                    <path d="M27.7828573,156.276428 L25.9253915,155.624579 C25.7107499,155.549253 25.5386431,155.321359 25.4090619,154.940903 C25.2794755,154.560464 25.1835832,154.101682 25.121383,153.564541 L23.5604316,139.649454 L15.5910057,136.878985 L13.8391953,149.609597 C13.7782468,150.050882 13.6763738,150.426391 13.5335754,150.736128 C13.390783,151.045844 13.2161986,151.164479 13.0098125,151.092051 L11.1523467,150.440201 L18.6391289,97.7654307 L21.0865403,98.5948788 L27.7828573,156.276428 Z M16.2978486,131.724439 L22.9308149,134.022503 L20.3027425,110.605072 C20.1306201,109.156585 19.965095,107.363075 19.8061526,105.224519 C19.7075522,106.245981 19.6116305,107.18467 19.5183832,108.040621 C19.425145,108.896542 19.3347649,109.644038 19.2472383,110.283138 L16.2978486,131.724439 Z M31.5127891,151.27678 L39.1931568,153.961552 L39.1409169,160.262368 L29.061069,156.724997 L29.4875253,101.442043 L31.8976666,102.25886 L31.5127891,151.27678 Z M52.2623941,109.160635 L52.2072274,115.283376 L43.6629796,112.376362 L43.5059918,130.791173 L50.4158984,133.169698 L50.3633866,139.05805 L43.4558612,136.671533 L43.294586,155.589269 L51.8172198,158.568825 L51.7620531,164.691565 L40.827771,160.854344 L41.2925243,105.442855 L52.2623941,109.160635 Z M57.1071728,143.294844 L56.8914106,166.491636 L54.5014713,165.652923 L55.0107281,110.092069 L60.0422086,111.797279 C61.1686033,112.179024 62.138355,112.864742 62.9514417,113.854625 C63.7644604,114.844737 64.4314749,116.103798 64.9524934,117.631885 C65.4734281,119.160254 65.8528759,120.920141 66.0908684,122.911529 C66.328804,124.903109 66.4361755,127.077703 66.413029,129.435233 C66.3936978,131.404159 66.2763638,133.209467 66.0610531,134.85111 C65.845782,136.49262 65.5433555,137.928532 65.1537796,139.158838 C64.7642634,140.388943 64.2940751,141.389606 63.7432013,142.160854 C63.1923881,142.931898 62.5715442,143.444739 61.8806351,143.699443 C62.1730444,144.345923 62.4300024,145.226948 62.65151,146.342568 L67.61518,170.254981 L65.4852858,169.507527 C65.0477472,169.353979 64.7309639,168.710044 64.534907,167.575765 L60.1162092,146.088027 C59.981568,145.418363 59.8328677,144.919103 59.6701075,144.590219 C59.5073421,144.261352 59.2606279,144.039739 58.9299616,143.925359 L57.1071728,143.294844 Z M57.1580464,137.825367 L59.6760361,138.693376 C60.3789267,138.935678 60.9995727,138.883493 61.5380174,138.536734 C62.0764952,138.189864 62.5302755,137.592947 62.8993777,136.745946 C63.2685207,135.898807 63.5505928,134.833268 63.7455933,133.549328 C63.9406224,132.265291 64.0460467,130.807565 64.061848,129.176178 C64.0939521,125.861615 63.7684398,123.243495 63.0851983,121.322088 C62.4018194,119.401141 61.3687603,118.205674 59.986093,117.735306 L57.3532426,116.83964 L57.1580464,137.825367 Z M81.2765747,118.993783 L81.2089556,125.346215 L75.45904,123.389677 L74.9487302,172.82858 L72.5464078,171.985521 L73.0497881,122.569875 L67.2750349,120.604886 L67.3375102,114.269718 L81.2765747,118.993783 Z M91.8651231,131.363571 C91.7862314,131.72871 91.7043022,131.994791 91.6193318,132.161828 C91.5343633,132.328858 91.425661,132.389786 91.2932202,132.344619 C91.1525018,132.29663 90.9914994,132.019616 90.8102009,131.513593 C90.6288929,131.007603 90.3984173,130.439182 90.1187611,129.808332 C89.8390873,129.177542 89.5009413,128.572638 89.1043109,127.993607 C88.7076599,127.414646 88.2236879,127.028042 87.6523958,126.833733 C87.1142221,126.650689 86.6356611,126.716342 86.2167147,127.030639 C85.7977901,127.344864 85.4454245,127.844779 85.1596096,128.530393 C84.8738199,129.215922 84.6548694,130.061137 84.5027456,131.066083 C84.3506391,132.07097 84.2679832,133.184313 84.2547626,134.406187 C84.2378851,135.966026 84.3459314,137.301184 84.5788828,138.411776 C84.811805,139.522465 85.1249083,140.510702 85.5181984,141.376529 C85.9114545,142.24247 86.3595025,143.029461 86.8623577,143.737519 C87.3651813,144.445683 87.8801568,145.177722 88.4072966,145.933668 C88.9344009,146.689733 89.4482614,147.513199 89.9488883,148.404108 C90.4494729,149.295159 90.8941466,150.35653 91.2829162,151.588274 C91.6716349,152.82019 91.9789729,154.272465 92.2049438,155.945129 C92.4308698,157.617944 92.5307237,159.613183 92.5045424,161.930792 C92.4768902,164.378604 92.3187507,166.63061 92.0301686,168.686713 C91.7416526,170.742594 91.3345451,172.475754 90.8088547,173.886175 C90.2832582,175.296282 89.6459513,176.327178 88.8969034,176.978934 C88.1479337,177.630428 87.3029477,177.79088 86.3618612,177.460493 C85.214396,177.057653 84.1751887,176.03385 83.2440997,174.389419 C82.312866,172.745473 81.5247407,170.689219 80.8796778,168.220672 L81.6117378,164.877129 C81.6808777,164.614328 81.7639882,164.402038 81.8610717,164.240254 C81.9581574,164.078462 82.0645255,164.017717 82.1801775,164.058022 C82.3536557,164.11848 82.5487724,164.47996 82.7655221,165.142512 C82.9822566,165.805115 83.2540954,166.5457 83.5810374,167.364318 C83.9079521,168.183029 84.3056679,168.96785 84.7741931,169.718816 C85.242686,170.469891 85.8196255,170.965314 86.505053,171.205018 C87.0748663,171.40429 87.5854614,171.334749 88.0368729,170.996329 C88.4883101,170.657822 88.8738688,170.09376 89.1935659,169.304107 C89.5132952,168.514346 89.7627332,167.523604 89.9418811,166.331873 C90.121053,165.140062 90.2192238,163.776288 90.2363787,162.240571 C90.2552781,160.548679 90.1488604,159.12037 89.9170997,157.955676 C89.6853083,156.791085 89.3750763,155.775809 88.9863921,154.909826 C88.5976744,154.043955 88.1519052,153.269493 87.6490739,152.586408 C87.1462127,151.903424 86.6310701,151.203262 86.1036285,150.485909 C85.5761538,149.768666 85.0619755,148.97132 84.5610718,148.093866 C84.0601265,147.216552 83.6172103,146.15067 83.2323022,144.896215 C82.8473425,143.641933 82.5418427,142.13477 82.3157968,140.374671 C82.0897033,138.614732 81.9898413,136.50052 82.0162433,134.031851 C82.0373649,132.056915 82.1798767,130.188634 82.4438224,128.426818 C82.7078203,126.664827 83.0793369,125.147915 83.5584017,123.875976 C84.0375435,122.603778 84.6233883,121.654538 85.3159469,121.028249 C86.0085736,120.401732 86.7980205,120.238508 87.6842602,120.538743 C88.6781738,120.875456 89.5796138,121.677141 90.3885366,122.944058 C91.1973653,124.211291 91.8976025,125.886273 92.48924,127.969153 L91.8651231,131.363571 Z" id="ALERTS" fill-opacity="0.239999995" fill="#FFFFFF"></path>
                </g>
            </g>
        </g>
    </g>
</svg>