<?xml version="1.0" encoding="UTF-8"?>
<svg width="138px" height="139px" viewBox="0 0 138 139" version="1.1" xmlns="http://www.w3.org/2000/svg" xmlns:xlink="http://www.w3.org/1999/xlink">
    <!-- Generator: Sketch 43.2 (39069) - http://www.bohemiancoding.com/sketch -->
    <title>Group 43</title>
    <desc>Created with Sketch.</desc>
    <defs></defs>
    <g id="Product" stroke="none" stroke-width="1" fill="none" fill-rule="evenodd">
        <g id="Desktop-HD" transform="translate(-712.000000, -6263.000000)">
            <g id="Group-710" transform="translate(681.000000, 6233.000000)">
                <g id="Group-43">
                    <rect id="Rectangle-22-Copy-2" x="0" y="0" width="200" height="200"></rect>
                    <g id="Group-45" transform="translate(33.000000, 32.000000)" stroke-width="2.70707071" stroke-linecap="round" stroke-linejoin="round">
                        <path d="M111.079861,48.5321502 C111.079861,56.5538972 104.571788,63.0643005 96.5399306,63.0643005 C88.496441,63.0643005 82,56.5538972 82,48.5321502 C82,40.5045904 88.496441,34 96.5399306,34 C104.571788,34 111.079861,40.5045904 111.079861,48.5321502 L111.079861,48.5321502 Z" id="Stroke-4232" stroke="#E5F8FC" fill="#E5F8FC"></path>
                        <path d="M133.767361,66.8478911 C133.767361,103.771178 103.826736,133.695782 66.8836806,133.695782 C29.946441,133.695782 0,103.771178 0,66.8478911 C0,29.9246038 29.946441,0 66.8836806,0 C103.826736,0 133.767361,29.9246038 133.767361,66.8478911 L133.767361,66.8478911 Z" id="Stroke-4233" stroke="#66D6EE" stroke-dasharray="43.63523517955434,16.36103233183273"></path>
                        <path d="M87.9756944,98.8771606 C87.9756944,81.2176916 73.6509549,64 55.9878472,64 C38.3247396,64 24,81.2176916 24,98.8771606 L87.9756944,98.8771606 L87.9756944,98.8771606 Z" id="Stroke-4234" stroke="#E5F8FC" fill="#E5F8FC"></path>
                        <path d="M75.7118056,43.3450103 C75.7118056,54.5812689 66.5981771,63.6900207 55.3559028,63.6900207 C44.1136285,63.6900207 35,54.5812689 35,43.3450103 C35,32.1087518 44.1136285,23 55.3559028,23 C66.5981771,23 75.7118056,32.1087518 75.7118056,43.3450103 L75.7118056,43.3450103 Z" id="Stroke-4235" stroke="#E5F8FC" fill="#E5F8FC"></path>
                        <path d="M85.1947049,87.2514404 L119.253038,87.2514404 C119.253038,74.4108324 108.836632,64 95.9891493,64 C88.1317708,64 81.2049479,67.9236806 77,73.8934879" id="Stroke-4236" stroke="#E5F8FC" fill="#E5F8FC"></path>
                        <g id="Group-40" transform="translate(77.000000, 79.000000)">
                            <path d="M55.8333333,27.9017285 C55.8333333,43.3174335 43.3359722,55.8034569 27.9166667,55.8034569 C12.4973611,55.8034569 0,43.3174335 0,27.9017285 C0,12.4906738 12.4973611,0 27.9166667,0 C43.3359722,0 55.8333333,12.4906738 55.8333333,27.9017285 L55.8333333,27.9017285 Z" id="Stroke-277" stroke="#97C133" fill="#97C133"></path>
                            <polyline id="Stroke-278" stroke="#FFFFFF" points="41.875 18.8336667 23.2638889 37.6673334 13.9583333 28.2505001"></polyline>
                        </g>
                    </g>
                </g>
            </g>
        </g>
    </g>
</svg>