<?xml version="1.0" encoding="UTF-8"?>
<svg width="20px" height="20px" viewBox="0 0 20 20" version="1.1" xmlns="http://www.w3.org/2000/svg" xmlns:xlink="http://www.w3.org/1999/xlink">
    <!-- Generator: Sketch 48.2 (47327) - http://www.bohemiancoding.com/sketch -->
    <title>icon bars vertical</title>
    <desc>Created with Sketch.</desc>
    <defs></defs>
    <g id="Artboard" stroke="none" stroke-width="1" fill="none" fill-rule="evenodd" transform="translate(-43.000000, -50.000000)">
        <path d="M60.7479651,62 C60.8318113,61.6742346 60.8956541,61.3404388 60.9381063,61 L49,61 L49,59 L60.9381063,59 C60.8956541,58.6595612 60.8318113,58.3257654 60.7479651,58 L55,58 L55,56 L59.9297425,56 C59.7266594,55.6489298 59.4976639,55.3147247 59.2453711,55 L57,55 L57,53.0702575 C55.8233066,52.3895771 54.4571486,52 53,52 C48.5817218,52 45,55.5817218 45,60 C45,64.4182782 48.5817218,68 53,68 C54.4571486,68 55.8233066,67.6104229 57,66.9297425 L57,65 L59.2453711,65 C59.4976639,64.6852753 59.7266594,64.3510702 59.9297425,64 L53,64 L53,62 L60.7479651,62 Z M53,70 C47.4771522,70 43,65.5228478 43,60 C43,54.4771522 47.4771522,50 53,50 C58.5228478,50 63,54.4771522 63,60 C63,65.5228478 58.5228478,70 53,70 Z" id="icon-bars-vertical" fill="#344F73" transform="translate(53.000000, 60.000000) rotate(-270.000000) translate(-53.000000, -60.000000) "></path>
    </g>
</svg>