<?xml version="1.0" encoding="UTF-8"?>
<svg width="812px" height="542px" viewBox="0 0 812 542" version="1.1" xmlns="http://www.w3.org/2000/svg" xmlns:xlink="http://www.w3.org/1999/xlink">
    <!-- Generator: Sketch 41.2 (35397) - http://www.bohemiancoding.com/sketch -->
    <title>Group 36</title>
    <desc>Created with Sketch.</desc>
    <defs>
        <path d="M7.07042837,10.2314844 C12.7346759,3.94918738 20.9373325,0 38.903833,0 L730.428246,0 C746.160838,0 752.477102,3.24914523 758.093654,8.97991436 C763.56362,14.5611158 766.67921,22.5119113 766.67921,39.7838978 L766.67921,490.721812 C766.67921,506.504903 764.392884,512.912388 760.532411,518.074462 C754.888779,525.620906 745.880947,530.50571 735.733984,530.50571 L30.0609356,530.50571 C20.4814458,530.50571 11.9186027,526.152576 6.24235325,519.317391 C1.79171965,513.95806 0,507.07281 0,490.721812 L0,39.7838978 C0,22.977389 2.12592038,15.7155081 7.07042837,10.2314844 Z M2.65286924,490.721812 C2.65286924,505.995739 4.16186796,512.659921 8.28334624,517.622893 C13.6288815,524.05984 21.5325045,527.853181 30.0609356,527.853181 L735.733984,527.853181 C744.771127,527.853181 753.095644,523.589244 758.407831,516.485996 C762.389645,511.161669 764.026341,504.609523 764.026341,490.721812 L764.026341,39.7838978 C764.026341,24.3272735 761.624556,16.3724439 756.198888,10.8364405 C750.381268,4.90051472 744.134644,2.65252855 730.428246,2.65252855 L38.903833,2.65252855 C23.1028491,2.65252855 14.8352358,5.58089629 9.04081566,12.0075696 C4.41630463,17.1366802 2.65286924,24.1959633 2.65286924,39.7838978 L2.65286924,490.721812 Z" id="path-1"></path>
        <path d="M0,15.9151713 L0,0 L940,0 L940,15.9151713 C940,16.0192174 935.422779,29.177814 876.331138,29.177814 L51.2888053,29.177814 C16.3430054,29.177814 0,18.7835632 0,15.9151713 Z" id="path-3"></path>
    </defs>
    <g id="Product" stroke="none" stroke-width="1" fill="none" fill-rule="evenodd">
        <g id="Desktop-HD-Copy" transform="translate(-628.000000, -2579.000000)">
            <g id="Macbook-Pro" transform="translate(628.000000, 2579.000000)">
                <g id="Group-36">
                    <g id="Screen" transform="translate(86.660395, 0.000000)">
                        <g id="Edge">
                            <g id="Group">
                                <mask id="mask-2" fill="white">
                                    <use xlink:href="#path-1"></use>
                                </mask>
                                <use id="Mask" fill-opacity="0.02" fill="#2D2D2D" xlink:href="#path-1"></use>
                            </g>
                            <path d="M2.65286924,490.721812 C2.65286924,505.995739 4.16186796,512.659921 8.28334624,517.622893 C13.6288815,524.05984 21.5325045,527.853181 30.0609356,527.853181 L735.733984,529.621533 C744.771127,529.621533 753.095644,525.357596 758.407831,518.254348 C762.389645,512.930022 764.026341,506.377875 764.026341,492.490164 L764.026341,39.7838978 C764.026341,24.3272735 761.624556,16.3724439 756.198888,10.8364405 C750.381268,4.90051472 744.134644,2.65252855 730.428246,2.65252855 L38.903833,2.65252855 C23.1028491,2.65252855 14.8352358,5.58089629 9.04081566,12.0075696 C4.41630463,17.1366802 2.65286924,24.1959633 2.65286924,39.7838978 L2.65286924,490.721812 Z" id="Inner" stroke="#2D2D2D" stroke-width="4" fill="#2D2D2D"></path>
                        </g>
                        <g transform="translate(25.644403, 32.714519)" fill="#404040">
                            <polygon points="0 1.96326551e-16 715.390405 1.76835237 715.390405 447.393148 0 447.393148"></polygon>
                        </g>
                    </g>
                    <g id="Board" transform="translate(0.000000, 512.822186)">
                        <mask id="mask-4" fill="white">
                            <use xlink:href="#path-3"></use>
                        </mask>
                        <use id="Body" fill-opacity="0.03" fill="#EAEAEA" xlink:href="#path-3"></use>
                    </g>
                </g>
            </g>
        </g>
    </g>
</svg>