<?xml version="1.0" encoding="UTF-8"?>
<svg width="589px" height="486px" viewBox="0 0 589 486" version="1.1" xmlns="http://www.w3.org/2000/svg" xmlns:xlink="http://www.w3.org/1999/xlink">
    <!-- Generator: Sketch 43.2 (39069) - http://www.bohemiancoding.com/sketch -->
    <title>Browser Window</title>
    <desc>Created with Sketch.</desc>
    <defs>
        <rect id="path-1" x="0" y="0" width="700" height="482.33996" rx="5.82120582"></rect>
        <rect id="path-3" x="176.091476" y="-10.2145015" width="529.72973" height="58.3685801"></rect>
        <path d="M26.1325058,13.0417088 C26.1325058,20.244409 20.282194,26.0831613 13.0659961,26.0831613 C5.84992662,26.0831613 0,20.244409 0,13.0417088 C0,5.83900872 5.84992662,0 13.0659961,0 C20.282194,0 26.1325058,5.83900872 26.1325058,13.0417088 Z" id="path-4"></path>
        <polygon id="path-6" points="13.7247661 11.1872814 9.79255557 13.0870349 9.7302155 13.7202436 12.7107009 12.8189723 11.2126499 14.6145075 11.0873401 15.1843954 9.26071286 15.9681982 9.07293699 16.5064893 9.89154406 16.1766347 7.68332001 18.6275473 7.60574124 20.6548343 7.60574124 22.5148371 7.22552975 22.5148371 7.22552975 20.7278381 7.11558452 18.6275473 4.90773829 16.1766347 5.72634535 16.5064893 5.53869543 15.9681982 3.71219415 15.1843954 3.58701024 14.6145075 2.08845554 12.8189723 5.06919279 13.7202436 5.00647489 13.0870349 1.07451623 11.1872814 1.95281865 9.74160356 0.10049976 7.22991823 5.21956461 9.59139168 5.3233388 8.88097485 3.82755477 6.55122553 4.04190389 6.16747813 3.35137734 3.42824536 6.03527507 6.12734519 6.19622581 4.63669294 5.39373901 2.40173381 6.46472893 2.74522086 7.39945226 0.00828140139 8.33455341 2.74522086 9.40554334 2.40173381 8.60318247 4.63669294 8.76425916 6.12734519 11.4477791 3.42824536 10.7572525 6.16747813 10.9717276 6.55122553 9.47594355 8.88097485 9.57996961 9.59139168 14.6987826 7.22991823 12.8468415 9.74160356"></polygon>
        <path d="M26.1325058,13.0417088 C26.1325058,20.244409 20.282194,26.0831613 13.0659961,26.0831613 C5.84992662,26.0831613 0,20.244409 0,13.0417088 C0,5.83900872 5.84992662,0 13.0659961,0 C20.282194,0 26.1325058,5.83900872 26.1325058,13.0417088 Z" id="path-8"></path>
        <polygon id="path-10" points="13.7247661 11.1872814 9.79255557 13.0870349 9.7302155 13.7202436 12.7107009 12.8189723 11.2126499 14.6145075 11.0873401 15.1843954 9.26071286 15.9681982 9.07293699 16.5064893 9.89154406 16.1766347 7.68332001 18.6275473 7.60574124 20.6548343 7.60574124 22.5148371 7.22552975 22.5148371 7.22552975 20.7278381 7.11558452 18.6275473 4.90773829 16.1766347 5.72634535 16.5064893 5.53869543 15.9681982 3.71219415 15.1843954 3.58701024 14.6145075 2.08845554 12.8189723 5.06919279 13.7202436 5.00647489 13.0870349 1.07451623 11.1872814 1.95281865 9.74160356 0.10049976 7.22991823 5.21956461 9.59139168 5.3233388 8.88097485 3.82755477 6.55122553 4.04190389 6.16747813 3.35137734 3.42824536 6.03527507 6.12734519 6.19622581 4.63669294 5.39373901 2.40173381 6.46472893 2.74522086 7.39945226 0.00828140139 8.33455341 2.74522086 9.40554334 2.40173381 8.60318247 4.63669294 8.76425916 6.12734519 11.4477791 3.42824536 10.7572525 6.16747813 10.9717276 6.55122553 9.47594355 8.88097485 9.57996961 9.59139168 14.6987826 7.22991823 12.8468415 9.74160356"></polygon>
        <path d="M26.1325058,13.0417088 C26.1325058,20.244409 20.282194,26.0831613 13.0659961,26.0831613 C5.84992662,26.0831613 0,20.244409 0,13.0417088 C0,5.83900872 5.84992662,0 13.0659961,0 C20.282194,0 26.1325058,5.83900872 26.1325058,13.0417088 Z" id="path-12"></path>
        <polygon id="path-14" points="13.7247661 11.1872814 9.79255557 13.0870349 9.7302155 13.7202436 12.7107009 12.8189723 11.2126499 14.6145075 11.0873401 15.1843954 9.26071286 15.9681982 9.07293699 16.5064893 9.89154406 16.1766347 7.68332001 18.6275473 7.60574124 20.6548343 7.60574124 22.5148371 7.22552975 22.5148371 7.22552975 20.7278381 7.11558452 18.6275473 4.90773829 16.1766347 5.72634535 16.5064893 5.53869543 15.9681982 3.71219415 15.1843954 3.58701024 14.6145075 2.08845554 12.8189723 5.06919279 13.7202436 5.00647489 13.0870349 1.07451623 11.1872814 1.95281865 9.74160356 0.10049976 7.22991823 5.21956461 9.59139168 5.3233388 8.88097485 3.82755477 6.55122553 4.04190389 6.16747813 3.35137734 3.42824536 6.03527507 6.12734519 6.19622581 4.63669294 5.39373901 2.40173381 6.46472893 2.74522086 7.39945226 0.00828140139 8.33455341 2.74522086 9.40554334 2.40173381 8.60318247 4.63669294 8.76425916 6.12734519 11.4477791 3.42824536 10.7572525 6.16747813 10.9717276 6.55122553 9.47594355 8.88097485 9.57996961 9.59139168 14.6987826 7.22991823 12.8468415 9.74160356"></polygon>
        <path d="M26.1325058,13.0417088 C26.1325058,20.244409 20.282194,26.0831613 13.0659961,26.0831613 C5.84992662,26.0831613 0,20.244409 0,13.0417088 C0,5.83900872 5.84992662,0 13.0659961,0 C20.282194,0 26.1325058,5.83900872 26.1325058,13.0417088 Z" id="path-16"></path>
        <polygon id="path-18" points="13.7247661 11.1872814 9.79255557 13.0870349 9.7302155 13.7202436 12.7107009 12.8189723 11.2126499 14.6145075 11.0873401 15.1843954 9.26071286 15.9681982 9.07293699 16.5064893 9.89154406 16.1766347 7.68332001 18.6275473 7.60574124 20.6548343 7.60574124 22.5148371 7.22552975 22.5148371 7.22552975 20.7278381 7.11558452 18.6275473 4.90773829 16.1766347 5.72634535 16.5064893 5.53869543 15.9681982 3.71219415 15.1843954 3.58701024 14.6145075 2.08845554 12.8189723 5.06919279 13.7202436 5.00647489 13.0870349 1.07451623 11.1872814 1.95281865 9.74160356 0.10049976 7.22991823 5.21956461 9.59139168 5.3233388 8.88097485 3.82755477 6.55122553 4.04190389 6.16747813 3.35137734 3.42824536 6.03527507 6.12734519 6.19622581 4.63669294 5.39373901 2.40173381 6.46472893 2.74522086 7.39945226 0.00828140139 8.33455341 2.74522086 9.40554334 2.40173381 8.60318247 4.63669294 8.76425916 6.12734519 11.4477791 3.42824536 10.7572525 6.16747813 10.9717276 6.55122553 9.47594355 8.88097485 9.57996961 9.59139168 14.6987826 7.22991823 12.8468415 9.74160356"></polygon>
    </defs>
    <g id="Product" stroke="none" stroke-width="1" fill="none" fill-rule="evenodd">
        <g id="Desktop-HD" transform="translate(-851.000000, -4789.000000)">
            <g id="Resolve-Copy" transform="translate(41.000000, 4763.000000)">
                <g id="P-Block">
                    <g id="Group-35">
                        <g id="Group-37" transform="translate(812.000000, 0.000000)">
                            <g id="Browser-Window" transform="translate(0.000000, 28.000000)">
                                <mask id="mask-2" fill="white">
                                    <use xlink:href="#path-1"></use>
                                </mask>
                                <g id="Rectangle">
                                    <use fill="#FFFFFF" fill-rule="evenodd" xlink:href="#path-1"></use>
                                    <rect stroke="#EAEAEA" stroke-width="1.45530146" x="-0.727650728" y="-0.727650728" width="701.455301" height="483.795261" rx="5.82120582"></rect>
                                </g>
                                <g id="Rectangle-24" mask="url(#mask-2)">
                                    <use fill="#FFFFFF" fill-rule="evenodd" xlink:href="#path-3"></use>
                                    <rect stroke="#EAEAEA" stroke-width="1.45530146" x="175.363825" y="-10.9421522" width="531.185031" height="59.8238815"></rect>
                                </g>
                                <rect id="Rectangle-4" fill="#4E394B" mask="url(#mask-2)" x="-7.27650728" y="-21.8882175" width="187.733888" height="513.579028" rx="5.82120582"></rect>
                                <rect id="Rectangle-23" fill="#FAFAFA" opacity="0.0774456522" mask="url(#mask-2)" x="-10.1871102" y="-10.2145015" width="190.644491" height="58.3685801"></rect>
                                <g id="Group-4" transform="translate(197.920998, 61.287009)">
                                    <g id="Group-6">
                                        <mask id="mask-5" fill="white">
                                            <use xlink:href="#path-4"></use>
                                        </mask>
                                        <g id="Clip-5"></g>
                                        <polygon id="Fill-4" fill="#FBB040" mask="url(#mask-5)" points="0 26.0870063 26.1337899 26.0870063 26.1337899 -0.0128166485 0 -0.0128166485"></polygon>
                                    </g>
                                    <g id="Group-9" transform="translate(5.566528, 2.287772)">
                                        <mask id="mask-7" fill="white">
                                            <use xlink:href="#path-6"></use>
                                        </mask>
                                        <g id="Clip-8"></g>
                                        <polygon id="Fill-7" fill="#2D2D2D" mask="url(#mask-7)" points="0.0856388933 22.5279599 14.6996642 22.5279599 14.6996642 0.00764437051 0.0856388933 0.00764437051"></polygon>
                                    </g>
                                    <text id="VictorOps-4:53-PM-Op" font-family="Lato-Bold, Lato" font-size="14.5530146" font-weight="bold" letter-spacing="-0.104781678">
                                        <tspan x="37.8378378" y="15.4592145" fill="#7E7E7E">VictorOps</tspan>
                                        <tspan x="104.187942" y="15.4592145" font-family="Lato-Regular, Lato" font-weight="normal" fill="#4D4D4D">    </tspan>
                                        <tspan x="115.003743" y="15.4592145" font-family="Lato-Regular, Lato" font-size="11.6424116" font-weight="normal" fill="#B9B9B9">4:53 PM</tspan>
                                        <tspan x="157.533472" y="15.4592145" font-family="Lato-Regular, Lato" font-weight="normal" fill="#B9B9B9"></tspan>
                                        <tspan x="37.8378378" y="32.4592145" font-family="Lato-Regular, Lato" font-weight="normal" fill="#B9B9B9"></tspan>
                                        <tspan x="37.8378378" y="49.4592145" font-family="Lato-Regular, Lato" font-weight="normal" fill="#B9B9B9">     </tspan>
                                        <tspan x="51.3575885" y="49.4592145" font-family="Lato-Regular, Lato" font-weight="normal" fill="#7E7E7E">Opened - Incident #3303 for Critical Incident</tspan>
                                        <tspan x="332.070687" y="49.4592145" font-family="Lato-Regular, Lato" font-weight="normal" fill="#B9B9B9"></tspan>
                                        <tspan x="37.8378378" y="66.4592145" font-family="Lato-Regular, Lato" font-weight="normal" fill="#B9B9B9">      </tspan>
                                    </text>
                                </g>
                                <text id="Notify:-Trying-to-co" font-family="Lato-Regular, Lato" font-size="14.5530146" font-weight="normal" letter-spacing="-0.116486894" fill="#7E7E7E">
                                    <tspan x="248.856549" y="157.003021">Notify: Trying to contact Saul Goodman for #3303</tspan>
                                </text>
                                <path d="M238.669439,141.543807 L238.669439,167.809668" id="Line" stroke="#F1582F" stroke-width="5.82120582" stroke-linecap="square"></path>
                                <path d="M238.669439,97.7673716 L238.669439,124.033233" id="Line-Copy-14" stroke="#FBB040" stroke-width="5.82120582" stroke-linecap="square"></path>
                                <g id="Group-33" transform="translate(196.465696, 188.238671)">
                                    <text id="Walter-White-4:54-PM" font-family="Lato-Bold, Lato" font-size="14.5530146" font-weight="bold" letter-spacing="-0.104781678">
                                        <tspan x="39.2931393" y="18.3776435" fill="#7E7E7E">Walter White</tspan>
                                        <tspan x="127.129314" y="18.3776435" fill="#4D4D4D">    </tspan>
                                        <tspan x="137.945115" y="18.3776435" font-size="11.6424116" fill="#D6D6D6">4:54 PM</tspan>
                                        <tspan x="180.905614" y="18.3776435" fill="#4D4D4D"></tspan>
                                    </text>
                                    <g id="Group-4-Copy-2">
                                        <g id="Group-6">
                                            <mask id="mask-9" fill="white">
                                                <use xlink:href="#path-8"></use>
                                            </mask>
                                            <g id="Clip-5"></g>
                                            <polygon id="Fill-4" fill="#FBB040" mask="url(#mask-9)" points="0 26.0870063 26.1337899 26.0870063 26.1337899 -0.0128166485 0 -0.0128166485"></polygon>
                                        </g>
                                        <g id="Group-9" transform="translate(5.566528, 2.287772)">
                                            <mask id="mask-11" fill="white">
                                                <use xlink:href="#path-10"></use>
                                            </mask>
                                            <g id="Clip-8"></g>
                                            <polygon id="Fill-7" fill="#2D2D2D" mask="url(#mask-11)" points="0.0856388933 22.5279599 14.6996642 22.5279599 14.6996642 0.00764437051 0.0856388933 0.00764437051"></polygon>
                                        </g>
                                    </g>
                                    <text id="Hey,-I-got-this-one" font-family="Lato-Regular, Lato" font-size="14.5530146" font-weight="normal" letter-spacing="-0.116486894" fill="#7E7E7E">
                                        <tspan x="53.8461538" y="54.858006">Hey, I got this one @goodman</tspan>
                                    </text>
                                    <text id="Aknowledged---Incide" font-family="Lato-Regular, Lato" font-size="14.5530146" font-weight="normal" letter-spacing="-0.116486894" fill="#7E7E7E">
                                        <tspan x="53.8461538" y="97.1752266">Aknowledged - Incident #3303 for Critical Incident </tspan>
                                    </text>
                                    <path d="M42.2037422,39.3987915 L42.2037422,65.6646526" id="Line-Copy-15" stroke="#D6D6D6" stroke-width="5.82120582" stroke-linecap="square"></path>
                                    <path d="M42.2037422,83.1752266 L42.2037422,109.441088" id="Line-Copy-21" stroke="#FBB040" stroke-width="5.82120582" stroke-linecap="square"></path>
                                </g>
                                <g id="Group-33-Copy-2" transform="translate(195.010395, 408.580060)">
                                    <text id="Walter-White-4:54-PM" font-family="Lato-Bold, Lato" font-size="14.5530146" font-weight="bold" letter-spacing="-0.104781678">
                                        <tspan x="39.2931393" y="18.3776435" fill="#7E7E7E">Walter White</tspan>
                                        <tspan x="127.129314" y="18.3776435" fill="#4D4D4D">    </tspan>
                                        <tspan x="137.945115" y="18.3776435" font-size="11.6424116" fill="#D6D6D6">4:54 PM</tspan>
                                        <tspan x="180.905614" y="18.3776435" fill="#4D4D4D"></tspan>
                                    </text>
                                    <g id="Group-4-Copy-2">
                                        <g id="Group-6">
                                            <mask id="mask-13" fill="white">
                                                <use xlink:href="#path-12"></use>
                                            </mask>
                                            <g id="Clip-5"></g>
                                            <polygon id="Fill-4" fill="#FBB040" mask="url(#mask-13)" points="0 26.0870063 26.1337899 26.0870063 26.1337899 -0.0128166485 0 -0.0128166485"></polygon>
                                        </g>
                                        <g id="Group-9" transform="translate(5.566528, 2.287772)">
                                            <mask id="mask-15" fill="white">
                                                <use xlink:href="#path-14"></use>
                                            </mask>
                                            <g id="Clip-8"></g>
                                            <polygon id="Fill-7" fill="#2D2D2D" mask="url(#mask-15)" points="0.0856388933 22.5279599 14.6996642 22.5279599 14.6996642 0.00764437051 0.0856388933 0.00764437051"></polygon>
                                        </g>
                                    </g>
                                    <text id="10-4-Saul." font-family="Lato-Regular, Lato" font-size="14.5530146" font-weight="normal" letter-spacing="-0.116486894" fill="#7E7E7E">
                                        <tspan x="53.8461538" y="54.858006">10-4 Saul.</tspan>
                                    </text>
                                    <path d="M42.2037422,39.3987915 L42.2037422,65.6646526" id="Line-Copy-15" stroke="#D6D6D6" stroke-width="5.82120582" stroke-linecap="square"></path>
                                </g>
                                <g id="Group-33-Copy" transform="translate(196.465696, 14.592145)">
                                    <text id="Saul-Goodman-4:54-PM" font-family="Lato-Bold, Lato" font-size="14.5530146" font-weight="bold" letter-spacing="-0.104781678">
                                        <tspan x="39.2931393" y="329.190332" fill="#7E7E7E">Saul Goodman</tspan>
                                        <tspan x="131.997298" y="329.190332" fill="#4D4D4D">    </tspan>
                                        <tspan x="142.813098" y="329.190332" font-size="11.6424116" fill="#D6D6D6">4:54 PM</tspan>
                                        <tspan x="185.773597" y="329.190332" fill="#4D4D4D"></tspan>
                                    </text>
                                    <text id="#lospollos" font-family="Lato-Bold, Lato" font-size="17.4636175" font-weight="bold" letter-spacing="-0.12573801" fill="#7E7E7E">
                                        <tspan x="0" y="17">#lospollos</tspan>
                                    </text>
                                    <g id="Group-4-Copy-2" transform="translate(0.000000, 310.812689)">
                                        <g id="Group-6">
                                            <mask id="mask-17" fill="white">
                                                <use xlink:href="#path-16"></use>
                                            </mask>
                                            <g id="Clip-5"></g>
                                            <polygon id="Fill-4" fill="#FBB040" mask="url(#mask-17)" points="0 26.0870063 26.1337899 26.0870063 26.1337899 -0.0128166485 0 -0.0128166485"></polygon>
                                        </g>
                                        <g id="Group-9" transform="translate(5.566528, 2.287772)">
                                            <mask id="mask-19" fill="white">
                                                <use xlink:href="#path-18"></use>
                                            </mask>
                                            <g id="Clip-8"></g>
                                            <polygon id="Fill-7" fill="#2D2D2D" mask="url(#mask-19)" points="0.0856388933 22.5279599 14.6996642 22.5279599 14.6996642 0.00764437051 0.0856388933 0.00764437051"></polygon>
                                        </g>
                                    </g>
                                    <text id="Thanks….let-me-know" font-family="Lato-Regular, Lato" font-size="14.5530146" font-weight="normal" letter-spacing="-0.116486894" fill="#7E7E7E">
                                        <tspan x="53.8461538" y="365.670695">Thanks….let me know if you need me to jump in.</tspan>
                                    </text>
                                    <path d="M42.2037422,350.21148 L42.2037422,376.477341" id="Line-Copy-15" stroke="#D6D6D6" stroke-width="5.82120582" stroke-linecap="square"></path>
                                </g>
                                <text id="#carwash-#lospollos" font-family="Lato-Regular, Lato" font-size="14.5530146" font-weight="normal" line-spacing="23.2848233">
                                    <tspan x="23.2848233" y="70.9093656" fill="#B9B9B9">#carwash</tspan>
                                    <tspan x="84.6985447" y="70.9093656" fill="#D6D6D6"></tspan>
                                    <tspan x="23.2848233" y="94.1941888" font-family="Lato-Bold, Lato" font-weight="bold" fill="#EAEAEA">#lospollos</tspan>
                                    <tspan x="89.3264033" y="94.1941888" fill="#D6D6D6"></tspan>
                                    <tspan x="23.2848233" y="117.479012" fill="#B9B9B9">#vamanos</tspan>
                                    <tspan x="23.2848233" y="140.763835" fill="#B9B9B9">#madrigal</tspan>
                                    <tspan x="87.3180873" y="140.763835" font-family="Lato-Bold, Lato" font-weight="bold" fill="#EAEAEA"></tspan>
                                </text>
                                <ellipse id="Oval" stroke="#D84F2A" stroke-width="1.45530146" fill="#F1582F" cx="19.8310206" cy="16.3228413" rx="4.88372093" ry="4.89685239"></ellipse>
                                <ellipse id="Oval-Copy" stroke="#E29E39" stroke-width="1.45530146" fill="#FBB040" cx="37.7379974" cy="16.3228413" rx="4.88372093" ry="4.89685239"></ellipse>
                                <ellipse id="Oval-Copy-2" stroke="#87AD2E" stroke-width="1.45530146" fill="#97C133" cx="55.6449741" cy="16.3228413" rx="4.88372093" ry="4.89685239"></ellipse>
                            </g>
                        </g>
                    </g>
                </g>
            </g>
        </g>
    </g>
</svg>