<?xml version="1.0" encoding="UTF-8"?>
<svg width="357px" height="747px" viewBox="0 0 357 747" version="1.1" xmlns="http://www.w3.org/2000/svg" xmlns:xlink="http://www.w3.org/1999/xlink">
    <!-- Generator: Sketch 43.2 (39069) - http://www.bohemiancoding.com/sketch -->
    <title>Gold</title>
    <desc>Created with Sketch.</desc>
    <defs>
        <path d="M0,94.9163842 L0,64.2176596 C0,22.3399506 22.3653092,0 64.265138,0 L301.452455,0 C343.352283,0 365.717593,22.3399506 365.717593,64.2176596 L365.717593,157.754904 C365.306138,158.191031 364.990885,159.237891 364.892946,160.532276 L364.861111,160.532276 L364.861111,212.330691 L365.077451,214.899207 C365.230227,215.583668 365.454199,216.113133 365.717593,216.392321 L365.717593,690.069996 C365.717593,731.93816 343.354632,754.287656 301.452455,754.287656 L204.810773,754.287656 C203.915499,753.811624 202.296572,753.480461 200.416667,753.436474 L166.157407,753.431484 C166.01607,753.433167 165.873258,753.431484 165.729167,753.431484 C163.668543,753.431484 161.869404,753.775835 160.906821,754.287655 L64.265138,754.287656 C22.3629609,754.287656 0,731.93816 0,690.069996 L0,285.742265 C0.498982845,285.21336 0.856481481,283.786243 0.856481481,282.10872 L0.856481481,163.100793 L0.824646575,163.100793 C0.726707323,161.806407 0.411454172,160.759547 3.3945069e-13,160.32342 L0,127.054006 C0.498982845,125.849412 0.856481481,122.82588 0.856481481,121.148358 L0.856481481,100.600227 L0.824646575,100.600227 C0.726707323,99.3058411 0.411454172,96.3098746 4.85722573e-16,94.9163842 Z" id="path-1"></path>
    </defs>
    <g id="Product" stroke="none" stroke-width="1" fill="none" fill-rule="evenodd">
        <g id="Desktop-HD" transform="translate(-778.000000, -3928.000000)">
            <g id="Resolve" transform="translate(-96.000000, 577.000000)">
                <g id="Mobile">
                    <g id="Gold" transform="translate(869.000000, 3347.000000)">
                        <g id="iPhone-Shape" transform="translate(0.569444, 0.000000)">
                            <g id="Shape">
                                <mask id="mask-2" fill="white">
                                    <use xlink:href="#path-1"></use>
                                </mask>
                                <g></g>
                            </g>
                            <path d="M298.119612,5.13703284 C340.554891,5.13703284 360.578704,25.1560594 360.578704,67.6052897 L360.578704,687.538538 C360.578704,729.978483 340.557173,750.006795 298.119612,750.006795 L67.5979809,750.006795 C25.1604195,750.006795 5.13888889,729.978483 5.13888889,687.538538 L5.13888889,67.6052897 C5.13888889,25.1560594 25.1627018,5.13703284 67.5979809,5.13703284 L298.119612,5.13703284 Z" id="Edge" stroke="#D6D6D6" fill="#FFFFFF"></path>
                            <path d="M297.610679,8.5617214 C340.05139,8.5617214 357.152778,25.6751695 357.152778,68.1674705 L357.152778,686.976357 C357.152778,729.459544 340.053628,746.582106 295.897716,746.582106 L68.1069132,746.582106 C26.5204462,746.582106 8.56481481,729.459544 8.56481481,687.83253 L8.56481481,68.1674705 C8.56481481,25.6751695 25.6662031,8.5617214 68.1069132,8.5617214 L297.610679,8.5617214 Z" id="Glass" fill="#FFFFFF"></path>
                        </g>
                        <path d="M212.12037,705.485844 C212.12037,721.562772 199.082737,734.595696 183,734.595696 C166.917263,734.595696 153.87963,721.562772 153.87963,705.485844 C153.87963,689.408915 166.917263,676.375991 183,676.375991 C199.082737,676.375991 212.12037,689.408915 212.12037,705.485844 Z M157.305556,705.485844 C157.305556,719.671369 168.809349,731.171008 183,731.171008 C197.190651,731.171008 208.694444,719.671369 208.694444,705.485844 C208.694444,691.300318 197.190651,679.80068 183,679.80068 C168.809349,679.80068 157.305556,691.300318 157.305556,705.485844 Z" id="Home-Button-" fill="#FAFAFA" fill-rule="nonzero"></path>
                        <g id="Screen" transform="translate(22.268519, 91.041903)" fill="#EAEAEA">
                            <polygon points="0.569444444 0.568516421 321.313206 0.568516421 321.75 571.635334 0.569444444 571.635334"></polygon>
                        </g>
                    </g>
                </g>
            </g>
        </g>
    </g>
</svg>