<?xml version="1.0" encoding="UTF-8"?>
<svg width="560px" height="415px" viewBox="0 0 560 415" version="1.1" xmlns="http://www.w3.org/2000/svg" xmlns:xlink="http://www.w3.org/1999/xlink">
    <!-- Generator: Sketch 43.2 (39069) - http://www.bohemiancoding.com/sketch -->
    <title>Gold</title>
    <desc>Created with Sketch.</desc>
    <defs>
        <rect id="path-1" x="0" y="0" width="560" height="415"></rect>
        <radialGradient cx="50%" cy="50%" fx="50%" fy="50%" r="71.3253348%" gradientTransform="translate(0.500000,0.500000),scale(1.000000,1.000505),translate(-0.500000,-0.500000)" id="radialGradient-3">
            <stop stop-color="#00BCE4" offset="0%"></stop>
            <stop stop-color="#66D6EE" stop-opacity="0" offset="100%"></stop>
        </radialGradient>
        <polygon id="path-4" points="0.569444444 0.568516421 321.313206 0.568516421 321.75 571.635334 0.569444444 571.635334"></polygon>
        <rect id="path-5" x="0.914285714" y="0" width="319.991157" height="519.390235"></rect>
        <rect id="path-7" x="1.70661951" y="45.1643682" width="322.551086" height="31.1478402"></rect>
        <polygon id="path-8" points="17.5282568 0.0330461835 0.0421083337 0.0330461835 0.0421083337 17.7929872 17.5282568 17.7929872 17.5282568 0.0330461835"></polygon>
        <rect id="path-10" x="28.5858767" y="3.50413202" width="19.1994694" height="7.39761204" rx="1.28831353"></rect>
        <polygon id="path-11" points="5.75984083 10.4734611 11.1476053 5.17832843 5.75984083 0.222737404 0.372076309 5.17832843"></polygon>
    </defs>
    <g id="Product" stroke="none" stroke-width="1" fill="none" fill-rule="evenodd">
        <g id="Desktop-HD" transform="translate(-683.000000, -3885.000000)">
            <g id="Resolve" transform="translate(30.000000, 592.000000)">
                <g id="Mobile" transform="translate(189.000000, 0.000000)">
                    <g id="Group-34" transform="translate(464.000000, 3293.000000)">
                        <g id="Gold">
                            <mask id="mask-2" fill="white">
                                <use xlink:href="#path-1"></use>
                            </mask>
                            <use id="Mask" fill="#FFFFFF" xlink:href="#path-1"></use>
                            <g mask="url(#mask-2)">
                                <g transform="translate(40.000000, 13.000000)">
                                    <circle id="Oval-12" stroke="#66D6EE" fill="url(#radialGradient-3)" transform="translate(240.000000, 240.000000) scale(1, -1) rotate(180.000000) translate(-240.000000, -240.000000) " cx="240" cy="240" r="240"></circle>
                                    <g id="iPhone-Shape" stroke="none" fill="none" transform="translate(61.569444, 17.000000)">
                                        <path d="M293.119612,0.137032843 C335.554891,0.137032843 355.578704,20.1560594 355.578704,62.6052897 L355.578704,682.538538 C355.578704,724.978483 335.557173,745.006795 293.119612,745.006795 L62.5979809,745.006795 C20.1604195,745.006795 0.138888889,724.978483 0.138888889,682.538538 L0.138888889,62.6052897 C0.138888889,20.1560594 20.1627018,0.137032843 62.5979809,0.137032843 L293.119612,0.137032843 Z" id="Edge" stroke="#EAEAEA" fill="#FFFFFF"></path>
                                    </g>
                                    <g id="Screen" stroke="none" fill="none" transform="translate(78.268519, 103.041903)">
                                        <g>
                                            <use fill="#EAEAEA" fill-rule="evenodd" xlink:href="#path-4"></use>
                                            <path stroke="#D6D6D6" stroke-width="1" d="M1.06944444,1.06851642 L320.813588,1.06851642 L321.249617,571.135334 L1.06944444,571.135334 L1.06944444,1.06851642 Z"></path>
                                        </g>
                                        <g id="Group-5" transform="translate(0.000000, 1.000000)">
                                            <mask id="mask-6" fill="white">
                                                <use xlink:href="#path-5"></use>
                                            </mask>
                                            <use id="white-background" fill="#FFFFFF" xlink:href="#path-5"></use>
                                            <g id="Group-4" mask="url(#mask-6)">
                                                <g transform="translate(-1.706620, 0.000000)">
                                                    <g id="TabBG" fill="none">
                                                        <use fill="#F4F4F4" fill-rule="evenodd" xlink:href="#path-7"></use>
                                                        <rect stroke="#D6D6D6" stroke-width="0.5" x="1.95661951" y="45.4143682" width="322.051086" height="30.6478402"></rect>
                                                    </g>
                                                    <g id="header" stroke-width="1" fill="none" fill-rule="evenodd" transform="translate(1.706620, 0.000000)">
                                                        <rect id="Rectangle-1" fill="#4D4D4D" x="0" y="0" width="319.991157" height="45.5537162"></rect>
                                                        <g id="oakleaf" transform="translate(17.492850, 20.246096)">
                                                            <mask id="mask-9" fill="white">
                                                                <use xlink:href="#path-8"></use>
                                                            </mask>
                                                            <g id="Clip-5"></g>
                                                            <path d="M17.5282568,8.91328599 C17.5282568,13.8174035 13.61344,17.7929872 8.78495786,17.7929872 C3.95652061,17.7929872 0.0421083337,13.8174035 0.0421083337,8.91328599 C0.0421083337,4.00898588 3.95652061,0.0330370547 8.78495786,0.0330370547 C13.61344,0.0330370547 17.5282568,4.00898588 17.5282568,8.91328599" id="Fill-4" fill="#FBB040" mask="url(#mask-9)"></path>
                                                            <polygon id="Fill-7" fill="#4D4D4D" mask="url(#mask-9)" points="13.2253914 9.22729831 12.609042 8.22595097 13.9093969 6.48637765 10.3154895 8.12187472 10.2426541 7.62997023 11.2928714 6.01634994 11.1422524 5.75050551 11.6268969 3.85327168 9.74307255 5.72276723 9.62949555 4.6904047 10.1932185 3.1423686 9.44118711 3.38029013 8.78497472 1.48457937 8.12862361 3.38029013 7.37659219 3.1423686 7.93989896 4.6904047 7.82673816 5.72276723 5.94263634 3.85327168 6.42755833 5.75050551 6.27698557 6.01634994 7.32720285 7.62997023 7.25432119 8.12187472 3.6603676 6.48637765 4.96072249 8.22595097 4.34409558 9.22729831 7.10471957 10.5430898 7.14860579 10.9815485 5.05603283 10.357414 6.10786868 11.6009291 6.19596484 11.9954957 7.47842304 12.538723 7.61012796 12.9113667 7.035445 12.6829989 8.58552131 14.3803418 8.66261123 15.8351939 8.66261123 17.0726627 8.9293507 17.0726627 8.9293507 15.7844711 8.9838732 14.3803418 10.534412 12.6829989 9.959729 12.9113667 10.0913877 12.538723 11.3738459 11.9954957 11.4616646 11.6009291 12.5134542 10.357414 10.4208812 10.9815485 10.4648137 10.5430898"></polygon>
                                                        </g>
                                                        <text id="Incidents" font-family="Lato-Regular, Lato" font-size="12.1970511" font-weight="normal" fill="#FFFFFF">
                                                            <tspan x="135.406323" y="29.9100081">Incidents</tspan>
                                                        </text>
                                                        <text id="VictorOps-Test" font-family="Lato-Regular, Lato" font-size="7.62315696" font-weight="normal" fill="#FFFFFF">
                                                            <tspan x="134.713379" y="38.1478402">VictorOps Test</tspan>
                                                        </text>
                                                        <path d="M296.157729,30.8596416 C296.652507,30.4081274 296.906297,29.848333 296.906297,29.2011002 C296.906297,28.5549647 296.652356,27.9952327 296.157729,27.5438565 C295.669459,27.0982804 295.075326,26.8732023 294.391865,26.8732023 C293.709617,26.8732023 293.115542,27.0984176 292.627422,27.5438565 C292.132312,27.9956741 291.877432,28.5555606 291.877432,29.2011002 C291.877432,29.8477363 292.13216,30.4076857 292.627422,30.8596416 C293.115052,31.3046332 293.708906,31.528998 294.391865,31.528998 C295.076037,31.528998 295.669949,31.3047701 296.157729,30.8596416 Z M302.543804,30.3346134 L300.41748,30.6647739 L300.207094,30.6974413 L300.124588,30.8937132 L299.958193,31.2895503 C299.910287,31.4038864 299.851682,31.5193809 299.780887,31.6391929 L299.648059,31.8639888 L299.809697,32.0690488 L301.040812,33.6308863 L299.253552,35.2618677 L297.466918,34.0989179 L297.291348,33.9846367 L297.100763,34.071597 C296.969732,34.1313838 296.839056,34.1864218 296.70543,34.2378288 C296.567977,34.2912291 296.427398,34.3429219 296.282951,34.3933226 L296.074322,34.4661174 L296.03382,34.6833381 L295.675162,36.6069023 L293.108567,36.6069023 L292.749909,34.6833381 L292.709551,34.4668868 L292.501885,34.3937106 C292.353823,34.3415373 292.213994,34.2899937 292.0809,34.2382843 C291.946095,34.1864218 291.81542,34.1313838 291.684389,34.071597 L291.493803,33.9846367 L291.318234,34.0989179 L289.5316,35.2618677 L287.744339,33.6308863 L288.975454,32.0690488 L289.137092,31.8639888 L289.004264,31.6391929 C288.933469,31.5193809 288.874865,31.4038864 288.827131,31.2899608 L288.660563,30.8937132 L288.578049,30.697421 L288.367638,30.6647687 L286.239925,30.3345843 L286.239925,28.067616 L288.367638,27.7374316 L288.596596,27.7019013 L288.670459,27.4822919 C288.710715,27.3626037 288.75826,27.2435818 288.812467,27.1273919 C288.869195,27.0045993 288.930172,26.8790889 288.999289,26.7422067 L289.108125,26.5266624 L288.959739,26.3361731 L287.742834,24.7739851 L289.53195,23.1413109 L291.301665,24.2893297 L291.477088,24.4031272 L291.667322,24.3163272 C291.79589,24.2576643 291.928131,24.2030866 292.066657,24.1518056 C292.207052,24.0993399 292.354709,24.0479485 292.510581,23.9970543 L292.72707,23.9263682 L292.767407,23.7022331 L293.110594,21.795298 L295.673336,21.795298 L296.017787,23.7024658 L296.058234,23.926418 L296.27457,23.9970543 C296.422036,24.0452036 296.569409,24.0966158 296.718494,24.1518056 C296.860519,24.2048845 296.99421,24.2599224 297.117829,24.3163272 L297.308063,24.4031272 L297.483486,24.2893297 L299.253202,23.1413109 L301.042317,24.7739851 L299.825413,26.3361731 L299.677027,26.5266624 L299.785863,26.7422067 C299.858135,26.8853387 299.916798,27.0067616 299.969251,27.1230086 C300.028299,27.2496459 300.076428,27.3685242 300.114692,27.4822919 L300.188548,27.7018795 L300.41748,27.7374264 L302.543804,28.0675869 L302.543804,30.3346134 Z" id="Fill-1" stroke="#FFFFFF" stroke-width="0.762315696"></path>
                                                        <g id="UIStatusBarWhite">
                                                            <rect id="BG" x="0" y="0" width="319.991157" height="15.5739201"></rect>
                                                            <text id="9:41-AM" font-family="Lato-Regular, Lato" font-size="9.14778836" font-weight="normal" line-spacing="12.1970511" letter-spacing="0.0152463131" fill="#FFFFFF">
                                                                <tspan x="142.843354" y="9.778696">9:41 AM</tspan>
                                                            </text>
                                                            <text id="AT&amp;T" font-family="Lato-Regular, Lato" font-size="9.14778836" font-weight="normal" line-spacing="12.1970511" letter-spacing="0.0152463131" fill="#FFFFFF">
                                                                <tspan x="41.385523" y="9.389348">AT&amp;T</tspan>
                                                            </text>
                                                            <g id="Battery-Percentage" transform="translate(265.805988, 0.000000)">
                                                                <g id="Base">
                                                                    <use fill-opacity="0" fill="#FFFFFF" fill-rule="evenodd" xlink:href="#path-10"></use>
                                                                    <rect stroke="#FFFFFF" stroke-width="0.5" x="28.8358767" y="3.75413202" width="18.6994694" height="6.89761204" rx="1.28831353"></rect>
                                                                </g>
                                                                <rect id="Fill" fill="#FFFFFF" x="29.4391865" y="4.28282802" width="17.4928499" height="5.84022003" rx="0.575548351"></rect>
                                                                <path d="M48.212001,8.56565604 L48.402611,8.56565604 C49.004245,8.56565604 49.4919656,8.12170189 49.4919656,7.57400132 L49.4919656,6.83187475 C49.4919656,6.28419897 49.0029317,5.84022003 48.402611,5.84022003 L48.212001,5.84022003 L48.212001,8.56565604 L48.212001,8.56565604 Z" id="tip" fill="#FFFFFF"></path>
                                                                <text id="Percentage" font-family="Lato-Regular, Lato" font-size="9.14778836" font-weight="normal" line-spacing="12.1970511" letter-spacing="-0.00381157827" fill="#FFFFFF">
                                                                    <tspan x="2.92108073" y="9.08412426">100%</tspan>
                                                                </text>
                                                            </g>
                                                            <g id="Wi-Fi-Full" transform="translate(72.104674, 0.389348)">
                                                                <mask id="mask-12" fill="white">
                                                                    <use xlink:href="#path-11"></use>
                                                                </mask>
                                                                <use id="Carrot" fill-opacity="0" fill="#000000" xlink:href="#path-11"></use>
                                                                <path d="M5.75984083,17.1313121 C1.63622865,17.1313121 -1.70661951,14.0807639 -1.70661951,10.3177221 C-1.70661951,6.55468019 1.63622865,3.50413202 5.75984083,3.50413202 C9.88345301,3.50413202 13.2263012,6.55468019 13.2263012,10.3177221 C13.2263012,14.0807639 9.88345301,17.1313121 5.75984083,17.1313121 Z M5.75984083,15.9632681 C9.17654806,15.9632681 11.9463365,13.435671 11.9463365,10.3177221 C11.9463365,7.19977308 9.17654806,4.67217602 5.75984083,4.67217602 C2.3431336,4.67217602 -0.426654876,7.19977308 -0.426654876,10.3177221 C-0.426654876,13.435671 2.3431336,15.9632681 5.75984083,15.9632681 Z" id="Outer" fill="#FFFFFF" mask="url(#mask-12)"></path>
                                                                <path d="M5.75984083,14.7952241 C3.05003854,14.7952241 0.853309753,12.7905781 0.853309753,10.3177221 C0.853309753,7.84486597 3.05003854,5.84022003 5.75984083,5.84022003 C8.46964312,5.84022003 10.6663719,7.84486597 10.6663719,10.3177221 C10.6663719,12.7905781 8.46964312,14.7952241 5.75984083,14.7952241 Z M5.75984083,13.6271801 C7.76273817,13.6271801 9.38640728,12.1454852 9.38640728,10.3177221 C9.38640728,8.48995886 7.76273817,7.00826404 5.75984083,7.00826404 C3.75694349,7.00826404 2.13327438,8.48995886 2.13327438,10.3177221 C2.13327438,12.1454852 3.75694349,13.6271801 5.75984083,13.6271801 Z" id="Middle" fill="#FFFFFF" mask="url(#mask-12)"></path>
                                                                <ellipse id="Inner" fill="#FFFFFF" mask="url(#mask-12)" cx="5.75984083" cy="10.3177221" rx="2.34660182" ry="2.14141401"></ellipse>
                                                            </g>
                                                            <g id="Signal-Full" transform="translate(7.679788, 5.450872)" fill="#FFFFFF">
                                                                <ellipse id="Active" cx="2.34660182" cy="2.14141401" rx="2.34660182" ry="2.14141401"></ellipse>
                                                                <ellipse id="Active" cx="8.31977009" cy="2.14141401" rx="2.34660182" ry="2.14141401"></ellipse>
                                                                <ellipse id="Active" cx="14.2929384" cy="2.14141401" rx="2.34660182" ry="2.14141401"></ellipse>
                                                                <ellipse id="Active" cx="20.2661066" cy="2.14141401" rx="2.34660182" ry="2.14141401"></ellipse>
                                                                <path d="M26.2392749,4.28282802 C27.5352673,4.28282802 28.5858767,3.32408431 28.5858767,2.14141401 C28.5858767,0.95874371 27.5352673,0 26.2392749,0 C24.9432825,0 23.8926731,0.95874371 23.8926731,2.14141401 C23.8926731,3.32408431 24.9432825,4.28282802 26.2392749,4.28282802 Z" id="Active"></path>
                                                            </g>
                                                        </g>
                                                    </g>
                                                    <text id="Newest" fill="none" font-family="Lato-Regular, Lato" font-size="9.14778836" font-weight="normal" letter-spacing="-0.054886736">
                                                        <tspan x="147.81311" y="123.078965" fill="#7E7E7E">Newest</tspan>
                                                    </text>
                                                    <rect id="Rectangle-13" fill="#FCB040" fill-rule="evenodd" x="249.166448" y="73.1974244" width="24.7459828" height="2.33608801"></rect>
                                                    <text id="ALL" fill="none" font-family="Lato-Regular, Lato" font-size="10.6724198" font-weight="normal" letter-spacing="-0.304926246">
                                                        <tspan x="253.095909" y="64.1193723" fill="#4D4D4D">ALL</tspan>
                                                    </text>
                                                    <text id="TEAM" fill="none" font-family="Lato-Regular, Lato" font-size="10.6724198" font-weight="normal" letter-spacing="-0.304926246">
                                                        <tspan x="149.018705" y="64.1193723" fill="#4D4D4D">TEAM</tspan>
                                                    </text>
                                                    <text id="YOURS" fill="none" font-family="Lato-Regular, Lato" font-size="10.6724198" font-weight="normal" letter-spacing="-0.304926246">
                                                        <tspan x="50.1856645" y="64.1193723" fill="#4D4D4D">YOURS</tspan>
                                                    </text>
                                                    <g id="Segmented-Controller-3" stroke-width="1" fill="none" fill-rule="evenodd" transform="translate(15.359576, 85.656560)">
                                                        <rect id="Shape" stroke="#D6D6D6" stroke-width="0.762315696" x="0.381157848" y="0.381157848" width="291.922929" height="21.8198684" rx="3.04926279"></rect>
                                                        <path d="M0.426654876,3.44398746 C0.426654876,1.75695667 1.78825363,0.389348002 3.47028587,0.389348002 L99.4105862,0.389348002 L99.4105862,22.1928361 L3.47028587,22.1928361 C1.78933489,22.1928361 0.426654876,20.8289303 0.426654876,19.1381967 L0.426654876,3.44398746 Z" id="Selected-State" fill="#EAEAEA"></path>
                                                        <rect id="divider" fill="#D6D6D6" x="197.967863" y="0.778696004" width="1" height="21.0247921"></rect>
                                                        <text id="Triggered" font-family="Lato-Regular, Lato" font-size="9.91010405" font-weight="normal" letter-spacing="-0.0594606251" fill="#4D4D4D">
                                                            <tspan x="27.4500728" y="15.061524">Triggered</tspan>
                                                        </text>
                                                        <text id="Resolved" font-family="Lato-Regular, Lato" font-size="9.91010405" font-weight="normal" letter-spacing="-0.0594606251" fill="#7E7E7E">
                                                            <tspan x="224.697371" y="15.061524">Resolved</tspan>
                                                        </text>
                                                        <text id="Acked" font-family="Lato-Regular, Lato" font-size="9.91010405" font-weight="normal" letter-spacing="-0.0594606251" fill="#7E7E7E">
                                                            <tspan x="132.780385" y="15.061524">Acked</tspan>
                                                        </text>
                                                    </g>
                                                    <rect id="Rectangle-10" fill="#D6D6D6" fill-rule="evenodd" x="0" y="194.284653" width="322.551086" height="1"></rect>
                                                    <rect id="Rectangle-10" fill="#F1582F" fill-rule="evenodd" x="1.70661951" y="128.484841" width="5.11985852" height="65.7998123"></rect>
                                                    <text id="API:-affcb59f-3cd8-4" fill="none" font-family="Lato-Regular, Lato" font-size="10.6724198" font-weight="normal">
                                                        <tspan x="13.2263012" y="157.562893" fill="#4D4D4D">API: affcb59f-3cd8-47c8-83cf-48b223ec… </tspan>
                                                    </text>
                                                    <text id="06-15-2016-12:56-copy" fill="none" font-family="Lato-Regular, Lato" font-size="9.14778836" font-weight="normal" letter-spacing="-0.304926246">
                                                        <tspan x="244.806738" y="140.988973" fill="#B9B9B9">06-15-2016 12:56</tspan>
                                                    </text>
                                                    <text id="Teams:-Primary_Team" fill="none" font-family="Lato-Regular, Lato" font-size="10" font-weight="normal" letter-spacing="-0.25">
                                                        <tspan x="12.7996463" y="173.694205" fill="#7E7E7E">Teams: Primary_Team</tspan>
                                                    </text>
                                                    <text id="Users:-meechum" fill="none" font-family="Lato-Regular, Lato" font-size="9.14778836" font-weight="normal" letter-spacing="-0.228694722">
                                                        <tspan x="12.7996463" y="188.100081" fill="#7E7E7E">Users: meechum</tspan>
                                                    </text>
                                                    <rect id="Rectangle-10" fill="#D6D6D6" fill-rule="evenodd" x="0" y="260.473813" width="322.551086" height="1"></rect>
                                                    <rect id="Rectangle-10" fill="#F1582F" fill-rule="evenodd" x="1.70661951" y="194.674001" width="5.11985852" height="65.7998123"></rect>
                                                    <text id="#13278-|-2-alert" fill="none" font-family="Lato-Regular, Lato" font-size="9.14778836" font-weight="normal">
                                                        <tspan x="12.7996463" y="207.956829" fill="#D84F2A">#13278 | 2 alert</tspan>
                                                    </text>
                                                    <text id="#13279-|-1-alert" fill="none" font-family="Lato-Regular, Lato" font-size="9.14778836" font-weight="normal">
                                                        <tspan x="12.7996463" y="141.767669" fill="#D84F2A">#13279 | 1 alert</tspan>
                                                    </text>
                                                    <text id="API:-c68f6aca-00f9-4" fill="none" font-family="Lato-Regular, Lato" font-size="10.6724198" font-weight="normal">
                                                        <tspan x="12.7996463" y="223.752053" fill="#4D4D4D">API: c68f6aca-00f9-47b8-8589-ea2a2713… </tspan>
                                                    </text>
                                                    <text id="06-15-2016-12:32" fill="none" font-family="Lato-Regular, Lato" font-size="9.14778836" font-weight="normal" letter-spacing="-0.304926246">
                                                        <tspan x="244.806738" y="207.567481" fill="#B9B9B9">06-15-2016 12:32</tspan>
                                                    </text>
                                                    <text id="Teams:-Primary_Team," fill="none" font-family="Lato-Regular, Lato" font-size="10" font-weight="normal" letter-spacing="-0.25">
                                                        <tspan x="12.7996463" y="239.883365" fill="#7E7E7E">Teams: Primary_Team, DB_Team, IT</tspan>
                                                    </text>
                                                    <text id="Users:-meechum,-hdun" fill="none" font-family="Lato-Regular, Lato" font-size="9.14778836" font-weight="normal" letter-spacing="-0.228694722">
                                                        <tspan x="12.7996463" y="254.289241" fill="#7E7E7E">Users: meechum, hdunbar, remy</tspan>
                                                    </text>
                                                    <rect id="Rectangle-10" fill="#F1582F" fill-rule="evenodd" x="1.70661951" y="260.863161" width="5.11985852" height="65.7998123"></rect>
                                                    <text id="#13277-|-2-alert" fill="none" font-family="Lato-Regular, Lato" font-size="9.14778836" font-weight="normal">
                                                        <tspan x="12.7996463" y="273.756641" fill="#D84F2A">#13277 | 2 alert</tspan>
                                                    </text>
                                                    <text id="API:-f37e3eff-b564-4" fill="none" font-family="Lato-Regular, Lato" font-size="10.6724198" font-weight="normal">
                                                        <tspan x="12.7996463" y="289.941213" fill="#4D4D4D">API: f37e3eff-b564-48d5-922b-ffc49f700… </tspan>
                                                    </text>
                                                    <text id="06-15-2016-12:28" fill="none" font-family="Lato-Regular, Lato" font-size="9.14778836" font-weight="normal" letter-spacing="-0.304926246">
                                                        <tspan x="244.806738" y="273.756641" fill="#B9B9B9">06-15-2016 12:28</tspan>
                                                    </text>
                                                    <text id="Teams:-Duty_Team,-Pr" fill="none" font-family="Lato-Regular, Lato" font-size="10" font-weight="normal" letter-spacing="-0.25">
                                                        <tspan x="12.7996463" y="306.072526" fill="#7E7E7E">Teams: Duty_Team, Primary_Team, DB_Team, IT</tspan>
                                                    </text>
                                                    <g id="Group-3" stroke-width="1" fill="none" fill-rule="evenodd" transform="translate(290.551971, 294.347090)">
                                                        <rect id="Rectangle-1-Copy-165" x="0" y="0" width="20.4794341" height="18.6887041"></rect>
                                                    </g>
                                                    <g id="Group-3" stroke-width="1" fill="none" fill-rule="evenodd" transform="translate(290.551971, 227.768581)">
                                                        <rect id="Rectangle-1-Copy-165" x="0" y="0" width="20.4794341" height="18.6887041"></rect>
                                                        <g id="Group-931" transform="translate(0.426655, 7.397612)" fill="#B9B9B9">
                                                            <path d="M4.26654876,1.94674001 C4.26654876,3.02211919 3.31169515,3.89348002 2.13327438,3.89348002 C0.954853613,3.89348002 0,3.02211919 0,1.94674001 C0,0.871360829 0.954853613,0 2.13327438,0 C3.31169515,0 4.26654876,0.871360829 4.26654876,1.94674001 L4.26654876,1.94674001 Z" id="Stroke-4424"></path>
                                                            <path d="M11.9463365,1.94674001 C11.9463365,3.02211919 10.9914829,3.89348002 9.81306215,3.89348002 C8.63464139,3.89348002 7.67978777,3.02211919 7.67978777,1.94674001 C7.67978777,0.871360829 8.63464139,0 9.81306215,0 C10.9914829,0 11.9463365,0.871360829 11.9463365,1.94674001 L11.9463365,1.94674001 Z" id="Stroke-4425"></path>
                                                            <path d="M19.6261243,1.94674001 C19.6261243,3.02211919 18.6712707,3.89348002 17.4928499,3.89348002 C16.3144292,3.89348002 15.3595755,3.02211919 15.3595755,1.94674001 C15.3595755,0.871360829 16.3144292,0 17.4928499,0 C18.6712707,0 19.6261243,0.871360829 19.6261243,1.94674001 L19.6261243,1.94674001 Z" id="Stroke-4426"></path>
                                                        </g>
                                                    </g>
                                                    <g id="Group-3" stroke-width="1" fill="none" fill-rule="evenodd" transform="translate(290.551971, 161.579421)">
                                                        <rect id="Rectangle-1-Copy-165" x="0" y="0" width="20.4794341" height="18.6887041"></rect>
                                                        <g id="Group-931" transform="translate(0.426655, 7.397612)" fill="#B9B9B9">
                                                            <path d="M4.26654876,1.94674001 C4.26654876,3.02211919 3.31169515,3.89348002 2.13327438,3.89348002 C0.954853613,3.89348002 0,3.02211919 0,1.94674001 C0,0.871360829 0.954853613,0 2.13327438,0 C3.31169515,0 4.26654876,0.871360829 4.26654876,1.94674001 L4.26654876,1.94674001 Z" id="Stroke-4424"></path>
                                                            <path d="M9.81306215,3.89348002 C8.63464139,3.89348002 7.67978777,3.02211919 7.67978777,1.94674001 C7.67978777,0.871360829 8.63464139,0 9.81306215,0 C10.9914829,0 11.9463365,0.871360829 11.9463365,1.94674001 C11.9463365,3.02211919 10.9914829,3.89348002 9.81306215,3.89348002 Z" id="Stroke-4425"></path>
                                                            <path d="M19.6261243,1.94674001 C19.6261243,3.02211919 18.6712707,3.89348002 17.4928499,3.89348002 C16.3144292,3.89348002 15.3595755,3.02211919 15.3595755,1.94674001 C15.3595755,0.871360829 16.3144292,0 17.4928499,0 C18.6712707,0 19.6261243,0.871360829 19.6261243,1.94674001 L19.6261243,1.94674001 Z" id="Stroke-4426"></path>
                                                        </g>
                                                    </g>
                                                    <g id="Group-2" stroke-width="1" fill="none" fill-rule="evenodd" transform="translate(127.996463, 115.636357)">
                                                        <rect id="Rectangle-1-Copy-127" opacity="0.2" x="0" y="0" width="10.239717" height="9.34435205"></rect>
                                                        <g id="Group-123" transform="translate(2.559929, 3.504132)" stroke-linecap="round" stroke-width="0.5" stroke="#7E7E7E" stroke-linejoin="round">
                                                            <polyline id="Stroke-562" points="0 0 2.55992926 2.72543601 5.11985852 0"></polyline>
                                                        </g>
                                                    </g>
                                                </g>
                                            </g>
                                        </g>
                                    </g>
                                </g>
                            </g>
                        </g>
                    </g>
                </g>
            </g>
        </g>
    </g>
</svg>