<?xml version="1.0" encoding="UTF-8"?>
<svg width="152px" height="525px" viewBox="0 0 152 525" version="1.1" xmlns="http://www.w3.org/2000/svg" xmlns:xlink="http://www.w3.org/1999/xlink">
    <!-- Generator: Sketch 46.2 (44496) - http://www.bohemiancoding.com/sketch -->
    <title>skills-icons</title>
    <desc>Created with Sketch.</desc>
    <defs>
        <rect id="path-1" x="0" y="0" width="152" height="525"></rect>
    </defs>
    <g id="Page-1" stroke="none" stroke-width="1" fill="none" fill-rule="evenodd">
        <g id="skills-icons">
            <g id="Group-3-Clipped">
                <mask id="mask-2" fill="white">
                    <use xlink:href="#path-1"></use>
                </mask>
                <g id="path-2"></g>
                <g id="Group-3" mask="url(#mask-2)">
                    <g transform="translate(-45.000000, -46.000000)" id="Group">
                        <g>
                            <g id="100-search-engine-user-interface-communication-webby" transform="translate(97.754834, 308.578057) rotate(-45.000000) translate(-97.754834, -308.578057) translate(65.754834, 276.578057)">
                                <polygon id="Fill-34" points="0 0 63.75 0 63.75 63.75 0 63.75"></polygon>
                                <polygon id="Stroke-35" stroke="#344F73" stroke-width="2" points="0 0 63.75 0 63.75 63.75 0 63.75"></polygon>
                                <polygon id="Fill-38" points="0 0 63.75 0 63.75 13.1896552 0 13.1896552"></polygon>
                                <polygon id="Stroke-39" stroke="#344F73" stroke-width="2" points="0 0 63.75 0 63.75 13.1896552 0 13.1896552"></polygon>
                                <polygon id="Fill-42" points="5.49568966 18.6853448 50.5603448 18.6853448 50.5603448 25.2801724 5.49568966 25.2801724"></polygon>
                                <polygon id="Stroke-43" stroke="#344F73" stroke-width="2" points="5.49568966 18.6853448 50.5603448 18.6853448 50.5603448 25.2801724 5.49568966 25.2801724"></polygon>
                                <polygon id="Fill-44" points="50.5603448 18.6853448 58.2543103 18.6853448 58.2543103 25.2801724 50.5603448 25.2801724"></polygon>
                                <polygon id="Stroke-45" stroke="#344F73" stroke-width="2" points="50.5603448 18.6853448 58.2543103 18.6853448 58.2543103 25.2801724 50.5603448 25.2801724"></polygon>
                                <path d="M39.5689655,36.2715517 L4.39655172,36.2715517 M39.5689655,40.6681034 L4.39655172,40.6681034 M28.5775862,31.875 L4.39655172,31.875 M39.5689655,52.7586207 L4.39655172,52.7586207 M39.5689655,57.1551724 L4.39655172,57.1551724 M28.5775862,48.362069 L4.39655172,48.362069" id="Stroke-46" stroke="#344F73" stroke-width="2" stroke-linecap="round"></path>
                                <path d="M9.89224138,6.59482759 C9.89224138,8.41609914 8.41609914,9.89224138 6.59482759,9.89224138 C4.77355603,9.89224138 3.29741379,8.41609914 3.29741379,6.59482759 C3.29741379,4.77355603 4.77355603,3.29741379 6.59482759,3.29741379 C8.41609914,3.29741379 9.89224138,4.77355603 9.89224138,6.59482759 L9.89224138,6.59482759 Z" id="Fill-723"></path>
                                <path d="M9.89224138,6.59482759 C9.89224138,8.41609914 8.41609914,9.89224138 6.59482759,9.89224138 C4.77355603,9.89224138 3.29741379,8.41609914 3.29741379,6.59482759 C3.29741379,4.77355603 4.77355603,3.29741379 6.59482759,3.29741379 C8.41609914,3.29741379 9.89224138,4.77355603 9.89224138,6.59482759 L9.89224138,6.59482759 Z" id="Stroke-724" stroke="#344F73" stroke-width="2"></path>
                                <path d="M19.7844828,6.59482759 C19.7844828,8.41609914 18.3083405,9.89224138 16.487069,9.89224138 C14.6657974,9.89224138 13.1896552,8.41609914 13.1896552,6.59482759 C13.1896552,4.77355603 14.6657974,3.29741379 16.487069,3.29741379 C18.3083405,3.29741379 19.7844828,4.77355603 19.7844828,6.59482759 L19.7844828,6.59482759 Z" id="Fill-725"></path>
                                <path d="M19.7844828,6.59482759 C19.7844828,8.41609914 18.3083405,9.89224138 16.487069,9.89224138 C14.6657974,9.89224138 13.1896552,8.41609914 13.1896552,6.59482759 C13.1896552,4.77355603 14.6657974,3.29741379 16.487069,3.29741379 C18.3083405,3.29741379 19.7844828,4.77355603 19.7844828,6.59482759 L19.7844828,6.59482759 Z" id="Stroke-726" stroke="#344F73" stroke-width="2"></path>
                                <path d="M29.6767241,6.59482759 C29.6767241,8.41609914 28.2005819,9.89224138 26.3793103,9.89224138 C24.5580388,9.89224138 23.0818966,8.41609914 23.0818966,6.59482759 C23.0818966,4.77355603 24.5580388,3.29741379 26.3793103,3.29741379 C28.2005819,3.29741379 29.6767241,4.77355603 29.6767241,6.59482759 L29.6767241,6.59482759 Z" id="Fill-727"></path>
                                <path d="M29.6767241,6.59482759 C29.6767241,8.41609914 28.2005819,9.89224138 26.3793103,9.89224138 C24.5580388,9.89224138 23.0818966,8.41609914 23.0818966,6.59482759 C23.0818966,4.77355603 24.5580388,3.29741379 26.3793103,3.29741379 C28.2005819,3.29741379 29.6767241,4.77355603 29.6767241,6.59482759 L29.6767241,6.59482759 Z" id="Stroke-728" stroke="#344F73" stroke-width="2"></path>
                            </g>
                            <g id="5-code-user-interface-communication-webby-copy" transform="translate(150.254834, 46.078057) rotate(-45.000000) translate(-150.254834, -46.078057) translate(118.254834, 14.078057)">
                                <polygon id="Fill-432" points="0 63.2097458 63.2097458 63.2097458 63.2097458 0 0 0"></polygon>
                                <polygon id="Stroke-433" stroke="#344F73" stroke-width="2" stroke-linecap="round" points="0 63.2097458 63.2097458 63.2097458 63.2097458 0 0 0"></polygon>
                                <path d="M22.1788582,47.684545 L6.65365745,32.1593443 L22.1788582,16.6341436 M41.0308876,16.6341436 L56.5560883,32.1593443 L41.0308876,47.684545 M36.595116,8.87154326 L26.6146298,54.3382025" id="Stroke-437" stroke="#344F73" stroke-width="2" stroke-linecap="round"></path>
                            </g>
                            <g id="5-code-user-interface-communication-webby-copy-2" transform="translate(150.254834, 361.078057) rotate(-45.000000) translate(-150.254834, -361.078057) translate(118.254834, 329.078057)">
                                <polygon id="Fill-432" points="0 63.2097458 63.2097458 63.2097458 63.2097458 0 0 0"></polygon>
                                <polygon id="Stroke-433" stroke="#344F73" stroke-width="2" stroke-linecap="round" points="0 63.2097458 63.2097458 63.2097458 63.2097458 0 0 0"></polygon>
                                <path d="M22.1788582,47.684545 L6.65365745,32.1593443 L22.1788582,16.6341436 M41.0308876,16.6341436 L56.5560883,32.1593443 L41.0308876,47.684545 M36.595116,8.87154326 L26.6146298,54.3382025" id="Stroke-437" stroke="#344F73" stroke-width="2" stroke-linecap="round"></path>
                            </g>
                            <g id="75-hero-image-header-user-interface-communication-webby" transform="translate(45.254834, 46.078057) rotate(-45.000000) translate(-45.254834, -46.078057) translate(13.254834, 14.078057)">
                                <polygon id="Fill-1" points="0 0 63.75 0 63.75 13.1896552 0 13.1896552"></polygon>
                                <polygon id="Stroke-2" stroke="#344F73" stroke-width="2" points="0 0 63.75 0 63.75 13.1896552 0 13.1896552"></polygon>
                                <polygon id="Fill-3" points="0 13.1896552 63.75 13.1896552 63.75 63.75 0 63.75"></polygon>
                                <polygon id="Stroke-4" stroke="#344F73" stroke-width="2" points="0 13.1896552 63.75 13.1896552 63.75 63.75 0 63.75"></polygon>
                                <polygon id="Fill-152" points="25.2801724 27.4784483 38.4698276 27.4784483 38.4698276 40.6681034 25.2801724 40.6681034"></polygon>
                                <polygon id="Stroke-153" stroke="#344F73" stroke-width="2" stroke-linecap="round" points="25.2801724 27.4784483 38.4698276 27.4784483 38.4698276 40.6681034 25.2801724 40.6681034"></polygon>
                                <path d="M0,13.1896552 L0,34.0732759 L6.59482759,34.0732759 L6.59482759,27.4784483 L19.7844828,27.4784483 L19.7844828,34.0732759 L25.2801724,34.0732759 L25.2801724,27.4784483 L38.4698276,27.4784483 L38.4698276,34.0732759 L43.9655172,34.0732759 L43.9655172,27.4784483 L57.1551724,27.4784483 L57.1551724,34.0732759 L63.75,34.0732759 L63.75,13.1896552 L0,13.1896552 L0,13.1896552 Z M6.59482759,47.262931 L19.7844828,47.262931 L6.59482759,47.262931 Z M6.59482759,51.6594828 L19.7844828,51.6594828 L6.59482759,51.6594828 Z M6.59482759,56.0560345 L19.7844828,56.0560345 L6.59482759,56.0560345 Z M25.2801724,47.262931 L38.4698276,47.262931 L25.2801724,47.262931 Z M25.2801724,51.6594828 L38.4698276,51.6594828 L25.2801724,51.6594828 Z M25.2801724,56.0560345 L38.4698276,56.0560345 L25.2801724,56.0560345 Z M43.9655172,47.262931 L57.1551724,47.262931 L43.9655172,47.262931 Z M43.9655172,51.6594828 L57.1551724,51.6594828 L43.9655172,51.6594828 Z M43.9655172,56.0560345 L57.1551724,56.0560345 L43.9655172,56.0560345 Z" id="Stroke-154" stroke="#344F73" stroke-width="2" stroke-linecap="round"></path>
                            </g>
                            <g id="75-hero-image-header-user-interface-communication-webby-copy" transform="translate(45.254834, 361.078057) rotate(-45.000000) translate(-45.254834, -361.078057) translate(13.254834, 329.078057)">
                                <polygon id="Fill-1" points="0 0 63.75 0 63.75 13.1896552 0 13.1896552"></polygon>
                                <polygon id="Stroke-2" stroke="#344F73" stroke-width="2" points="0 0 63.75 0 63.75 13.1896552 0 13.1896552"></polygon>
                                <polygon id="Fill-3" points="0 13.1896552 63.75 13.1896552 63.75 63.75 0 63.75"></polygon>
                                <polygon id="Stroke-4" stroke="#344F73" stroke-width="2" points="0 13.1896552 63.75 13.1896552 63.75 63.75 0 63.75"></polygon>
                                <polygon id="Fill-150" points="43.9655172 27.4784483 57.1551724 27.4784483 57.1551724 40.6681034 43.9655172 40.6681034"></polygon>
                                <polygon id="Stroke-151" stroke="#344F73" stroke-width="2" stroke-linecap="round" points="43.9655172 27.4784483 57.1551724 27.4784483 57.1551724 40.6681034 43.9655172 40.6681034"></polygon>
                                <polygon id="Fill-152" points="25.2801724 27.4784483 38.4698276 27.4784483 38.4698276 40.6681034 25.2801724 40.6681034"></polygon>
                                <polygon id="Stroke-153" stroke="#344F73" stroke-width="2" stroke-linecap="round" points="25.2801724 27.4784483 38.4698276 27.4784483 38.4698276 40.6681034 25.2801724 40.6681034"></polygon>
                                <path d="M0,13.1896552 L0,34.0732759 L6.59482759,34.0732759 L6.59482759,27.4784483 L19.7844828,27.4784483 L19.7844828,34.0732759 L25.2801724,34.0732759 L25.2801724,27.4784483 L38.4698276,27.4784483 L38.4698276,34.0732759 L43.9655172,34.0732759 L43.9655172,27.4784483 L57.1551724,27.4784483 L57.1551724,34.0732759 L63.75,34.0732759 L63.75,13.1896552 L0,13.1896552 L0,13.1896552 Z M6.59482759,47.262931 L19.7844828,47.262931 L6.59482759,47.262931 Z M6.59482759,51.6594828 L19.7844828,51.6594828 L6.59482759,51.6594828 Z M6.59482759,56.0560345 L19.7844828,56.0560345 L6.59482759,56.0560345 Z M25.2801724,47.262931 L38.4698276,47.262931 L25.2801724,47.262931 Z M25.2801724,51.6594828 L38.4698276,51.6594828 L25.2801724,51.6594828 Z M25.2801724,56.0560345 L38.4698276,56.0560345 L25.2801724,56.0560345 Z M43.9655172,47.262931 L57.1551724,47.262931 L43.9655172,47.262931 Z M43.9655172,51.6594828 L57.1551724,51.6594828 L43.9655172,51.6594828 Z M43.9655172,56.0560345 L57.1551724,56.0560345 L43.9655172,56.0560345 Z" id="Stroke-154" stroke="#344F73" stroke-width="2" stroke-linecap="round"></path>
                                <path d="M58.2543103,19.7844828 C57.6475862,19.7844828 57.1551724,19.292069 57.1551724,18.6853448 C57.1551724,18.0786207 57.6475862,17.5862069 58.2543103,17.5862069 C58.8610345,17.5862069 59.3534483,18.0786207 59.3534483,18.6853448 C59.3534483,19.292069 58.8610345,19.7844828 58.2543103,19.7844828" id="Fill-462"></path>
                                <path d="M61.5517241,16.487069 C60.945,16.487069 60.4525862,15.9946552 60.4525862,15.387931 C60.4525862,14.7812069 60.945,14.2887931 61.5517241,14.2887931 C62.1584483,14.2887931 62.6508621,14.7812069 62.6508621,15.387931 C62.6508621,15.9946552 62.1584483,16.487069 61.5517241,16.487069" id="Fill-463"></path>
                                <path d="M61.5517241,23.0818966 C60.945,23.0818966 60.4525862,22.5894828 60.4525862,21.9827586 C60.4525862,21.3760345 60.945,20.8836207 61.5517241,20.8836207 C62.1584483,20.8836207 62.6508621,21.3760345 62.6508621,21.9827586 C62.6508621,22.5894828 62.1584483,23.0818966 61.5517241,23.0818966" id="Fill-464"></path>
                                <path d="M54.9568966,16.487069 C54.3501724,16.487069 53.8577586,15.9946552 53.8577586,15.387931 C53.8577586,14.7812069 54.3501724,14.2887931 54.9568966,14.2887931 C55.5636207,14.2887931 56.0560345,14.7812069 56.0560345,15.387931 C56.0560345,15.9946552 55.5636207,16.487069 54.9568966,16.487069" id="Fill-465"></path>
                                <path d="M54.9568966,23.0818966 C54.3501724,23.0818966 53.8577586,22.5894828 53.8577586,21.9827586 C53.8577586,21.3760345 54.3501724,20.8836207 54.9568966,20.8836207 C55.5636207,20.8836207 56.0560345,21.3760345 56.0560345,21.9827586 C56.0560345,22.5894828 55.5636207,23.0818966 54.9568966,23.0818966" id="Fill-466"></path>
                                <path d="M58.2543103,26.3793103 C57.6475862,26.3793103 57.1551724,25.8868966 57.1551724,25.2801724 C57.1551724,24.6734483 57.6475862,24.1810345 58.2543103,24.1810345 C58.8610345,24.1810345 59.3534483,24.6734483 59.3534483,25.2801724 C59.3534483,25.8868966 58.8610345,26.3793103 58.2543103,26.3793103" id="Fill-467"></path>
                                <path d="M61.5517241,29.6767241 C60.945,29.6767241 60.4525862,29.1843103 60.4525862,28.5775862 C60.4525862,27.9708621 60.945,27.4784483 61.5517241,27.4784483 C62.1584483,27.4784483 62.6508621,27.9708621 62.6508621,28.5775862 C62.6508621,29.1843103 62.1584483,29.6767241 61.5517241,29.6767241" id="Fill-468"></path>
                                <path d="M51.6594828,19.7844828 C51.0527586,19.7844828 50.5603448,19.292069 50.5603448,18.6853448 C50.5603448,18.0786207 51.0527586,17.5862069 51.6594828,17.5862069 C52.2662069,17.5862069 52.7586207,18.0786207 52.7586207,18.6853448 C52.7586207,19.292069 52.2662069,19.7844828 51.6594828,19.7844828" id="Fill-469"></path>
                                <path d="M48.362069,16.487069 C47.7553448,16.487069 47.262931,15.9946552 47.262931,15.387931 C47.262931,14.7812069 47.7553448,14.2887931 48.362069,14.2887931 C48.9687931,14.2887931 49.4612069,14.7812069 49.4612069,15.387931 C49.4612069,15.9946552 48.9687931,16.487069 48.362069,16.487069" id="Fill-470"></path>
                                <path d="M48.362069,23.0818966 C47.7553448,23.0818966 47.262931,22.5894828 47.262931,21.9827586 C47.262931,21.3760345 47.7553448,20.8836207 48.362069,20.8836207 C48.9687931,20.8836207 49.4612069,21.3760345 49.4612069,21.9827586 C49.4612069,22.5894828 48.9687931,23.0818966 48.362069,23.0818966" id="Fill-471"></path>
                                <path d="M51.6594828,26.3793103 C51.0527586,26.3793103 50.5603448,25.8868966 50.5603448,25.2801724 C50.5603448,24.6734483 51.0527586,24.1810345 51.6594828,24.1810345 C52.2662069,24.1810345 52.7586207,24.6734483 52.7586207,25.2801724 C52.7586207,25.8868966 52.2662069,26.3793103 51.6594828,26.3793103" id="Fill-472"></path>
                                <path d="M45.0646552,19.7844828 C44.457931,19.7844828 43.9655172,19.292069 43.9655172,18.6853448 C43.9655172,18.0786207 44.457931,17.5862069 45.0646552,17.5862069 C45.6713793,17.5862069 46.1637931,18.0786207 46.1637931,18.6853448 C46.1637931,19.292069 45.6713793,19.7844828 45.0646552,19.7844828" id="Fill-473"></path>
                                <path d="M41.7672414,23.0818966 C41.1605172,23.0818966 40.6681034,22.5894828 40.6681034,21.9827586 C40.6681034,21.3760345 41.1605172,20.8836207 41.7672414,20.8836207 C42.3739655,20.8836207 42.8663793,21.3760345 42.8663793,21.9827586 C42.8663793,22.5894828 42.3739655,23.0818966 41.7672414,23.0818966" id="Fill-475"></path>
                                <path d="M45.0646552,26.3793103 C44.457931,26.3793103 43.9655172,25.8868966 43.9655172,25.2801724 C43.9655172,24.6734483 44.457931,24.1810345 45.0646552,24.1810345 C45.6713793,24.1810345 46.1637931,24.6734483 46.1637931,25.2801724 C46.1637931,25.8868966 45.6713793,26.3793103 45.0646552,26.3793103" id="Fill-476"></path>
                                <path d="M41.7672414,29.6767241 C41.1605172,29.6767241 40.6681034,29.1843103 40.6681034,28.5775862 C40.6681034,27.9708621 41.1605172,27.4784483 41.7672414,27.4784483 C42.3739655,27.4784483 42.8663793,27.9708621 42.8663793,28.5775862 C42.8663793,29.1843103 42.3739655,29.6767241 41.7672414,29.6767241" id="Fill-477"></path>
                                <path d="M38.4698276,26.3793103 C37.8631034,26.3793103 37.3706897,25.8868966 37.3706897,25.2801724 C37.3706897,24.6734483 37.8631034,24.1810345 38.4698276,24.1810345 C39.0765517,24.1810345 39.5689655,24.6734483 39.5689655,25.2801724 C39.5689655,25.8868966 39.0765517,26.3793103 38.4698276,26.3793103" id="Fill-481"></path>
                                <path d="M58.2543103,32.9741379 C57.6475862,32.9741379 57.1551724,32.4817241 57.1551724,31.875 C57.1551724,31.2682759 57.6475862,30.7758621 58.2543103,30.7758621 C58.8610345,30.7758621 59.3534483,31.2682759 59.3534483,31.875 C59.3534483,32.4817241 58.8610345,32.9741379 58.2543103,32.9741379" id="Fill-503"></path>
                                <path d="M38.4698276,32.9741379 C37.8631034,32.9741379 37.3706897,32.4817241 37.3706897,31.875 C37.3706897,31.2682759 37.8631034,30.7758621 38.4698276,30.7758621 C39.0765517,30.7758621 39.5689655,31.2682759 39.5689655,31.875 C39.5689655,32.4817241 39.0765517,32.9741379 38.4698276,32.9741379" id="Fill-504"></path>
                            </g>
                            <g id="55-coding-app-user-interface-communication-webby" transform="translate(97.754834, 98.578057) rotate(-45.000000) translate(-97.754834, -98.578057) translate(65.754834, 66.578057)">
                                <polygon id="Fill-213" points="0 0 63.75 0 63.75 63.75 0 63.75"></polygon>
                                <polygon id="Stroke-214" stroke="#344F73" stroke-width="2" points="0 0 63.75 0 63.75 63.75 0 63.75"></polygon>
                                <polygon id="Fill-219" points="0 0 63.75 0 63.75 13.1896552 0 13.1896552"></polygon>
                                <polygon id="Stroke-220" stroke="#344F73" stroke-width="2" points="0 0 63.75 0 63.75 13.1896552 0 13.1896552"></polygon>
                                <polygon id="Fill-239" points="0 13.1896552 7.69396552 13.1896552 7.69396552 63.75 0 63.75"></polygon>
                                <polygon id="Stroke-240" stroke="#344F73" stroke-width="2" stroke-linecap="round" points="0 13.1896552 7.69396552 13.1896552 7.69396552 63.75 0 63.75"></polygon>
                                <path d="M3.29741379,18.6853448 L4.39655172,18.6853448 M3.29741379,23.0818966 L4.39655172,23.0818966 M3.29741379,27.4784483 L4.39655172,27.4784483 M3.29741379,31.875 L4.39655172,31.875 M3.29741379,36.2715517 L4.39655172,36.2715517 M3.29741379,40.6681034 L4.39655172,40.6681034 M3.29741379,45.0646552 L4.39655172,45.0646552 M3.29741379,49.4612069 L4.39655172,49.4612069 M3.29741379,53.8577586 L4.39655172,53.8577586 M3.29741379,58.2543103 L4.39655172,58.2543103" id="Stroke-241" stroke="#344F73" stroke-width="2" stroke-linecap="round"></path>
                                <path d="M13.1896552,18.6853448 L27.4784483,18.6853448 M31.875,18.6853448 L42.8663793,18.6853448 M47.262931,18.6853448 L49.4612069,18.6853448 M54.9568966,23.0818966 L38.4698276,23.0818966 M34.0732759,23.0818966 L18.6853448,23.0818966 M14.2887931,23.0818966 L13.1896552,23.0818966 M13.1896552,27.4784483 L23.0818966,27.4784483 M27.4784483,27.4784483 L29.6767241,27.4784483 M34.0732759,27.4784483 L49.4612069,27.4784483 M13.1896552,31.875 L27.4784483,31.875 M31.875,31.875 L42.8663793,31.875 M47.262931,36.2715517 L38.4698276,36.2715517 M34.0732759,36.2715517 L18.6853448,36.2715517 M14.2887931,36.2715517 L13.1896552,36.2715517 M13.1896552,40.6681034 L23.0818966,40.6681034 M27.4784483,40.6681034 L29.6767241,40.6681034 M34.0732759,40.6681034 L50.5603448,40.6681034 M13.1896552,45.0646552 L27.4784483,45.0646552 M31.875,45.0646552 L42.8663793,45.0646552 M47.262931,45.0646552 L54.9568966,45.0646552 M42.8663793,49.4612069 L38.4698276,49.4612069 M34.0732759,49.4612069 L18.6853448,49.4612069 M14.2887931,49.4612069 L13.1896552,49.4612069 M13.1896552,53.8577586 L23.0818966,53.8577586 M27.4784483,53.8577586 L29.6767241,53.8577586 M34.0732759,53.8577586 L41.7672414,53.8577586 M46.1637931,53.8577586 L47.262931,53.8577586" id="Stroke-250" stroke="#344F73" stroke-width="2" stroke-linecap="round"></path>
                                <path d="M9.89224138,6.59482759 C9.89224138,8.41609914 8.41609914,9.89224138 6.59482759,9.89224138 C4.77355603,9.89224138 3.29741379,8.41609914 3.29741379,6.59482759 C3.29741379,4.77355603 4.77355603,3.29741379 6.59482759,3.29741379 C8.41609914,3.29741379 9.89224138,4.77355603 9.89224138,6.59482759 L9.89224138,6.59482759 Z" id="Fill-1712"></path>
                                <path d="M9.89224138,6.59482759 C9.89224138,8.41609914 8.41609914,9.89224138 6.59482759,9.89224138 C4.77355603,9.89224138 3.29741379,8.41609914 3.29741379,6.59482759 C3.29741379,4.77355603 4.77355603,3.29741379 6.59482759,3.29741379 C8.41609914,3.29741379 9.89224138,4.77355603 9.89224138,6.59482759 L9.89224138,6.59482759 Z" id="Stroke-1713" stroke="#344F73" stroke-width="2"></path>
                                <path d="M19.7844828,6.59482759 C19.7844828,8.41609914 18.3083405,9.89224138 16.487069,9.89224138 C14.6657974,9.89224138 13.1896552,8.41609914 13.1896552,6.59482759 C13.1896552,4.77355603 14.6657974,3.29741379 16.487069,3.29741379 C18.3083405,3.29741379 19.7844828,4.77355603 19.7844828,6.59482759 L19.7844828,6.59482759 Z" id="Fill-1714"></path>
                                <path d="M19.7844828,6.59482759 C19.7844828,8.41609914 18.3083405,9.89224138 16.487069,9.89224138 C14.6657974,9.89224138 13.1896552,8.41609914 13.1896552,6.59482759 C13.1896552,4.77355603 14.6657974,3.29741379 16.487069,3.29741379 C18.3083405,3.29741379 19.7844828,4.77355603 19.7844828,6.59482759 L19.7844828,6.59482759 Z" id="Stroke-1715" stroke="#344F73" stroke-width="2"></path>
                                <path d="M29.6767241,6.59482759 C29.6767241,8.41609914 28.2005819,9.89224138 26.3793103,9.89224138 C24.5580388,9.89224138 23.0818966,8.41609914 23.0818966,6.59482759 C23.0818966,4.77355603 24.5580388,3.29741379 26.3793103,3.29741379 C28.2005819,3.29741379 29.6767241,4.77355603 29.6767241,6.59482759 L29.6767241,6.59482759 Z" id="Fill-1716"></path>
                                <path d="M29.6767241,6.59482759 C29.6767241,8.41609914 28.2005819,9.89224138 26.3793103,9.89224138 C24.5580388,9.89224138 23.0818966,8.41609914 23.0818966,6.59482759 C23.0818966,4.77355603 24.5580388,3.29741379 26.3793103,3.29741379 C28.2005819,3.29741379 29.6767241,4.77355603 29.6767241,6.59482759 L29.6767241,6.59482759 Z" id="Stroke-1717" stroke="#344F73" stroke-width="2"></path>
                            </g>
                            <g id="55-coding-app-user-interface-communication-webby-copy" transform="translate(97.754834, 413.578057) rotate(-45.000000) translate(-97.754834, -413.578057) translate(65.754834, 381.578057)">
                                <polygon id="Fill-213" points="0 0 63.75 0 63.75 63.75 0 63.75"></polygon>
                                <polygon id="Stroke-214" stroke="#344F73" stroke-width="2" points="0 0 63.75 0 63.75 63.75 0 63.75"></polygon>
                                <polygon id="Fill-219" points="0 0 63.75 0 63.75 13.1896552 0 13.1896552"></polygon>
                                <polygon id="Stroke-220" stroke="#344F73" stroke-width="2" points="0 0 63.75 0 63.75 13.1896552 0 13.1896552"></polygon>
                                <polygon id="Fill-239" points="0 13.1896552 7.69396552 13.1896552 7.69396552 63.75 0 63.75"></polygon>
                                <polygon id="Stroke-240" stroke="#344F73" stroke-width="2" stroke-linecap="round" points="0 13.1896552 7.69396552 13.1896552 7.69396552 63.75 0 63.75"></polygon>
                                <path d="M3.29741379,18.6853448 L4.39655172,18.6853448 M3.29741379,23.0818966 L4.39655172,23.0818966 M3.29741379,27.4784483 L4.39655172,27.4784483 M3.29741379,31.875 L4.39655172,31.875 M3.29741379,36.2715517 L4.39655172,36.2715517 M3.29741379,40.6681034 L4.39655172,40.6681034 M3.29741379,45.0646552 L4.39655172,45.0646552 M3.29741379,49.4612069 L4.39655172,49.4612069 M3.29741379,53.8577586 L4.39655172,53.8577586 M3.29741379,58.2543103 L4.39655172,58.2543103" id="Stroke-241" stroke="#344F73" stroke-width="2" stroke-linecap="round"></path>
                                <path d="M13.1896552,18.6853448 L27.4784483,18.6853448 M31.875,18.6853448 L42.8663793,18.6853448 M47.262931,18.6853448 L49.4612069,18.6853448 M54.9568966,23.0818966 L38.4698276,23.0818966 M34.0732759,23.0818966 L18.6853448,23.0818966 M14.2887931,23.0818966 L13.1896552,23.0818966 M13.1896552,27.4784483 L23.0818966,27.4784483 M27.4784483,27.4784483 L29.6767241,27.4784483 M34.0732759,27.4784483 L49.4612069,27.4784483 M13.1896552,31.875 L27.4784483,31.875 M31.875,31.875 L42.8663793,31.875 M47.262931,36.2715517 L38.4698276,36.2715517 M34.0732759,36.2715517 L18.6853448,36.2715517 M14.2887931,36.2715517 L13.1896552,36.2715517 M13.1896552,40.6681034 L23.0818966,40.6681034 M27.4784483,40.6681034 L29.6767241,40.6681034 M34.0732759,40.6681034 L50.5603448,40.6681034 M13.1896552,45.0646552 L27.4784483,45.0646552 M31.875,45.0646552 L42.8663793,45.0646552 M47.262931,45.0646552 L54.9568966,45.0646552 M42.8663793,49.4612069 L38.4698276,49.4612069 M34.0732759,49.4612069 L18.6853448,49.4612069 M14.2887931,49.4612069 L13.1896552,49.4612069 M13.1896552,53.8577586 L23.0818966,53.8577586 M27.4784483,53.8577586 L29.6767241,53.8577586 M34.0732759,53.8577586 L41.7672414,53.8577586 M46.1637931,53.8577586 L47.262931,53.8577586" id="Stroke-250" stroke="#344F73" stroke-width="2" stroke-linecap="round"></path>
                                <path d="M9.89224138,6.59482759 C9.89224138,8.41609914 8.41609914,9.89224138 6.59482759,9.89224138 C4.77355603,9.89224138 3.29741379,8.41609914 3.29741379,6.59482759 C3.29741379,4.77355603 4.77355603,3.29741379 6.59482759,3.29741379 C8.41609914,3.29741379 9.89224138,4.77355603 9.89224138,6.59482759 L9.89224138,6.59482759 Z" id="Fill-1712"></path>
                                <path d="M9.89224138,6.59482759 C9.89224138,8.41609914 8.41609914,9.89224138 6.59482759,9.89224138 C4.77355603,9.89224138 3.29741379,8.41609914 3.29741379,6.59482759 C3.29741379,4.77355603 4.77355603,3.29741379 6.59482759,3.29741379 C8.41609914,3.29741379 9.89224138,4.77355603 9.89224138,6.59482759 L9.89224138,6.59482759 Z" id="Stroke-1713" stroke="#344F73" stroke-width="2"></path>
                                <path d="M19.7844828,6.59482759 C19.7844828,8.41609914 18.3083405,9.89224138 16.487069,9.89224138 C14.6657974,9.89224138 13.1896552,8.41609914 13.1896552,6.59482759 C13.1896552,4.77355603 14.6657974,3.29741379 16.487069,3.29741379 C18.3083405,3.29741379 19.7844828,4.77355603 19.7844828,6.59482759 L19.7844828,6.59482759 Z" id="Fill-1714"></path>
                                <path d="M19.7844828,6.59482759 C19.7844828,8.41609914 18.3083405,9.89224138 16.487069,9.89224138 C14.6657974,9.89224138 13.1896552,8.41609914 13.1896552,6.59482759 C13.1896552,4.77355603 14.6657974,3.29741379 16.487069,3.29741379 C18.3083405,3.29741379 19.7844828,4.77355603 19.7844828,6.59482759 L19.7844828,6.59482759 Z" id="Stroke-1715" stroke="#344F73" stroke-width="2"></path>
                                <path d="M29.6767241,6.59482759 C29.6767241,8.41609914 28.2005819,9.89224138 26.3793103,9.89224138 C24.5580388,9.89224138 23.0818966,8.41609914 23.0818966,6.59482759 C23.0818966,4.77355603 24.5580388,3.29741379 26.3793103,3.29741379 C28.2005819,3.29741379 29.6767241,4.77355603 29.6767241,6.59482759 L29.6767241,6.59482759 Z" id="Fill-1716"></path>
                                <path d="M29.6767241,6.59482759 C29.6767241,8.41609914 28.2005819,9.89224138 26.3793103,9.89224138 C24.5580388,9.89224138 23.0818966,8.41609914 23.0818966,6.59482759 C23.0818966,4.77355603 24.5580388,3.29741379 26.3793103,3.29741379 C28.2005819,3.29741379 29.6767241,4.77355603 29.6767241,6.59482759 L29.6767241,6.59482759 Z" id="Stroke-1717" stroke="#344F73" stroke-width="2"></path>
                            </g>
                            <g id="57-analitics-user-interface-communication-webby" transform="translate(45.254834, 256.078057) rotate(-45.000000) translate(-45.254834, -256.078057) translate(13.254834, 224.078057)">
                                <polygon id="Fill-207" points="0 0 63.75 0 63.75 63.75 0 63.75"></polygon>
                                <polygon id="Stroke-208" stroke="#344F73" stroke-width="2" points="0 0 63.75 0 63.75 63.75 0 63.75"></polygon>
                                <polygon id="Fill-209" points="0 0 63.75 0 63.75 13.1896552 0 13.1896552"></polygon>
                                <polygon id="Stroke-210" stroke="#344F73" stroke-width="2" points="0 0 63.75 0 63.75 13.1896552 0 13.1896552"></polygon>
                                <path d="M59.3534483,47.262931 L49.5942026,37.5036853 C48.9973707,38.1005172 48.1730172,38.4698276 47.262931,38.4698276 C46.3528448,38.4698276 45.5284914,38.1005172 44.9316595,37.5036853 L36.2715517,46.1637931 L30.9088578,40.8010991 C30.3120259,41.397931 29.4876724,41.7672414 28.5775862,41.7672414 C27.6675,41.7672414 26.8431466,41.397931 26.2463147,40.8010991 L16.487069,50.5603448 L10.0252371,44.0985129 C9.42840517,44.6953448 8.60405172,45.0646552 7.69396552,45.0646552 C6.78387931,45.0646552 5.95952586,44.6953448 5.36269397,44.0985129 L0,49.4612069 L0,63.75 L63.75,63.75 L63.75,42.8663793 L59.3534483,47.262931 L59.3534483,47.262931 Z" id="Fill-253"></path>
                                <path d="M59.3534483,47.262931 L49.5942026,37.5036853 C48.9973707,38.1005172 48.1730172,38.4698276 47.262931,38.4698276 C46.3528448,38.4698276 45.5284914,38.1005172 44.9316595,37.5036853 L36.2715517,46.1637931 L30.9088578,40.8010991 C30.3120259,41.397931 29.4876724,41.7672414 28.5775862,41.7672414 C27.6675,41.7672414 26.8431466,41.397931 26.2463147,40.8010991 L16.487069,50.5603448 L10.0252371,44.0985129 C9.42840517,44.6953448 8.60405172,45.0646552 7.69396552,45.0646552 C6.78387931,45.0646552 5.95952586,44.6953448 5.36269397,44.0985129 L0,49.4612069 L0,63.75 L63.75,63.75 L63.75,42.8663793 L59.3534483,47.262931 L59.3534483,47.262931 Z" id="Stroke-254" stroke="#344F73" stroke-width="2" stroke-linecap="round"></path>
                                <path d="M59.3534483,57.1551724 C58.7467241,57.1551724 58.2543103,56.6627586 58.2543103,56.0560345 C58.2543103,55.4493103 58.7467241,54.9568966 59.3534483,54.9568966 C59.9601724,54.9568966 60.4525862,55.4493103 60.4525862,56.0560345 C60.4525862,56.6627586 59.9601724,57.1551724 59.3534483,57.1551724" id="Fill-575"></path>
                                <path d="M62.6508621,53.8577586 C62.0441379,53.8577586 61.5517241,53.3653448 61.5517241,52.7586207 C61.5517241,52.1518966 62.0441379,51.6594828 62.6508621,51.6594828 C63.2575862,51.6594828 63.75,52.1518966 63.75,52.7586207 C63.75,53.3653448 63.2575862,53.8577586 62.6508621,53.8577586" id="Fill-576"></path>
                                <path d="M62.6508621,60.4525862 C62.0441379,60.4525862 61.5517241,59.9601724 61.5517241,59.3534483 C61.5517241,58.7467241 62.0441379,58.2543103 62.6508621,58.2543103 C63.2575862,58.2543103 63.75,58.7467241 63.75,59.3534483 C63.75,59.9601724 63.2575862,60.4525862 62.6508621,60.4525862" id="Fill-577"></path>
                                <path d="M56.0560345,53.8577586 C55.4493103,53.8577586 54.9568966,53.3653448 54.9568966,52.7586207 C54.9568966,52.1518966 55.4493103,51.6594828 56.0560345,51.6594828 C56.6627586,51.6594828 57.1551724,52.1518966 57.1551724,52.7586207 C57.1551724,53.3653448 56.6627586,53.8577586 56.0560345,53.8577586" id="Fill-578"></path>
                                <path d="M56.0560345,60.4525862 C55.4493103,60.4525862 54.9568966,59.9601724 54.9568966,59.3534483 C54.9568966,58.7467241 55.4493103,58.2543103 56.0560345,58.2543103 C56.6627586,58.2543103 57.1551724,58.7467241 57.1551724,59.3534483 C57.1551724,59.9601724 56.6627586,60.4525862 56.0560345,60.4525862" id="Fill-579"></path>
                                <path d="M59.3534483,63.75 C58.7467241,63.75 58.2543103,63.2575862 58.2543103,62.6508621 C58.2543103,62.0441379 58.7467241,61.5517241 59.3534483,61.5517241 C59.9601724,61.5517241 60.4525862,62.0441379 60.4525862,62.6508621 C60.4525862,63.2575862 59.9601724,63.75 59.3534483,63.75" id="Fill-580"></path>
                                <path d="M52.7586207,57.1551724 C52.1518966,57.1551724 51.6594828,56.6627586 51.6594828,56.0560345 C51.6594828,55.4493103 52.1518966,54.9568966 52.7586207,54.9568966 C53.3653448,54.9568966 53.8577586,55.4493103 53.8577586,56.0560345 C53.8577586,56.6627586 53.3653448,57.1551724 52.7586207,57.1551724" id="Fill-581"></path>
                                <path d="M49.4612069,53.8577586 C48.8544828,53.8577586 48.362069,53.3653448 48.362069,52.7586207 C48.362069,52.1518966 48.8544828,51.6594828 49.4612069,51.6594828 C50.067931,51.6594828 50.5603448,52.1518966 50.5603448,52.7586207 C50.5603448,53.3653448 50.067931,53.8577586 49.4612069,53.8577586" id="Fill-582"></path>
                                <path d="M49.4612069,60.4525862 C48.8544828,60.4525862 48.362069,59.9601724 48.362069,59.3534483 C48.362069,58.7467241 48.8544828,58.2543103 49.4612069,58.2543103 C50.067931,58.2543103 50.5603448,58.7467241 50.5603448,59.3534483 C50.5603448,59.9601724 50.067931,60.4525862 49.4612069,60.4525862" id="Fill-583"></path>
                                <path d="M52.7586207,63.75 C52.1518966,63.75 51.6594828,63.2575862 51.6594828,62.6508621 C51.6594828,62.0441379 52.1518966,61.5517241 52.7586207,61.5517241 C53.3653448,61.5517241 53.8577586,62.0441379 53.8577586,62.6508621 C53.8577586,63.2575862 53.3653448,63.75 52.7586207,63.75" id="Fill-584"></path>
                                <path d="M46.1637931,57.1551724 C45.557069,57.1551724 45.0646552,56.6627586 45.0646552,56.0560345 C45.0646552,55.4493103 45.557069,54.9568966 46.1637931,54.9568966 C46.7705172,54.9568966 47.262931,55.4493103 47.262931,56.0560345 C47.262931,56.6627586 46.7705172,57.1551724 46.1637931,57.1551724" id="Fill-585"></path>
                                <path d="M42.8663793,53.8577586 C42.2596552,53.8577586 41.7672414,53.3653448 41.7672414,52.7586207 C41.7672414,52.1518966 42.2596552,51.6594828 42.8663793,51.6594828 C43.4731034,51.6594828 43.9655172,52.1518966 43.9655172,52.7586207 C43.9655172,53.3653448 43.4731034,53.8577586 42.8663793,53.8577586" id="Fill-586"></path>
                                <path d="M42.8663793,60.4525862 C42.2596552,60.4525862 41.7672414,59.9601724 41.7672414,59.3534483 C41.7672414,58.7467241 42.2596552,58.2543103 42.8663793,58.2543103 C43.4731034,58.2543103 43.9655172,58.7467241 43.9655172,59.3534483 C43.9655172,59.9601724 43.4731034,60.4525862 42.8663793,60.4525862" id="Fill-587"></path>
                                <path d="M46.1637931,63.75 C45.557069,63.75 45.0646552,63.2575862 45.0646552,62.6508621 C45.0646552,62.0441379 45.557069,61.5517241 46.1637931,61.5517241 C46.7705172,61.5517241 47.262931,62.0441379 47.262931,62.6508621 C47.262931,63.2575862 46.7705172,63.75 46.1637931,63.75" id="Fill-588"></path>
                                <path d="M39.5689655,57.1551724 C38.9622414,57.1551724 38.4698276,56.6627586 38.4698276,56.0560345 C38.4698276,55.4493103 38.9622414,54.9568966 39.5689655,54.9568966 C40.1756897,54.9568966 40.6681034,55.4493103 40.6681034,56.0560345 C40.6681034,56.6627586 40.1756897,57.1551724 39.5689655,57.1551724" id="Fill-589"></path>
                                <path d="M36.2715517,53.8577586 C35.6648276,53.8577586 35.1724138,53.3653448 35.1724138,52.7586207 C35.1724138,52.1518966 35.6648276,51.6594828 36.2715517,51.6594828 C36.8782759,51.6594828 37.3706897,52.1518966 37.3706897,52.7586207 C37.3706897,53.3653448 36.8782759,53.8577586 36.2715517,53.8577586" id="Fill-590"></path>
                                <path d="M36.2715517,60.4525862 C35.6648276,60.4525862 35.1724138,59.9601724 35.1724138,59.3534483 C35.1724138,58.7467241 35.6648276,58.2543103 36.2715517,58.2543103 C36.8782759,58.2543103 37.3706897,58.7467241 37.3706897,59.3534483 C37.3706897,59.9601724 36.8782759,60.4525862 36.2715517,60.4525862" id="Fill-591"></path>
                                <path d="M39.5689655,63.75 C38.9622414,63.75 38.4698276,63.2575862 38.4698276,62.6508621 C38.4698276,62.0441379 38.9622414,61.5517241 39.5689655,61.5517241 C40.1756897,61.5517241 40.6681034,62.0441379 40.6681034,62.6508621 C40.6681034,63.2575862 40.1756897,63.75 39.5689655,63.75" id="Fill-592"></path>
                                <path d="M32.9741379,57.1551724 C32.3674138,57.1551724 31.875,56.6627586 31.875,56.0560345 C31.875,55.4493103 32.3674138,54.9568966 32.9741379,54.9568966 C33.5808621,54.9568966 34.0732759,55.4493103 34.0732759,56.0560345 C34.0732759,56.6627586 33.5808621,57.1551724 32.9741379,57.1551724" id="Fill-593"></path>
                                <path d="M29.6767241,53.8577586 C29.07,53.8577586 28.5775862,53.3653448 28.5775862,52.7586207 C28.5775862,52.1518966 29.07,51.6594828 29.6767241,51.6594828 C30.2834483,51.6594828 30.7758621,52.1518966 30.7758621,52.7586207 C30.7758621,53.3653448 30.2834483,53.8577586 29.6767241,53.8577586" id="Fill-594"></path>
                                <path d="M29.6767241,60.4525862 C29.07,60.4525862 28.5775862,59.9601724 28.5775862,59.3534483 C28.5775862,58.7467241 29.07,58.2543103 29.6767241,58.2543103 C30.2834483,58.2543103 30.7758621,58.7467241 30.7758621,59.3534483 C30.7758621,59.9601724 30.2834483,60.4525862 29.6767241,60.4525862" id="Fill-595"></path>
                                <path d="M32.9741379,63.75 C32.3674138,63.75 31.875,63.2575862 31.875,62.6508621 C31.875,62.0441379 32.3674138,61.5517241 32.9741379,61.5517241 C33.5808621,61.5517241 34.0732759,62.0441379 34.0732759,62.6508621 C34.0732759,63.2575862 33.5808621,63.75 32.9741379,63.75" id="Fill-596"></path>
                                <path d="M26.3793103,57.1551724 C25.7725862,57.1551724 25.2801724,56.6627586 25.2801724,56.0560345 C25.2801724,55.4493103 25.7725862,54.9568966 26.3793103,54.9568966 C26.9860345,54.9568966 27.4784483,55.4493103 27.4784483,56.0560345 C27.4784483,56.6627586 26.9860345,57.1551724 26.3793103,57.1551724" id="Fill-597"></path>
                                <path d="M23.0818966,53.8577586 C22.4751724,53.8577586 21.9827586,53.3653448 21.9827586,52.7586207 C21.9827586,52.1518966 22.4751724,51.6594828 23.0818966,51.6594828 C23.6886207,51.6594828 24.1810345,52.1518966 24.1810345,52.7586207 C24.1810345,53.3653448 23.6886207,53.8577586 23.0818966,53.8577586" id="Fill-598"></path>
                                <path d="M23.0818966,60.4525862 C22.4751724,60.4525862 21.9827586,59.9601724 21.9827586,59.3534483 C21.9827586,58.7467241 22.4751724,58.2543103 23.0818966,58.2543103 C23.6886207,58.2543103 24.1810345,58.7467241 24.1810345,59.3534483 C24.1810345,59.9601724 23.6886207,60.4525862 23.0818966,60.4525862" id="Fill-599"></path>
                                <path d="M26.3793103,63.75 C25.7725862,63.75 25.2801724,63.2575862 25.2801724,62.6508621 C25.2801724,62.0441379 25.7725862,61.5517241 26.3793103,61.5517241 C26.9860345,61.5517241 27.4784483,62.0441379 27.4784483,62.6508621 C27.4784483,63.2575862 26.9860345,63.75 26.3793103,63.75" id="Fill-600"></path>
                                <path d="M19.7844828,57.1551724 C19.1777586,57.1551724 18.6853448,56.6627586 18.6853448,56.0560345 C18.6853448,55.4493103 19.1777586,54.9568966 19.7844828,54.9568966 C20.3912069,54.9568966 20.8836207,55.4493103 20.8836207,56.0560345 C20.8836207,56.6627586 20.3912069,57.1551724 19.7844828,57.1551724" id="Fill-601"></path>
                                <path d="M16.487069,53.8577586 C15.8803448,53.8577586 15.387931,53.3653448 15.387931,52.7586207 C15.387931,52.1518966 15.8803448,51.6594828 16.487069,51.6594828 C17.0937931,51.6594828 17.5862069,52.1518966 17.5862069,52.7586207 C17.5862069,53.3653448 17.0937931,53.8577586 16.487069,53.8577586" id="Fill-602"></path>
                                <path d="M16.487069,60.4525862 C15.8803448,60.4525862 15.387931,59.9601724 15.387931,59.3534483 C15.387931,58.7467241 15.8803448,58.2543103 16.487069,58.2543103 C17.0937931,58.2543103 17.5862069,58.7467241 17.5862069,59.3534483 C17.5862069,59.9601724 17.0937931,60.4525862 16.487069,60.4525862" id="Fill-603"></path>
                                <path d="M19.7844828,63.75 C19.1777586,63.75 18.6853448,63.2575862 18.6853448,62.6508621 C18.6853448,62.0441379 19.1777586,61.5517241 19.7844828,61.5517241 C20.3912069,61.5517241 20.8836207,62.0441379 20.8836207,62.6508621 C20.8836207,63.2575862 20.3912069,63.75 19.7844828,63.75" id="Fill-604"></path>
                                <path d="M13.1896552,57.1551724 C12.582931,57.1551724 12.0905172,56.6627586 12.0905172,56.0560345 C12.0905172,55.4493103 12.582931,54.9568966 13.1896552,54.9568966 C13.7963793,54.9568966 14.2887931,55.4493103 14.2887931,56.0560345 C14.2887931,56.6627586 13.7963793,57.1551724 13.1896552,57.1551724" id="Fill-605"></path>
                                <path d="M9.89224138,53.8577586 C9.28551724,53.8577586 8.79310345,53.3653448 8.79310345,52.7586207 C8.79310345,52.1518966 9.28551724,51.6594828 9.89224138,51.6594828 C10.4989655,51.6594828 10.9913793,52.1518966 10.9913793,52.7586207 C10.9913793,53.3653448 10.4989655,53.8577586 9.89224138,53.8577586" id="Fill-606"></path>
                                <path d="M9.89224138,60.4525862 C9.28551724,60.4525862 8.79310345,59.9601724 8.79310345,59.3534483 C8.79310345,58.7467241 9.28551724,58.2543103 9.89224138,58.2543103 C10.4989655,58.2543103 10.9913793,58.7467241 10.9913793,59.3534483 C10.9913793,59.9601724 10.4989655,60.4525862 9.89224138,60.4525862" id="Fill-607"></path>
                                <path d="M13.1896552,63.75 C12.582931,63.75 12.0905172,63.2575862 12.0905172,62.6508621 C12.0905172,62.0441379 12.582931,61.5517241 13.1896552,61.5517241 C13.7963793,61.5517241 14.2887931,62.0441379 14.2887931,62.6508621 C14.2887931,63.2575862 13.7963793,63.75 13.1896552,63.75" id="Fill-608"></path>
                                <path d="M6.59482759,57.1551724 C5.98810345,57.1551724 5.49568966,56.6627586 5.49568966,56.0560345 C5.49568966,55.4493103 5.98810345,54.9568966 6.59482759,54.9568966 C7.20155172,54.9568966 7.69396552,55.4493103 7.69396552,56.0560345 C7.69396552,56.6627586 7.20155172,57.1551724 6.59482759,57.1551724" id="Fill-609"></path>
                                <path d="M3.29741379,60.4525862 C2.69068966,60.4525862 2.19827586,59.9601724 2.19827586,59.3534483 C2.19827586,58.7467241 2.69068966,58.2543103 3.29741379,58.2543103 C3.90413793,58.2543103 4.39655172,58.7467241 4.39655172,59.3534483 C4.39655172,59.9601724 3.90413793,60.4525862 3.29741379,60.4525862" id="Fill-611"></path>
                                <path d="M6.59482759,63.75 C5.98810345,63.75 5.49568966,63.2575862 5.49568966,62.6508621 C5.49568966,62.0441379 5.98810345,61.5517241 6.59482759,61.5517241 C7.20155172,61.5517241 7.69396552,62.0441379 7.69396552,62.6508621 C7.69396552,63.2575862 7.20155172,63.75 6.59482759,63.75" id="Fill-612"></path>
                                <path d="M62.6508621,47.262931 C62.0441379,47.262931 61.5517241,46.7705172 61.5517241,46.1637931 C61.5517241,45.557069 62.0441379,45.0646552 62.6508621,45.0646552 C63.2575862,45.0646552 63.75,45.557069 63.75,46.1637931 C63.75,46.7705172 63.2575862,47.262931 62.6508621,47.262931" id="Fill-613"></path>
                                <path d="M56.0560345,47.262931 C55.4493103,47.262931 54.9568966,46.7705172 54.9568966,46.1637931 C54.9568966,45.557069 55.4493103,45.0646552 56.0560345,45.0646552 C56.6627586,45.0646552 57.1551724,45.557069 57.1551724,46.1637931 C57.1551724,46.7705172 56.6627586,47.262931 56.0560345,47.262931" id="Fill-614"></path>
                                <path d="M59.3534483,50.5603448 C58.7467241,50.5603448 58.2543103,50.067931 58.2543103,49.4612069 C58.2543103,48.8544828 58.7467241,48.362069 59.3534483,48.362069 C59.9601724,48.362069 60.4525862,48.8544828 60.4525862,49.4612069 C60.4525862,50.067931 59.9601724,50.5603448 59.3534483,50.5603448" id="Fill-615"></path>
                                <path d="M52.7586207,43.9655172 C52.1518966,43.9655172 51.6594828,43.4731034 51.6594828,42.8663793 C51.6594828,42.2596552 52.1518966,41.7672414 52.7586207,41.7672414 C53.3653448,41.7672414 53.8577586,42.2596552 53.8577586,42.8663793 C53.8577586,43.4731034 53.3653448,43.9655172 52.7586207,43.9655172" id="Fill-616"></path>
                                <path d="M49.4612069,40.6681034 C48.8544828,40.6681034 48.362069,40.1756897 48.362069,39.5689655 C48.362069,38.9622414 48.8544828,38.4698276 49.4612069,38.4698276 C50.067931,38.4698276 50.5603448,38.9622414 50.5603448,39.5689655 C50.5603448,40.1756897 50.067931,40.6681034 49.4612069,40.6681034" id="Fill-617"></path>
                                <path d="M49.4612069,47.262931 C48.8544828,47.262931 48.362069,46.7705172 48.362069,46.1637931 C48.362069,45.557069 48.8544828,45.0646552 49.4612069,45.0646552 C50.067931,45.0646552 50.5603448,45.557069 50.5603448,46.1637931 C50.5603448,46.7705172 50.067931,47.262931 49.4612069,47.262931" id="Fill-618"></path>
                                <path d="M52.7586207,50.5603448 C52.1518966,50.5603448 51.6594828,50.067931 51.6594828,49.4612069 C51.6594828,48.8544828 52.1518966,48.362069 52.7586207,48.362069 C53.3653448,48.362069 53.8577586,48.8544828 53.8577586,49.4612069 C53.8577586,50.067931 53.3653448,50.5603448 52.7586207,50.5603448" id="Fill-619"></path>
                                <path d="M46.1637931,43.9655172 C45.557069,43.9655172 45.0646552,43.4731034 45.0646552,42.8663793 C45.0646552,42.2596552 45.557069,41.7672414 46.1637931,41.7672414 C46.7705172,41.7672414 47.262931,42.2596552 47.262931,42.8663793 C47.262931,43.4731034 46.7705172,43.9655172 46.1637931,43.9655172" id="Fill-620"></path>
                                <path d="M42.8663793,47.262931 C42.2596552,47.262931 41.7672414,46.7705172 41.7672414,46.1637931 C41.7672414,45.557069 42.2596552,45.0646552 42.8663793,45.0646552 C43.4731034,45.0646552 43.9655172,45.557069 43.9655172,46.1637931 C43.9655172,46.7705172 43.4731034,47.262931 42.8663793,47.262931" id="Fill-621"></path>
                                <path d="M46.1637931,50.5603448 C45.557069,50.5603448 45.0646552,50.067931 45.0646552,49.4612069 C45.0646552,48.8544828 45.557069,48.362069 46.1637931,48.362069 C46.7705172,48.362069 47.262931,48.8544828 47.262931,49.4612069 C47.262931,50.067931 46.7705172,50.5603448 46.1637931,50.5603448" id="Fill-622"></path>
                                <path d="M39.5689655,50.5603448 C38.9622414,50.5603448 38.4698276,50.067931 38.4698276,49.4612069 C38.4698276,48.8544828 38.9622414,48.362069 39.5689655,48.362069 C40.1756897,48.362069 40.6681034,48.8544828 40.6681034,49.4612069 C40.6681034,50.067931 40.1756897,50.5603448 39.5689655,50.5603448" id="Fill-623"></path>
                                <path d="M29.6767241,47.262931 C29.07,47.262931 28.5775862,46.7705172 28.5775862,46.1637931 C28.5775862,45.557069 29.07,45.0646552 29.6767241,45.0646552 C30.2834483,45.0646552 30.7758621,45.557069 30.7758621,46.1637931 C30.7758621,46.7705172 30.2834483,47.262931 29.6767241,47.262931" id="Fill-624"></path>
                                <path d="M32.9741379,50.5603448 C32.3674138,50.5603448 31.875,50.067931 31.875,49.4612069 C31.875,48.8544828 32.3674138,48.362069 32.9741379,48.362069 C33.5808621,48.362069 34.0732759,48.8544828 34.0732759,49.4612069 C34.0732759,50.067931 33.5808621,50.5603448 32.9741379,50.5603448" id="Fill-625"></path>
                                <path d="M26.3793103,43.9655172 C25.7725862,43.9655172 25.2801724,43.4731034 25.2801724,42.8663793 C25.2801724,42.2596552 25.7725862,41.7672414 26.3793103,41.7672414 C26.9860345,41.7672414 27.4784483,42.2596552 27.4784483,42.8663793 C27.4784483,43.4731034 26.9860345,43.9655172 26.3793103,43.9655172" id="Fill-626"></path>
                                <path d="M23.0818966,47.262931 C22.4751724,47.262931 21.9827586,46.7705172 21.9827586,46.1637931 C21.9827586,45.557069 22.4751724,45.0646552 23.0818966,45.0646552 C23.6886207,45.0646552 24.1810345,45.557069 24.1810345,46.1637931 C24.1810345,46.7705172 23.6886207,47.262931 23.0818966,47.262931" id="Fill-627"></path>
                                <path d="M26.3793103,50.5603448 C25.7725862,50.5603448 25.2801724,50.067931 25.2801724,49.4612069 C25.2801724,48.8544828 25.7725862,48.362069 26.3793103,48.362069 C26.9860345,48.362069 27.4784483,48.8544828 27.4784483,49.4612069 C27.4784483,50.067931 26.9860345,50.5603448 26.3793103,50.5603448" id="Fill-628"></path>
                                <path d="M19.7844828,50.5603448 C19.1777586,50.5603448 18.6853448,50.067931 18.6853448,49.4612069 C18.6853448,48.8544828 19.1777586,48.362069 19.7844828,48.362069 C20.3912069,48.362069 20.8836207,48.8544828 20.8836207,49.4612069 C20.8836207,50.067931 20.3912069,50.5603448 19.7844828,50.5603448" id="Fill-629"></path>
                                <path d="M13.1896552,50.5603448 C12.582931,50.5603448 12.0905172,50.067931 12.0905172,49.4612069 C12.0905172,48.8544828 12.582931,48.362069 13.1896552,48.362069 C13.7963793,48.362069 14.2887931,48.8544828 14.2887931,49.4612069 C14.2887931,50.067931 13.7963793,50.5603448 13.1896552,50.5603448" id="Fill-631"></path>
                                <path d="M31.875,38.4698276 C31.875,40.2910991 30.3988578,41.7672414 28.5775862,41.7672414 C26.7563147,41.7672414 25.2801724,40.2910991 25.2801724,38.4698276 C25.2801724,36.648556 26.7563147,35.1724138 28.5775862,35.1724138 C30.3988578,35.1724138 31.875,36.648556 31.875,38.4698276 L31.875,38.4698276 Z" id="Fill-1702"></path>
                                <path d="M31.875,38.4698276 C31.875,40.2910991 30.3988578,41.7672414 28.5775862,41.7672414 C26.7563147,41.7672414 25.2801724,40.2910991 25.2801724,38.4698276 C25.2801724,36.648556 26.7563147,35.1724138 28.5775862,35.1724138 C30.3988578,35.1724138 31.875,36.648556 31.875,38.4698276 L31.875,38.4698276 Z" id="Stroke-1703" stroke="#344F73" stroke-width="2" stroke-linecap="round"></path>
                                <path d="M50.5603448,35.1724138 C50.5603448,36.9936853 49.0842026,38.4698276 47.262931,38.4698276 C45.4416595,38.4698276 43.9655172,36.9936853 43.9655172,35.1724138 C43.9655172,33.3511422 45.4416595,31.875 47.262931,31.875 C49.0842026,31.875 50.5603448,33.3511422 50.5603448,35.1724138 L50.5603448,35.1724138 Z" id="Fill-1704"></path>
                                <path d="M50.5603448,35.1724138 C50.5603448,36.9936853 49.0842026,38.4698276 47.262931,38.4698276 C45.4416595,38.4698276 43.9655172,36.9936853 43.9655172,35.1724138 C43.9655172,33.3511422 45.4416595,31.875 47.262931,31.875 C49.0842026,31.875 50.5603448,33.3511422 50.5603448,35.1724138 L50.5603448,35.1724138 Z" id="Stroke-1705" stroke="#344F73" stroke-width="2" stroke-linecap="round"></path>
                            </g>
                            <g id="57-analitics-user-interface-communication-webby-copy" transform="translate(45.254834, 571.078057) rotate(-45.000000) translate(-45.254834, -571.078057) translate(13.254834, 539.078057)">
                                <polygon id="Fill-207" points="0 0 63.75 0 63.75 63.75 0 63.75"></polygon>
                                <polygon id="Stroke-208" stroke="#344F73" stroke-width="2" points="0 0 63.75 0 63.75 63.75 0 63.75"></polygon>
                                <polygon id="Fill-209" points="0 0 63.75 0 63.75 13.1896552 0 13.1896552"></polygon>
                                <polygon id="Stroke-210" stroke="#344F73" stroke-width="2" points="0 0 63.75 0 63.75 13.1896552 0 13.1896552"></polygon>
                                <path d="M59.3534483,47.262931 L49.5942026,37.5036853 C48.9973707,38.1005172 48.1730172,38.4698276 47.262931,38.4698276 C46.3528448,38.4698276 45.5284914,38.1005172 44.9316595,37.5036853 L36.2715517,46.1637931 L30.9088578,40.8010991 C30.3120259,41.397931 29.4876724,41.7672414 28.5775862,41.7672414 C27.6675,41.7672414 26.8431466,41.397931 26.2463147,40.8010991 L16.487069,50.5603448 L10.0252371,44.0985129 C9.42840517,44.6953448 8.60405172,45.0646552 7.69396552,45.0646552 C6.78387931,45.0646552 5.95952586,44.6953448 5.36269397,44.0985129 L0,49.4612069 L0,63.75 L63.75,63.75 L63.75,42.8663793 L59.3534483,47.262931 L59.3534483,47.262931 Z" id="Fill-253"></path>
                                <path d="M59.3534483,47.262931 L49.5942026,37.5036853 C48.9973707,38.1005172 48.1730172,38.4698276 47.262931,38.4698276 C46.3528448,38.4698276 45.5284914,38.1005172 44.9316595,37.5036853 L36.2715517,46.1637931 L30.9088578,40.8010991 C30.3120259,41.397931 29.4876724,41.7672414 28.5775862,41.7672414 C27.6675,41.7672414 26.8431466,41.397931 26.2463147,40.8010991 L16.487069,50.5603448 L10.0252371,44.0985129 C9.42840517,44.6953448 8.60405172,45.0646552 7.69396552,45.0646552 C6.78387931,45.0646552 5.95952586,44.6953448 5.36269397,44.0985129 L0,49.4612069 L0,63.75 L63.75,63.75 L63.75,42.8663793 L59.3534483,47.262931 L59.3534483,47.262931 Z" id="Stroke-254" stroke="#344F73" stroke-width="2" stroke-linecap="round"></path>
                                <path d="M59.3534483,57.1551724 C58.7467241,57.1551724 58.2543103,56.6627586 58.2543103,56.0560345 C58.2543103,55.4493103 58.7467241,54.9568966 59.3534483,54.9568966 C59.9601724,54.9568966 60.4525862,55.4493103 60.4525862,56.0560345 C60.4525862,56.6627586 59.9601724,57.1551724 59.3534483,57.1551724" id="Fill-575"></path>
                                <path d="M62.6508621,53.8577586 C62.0441379,53.8577586 61.5517241,53.3653448 61.5517241,52.7586207 C61.5517241,52.1518966 62.0441379,51.6594828 62.6508621,51.6594828 C63.2575862,51.6594828 63.75,52.1518966 63.75,52.7586207 C63.75,53.3653448 63.2575862,53.8577586 62.6508621,53.8577586" id="Fill-576"></path>
                                <path d="M62.6508621,60.4525862 C62.0441379,60.4525862 61.5517241,59.9601724 61.5517241,59.3534483 C61.5517241,58.7467241 62.0441379,58.2543103 62.6508621,58.2543103 C63.2575862,58.2543103 63.75,58.7467241 63.75,59.3534483 C63.75,59.9601724 63.2575862,60.4525862 62.6508621,60.4525862" id="Fill-577"></path>
                                <path d="M56.0560345,53.8577586 C55.4493103,53.8577586 54.9568966,53.3653448 54.9568966,52.7586207 C54.9568966,52.1518966 55.4493103,51.6594828 56.0560345,51.6594828 C56.6627586,51.6594828 57.1551724,52.1518966 57.1551724,52.7586207 C57.1551724,53.3653448 56.6627586,53.8577586 56.0560345,53.8577586" id="Fill-578"></path>
                                <path d="M62.6508621,47.262931 C62.0441379,47.262931 61.5517241,46.7705172 61.5517241,46.1637931 C61.5517241,45.557069 62.0441379,45.0646552 62.6508621,45.0646552 C63.2575862,45.0646552 63.75,45.557069 63.75,46.1637931 C63.75,46.7705172 63.2575862,47.262931 62.6508621,47.262931" id="Fill-613"></path>
                                <path d="M56.0560345,47.262931 C55.4493103,47.262931 54.9568966,46.7705172 54.9568966,46.1637931 C54.9568966,45.557069 55.4493103,45.0646552 56.0560345,45.0646552 C56.6627586,45.0646552 57.1551724,45.557069 57.1551724,46.1637931 C57.1551724,46.7705172 56.6627586,47.262931 56.0560345,47.262931" id="Fill-614"></path>
                                <path d="M59.3534483,50.5603448 C58.7467241,50.5603448 58.2543103,50.067931 58.2543103,49.4612069 C58.2543103,48.8544828 58.7467241,48.362069 59.3534483,48.362069 C59.9601724,48.362069 60.4525862,48.8544828 60.4525862,49.4612069 C60.4525862,50.067931 59.9601724,50.5603448 59.3534483,50.5603448" id="Fill-615"></path>
                                <path d="M52.7586207,43.9655172 C52.1518966,43.9655172 51.6594828,43.4731034 51.6594828,42.8663793 C51.6594828,42.2596552 52.1518966,41.7672414 52.7586207,41.7672414 C53.3653448,41.7672414 53.8577586,42.2596552 53.8577586,42.8663793 C53.8577586,43.4731034 53.3653448,43.9655172 52.7586207,43.9655172" id="Fill-616"></path>
                                <path d="M49.4612069,40.6681034 C48.8544828,40.6681034 48.362069,40.1756897 48.362069,39.5689655 C48.362069,38.9622414 48.8544828,38.4698276 49.4612069,38.4698276 C50.067931,38.4698276 50.5603448,38.9622414 50.5603448,39.5689655 C50.5603448,40.1756897 50.067931,40.6681034 49.4612069,40.6681034" id="Fill-617"></path>
                                <path d="M49.4612069,47.262931 C48.8544828,47.262931 48.362069,46.7705172 48.362069,46.1637931 C48.362069,45.557069 48.8544828,45.0646552 49.4612069,45.0646552 C50.067931,45.0646552 50.5603448,45.557069 50.5603448,46.1637931 C50.5603448,46.7705172 50.067931,47.262931 49.4612069,47.262931" id="Fill-618"></path>
                                <path d="M52.7586207,50.5603448 C52.1518966,50.5603448 51.6594828,50.067931 51.6594828,49.4612069 C51.6594828,48.8544828 52.1518966,48.362069 52.7586207,48.362069 C53.3653448,48.362069 53.8577586,48.8544828 53.8577586,49.4612069 C53.8577586,50.067931 53.3653448,50.5603448 52.7586207,50.5603448" id="Fill-619"></path>
                                <path d="M46.1637931,43.9655172 C45.557069,43.9655172 45.0646552,43.4731034 45.0646552,42.8663793 C45.0646552,42.2596552 45.557069,41.7672414 46.1637931,41.7672414 C46.7705172,41.7672414 47.262931,42.2596552 47.262931,42.8663793 C47.262931,43.4731034 46.7705172,43.9655172 46.1637931,43.9655172" id="Fill-620"></path>
                                <path d="M50.5603448,35.1724138 C50.5603448,36.9936853 49.0842026,38.4698276 47.262931,38.4698276 C45.4416595,38.4698276 43.9655172,36.9936853 43.9655172,35.1724138 C43.9655172,33.3511422 45.4416595,31.875 47.262931,31.875 C49.0842026,31.875 50.5603448,33.3511422 50.5603448,35.1724138 L50.5603448,35.1724138 Z" id="Fill-1704"></path>
                                <path d="M50.5603448,35.1724138 C50.5603448,36.9936853 49.0842026,38.4698276 47.262931,38.4698276 C45.4416595,38.4698276 43.9655172,36.9936853 43.9655172,35.1724138 C43.9655172,33.3511422 45.4416595,31.875 47.262931,31.875 C49.0842026,31.875 50.5603448,33.3511422 50.5603448,35.1724138 L50.5603448,35.1724138 Z" id="Stroke-1705" stroke="#344F73" stroke-width="2" stroke-linecap="round"></path>
                            </g>
                            <g id="77-slider-user-interface-communication-webby" transform="translate(150.254834, 256.078057) rotate(-45.000000) translate(-150.254834, -256.078057) translate(118.254834, 224.078057)">
                                <polygon id="Fill-1442" points="0 0 63.75 0 63.75 63.75 0 63.75"></polygon>
                                <polygon id="Stroke-1443" stroke="#344F73" stroke-width="2" points="0 0 63.75 0 63.75 63.75 0 63.75"></polygon>
                                <polygon id="Fill-1444" points="0 0 63.75 0 63.75 13.1896552 0 13.1896552"></polygon>
                                <polygon id="Stroke-1445" stroke="#344F73" stroke-width="2" points="0 0 63.75 0 63.75 13.1896552 0 13.1896552"></polygon>
                                <path d="M9.89224138,6.59482759 C9.89224138,8.41609914 8.41609914,9.89224138 6.59482759,9.89224138 C4.77355603,9.89224138 3.29741379,8.41609914 3.29741379,6.59482759 C3.29741379,4.77355603 4.77355603,3.29741379 6.59482759,3.29741379 C8.41609914,3.29741379 9.89224138,4.77355603 9.89224138,6.59482759 L9.89224138,6.59482759 Z" id="Fill-1446"></path>
                                <path d="M9.89224138,6.59482759 C9.89224138,8.41609914 8.41609914,9.89224138 6.59482759,9.89224138 C4.77355603,9.89224138 3.29741379,8.41609914 3.29741379,6.59482759 C3.29741379,4.77355603 4.77355603,3.29741379 6.59482759,3.29741379 C8.41609914,3.29741379 9.89224138,4.77355603 9.89224138,6.59482759 L9.89224138,6.59482759 Z" id="Stroke-1447" stroke="#344F73" stroke-width="2"></path>
                                <path d="M19.7844828,6.59482759 C19.7844828,8.41609914 18.3083405,9.89224138 16.487069,9.89224138 C14.6657974,9.89224138 13.1896552,8.41609914 13.1896552,6.59482759 C13.1896552,4.77355603 14.6657974,3.29741379 16.487069,3.29741379 C18.3083405,3.29741379 19.7844828,4.77355603 19.7844828,6.59482759 L19.7844828,6.59482759 Z" id="Fill-1448"></path>
                                <path d="M19.7844828,6.59482759 C19.7844828,8.41609914 18.3083405,9.89224138 16.487069,9.89224138 C14.6657974,9.89224138 13.1896552,8.41609914 13.1896552,6.59482759 C13.1896552,4.77355603 14.6657974,3.29741379 16.487069,3.29741379 C18.3083405,3.29741379 19.7844828,4.77355603 19.7844828,6.59482759 L19.7844828,6.59482759 Z" id="Stroke-1449" stroke="#344F73" stroke-width="2"></path>
                                <path d="M29.6767241,6.59482759 C29.6767241,8.41609914 28.2005819,9.89224138 26.3793103,9.89224138 C24.5580388,9.89224138 23.0818966,8.41609914 23.0818966,6.59482759 C23.0818966,4.77355603 24.5580388,3.29741379 26.3793103,3.29741379 C28.2005819,3.29741379 29.6767241,4.77355603 29.6767241,6.59482759 L29.6767241,6.59482759 Z" id="Fill-1450"></path>
                                <path d="M29.6767241,6.59482759 C29.6767241,8.41609914 28.2005819,9.89224138 26.3793103,9.89224138 C24.5580388,9.89224138 23.0818966,8.41609914 23.0818966,6.59482759 C23.0818966,4.77355603 24.5580388,3.29741379 26.3793103,3.29741379 C28.2005819,3.29741379 29.6767241,4.77355603 29.6767241,6.59482759 L29.6767241,6.59482759 Z" id="Stroke-1451" stroke="#344F73" stroke-width="2"></path>
                                <polygon id="Fill-1452" points="5.49568966 18.6853448 58.2543103 18.6853448 58.2543103 58.2543103 5.49568966 58.2543103"></polygon>
                                <polygon id="Stroke-1453" stroke="#344F73" stroke-width="2" points="5.49568966 18.6853448 58.2543103 18.6853448 58.2543103 58.2543103 5.49568966 58.2543103"></polygon>
                                <path d="M26.3793103,27.4784483 L37.3706897,27.4784483 M20.8836207,32.9741379 L42.8663793,32.9741379 M20.8836207,38.4698276 L42.8663793,38.4698276 M20.8836207,43.9655172 L42.8663793,43.9655172 M20.8836207,49.4612069 L42.8663793,49.4612069 M50.5603448,34.0732759 L54.9568966,38.4698276 L50.5603448,42.8663793 M13.1896552,34.0732759 L8.79310345,38.4698276 L13.1896552,42.8663793" id="Stroke-1454" stroke="#344F73" stroke-width="2" stroke-linecap="round"></path>
                            </g>
                            <g id="77-slider-user-interface-communication-webby-copy" transform="translate(150.254834, 571.078057) rotate(-45.000000) translate(-150.254834, -571.078057) translate(118.254834, 539.078057)">
                                <polygon id="Fill-1442" points="0 0 63.75 0 63.75 63.75 0 63.75"></polygon>
                                <polygon id="Stroke-1443" stroke="#344F73" stroke-width="2" points="0 0 63.75 0 63.75 63.75 0 63.75"></polygon>
                                <polygon id="Fill-1444" points="0 0 63.75 0 63.75 13.1896552 0 13.1896552"></polygon>
                                <polygon id="Stroke-1445" stroke="#344F73" stroke-width="2" points="0 0 63.75 0 63.75 13.1896552 0 13.1896552"></polygon>
                                <path d="M9.89224138,6.59482759 C9.89224138,8.41609914 8.41609914,9.89224138 6.59482759,9.89224138 C4.77355603,9.89224138 3.29741379,8.41609914 3.29741379,6.59482759 C3.29741379,4.77355603 4.77355603,3.29741379 6.59482759,3.29741379 C8.41609914,3.29741379 9.89224138,4.77355603 9.89224138,6.59482759 L9.89224138,6.59482759 Z" id="Fill-1446"></path>
                                <path d="M9.89224138,6.59482759 C9.89224138,8.41609914 8.41609914,9.89224138 6.59482759,9.89224138 C4.77355603,9.89224138 3.29741379,8.41609914 3.29741379,6.59482759 C3.29741379,4.77355603 4.77355603,3.29741379 6.59482759,3.29741379 C8.41609914,3.29741379 9.89224138,4.77355603 9.89224138,6.59482759 L9.89224138,6.59482759 Z" id="Stroke-1447" stroke="#344F73" stroke-width="2"></path>
                                <path d="M19.7844828,6.59482759 C19.7844828,8.41609914 18.3083405,9.89224138 16.487069,9.89224138 C14.6657974,9.89224138 13.1896552,8.41609914 13.1896552,6.59482759 C13.1896552,4.77355603 14.6657974,3.29741379 16.487069,3.29741379 C18.3083405,3.29741379 19.7844828,4.77355603 19.7844828,6.59482759 L19.7844828,6.59482759 Z" id="Fill-1448"></path>
                                <path d="M19.7844828,6.59482759 C19.7844828,8.41609914 18.3083405,9.89224138 16.487069,9.89224138 C14.6657974,9.89224138 13.1896552,8.41609914 13.1896552,6.59482759 C13.1896552,4.77355603 14.6657974,3.29741379 16.487069,3.29741379 C18.3083405,3.29741379 19.7844828,4.77355603 19.7844828,6.59482759 L19.7844828,6.59482759 Z" id="Stroke-1449" stroke="#344F73" stroke-width="2"></path>
                                <path d="M29.6767241,6.59482759 C29.6767241,8.41609914 28.2005819,9.89224138 26.3793103,9.89224138 C24.5580388,9.89224138 23.0818966,8.41609914 23.0818966,6.59482759 C23.0818966,4.77355603 24.5580388,3.29741379 26.3793103,3.29741379 C28.2005819,3.29741379 29.6767241,4.77355603 29.6767241,6.59482759 L29.6767241,6.59482759 Z" id="Fill-1450"></path>
                                <path d="M29.6767241,6.59482759 C29.6767241,8.41609914 28.2005819,9.89224138 26.3793103,9.89224138 C24.5580388,9.89224138 23.0818966,8.41609914 23.0818966,6.59482759 C23.0818966,4.77355603 24.5580388,3.29741379 26.3793103,3.29741379 C28.2005819,3.29741379 29.6767241,4.77355603 29.6767241,6.59482759 L29.6767241,6.59482759 Z" id="Stroke-1451" stroke="#344F73" stroke-width="2"></path>
                                <polygon id="Fill-1452" points="5.49568966 18.6853448 58.2543103 18.6853448 58.2543103 58.2543103 5.49568966 58.2543103"></polygon>
                                <polygon id="Stroke-1453" stroke="#344F73" stroke-width="2" points="5.49568966 18.6853448 58.2543103 18.6853448 58.2543103 58.2543103 5.49568966 58.2543103"></polygon>
                                <path d="M26.3793103,27.4784483 L37.3706897,27.4784483 M20.8836207,32.9741379 L42.8663793,32.9741379 M20.8836207,38.4698276 L42.8663793,38.4698276 M20.8836207,43.9655172 L42.8663793,43.9655172 M20.8836207,49.4612069 L42.8663793,49.4612069 M50.5603448,34.0732759 L54.9568966,38.4698276 L50.5603448,42.8663793 M13.1896552,34.0732759 L8.79310345,38.4698276 L13.1896552,42.8663793" id="Stroke-1454" stroke="#344F73" stroke-width="2" stroke-linecap="round"></path>
                            </g>
                            <g id="73-picture-content-user-interface-communication-webby" transform="translate(98.254834, 204.078057) rotate(-45.000000) translate(-98.254834, -204.078057) translate(66.254834, 172.078057)">
                                <polygon id="Fill-141" points="0 0 63.75 0 63.75 63.75 0 63.75"></polygon>
                                <polygon id="Stroke-142" stroke="#344F73" stroke-width="2" points="0 0 63.75 0 63.75 63.75 0 63.75"></polygon>
                                <path d="M21.9827586,29.7525647 C21.9827586,32.5256897 19.7339224,34.7745259 16.9607974,34.7745259 C14.1876724,34.7745259 11.9388362,32.5256897 11.9388362,29.7525647 C11.9388362,26.9794397 14.1876724,24.7306034 16.9607974,24.7306034 C19.7339224,24.7306034 21.9827586,26.9794397 21.9827586,29.7525647 L21.9827586,29.7525647 Z" id="Fill-1483"></path>
                                <path d="M21.9827586,29.7525647 C21.9827586,32.5256897 19.7339224,34.7745259 16.9607974,34.7745259 C14.1876724,34.7745259 11.9388362,32.5256897 11.9388362,29.7525647 C11.9388362,26.9794397 14.1876724,24.7306034 16.9607974,24.7306034 C19.7339224,24.7306034 21.9827586,26.9794397 21.9827586,29.7525647 L21.9827586,29.7525647 Z" id="Stroke-1484" stroke="#344F73" stroke-width="2"></path>
                                <polyline id="Fill-1804" points="5.49568966 53.8577586 5.49568966 58.2543103 58.2543103 58.2543103 58.2543103 46.1637931 41.7672414 31.875 30.7758621 43.9655172 24.1810345 38.4698276 5.49568966 53.8577586"></polyline>
                                <path d="M5.49568966,54.4073276 L24.1997198,37.938944 L36.2528664,49.9920905 M30.2262931,43.9655172 L41.7672414,31.325431 L58.2543103,47.262931" id="Stroke-1858" stroke="#344F73" stroke-width="2" stroke-linecap="round" stroke-linejoin="round"></path>
                                <polygon id="Stroke-1859" stroke="#344F73" stroke-width="2" points="5.49568966 18.6853448 58.2543103 18.6853448 58.2543103 58.2543103 5.49568966 58.2543103"></polygon>
                                <polygon id="Fill-1860" points="0 0 63.75 0 63.75 13.1896552 0 13.1896552"></polygon>
                                <polygon id="Stroke-1861" stroke="#344F73" stroke-width="2" points="0 0 63.75 0 63.75 13.1896552 0 13.1896552"></polygon>
                                <path d="M9.89224138,6.59482759 C9.89224138,8.41609914 8.41609914,9.89224138 6.59482759,9.89224138 C4.77355603,9.89224138 3.29741379,8.41609914 3.29741379,6.59482759 C3.29741379,4.77355603 4.77355603,3.29741379 6.59482759,3.29741379 C8.41609914,3.29741379 9.89224138,4.77355603 9.89224138,6.59482759 L9.89224138,6.59482759 Z" id="Fill-1862"></path>
                                <path d="M9.89224138,6.59482759 C9.89224138,8.41609914 8.41609914,9.89224138 6.59482759,9.89224138 C4.77355603,9.89224138 3.29741379,8.41609914 3.29741379,6.59482759 C3.29741379,4.77355603 4.77355603,3.29741379 6.59482759,3.29741379 C8.41609914,3.29741379 9.89224138,4.77355603 9.89224138,6.59482759 L9.89224138,6.59482759 Z" id="Stroke-1863" stroke="#344F73" stroke-width="2"></path>
                                <path d="M19.7844828,6.59482759 C19.7844828,8.41609914 18.3083405,9.89224138 16.487069,9.89224138 C14.6657974,9.89224138 13.1896552,8.41609914 13.1896552,6.59482759 C13.1896552,4.77355603 14.6657974,3.29741379 16.487069,3.29741379 C18.3083405,3.29741379 19.7844828,4.77355603 19.7844828,6.59482759 L19.7844828,6.59482759 Z" id="Fill-1864"></path>
                                <path d="M19.7844828,6.59482759 C19.7844828,8.41609914 18.3083405,9.89224138 16.487069,9.89224138 C14.6657974,9.89224138 13.1896552,8.41609914 13.1896552,6.59482759 C13.1896552,4.77355603 14.6657974,3.29741379 16.487069,3.29741379 C18.3083405,3.29741379 19.7844828,4.77355603 19.7844828,6.59482759 L19.7844828,6.59482759 Z" id="Stroke-1865" stroke="#344F73" stroke-width="2"></path>
                                <path d="M29.6767241,6.59482759 C29.6767241,8.41609914 28.2005819,9.89224138 26.3793103,9.89224138 C24.5580388,9.89224138 23.0818966,8.41609914 23.0818966,6.59482759 C23.0818966,4.77355603 24.5580388,3.29741379 26.3793103,3.29741379 C28.2005819,3.29741379 29.6767241,4.77355603 29.6767241,6.59482759 L29.6767241,6.59482759 Z" id="Fill-1866"></path>
                                <path d="M29.6767241,6.59482759 C29.6767241,8.41609914 28.2005819,9.89224138 26.3793103,9.89224138 C24.5580388,9.89224138 23.0818966,8.41609914 23.0818966,6.59482759 C23.0818966,4.77355603 24.5580388,3.29741379 26.3793103,3.29741379 C28.2005819,3.29741379 29.6767241,4.77355603 29.6767241,6.59482759 L29.6767241,6.59482759 Z" id="Stroke-1867" stroke="#344F73" stroke-width="2"></path>
                            </g>
                            <g id="73-picture-content-user-interface-communication-webby-copy" transform="translate(97.754834, 518.578057) rotate(-45.000000) translate(-97.754834, -518.578057) translate(65.754834, 486.578057)">
                                <polygon id="Fill-141" points="0 0 63.75 0 63.75 63.75 0 63.75"></polygon>
                                <polygon id="Stroke-142" stroke="#344F73" stroke-width="2" points="0 0 63.75 0 63.75 63.75 0 63.75"></polygon>
                                <path d="M21.9827586,29.7525647 C21.9827586,32.5256897 19.7339224,34.7745259 16.9607974,34.7745259 C14.1876724,34.7745259 11.9388362,32.5256897 11.9388362,29.7525647 C11.9388362,26.9794397 14.1876724,24.7306034 16.9607974,24.7306034 C19.7339224,24.7306034 21.9827586,26.9794397 21.9827586,29.7525647 L21.9827586,29.7525647 Z" id="Fill-1483"></path>
                                <path d="M21.9827586,29.7525647 C21.9827586,32.5256897 19.7339224,34.7745259 16.9607974,34.7745259 C14.1876724,34.7745259 11.9388362,32.5256897 11.9388362,29.7525647 C11.9388362,26.9794397 14.1876724,24.7306034 16.9607974,24.7306034 C19.7339224,24.7306034 21.9827586,26.9794397 21.9827586,29.7525647 L21.9827586,29.7525647 Z" id="Stroke-1484" stroke="#344F73" stroke-width="2"></path>
                                <polyline id="Fill-1804" points="5.49568966 53.8577586 5.49568966 58.2543103 58.2543103 58.2543103 58.2543103 46.1637931 41.7672414 31.875 30.7758621 43.9655172 24.1810345 38.4698276 5.49568966 53.8577586"></polyline>
                                <path d="M5.49568966,54.4073276 L24.1997198,37.938944 L36.2528664,49.9920905 M30.2262931,43.9655172 L41.7672414,31.325431 L58.2543103,47.262931" id="Stroke-1858" stroke="#344F73" stroke-width="2" stroke-linecap="round" stroke-linejoin="round"></path>
                                <polygon id="Stroke-1859" stroke="#344F73" stroke-width="2" points="5.49568966 18.6853448 58.2543103 18.6853448 58.2543103 58.2543103 5.49568966 58.2543103"></polygon>
                                <polygon id="Fill-1860" points="0 0 63.75 0 63.75 13.1896552 0 13.1896552"></polygon>
                                <polygon id="Stroke-1861" stroke="#344F73" stroke-width="2" points="0 0 63.75 0 63.75 13.1896552 0 13.1896552"></polygon>
                                <path d="M9.89224138,6.59482759 C9.89224138,8.41609914 8.41609914,9.89224138 6.59482759,9.89224138 C4.77355603,9.89224138 3.29741379,8.41609914 3.29741379,6.59482759 C3.29741379,4.77355603 4.77355603,3.29741379 6.59482759,3.29741379 C8.41609914,3.29741379 9.89224138,4.77355603 9.89224138,6.59482759 L9.89224138,6.59482759 Z" id="Fill-1862"></path>
                                <path d="M9.89224138,6.59482759 C9.89224138,8.41609914 8.41609914,9.89224138 6.59482759,9.89224138 C4.77355603,9.89224138 3.29741379,8.41609914 3.29741379,6.59482759 C3.29741379,4.77355603 4.77355603,3.29741379 6.59482759,3.29741379 C8.41609914,3.29741379 9.89224138,4.77355603 9.89224138,6.59482759 L9.89224138,6.59482759 Z" id="Stroke-1863" stroke="#344F73" stroke-width="2"></path>
                                <path d="M19.7844828,6.59482759 C19.7844828,8.41609914 18.3083405,9.89224138 16.487069,9.89224138 C14.6657974,9.89224138 13.1896552,8.41609914 13.1896552,6.59482759 C13.1896552,4.77355603 14.6657974,3.29741379 16.487069,3.29741379 C18.3083405,3.29741379 19.7844828,4.77355603 19.7844828,6.59482759 L19.7844828,6.59482759 Z" id="Fill-1864"></path>
                                <path d="M19.7844828,6.59482759 C19.7844828,8.41609914 18.3083405,9.89224138 16.487069,9.89224138 C14.6657974,9.89224138 13.1896552,8.41609914 13.1896552,6.59482759 C13.1896552,4.77355603 14.6657974,3.29741379 16.487069,3.29741379 C18.3083405,3.29741379 19.7844828,4.77355603 19.7844828,6.59482759 L19.7844828,6.59482759 Z" id="Stroke-1865" stroke="#344F73" stroke-width="2"></path>
                                <path d="M29.6767241,6.59482759 C29.6767241,8.41609914 28.2005819,9.89224138 26.3793103,9.89224138 C24.5580388,9.89224138 23.0818966,8.41609914 23.0818966,6.59482759 C23.0818966,4.77355603 24.5580388,3.29741379 26.3793103,3.29741379 C28.2005819,3.29741379 29.6767241,4.77355603 29.6767241,6.59482759 L29.6767241,6.59482759 Z" id="Fill-1866"></path>
                                <path d="M29.6767241,6.59482759 C29.6767241,8.41609914 28.2005819,9.89224138 26.3793103,9.89224138 C24.5580388,9.89224138 23.0818966,8.41609914 23.0818966,6.59482759 C23.0818966,4.77355603 24.5580388,3.29741379 26.3793103,3.29741379 C28.2005819,3.29741379 29.6767241,4.77355603 29.6767241,6.59482759 L29.6767241,6.59482759 Z" id="Stroke-1867" stroke="#344F73" stroke-width="2"></path>
                            </g>
                            <g id="98-search-engine-user-interface-communication-webby" transform="translate(45.254834, 151.078057) rotate(-45.000000) translate(-45.254834, -151.078057) translate(13.254834, 119.078057)">
                                <polygon id="Fill-47" points="0 0 63.75 0 63.75 63.75 0 63.75"></polygon>
                                <polygon id="Stroke-48" stroke="#344F73" stroke-width="2" points="0 0 63.75 0 63.75 63.75 0 63.75"></polygon>
                                <polygon id="Fill-49" points="0 0 63.75 0 63.75 13.1896552 0 13.1896552"></polygon>
                                <polygon id="Stroke-50" stroke="#344F73" stroke-width="2" points="0 0 63.75 0 63.75 13.1896552 0 13.1896552"></polygon>
                                <polygon id="Fill-51" points="10.9913793 29.6767241 46.1637931 29.6767241 46.1637931 36.2715517 10.9913793 36.2715517"></polygon>
                                <polygon id="Stroke-52" stroke="#344F73" stroke-width="2" points="10.9913793 29.6767241 46.1637931 29.6767241 46.1637931 36.2715517 10.9913793 36.2715517"></polygon>
                                <polygon id="Fill-56" points="46.1637931 29.6767241 52.7586207 29.6767241 52.7586207 36.2715517 46.1637931 36.2715517"></polygon>
                                <polygon id="Stroke-57" stroke="#344F73" stroke-width="2" points="46.1637931 29.6767241 52.7586207 29.6767241 52.7586207 36.2715517 46.1637931 36.2715517"></polygon>
                                <path d="M20.8836207,45.0646552 L29.6767241,45.0646552 M34.0732759,45.0646552 L42.8663793,45.0646552" id="Stroke-58" stroke="#344F73" stroke-width="2"></path>
                            </g>
                            <g id="98-search-engine-user-interface-communication-webby-copy" transform="translate(45.254834, 466.078057) rotate(-45.000000) translate(-45.254834, -466.078057) translate(13.254834, 434.078057)">
                                <polygon id="Fill-47" points="0 0 63.75 0 63.75 63.75 0 63.75"></polygon>
                                <polygon id="Stroke-48" stroke="#344F73" stroke-width="2" points="0 0 63.75 0 63.75 63.75 0 63.75"></polygon>
                                <polygon id="Fill-49" points="0 0 63.75 0 63.75 13.1896552 0 13.1896552"></polygon>
                                <polygon id="Stroke-50" stroke="#344F73" stroke-width="2" points="0 0 63.75 0 63.75 13.1896552 0 13.1896552"></polygon>
                                <polygon id="Fill-51" points="10.9913793 29.6767241 46.1637931 29.6767241 46.1637931 36.2715517 10.9913793 36.2715517"></polygon>
                                <polygon id="Stroke-52" stroke="#344F73" stroke-width="2" points="10.9913793 29.6767241 46.1637931 29.6767241 46.1637931 36.2715517 10.9913793 36.2715517"></polygon>
                                <polygon id="Fill-56" points="46.1637931 29.6767241 52.7586207 29.6767241 52.7586207 36.2715517 46.1637931 36.2715517"></polygon>
                                <polygon id="Stroke-57" stroke="#344F73" stroke-width="2" points="46.1637931 29.6767241 52.7586207 29.6767241 52.7586207 36.2715517 46.1637931 36.2715517"></polygon>
                                <path d="M20.8836207,45.0646552 L29.6767241,45.0646552 M34.0732759,45.0646552 L42.8663793,45.0646552" id="Stroke-58" stroke="#344F73" stroke-width="2"></path>
                            </g>
                            <g id="74-hero-video-header-user-interface-communication-webby" transform="translate(150.254834, 151.078057) rotate(-45.000000) translate(-150.254834, -151.078057) translate(118.254834, 119.078057)">
                                <polygon id="Fill-137" points="0 0 63.75 0 63.75 13.1896552 0 13.1896552"></polygon>
                                <polygon id="Stroke-138" stroke="#344F73" stroke-width="2" points="0 0 63.75 0 63.75 13.1896552 0 13.1896552"></polygon>
                                <polygon id="Fill-145" points="0 13.1896552 63.75 13.1896552 63.75 63.75 0 63.75"></polygon>
                                <polygon id="Stroke-146" stroke="#344F73" stroke-width="2" points="0 13.1896552 63.75 13.1896552 63.75 63.75 0 63.75"></polygon>
                                <polygon id="Stroke-147" stroke="#344F73" stroke-width="2" stroke-linecap="round" points="0 13.1896552 63.75 13.1896552 63.75 39.5689655 0 39.5689655"></polygon>
                                <path d="M9.89224138,6.59482759 C9.89224138,8.41609914 8.41609914,9.89224138 6.59482759,9.89224138 C4.77355603,9.89224138 3.29741379,8.41609914 3.29741379,6.59482759 C3.29741379,4.77355603 4.77355603,3.29741379 6.59482759,3.29741379 C8.41609914,3.29741379 9.89224138,4.77355603 9.89224138,6.59482759 L9.89224138,6.59482759 Z" id="Fill-1468"></path>
                                <path d="M9.89224138,6.59482759 C9.89224138,8.41609914 8.41609914,9.89224138 6.59482759,9.89224138 C4.77355603,9.89224138 3.29741379,8.41609914 3.29741379,6.59482759 C3.29741379,4.77355603 4.77355603,3.29741379 6.59482759,3.29741379 C8.41609914,3.29741379 9.89224138,4.77355603 9.89224138,6.59482759 L9.89224138,6.59482759 Z" id="Stroke-1469" stroke="#344F73" stroke-width="2"></path>
                                <path d="M19.7844828,6.59482759 C19.7844828,8.41609914 18.3083405,9.89224138 16.487069,9.89224138 C14.6657974,9.89224138 13.1896552,8.41609914 13.1896552,6.59482759 C13.1896552,4.77355603 14.6657974,3.29741379 16.487069,3.29741379 C18.3083405,3.29741379 19.7844828,4.77355603 19.7844828,6.59482759 L19.7844828,6.59482759 Z" id="Fill-1470"></path>
                                <path d="M19.7844828,6.59482759 C19.7844828,8.41609914 18.3083405,9.89224138 16.487069,9.89224138 C14.6657974,9.89224138 13.1896552,8.41609914 13.1896552,6.59482759 C13.1896552,4.77355603 14.6657974,3.29741379 16.487069,3.29741379 C18.3083405,3.29741379 19.7844828,4.77355603 19.7844828,6.59482759 L19.7844828,6.59482759 Z" id="Stroke-1471" stroke="#344F73" stroke-width="2"></path>
                                <path d="M29.6767241,6.59482759 C29.6767241,8.41609914 28.2005819,9.89224138 26.3793103,9.89224138 C24.5580388,9.89224138 23.0818966,8.41609914 23.0818966,6.59482759 C23.0818966,4.77355603 24.5580388,3.29741379 26.3793103,3.29741379 C28.2005819,3.29741379 29.6767241,4.77355603 29.6767241,6.59482759 L29.6767241,6.59482759 Z" id="Fill-1472"></path>
                                <path d="M29.6767241,6.59482759 C29.6767241,8.41609914 28.2005819,9.89224138 26.3793103,9.89224138 C24.5580388,9.89224138 23.0818966,8.41609914 23.0818966,6.59482759 C23.0818966,4.77355603 24.5580388,3.29741379 26.3793103,3.29741379 C28.2005819,3.29741379 29.6767241,4.77355603 29.6767241,6.59482759 L29.6767241,6.59482759 Z" id="Stroke-1473" stroke="#344F73" stroke-width="2"></path>
                                <polygon id="Fill-1474" points="6.59482759 43.9655172 19.7844828 43.9655172 19.7844828 49.4612069 6.59482759 49.4612069"></polygon>
                                <polygon id="Stroke-1475" stroke="#344F73" stroke-width="2" stroke-linecap="round" points="6.59482759 43.9655172 19.7844828 43.9655172 19.7844828 49.4612069 6.59482759 49.4612069"></polygon>
                                <polygon id="Fill-1476" points="43.9655172 43.9655172 57.1551724 43.9655172 57.1551724 49.4612069 43.9655172 49.4612069"></polygon>
                                <polygon id="Stroke-1477" stroke="#344F73" stroke-width="2" stroke-linecap="round" points="43.9655172 43.9655172 57.1551724 43.9655172 57.1551724 49.4612069 43.9655172 49.4612069"></polygon>
                                <polygon id="Fill-1478" points="25.2801724 43.9655172 38.4698276 43.9655172 38.4698276 49.4612069 25.2801724 49.4612069"></polygon>
                                <polygon id="Stroke-1479" stroke="#344F73" stroke-width="2" stroke-linecap="round" points="25.2801724 43.9655172 38.4698276 43.9655172 38.4698276 49.4612069 25.2801724 49.4612069"></polygon>
                                <path d="M6.59482759,53.8577586 L19.7844828,53.8577586 M6.59482759,58.2543103 L19.7844828,58.2543103 M25.2801724,53.8577586 L38.4698276,53.8577586 M25.2801724,58.2543103 L38.4698276,58.2543103 M43.9655172,53.8577586 L57.1551724,53.8577586 M43.9655172,58.2543103 L57.1551724,58.2543103" id="Stroke-1480" stroke="#344F73" stroke-width="2" stroke-linecap="round"></path>
                                <path d="M28.5775862,29.8130172 L28.5775862,22.9456034 C28.5775862,22.3157974 29.2590517,21.9212069 29.8042241,22.2344612 L35.7373707,25.6428879 C36.2836422,25.9561422 36.2858405,26.743125 35.7417672,27.0607759 L29.8097198,30.5208621 C29.2634483,30.8396121 28.5775862,30.4450216 28.5775862,29.8130172 L28.5775862,29.8130172 Z" id="Fill-1481"></path>
                                <path d="M28.5775862,29.8130172 L28.5775862,22.9456034 C28.5775862,22.3157974 29.2590517,21.9212069 29.8042241,22.2344612 L35.7373707,25.6428879 C36.2836422,25.9561422 36.2858405,26.743125 35.7417672,27.0607759 L29.8097198,30.5208621 C29.2634483,30.8396121 28.5775862,30.4450216 28.5775862,29.8130172 L28.5775862,29.8130172 Z" id="Stroke-1482" stroke="#344F73" stroke-width="2" stroke-linecap="round"></path>
                            </g>
                            <g id="74-hero-video-header-user-interface-communication-webby-copy" transform="translate(150.254834, 466.078057) rotate(-45.000000) translate(-150.254834, -466.078057) translate(118.254834, 434.078057)">
                                <polygon id="Fill-137" points="0 0 63.75 0 63.75 13.1896552 0 13.1896552"></polygon>
                                <polygon id="Stroke-138" stroke="#344F73" stroke-width="2" points="0 0 63.75 0 63.75 13.1896552 0 13.1896552"></polygon>
                                <polygon id="Fill-145" points="0 13.1896552 63.75 13.1896552 63.75 63.75 0 63.75"></polygon>
                                <polygon id="Stroke-146" stroke="#344F73" stroke-width="2" points="0 13.1896552 63.75 13.1896552 63.75 63.75 0 63.75"></polygon>
                                <polygon id="Stroke-147" stroke="#344F73" stroke-width="2" stroke-linecap="round" points="0 13.1896552 63.75 13.1896552 63.75 39.5689655 0 39.5689655"></polygon>
                                <path d="M9.89224138,6.59482759 C9.89224138,8.41609914 8.41609914,9.89224138 6.59482759,9.89224138 C4.77355603,9.89224138 3.29741379,8.41609914 3.29741379,6.59482759 C3.29741379,4.77355603 4.77355603,3.29741379 6.59482759,3.29741379 C8.41609914,3.29741379 9.89224138,4.77355603 9.89224138,6.59482759 L9.89224138,6.59482759 Z" id="Fill-1468"></path>
                                <path d="M9.89224138,6.59482759 C9.89224138,8.41609914 8.41609914,9.89224138 6.59482759,9.89224138 C4.77355603,9.89224138 3.29741379,8.41609914 3.29741379,6.59482759 C3.29741379,4.77355603 4.77355603,3.29741379 6.59482759,3.29741379 C8.41609914,3.29741379 9.89224138,4.77355603 9.89224138,6.59482759 L9.89224138,6.59482759 Z" id="Stroke-1469" stroke="#344F73" stroke-width="2"></path>
                                <path d="M19.7844828,6.59482759 C19.7844828,8.41609914 18.3083405,9.89224138 16.487069,9.89224138 C14.6657974,9.89224138 13.1896552,8.41609914 13.1896552,6.59482759 C13.1896552,4.77355603 14.6657974,3.29741379 16.487069,3.29741379 C18.3083405,3.29741379 19.7844828,4.77355603 19.7844828,6.59482759 L19.7844828,6.59482759 Z" id="Fill-1470"></path>
                                <path d="M19.7844828,6.59482759 C19.7844828,8.41609914 18.3083405,9.89224138 16.487069,9.89224138 C14.6657974,9.89224138 13.1896552,8.41609914 13.1896552,6.59482759 C13.1896552,4.77355603 14.6657974,3.29741379 16.487069,3.29741379 C18.3083405,3.29741379 19.7844828,4.77355603 19.7844828,6.59482759 L19.7844828,6.59482759 Z" id="Stroke-1471" stroke="#344F73" stroke-width="2"></path>
                                <path d="M29.6767241,6.59482759 C29.6767241,8.41609914 28.2005819,9.89224138 26.3793103,9.89224138 C24.5580388,9.89224138 23.0818966,8.41609914 23.0818966,6.59482759 C23.0818966,4.77355603 24.5580388,3.29741379 26.3793103,3.29741379 C28.2005819,3.29741379 29.6767241,4.77355603 29.6767241,6.59482759 L29.6767241,6.59482759 Z" id="Fill-1472"></path>
                                <path d="M29.6767241,6.59482759 C29.6767241,8.41609914 28.2005819,9.89224138 26.3793103,9.89224138 C24.5580388,9.89224138 23.0818966,8.41609914 23.0818966,6.59482759 C23.0818966,4.77355603 24.5580388,3.29741379 26.3793103,3.29741379 C28.2005819,3.29741379 29.6767241,4.77355603 29.6767241,6.59482759 L29.6767241,6.59482759 Z" id="Stroke-1473" stroke="#344F73" stroke-width="2"></path>
                                <polygon id="Fill-1474" points="6.59482759 43.9655172 19.7844828 43.9655172 19.7844828 49.4612069 6.59482759 49.4612069"></polygon>
                                <polygon id="Stroke-1475" stroke="#344F73" stroke-width="2" stroke-linecap="round" points="6.59482759 43.9655172 19.7844828 43.9655172 19.7844828 49.4612069 6.59482759 49.4612069"></polygon>
                                <polygon id="Fill-1476" points="43.9655172 43.9655172 57.1551724 43.9655172 57.1551724 49.4612069 43.9655172 49.4612069"></polygon>
                                <polygon id="Stroke-1477" stroke="#344F73" stroke-width="2" stroke-linecap="round" points="43.9655172 43.9655172 57.1551724 43.9655172 57.1551724 49.4612069 43.9655172 49.4612069"></polygon>
                                <polygon id="Fill-1478" points="25.2801724 43.9655172 38.4698276 43.9655172 38.4698276 49.4612069 25.2801724 49.4612069"></polygon>
                                <polygon id="Stroke-1479" stroke="#344F73" stroke-width="2" stroke-linecap="round" points="25.2801724 43.9655172 38.4698276 43.9655172 38.4698276 49.4612069 25.2801724 49.4612069"></polygon>
                                <path d="M6.59482759,53.8577586 L19.7844828,53.8577586 M6.59482759,58.2543103 L19.7844828,58.2543103 M25.2801724,53.8577586 L38.4698276,53.8577586 M25.2801724,58.2543103 L38.4698276,58.2543103 M43.9655172,53.8577586 L57.1551724,53.8577586 M43.9655172,58.2543103 L57.1551724,58.2543103" id="Stroke-1480" stroke="#344F73" stroke-width="2" stroke-linecap="round"></path>
                                <path d="M28.5775862,29.8130172 L28.5775862,22.9456034 C28.5775862,22.3157974 29.2590517,21.9212069 29.8042241,22.2344612 L35.7373707,25.6428879 C36.2836422,25.9561422 36.2858405,26.743125 35.7417672,27.0607759 L29.8097198,30.5208621 C29.2634483,30.8396121 28.5775862,30.4450216 28.5775862,29.8130172 L28.5775862,29.8130172 Z" id="Fill-1481"></path>
                                <path d="M28.5775862,29.8130172 L28.5775862,22.9456034 C28.5775862,22.3157974 29.2590517,21.9212069 29.8042241,22.2344612 L35.7373707,25.6428879 C36.2836422,25.9561422 36.2858405,26.743125 35.7417672,27.0607759 L29.8097198,30.5208621 C29.2634483,30.8396121 28.5775862,30.4450216 28.5775862,29.8130172 L28.5775862,29.8130172 Z" id="Stroke-1482" stroke="#344F73" stroke-width="2" stroke-linecap="round"></path>
                            </g>
                        </g>
                    </g>
                </g>
            </g>
        </g>
    </g>
</svg>