<svg id="Layer_1" xmlns="http://www.w3.org/2000/svg" xmlns:xlink="http://www.w3.org/1999/xlink" viewBox="-611 423 217 55" style="enable-background:new -611 423 217 55;" xml:space="preserve">
<style type="text/css">
    .st0{fill:#FBB040;}
    .st1{fill:#FFFFFF;}
</style>
            <g id="Group">
                <path class="st0" id="Combined-Shape" d="M-556.4,450.6c0,15.1-12.1,27.3-27.1,27.3c-15,0-27.1-12.2-27.1-27.3
                    c0-15.1,12.1-27.3,27.1-27.3C-568.6,423.3-556.4,435.5-556.4,450.6z M-570.2,451.1l-1.9-3l3.9-5.3l-10.8,5l-0.2-1.5l3.2-4.9
                    l-0.5-0.8l1.5-5.8l-5.7,5.7l-0.3-3.1l1.7-4.7l-2.3,0.7l-2-5.8l-2,5.8l-2.3-0.7l1.7,4.7l-0.3,3.1l-5.7-5.7l1.5,5.8l-0.5,0.8
                    l3.2,4.9l-0.2,1.5l-10.8-5l3.9,5.3l-1.9,3l8.3,4l0.1,1.3l-6.3-1.9l3.2,3.8l0.3,1.2l3.9,1.6l0.4,1.1l-1.7-0.7l4.7,5.2l0.2,4.4
                    v3.8h0.8V471l0.2-4.3l4.7-5.2l-1.7,0.7l0.4-1.1l3.9-1.6l0.3-1.2l3.2-3.8l-6.3,1.9l0.1-1.3L-570.2,451.1z"></path>
            </g>
            <path class="st1" id="Fill-1" d="M-417.9,461.1c-2.5,0-3.7-2.3-3.7-4.6c0-3.3,1.8-4.7,3.7-4.7c2.2,0,3.7,1.9,3.7,4.7
                C-414.2,459.5-415.9,461.1-417.9,461.1L-417.9,461.1z M-441.1,460.5c-3.9,0-7.1-3.4-7.1-7.9c0-4.3,3.2-7.6,7.1-7.6
                c3.9,0,7.1,3.3,7.1,7.6C-434,457.1-437.2,460.5-441.1,460.5L-441.1,460.5z M-477.7,461.1c-2.3,0-4.3-1.7-4.3-4.6
                c0-2.9,2-4.7,4.3-4.7c2.3,0,4.3,1.8,4.3,4.7C-473.4,459.4-475.4,461.1-477.7,461.1L-477.7,461.1z M-402.9,452.6
                c0-0.7,0.9-0.9,1.9-0.9c2.6,0,4.5,1.6,4.5,1.6l2.2-4.6c0,0-2.2-2.2-6.7-2.2c-4.1,0-7.3,1.9-7.7,5.1c-1.3-3.1-4-5.1-7.6-5.1
                c-4,0-5.7,2.6-5.7,2.6h-0.1c0,0,0.1-0.6,0.1-1.2v-1h-5.7v2.3c-1.4-5.9-6.6-10.1-13.3-10.1c-6.3,0-11.3,3.8-13,9.1v-1.5
                c0,0-0.4-0.1-0.7-0.1c-2.8,0-5.2,2.2-6,4.7h-0.1c0,0,0.1-0.6,0.1-1.2v-3.2h-6.1v9.6c0-6-4.8-10-10.8-10c-5.9,0-10.7,4-10.7,10
                c0,1.5,0.3,2.8,0.8,4c-0.1,0-0.4,0-0.7,0c-1.2,0-3.4-0.3-3.4-2.4v-5.9h4v-5h-4v-5.5h-6.2v5.5h-2.6v1.1c-1.2-0.8-3.3-1.8-6.3-1.8
                c-5.1,0-8.4,2.7-9.8,6.2v-5.7h-6.4V466h6.4v-5.7c1.4,3.5,4.8,6.1,9.8,6.1c5.3,0,8.1-3.2,8.1-3.2l-2.3-4.5c0,0-2.5,2.3-5.2,2.3
                c-3.2,0-4.7-2.5-4.7-4.7c0-2.3,1.5-4.6,4.5-4.6c2.6,0,4.4,1.9,4.4,1.9l1.5-2.4v0.9h2.4v6.7c0,6.4,5.8,7.2,8.9,7.2
                c1,0,1.7-0.1,1.7-0.1v-5.2c1.7,3.5,5.4,5.6,9.7,5.6c5.9,0,10.7-4,10.7-9.9v9.5h6.4v-7.2c0-1,0.1-1.9,0.3-2.6
                c0.9-2.9,3.4-3.3,4.9-3.3c0.2,0,0.4,0,0.6,0c0.1,7.7,5.9,13.6,13.7,13.6c6.7,0,11.9-4.3,13.3-10.4v17.4h6.4v-7.2
                c0-1-0.1-1.6-0.1-1.6h0.1c0,0,1.7,1.8,4.8,1.8c5,0,8.8-3.9,8.8-10c0-0.4,0-0.7,0-1.1c2.3,3.3,7.9,3.6,7.9,5
                c0,0.6-0.9,0.9-1.9,0.9c-2.7,0-4.8-1.9-4.8-1.9l-2.7,4.3c0,0,2.8,2.8,7.6,2.8c4.9,0,7.8-2.8,7.8-6
                C-394,454.2-402.9,454-402.9,452.6L-402.9,452.6z M-522.9,444.5h6.2v-5h-12l-4.7,15.1c-0.5,1.7-1,4.3-1,4.3h-0.1
                c0,0-0.5-2.6-1-4.3l-4.6-15.1h-7l9.3,26.5h6.7l8.2-23.4V444.5z"></path>

</svg>
